<?xml version="1.0" encoding="iso-8859-1"?>
<!-- Generator: Adobe Illustrator 28.3.0, SVG Export Plug-In . SVG Version: 6.00 Build 0)  -->
<svg version="1.1" id="Layer_1" xmlns="http://www.w3.org/2000/svg" xmlns:xlink="http://www.w3.org/1999/xlink" x="0px" y="0px"
	 width="110px" height="110px" viewBox="0 0 110 110" enable-background="new 0 0 110 110" xml:space="preserve">
<g>
	<polygon points="9.698,64.99 9.027,64.99 9.027,65.259 9.698,65.259 9.698,64.99 	"/>
	<polygon points="11.711,67.411 12.383,67.411 12.383,67.142 11.711,67.142 11.711,67.411 	"/>
	<polygon points="23.121,71.984 23.792,71.984 23.792,71.715 23.121,71.715 23.121,71.984 	"/>
	<polygon points="11.711,66.604 12.383,66.604 12.383,66.335 11.711,66.335 11.711,66.604 	"/>
	<polygon points="9.698,66.066 10.369,66.066 10.369,65.797 9.698,65.797 9.698,66.066 	"/>
	<polygon points="7.013,51.004 6.342,51.004 6.342,51.811 7.013,51.811 7.013,51.004 	"/>
	<polygon points="6.342,52.08 5.671,52.08 5.671,53.155 6.342,53.155 6.342,52.08 	"/>
	<polygon points="5.671,59.342 6.342,59.342 6.342,58.535 5.671,58.535 5.671,59.342 	"/>
	<polygon points="5.671,53.424 5,53.424 5,57.728 5.671,57.728 5.671,53.424 	"/>
	<polygon points="5.671,57.997 5,57.997 5,58.266 5.671,58.266 5.671,57.997 	"/>
	<polygon points="7.685,49.928 7.013,49.928 7.013,50.735 7.685,50.735 7.685,49.928 	"/>
	<polygon points="16.409,42.934 16.409,43.203 17.752,43.203 17.752,42.934 16.409,42.934 	"/>
	<polygon points="16.409,43.472 15.738,43.472 15.738,43.741 16.409,43.741 16.409,43.472 	"/>
	<polygon points="27.819,39.438 28.49,39.438 28.49,39.169 27.148,39.169 27.148,39.438 26.477,39.438 26.477,39.707 27.819,39.707 
		27.819,39.438 	"/>
	<polygon points="104.329,52.618 103.658,52.618 103.658,52.887 104.329,52.887 104.329,52.618 	"/>
	<polygon points="71.443,37.017 70.101,37.017 70.101,37.286 71.443,37.286 71.443,37.017 	"/>
	<polygon points="11.711,46.162 12.383,46.162 12.383,45.893 11.711,45.893 11.711,46.162 	"/>
	<polygon points="27.148,72.522 28.49,72.522 28.49,72.253 27.148,72.253 27.148,72.522 	"/>
	<polygon points="27.819,73.329 28.49,73.329 28.49,73.06 27.819,73.06 27.819,73.329 	"/>
	<polygon points="12.383,45.355 12.383,45.893 13.054,45.893 13.054,45.355 12.383,45.355 	"/>
	<polygon points="27.819,73.866 28.49,73.866 28.49,73.598 27.819,73.598 27.819,73.866 	"/>
	<polygon points="11.711,45.086 11.711,45.355 12.383,45.355 12.383,45.086 11.711,45.086 	"/>
	<polygon points="13.725,45.086 13.054,45.086 13.054,45.355 13.725,45.355 13.725,45.086 	"/>
	<polygon points="28.49,38.362 27.819,38.362 27.819,38.631 28.49,38.631 28.49,38.362 	"/>
	<polygon points="37.215,36.21 36.544,36.21 36.544,36.479 37.215,36.479 37.215,36.21 	"/>
	<polygon points="28.49,37.824 27.819,37.824 27.819,38.093 28.49,38.093 28.49,37.824 	"/>
	<polygon points="12.383,44.279 11.711,44.279 11.711,44.548 12.383,44.548 12.383,44.279 	"/>
	<polygon points="20.436,39.707 19.765,39.707 19.765,39.976 20.436,39.976 20.436,39.707 	"/>
	<polygon points="8.356,49.121 7.685,49.121 7.685,49.928 8.356,49.928 8.356,49.121 	"/>
	<polygon points="53.322,35.941 48.624,35.941 48.624,36.21 53.322,36.21 53.322,35.941 	"/>
	<polygon points="57.349,35.941 53.993,35.941 53.993,36.21 57.349,36.21 57.349,35.941 	"/>
	<polygon points="11.711,46.431 11.04,46.431 11.04,46.7 11.711,46.7 11.711,46.431 	"/>
	<polygon points="39.228,36.21 38.557,36.21 38.557,36.479 39.228,36.479 39.228,36.21 	"/>
	<polygon points="47.282,36.21 46.611,36.21 46.611,36.479 47.282,36.479 47.282,36.21 	"/>
	<polygon points="10.369,47.238 11.04,47.238 11.04,46.7 10.369,46.7 10.369,47.238 	"/>
	<polygon points="26.477,39.707 25.805,39.707 25.805,39.976 26.477,39.976 26.477,39.707 	"/>
	<polygon points="9.698,46.431 9.027,46.431 9.027,46.7 9.698,46.7 9.698,46.431 	"/>
	<polygon points="9.027,48.583 8.356,48.583 8.356,49.121 9.027,49.121 9.027,48.583 	"/>
	<polygon points="9.698,48.045 9.027,48.045 9.027,48.314 9.698,48.314 9.698,48.045 	"/>
	<polygon points="10.369,45.624 9.698,45.624 9.698,45.893 10.369,45.893 10.369,45.624 	"/>
	<polygon points="93.591,41.859 92.919,41.859 92.919,42.128 93.591,42.128 93.591,41.859 	"/>
	<polygon points="92.248,42.397 91.577,42.397 91.577,42.666 92.248,42.666 92.248,42.397 	"/>
	<polygon points="9.698,47.776 10.369,47.776 10.369,47.238 9.698,47.238 9.698,47.776 	"/>
	<polygon points="104.329,53.424 103.658,53.424 103.658,53.693 104.329,53.693 104.329,53.424 	"/>
	<polygon points="92.248,42.934 90.906,42.934 90.906,43.203 92.248,43.203 92.248,42.934 	"/>
	<polygon points="68.087,74.673 68.758,74.673 68.758,74.404 68.087,74.404 68.087,74.673 	"/>
	<polygon points="39.228,37.017 37.215,37.017 37.215,37.286 39.228,37.286 39.228,37.017 	"/>
	<polygon points="36.544,75.48 37.215,75.48 37.215,75.211 36.544,75.211 36.544,75.48 	"/>
	<polygon points="36.544,38.631 37.215,38.631 37.215,37.555 36.544,37.555 36.544,38.631 	"/>
	<path d="M59.362,73.866h-0.671v-36.58H58.02v-0.269h0.671v0.269h0.671V73.866L59.362,73.866z M59.362,74.404h-0.671v-0.269h0.671
		V74.404L59.362,74.404z M53.993,74.673h-0.671v-0.269h0.671V74.673L53.993,74.673z M52.651,37.017h0.671v0.269h-0.671V37.017
		L52.651,37.017z M51.309,74.673h-0.671v-0.269h-0.671v-36.58h0.671v36.58h0.671V74.673L51.309,74.673z M49.966,37.286h0.671v0.269
		h-0.671V37.286L49.966,37.286z M60.034,37.017h-0.671v-0.269h-2.685v-0.269h-4.027v0.269h-3.356v-0.269h-0.671v38.463h4.027v0.269
		h4.027v-0.269h3.356v0.269h0.671V36.748h-0.671V37.017L60.034,37.017z"/>
	<path d="M27.148,41.052h-0.671v-0.269h0.671V41.052L27.148,41.052z M27.148,69.832h-0.671V41.321h0.671V69.832L27.148,69.832z
		 M25.805,41.321h-0.671v-0.269h0.671V41.321L25.805,41.321z M25.134,43.203h-0.671v-0.269h0.671V43.203L25.134,43.203z
		 M24.463,67.949h-0.671V67.68h0.671V67.949L24.463,67.949z M19.094,66.604h-0.671v-0.269h0.671V66.604L19.094,66.604z
		 M17.752,46.162h-0.671v-0.269h0.671V46.162L17.752,46.162z M17.752,65.797h-0.671v-0.269h0.671V65.797L17.752,65.797z
		 M12.383,48.583h-0.671v-0.269h0.671V48.583L12.383,48.583z M12.383,52.349h-0.671v-0.807h0.671V52.349L12.383,52.349z
		 M11.04,51.273v-0.269h0.671v0.269H11.04L11.04,51.273z M10.369,49.928v-0.269h0.671v0.269H10.369L10.369,49.928z M10.369,51.004
		H9.698v-0.538h0.671V51.004L10.369,51.004z M9.698,52.08H9.027v-0.538h0.671V52.08L9.698,52.08z M9.027,53.962H8.356v-0.807h0.671
		V53.962L9.027,53.962z M11.04,48.852h0.671v0.269H11.04V48.852L11.04,48.852z M28.49,39.707h-0.671v0.269h-1.342v0.269h-0.671
		v0.269h-0.671v0.269h-1.342v0.269h-0.671v0.269H22.45v0.269h-0.671v0.269h-0.671v0.269h-0.671v0.269h-0.671v0.269h-0.671v0.269
		h-0.671v0.269h-0.671v0.269h-0.671v0.538h-0.671v0.269h-0.671v-0.538h-0.671v0.538h-0.671v0.269h-0.671v0.269h1.342v0.269h-0.671
		v0.538h-0.671v0.269h-0.671v0.538h-0.671v0.538h-0.671v0.538H11.04v0.538h-0.671v0.807H9.698v0.538H9.027v0.807H8.356v1.076H7.685
		v1.345H7.013v2.421H6.342v1.614h0.671v2.421h0.671v1.345h0.671v1.076h0.671v0.807h0.671v0.538h0.671v0.807h0.671v0.538h0.671v0.538
		h0.671v0.538h0.671v0.269h0.671v0.538h0.671v0.538h0.671v0.269h0.671v0.269h0.671v0.538h0.671v0.269h0.671v0.269h0.671v0.269h0.671
		v0.538h0.671v0.269h0.671v0.269h0.671v0.269h0.671v0.269h1.342v0.269h0.671v0.269h0.671v0.269h0.671v0.269h0.671v0.269h1.342v0.269
		h0.671v0.269h1.342v-0.269H28.49V39.707L28.49,39.707z"/>
	<polygon points="58.02,36.21 60.705,36.21 60.705,35.941 58.02,35.941 58.02,36.21 	"/>
	<polygon points="62.047,37.017 62.718,37.017 62.718,36.748 62.047,36.748 62.047,37.017 	"/>
	<polygon points="62.047,36.479 62.718,36.479 62.718,36.21 62.047,36.21 62.047,36.479 	"/>
	<polygon points="62.047,74.404 61.376,74.404 61.376,74.942 62.718,74.942 62.718,74.673 62.047,74.673 62.047,74.404 	"/>
	<polygon points="62.047,75.48 62.718,75.48 62.718,75.211 62.047,75.211 62.047,75.48 	"/>
	<polygon points="29.832,72.253 30.503,72.253 30.503,39.438 29.832,39.438 29.832,72.253 	"/>
	<polygon points="46.611,37.017 47.282,37.017 47.282,37.286 47.953,37.286 47.953,36.748 46.611,36.748 46.611,37.017 	"/>
	<polygon points="46.611,75.48 47.282,75.48 47.282,75.211 46.611,75.211 46.611,75.48 	"/>
	<polygon points="46.611,74.942 47.282,74.942 47.282,74.673 46.611,74.673 46.611,74.942 	"/>
	<polygon points="48.624,75.749 57.349,75.749 57.349,75.48 48.624,75.48 48.624,75.749 	"/>
	<polygon points="58.02,75.749 60.034,75.749 60.034,75.48 58.02,75.48 58.02,75.749 	"/>
	<polygon points="104.329,57.728 104.329,54.231 103.658,54.231 103.658,58.266 104.329,58.266 104.329,57.997 105,57.997 
		105,57.728 104.329,57.728 	"/>
	<polygon points="37.886,74.673 39.228,74.673 39.228,74.404 37.886,74.404 37.886,74.673 	"/>
	<polygon points="40.57,37.286 41.242,37.286 41.242,37.017 40.57,37.017 40.57,37.286 	"/>
	<polygon points="39.228,37.555 37.886,37.555 37.886,73.866 38.557,73.866 38.557,74.135 39.899,74.135 39.899,73.866 
		39.228,73.866 39.228,37.555 	"/>
	<polygon points="40.57,74.673 41.242,74.673 41.242,74.404 40.57,74.404 40.57,74.673 	"/>
	<polygon points="38.557,75.48 39.228,75.48 39.228,75.211 38.557,75.211 38.557,75.48 	"/>
	<polygon points="40.57,74.135 41.242,74.135 41.242,37.555 40.57,37.555 40.57,74.135 	"/>
	<polygon points="93.591,67.949 94.262,67.949 94.262,44.01 93.591,44.01 93.591,67.949 	"/>
	<polygon points="22.45,41.052 21.779,41.052 21.779,41.321 22.45,41.321 22.45,41.052 	"/>
	<polygon points="21.107,41.59 21.779,41.59 21.779,41.321 20.436,41.321 20.436,41.59 19.765,41.59 19.765,41.859 21.107,41.859 
		21.107,41.59 	"/>
	<polygon points="92.919,69.832 93.591,69.832 93.591,69.563 92.919,69.563 92.919,69.832 	"/>
	<polygon points="92.919,68.218 93.591,68.218 93.591,67.949 92.919,67.949 92.919,68.218 	"/>
	<polygon points="23.121,40.783 22.45,40.783 22.45,41.052 23.121,41.052 23.121,40.783 	"/>
	<polygon points="100.302,58.266 100.973,58.266 100.973,57.728 100.302,57.728 100.302,58.266 	"/>
	<polygon points="25.134,40.245 25.805,40.245 25.805,39.976 24.463,39.976 24.463,40.245 23.792,40.245 23.792,40.514 
		25.134,40.514 25.134,40.245 	"/>
	<polygon points="102.315,52.887 101.644,52.887 101.644,58.804 102.987,58.804 102.987,53.962 102.315,53.962 102.315,52.887 	"/>
	<polygon points="23.792,40.514 23.121,40.514 23.121,40.783 23.792,40.783 23.792,40.514 	"/>
	<polygon points="100.302,57.459 100.973,57.459 100.973,53.155 100.302,53.155 100.302,57.459 	"/>
	<polygon points="70.101,74.135 71.443,74.135 71.443,37.824 70.772,37.824 70.772,37.555 69.43,37.555 69.43,37.824 70.101,37.824 
		70.101,74.135 	"/>
	<polygon points="70.101,74.673 72.114,74.673 72.114,74.404 70.101,74.404 70.101,74.673 	"/>
	<polygon points="72.114,74.135 72.785,74.135 72.785,73.06 72.114,73.06 72.114,74.135 	"/>
	<polygon points="92.919,67.411 92.248,67.411 92.248,43.472 90.906,43.472 90.906,44.01 91.577,44.01 91.577,68.487 90.906,68.487 
		90.906,68.756 92.248,68.756 92.248,67.68 92.919,67.68 92.919,67.411 	"/>
	<polygon points="68.087,74.135 68.758,74.135 68.758,37.555 68.087,37.555 68.087,74.135 	"/>
	<polygon points="68.087,37.286 68.758,37.286 68.758,37.017 68.087,37.017 68.087,37.286 	"/>
	<polygon points="18.423,42.666 17.752,42.666 17.752,42.934 18.423,42.934 18.423,42.666 	"/>
	<polygon points="19.765,41.859 19.094,41.859 19.094,42.397 19.765,42.397 19.765,41.859 	"/>
	<polygon points="91.577,69.294 92.248,69.294 92.248,69.025 91.577,69.025 91.577,69.294 	"/>
	<polygon points="19.094,42.397 18.423,42.397 18.423,42.666 19.094,42.666 19.094,42.397 	"/>
	<polygon points="89.564,68.218 90.235,68.218 90.235,43.472 89.564,43.472 89.564,68.218 	"/>
</g>
</svg>
