<?xml version="1.0" encoding="iso-8859-1"?>
<!-- Generator: Adobe Illustrator 28.3.0, SVG Export Plug-In . SVG Version: 6.00 Build 0)  -->
<svg version="1.1" id="Layer_1" xmlns="http://www.w3.org/2000/svg" xmlns:xlink="http://www.w3.org/1999/xlink" x="0px" y="0px"
	 width="110px" height="110px" viewBox="0 0 110 110" enable-background="new 0 0 110 110" xml:space="preserve">
<g>
	<polygon points="11.757,53.818 12.432,53.818 12.432,53.143 11.757,53.143 11.757,53.818 	"/>
	<polygon points="11.757,56.521 12.432,56.521 12.432,55.17 11.757,55.17 11.757,56.521 	"/>
	<polygon points="11.757,58.548 12.432,58.548 12.432,57.872 11.757,57.872 11.757,58.548 	"/>
	<polygon points="7.703,56.521 8.378,56.521 8.378,55.17 7.703,55.17 7.703,56.521 	"/>
	<polygon points="13.108,53.818 13.784,53.818 13.784,53.143 13.108,53.143 13.108,53.818 	"/>
	<polygon points="10.405,53.818 11.081,53.818 11.081,53.143 10.405,53.143 10.405,53.818 	"/>
	<polygon points="13.108,58.548 13.784,58.548 13.784,57.872 13.108,57.872 13.108,58.548 	"/>
	<polygon points="9.054,58.548 9.73,58.548 9.73,57.872 9.054,57.872 9.054,58.548 	"/>
	<polygon points="9.054,56.521 9.73,56.521 9.73,55.17 9.054,55.17 9.054,56.521 	"/>
	<polygon points="7.703,53.818 8.378,53.818 8.378,53.143 7.703,53.143 7.703,53.818 	"/>
	<polygon points="10.405,56.521 11.081,56.521 11.081,55.17 10.405,55.17 10.405,56.521 	"/>
	<polygon points="10.405,58.548 11.081,58.548 11.081,57.872 10.405,57.872 10.405,58.548 	"/>
	<polygon points="9.054,53.818 9.73,53.818 9.73,53.143 9.054,53.143 9.054,53.818 	"/>
	<polygon points="13.108,56.521 13.784,56.521 13.784,55.17 13.108,55.17 13.108,56.521 	"/>
	<polygon points="17.162,56.521 17.838,56.521 17.838,55.17 17.162,55.17 17.162,56.521 	"/>
	<polygon points="18.514,58.548 19.189,58.548 19.189,57.872 18.514,57.872 18.514,58.548 	"/>
	<polygon points="17.162,53.818 17.838,53.818 17.838,53.143 17.162,53.143 17.162,53.818 	"/>
	<polygon points="18.514,56.521 19.189,56.521 19.189,55.17 18.514,55.17 18.514,56.521 	"/>
	<polygon points="19.865,56.521 20.541,56.521 20.541,55.17 19.865,55.17 19.865,56.521 	"/>
	<polygon points="18.514,53.818 19.189,53.818 19.189,53.143 18.514,53.143 18.514,53.818 	"/>
	<polygon points="19.865,58.548 20.541,58.548 20.541,57.872 19.865,57.872 19.865,58.548 	"/>
	<polygon points="15.811,53.818 16.486,53.818 16.486,53.143 15.811,53.143 15.811,53.818 	"/>
	<polygon points="14.459,53.818 15.135,53.818 15.135,53.143 14.459,53.143 14.459,53.818 	"/>
	<polygon points="17.162,58.548 17.838,58.548 17.838,57.872 17.162,57.872 17.162,58.548 	"/>
	<polygon points="15.811,58.548 16.486,58.548 16.486,57.872 15.811,57.872 15.811,58.548 	"/>
	<polygon points="14.459,56.521 15.135,56.521 15.135,55.17 14.459,55.17 14.459,56.521 	"/>
	<polygon points="15.811,56.521 16.486,56.521 16.486,55.17 15.811,55.17 15.811,56.521 	"/>
	<polygon points="14.459,58.548 15.135,58.548 15.135,57.872 14.459,57.872 14.459,58.548 	"/>
	<polygon points="79.324,53.143 78.649,53.143 78.649,53.818 79.324,53.818 79.324,53.143 	"/>
	<polygon points="72.568,53.143 71.892,53.143 71.892,53.818 72.568,53.818 72.568,53.143 	"/>
	<polygon points="73.919,53.143 73.243,53.143 73.243,53.818 73.919,53.818 73.919,53.143 	"/>
	<polygon points="71.216,53.143 70.541,53.143 70.541,53.818 71.216,53.818 71.216,53.143 	"/>
	<polygon points="67.162,53.143 66.486,53.143 66.486,53.818 67.162,53.818 67.162,53.143 	"/>
	<polygon points="75.27,53.143 74.595,53.143 74.595,53.818 75.27,53.818 75.27,53.143 	"/>
	<polygon points="68.514,53.143 67.838,53.143 67.838,53.818 68.514,53.818 68.514,53.143 	"/>
	<polygon points="69.865,53.143 69.189,53.143 69.189,53.818 69.865,53.818 69.865,53.143 	"/>
	<polygon points="82.027,53.143 81.351,53.143 81.351,53.818 82.027,53.818 82.027,53.143 	"/>
	<polygon points="7.703,58.548 8.378,58.548 8.378,57.872 7.703,57.872 7.703,58.548 	"/>
	<polygon points="80.676,53.143 80,53.143 80,53.818 80.676,53.818 80.676,53.143 	"/>
	<polygon points="83.378,53.143 82.703,53.143 82.703,53.818 83.378,53.818 83.378,53.143 	"/>
	<polygon points="77.973,53.143 77.297,53.143 77.297,53.818 77.973,53.818 77.973,53.143 	"/>
	<polygon points="19.865,53.818 20.541,53.818 20.541,53.143 19.865,53.143 19.865,53.818 	"/>
	<polygon points="76.622,53.143 75.946,53.143 75.946,53.818 76.622,53.818 76.622,53.143 	"/>
	<polygon points="6.351,58.548 7.027,58.548 7.027,57.872 6.351,57.872 6.351,58.548 	"/>
	<polygon points="5,56.521 5.676,56.521 5.676,54.494 5,54.494 5,56.521 	"/>
	<polygon points="52.973,7.197 52.297,7.197 52.297,53.143 33.378,53.143 33.378,53.818 52.973,53.818 52.973,7.197 	"/>
	<polygon points="6.351,53.818 7.027,53.818 7.027,53.143 6.351,53.143 6.351,53.818 	"/>
	<polygon points="54.324,5.845 53.649,5.845 53.649,6.521 54.324,6.521 54.324,5.845 	"/>
	<polygon points="6.351,56.521 7.027,56.521 7.027,54.494 6.351,54.494 6.351,56.521 	"/>
	<polygon points="59.054,53.143 58.378,53.143 58.378,53.818 59.054,53.818 59.054,53.143 	"/>
	<polygon points="55.676,5.845 55,5.845 55,6.521 55.676,6.521 55.676,5.845 	"/>
	<polygon points="63.108,53.143 62.432,53.143 62.432,53.818 63.108,53.818 63.108,53.143 	"/>
	<polygon points="60.405,53.143 59.73,53.143 59.73,53.818 60.405,53.818 60.405,53.143 	"/>
	<polygon points="61.757,53.143 61.081,53.143 61.081,53.818 61.757,53.818 61.757,53.143 	"/>
	<polygon points="57.703,7.197 57.027,7.197 57.027,53.818 57.703,53.818 57.703,7.197 	"/>
	<polygon points="65.811,53.143 65.135,53.143 65.135,53.818 65.811,53.818 65.811,53.143 	"/>
	<polygon points="64.459,53.143 63.784,53.143 63.784,53.818 64.459,53.818 64.459,53.143 	"/>
	<polygon points="67.838,58.548 68.514,58.548 68.514,57.872 67.838,57.872 67.838,58.548 	"/>
	<polygon points="55.676,105.845 56.351,105.845 56.351,105.17 55.676,105.17 55.676,105.845 	"/>
	<polygon points="65.135,58.548 65.811,58.548 65.811,57.872 65.135,57.872 65.135,58.548 	"/>
	<polygon points="73.243,58.548 73.919,58.548 73.919,57.872 73.243,57.872 73.243,58.548 	"/>
	<polygon points="63.784,58.548 64.459,58.548 64.459,57.872 63.784,57.872 63.784,58.548 	"/>
	<polygon points="70.541,58.548 71.216,58.548 71.216,57.872 70.541,57.872 70.541,58.548 	"/>
	<polygon points="69.189,58.548 69.865,58.548 69.865,57.872 69.189,57.872 69.189,58.548 	"/>
	<polygon points="71.892,58.548 72.568,58.548 72.568,57.872 71.892,57.872 71.892,58.548 	"/>
	<polygon points="62.432,58.548 63.108,58.548 63.108,57.872 62.432,57.872 62.432,58.548 	"/>
	<polygon points="57.027,104.494 57.703,104.494 57.703,57.872 57.027,57.872 57.027,104.494 	"/>
	<polygon points="55.676,104.494 56.351,104.494 56.351,103.143 55.676,103.143 55.676,104.494 	"/>
	<polygon points="58.378,58.548 59.054,58.548 59.054,57.872 58.378,57.872 58.378,58.548 	"/>
	<polygon points="61.081,58.548 61.757,58.548 61.757,57.872 61.081,57.872 61.081,58.548 	"/>
	<polygon points="21.216,58.548 21.892,58.548 21.892,57.872 21.216,57.872 21.216,58.548 	"/>
	<polygon points="66.486,58.548 67.162,58.548 67.162,57.872 66.486,57.872 66.486,58.548 	"/>
	<polygon points="55.676,7.197 55,7.197 55,8.548 55.676,8.548 55.676,7.197 	"/>
	<polygon points="55,8.548 54.324,8.548 54.324,55.17 33.378,55.17 33.378,56.521 54.324,56.521 54.324,104.494 55,104.494 
		55,56.521 102.297,56.521 102.297,57.197 102.973,57.197 102.973,56.521 103.649,56.521 103.649,55.17 55,55.17 55,8.548 	"/>
	<polygon points="53.649,7.197 53.649,8.548 54.324,8.548 54.324,7.197 53.649,7.197 	"/>
	<polygon points="104.324,55.17 104.324,57.197 105,57.197 105,55.17 104.324,55.17 	"/>
	<polygon points="84.054,53.818 103.649,53.818 103.649,53.143 84.054,53.143 84.054,53.818 	"/>
	<polygon points="84.054,58.548 103.649,58.548 103.649,57.872 84.054,57.872 84.054,58.548 	"/>
	<polygon points="74.595,58.548 75.27,58.548 75.27,57.872 74.595,57.872 74.595,58.548 	"/>
	<polygon points="78.649,58.548 79.324,58.548 79.324,57.872 78.649,57.872 78.649,58.548 	"/>
	<polygon points="77.297,58.548 77.973,58.548 77.973,57.872 77.297,57.872 77.297,58.548 	"/>
	<polygon points="75.946,58.548 76.622,58.548 76.622,57.872 75.946,57.872 75.946,58.548 	"/>
	<polygon points="82.703,58.548 83.378,58.548 83.378,57.872 82.703,57.872 82.703,58.548 	"/>
	<polygon points="81.351,58.548 82.027,58.548 82.027,57.872 81.351,57.872 81.351,58.548 	"/>
	<polygon points="80,58.548 80.676,58.548 80.676,57.872 80,57.872 80,58.548 	"/>
	<polygon points="59.73,58.548 60.405,58.548 60.405,57.872 59.73,57.872 59.73,58.548 	"/>
	<polygon points="25.27,58.548 25.946,58.548 25.946,57.872 25.27,57.872 25.27,58.548 	"/>
	<polygon points="25.27,56.521 25.946,56.521 25.946,55.17 25.27,55.17 25.27,56.521 	"/>
	<polygon points="23.919,56.521 24.595,56.521 24.595,55.17 23.919,55.17 23.919,56.521 	"/>
	<polygon points="23.919,53.818 24.595,53.818 24.595,53.143 23.919,53.143 23.919,53.818 	"/>
	<polygon points="26.622,56.521 27.297,56.521 27.297,55.17 26.622,55.17 26.622,56.521 	"/>
	<polygon points="26.622,58.548 27.297,58.548 27.297,57.872 26.622,57.872 26.622,58.548 	"/>
	<polygon points="25.27,53.818 25.946,53.818 25.946,53.143 25.27,53.143 25.27,53.818 	"/>
	<polygon points="23.919,58.548 24.595,58.548 24.595,57.872 23.919,57.872 23.919,58.548 	"/>
	<polygon points="21.216,53.818 21.892,53.818 21.892,53.143 21.216,53.143 21.216,53.818 	"/>
	<polygon points="22.568,58.548 23.243,58.548 23.243,57.872 22.568,57.872 22.568,58.548 	"/>
	<polygon points="21.216,56.521 21.892,56.521 21.892,55.17 21.216,55.17 21.216,56.521 	"/>
	<polygon points="22.568,53.818 23.243,53.818 23.243,53.143 22.568,53.143 22.568,53.818 	"/>
	<polygon points="26.622,53.818 27.297,53.818 27.297,53.143 26.622,53.143 26.622,53.818 	"/>
	<polygon points="22.568,56.521 23.243,56.521 23.243,55.17 22.568,55.17 22.568,56.521 	"/>
	<polygon points="29.324,53.818 30,53.818 30,53.143 29.324,53.143 29.324,53.818 	"/>
	<polygon points="30.676,56.521 31.351,56.521 31.351,55.17 30.676,55.17 30.676,56.521 	"/>
	<polygon points="30.676,53.818 31.351,53.818 31.351,53.143 30.676,53.143 30.676,53.818 	"/>
	<polygon points="32.027,56.521 32.703,56.521 32.703,55.17 32.027,55.17 32.027,56.521 	"/>
	<polygon points="32.027,58.548 32.703,58.548 32.703,57.872 32.027,57.872 32.027,58.548 	"/>
	<polygon points="32.027,53.818 32.703,53.818 32.703,53.143 32.027,53.143 32.027,53.818 	"/>
	<polygon points="33.378,58.548 52.297,58.548 52.297,104.494 52.973,104.494 52.973,57.872 33.378,57.872 33.378,58.548 	"/>
	<polygon points="27.973,58.548 28.649,58.548 28.649,57.872 27.973,57.872 27.973,58.548 	"/>
	<polygon points="27.973,53.818 28.649,53.818 28.649,53.143 27.973,53.143 27.973,53.818 	"/>
	<polygon points="30.676,58.548 31.351,58.548 31.351,57.872 30.676,57.872 30.676,58.548 	"/>
	<polygon points="29.324,58.548 30,58.548 30,57.872 29.324,57.872 29.324,58.548 	"/>
	<polygon points="27.973,56.521 28.649,56.521 28.649,55.17 27.973,55.17 27.973,56.521 	"/>
	<polygon points="54.324,105.845 55,105.845 55,105.17 54.324,105.17 54.324,105.845 	"/>
	<polygon points="29.324,56.521 30,56.521 30,55.17 29.324,55.17 29.324,56.521 	"/>
</g>
</svg>
