<?xml version="1.0" encoding="iso-8859-1"?>
<!-- Generator: Adobe Illustrator 28.3.0, SVG Export Plug-In . SVG Version: 6.00 Build 0)  -->
<svg version="1.1" id="Layer_1" xmlns="http://www.w3.org/2000/svg" xmlns:xlink="http://www.w3.org/1999/xlink" x="0px" y="0px"
	 width="110px" height="110px" viewBox="0 0 110 110" enable-background="new 0 0 110 110" xml:space="preserve">
<g>
	<polygon points="6.124,50.227 7.247,50.227 7.247,49.104 6.124,49.104 6.124,50.227 	"/>
	<polygon points="45.449,24.385 46.573,24.385 46.573,23.261 45.449,23.261 45.449,24.385 	"/>
	<polygon points="45.449,21.014 45.449,22.137 46.573,22.137 46.573,21.014 45.449,21.014 	"/>
	<g>
		<polygon points="55.562,12.025 54.438,12.025 54.438,13.149 55.562,13.149 55.562,12.025 		"/>
		<polygon points="5,51.351 6.124,51.351 6.124,50.227 5,50.227 5,51.351 		"/>
	</g>
	<polygon points="55.562,88.429 56.685,88.429 56.685,87.306 55.562,87.306 55.562,88.429 	"/>
	<polygon points="44.326,25.508 45.449,25.508 45.449,24.385 44.326,24.385 44.326,25.508 	"/>
	<polygon points="21.854,34.497 20.73,34.497 20.73,35.621 21.854,35.621 21.854,34.497 	"/>
	<polygon points="49.944,17.643 48.82,17.643 48.82,18.767 49.944,18.767 49.944,17.643 	"/>
	<polygon points="11.742,56.969 11.742,58.092 12.865,58.092 12.865,56.969 11.742,56.969 	"/>
	<polygon points="18.483,37.868 17.36,37.868 17.36,40.115 18.483,40.115 18.483,37.868 	"/>
	<polygon points="19.607,36.744 18.483,36.744 18.483,37.868 19.607,37.868 19.607,36.744 	"/>
	<polygon points="51.067,15.396 51.067,16.519 52.191,16.519 52.191,15.396 51.067,15.396 	"/>
	<polygon points="20.73,35.621 19.607,35.621 19.607,36.744 20.73,36.744 20.73,35.621 	"/>
	<polygon points="53.315,14.272 52.191,14.272 52.191,15.396 53.315,15.396 53.315,14.272 	"/>
	<polygon points="27.472,79.441 27.472,80.564 26.348,80.564 26.348,82.812 27.472,82.812 27.472,81.688 28.596,81.688 
		28.596,79.441 27.472,79.441 	"/>
	<polygon points="57.809,9.778 56.685,9.778 56.685,10.901 57.809,10.901 57.809,9.778 	"/>
	<polygon points="73.539,33.373 72.416,33.373 72.416,34.497 73.539,34.497 73.539,33.373 	"/>
	<polygon points="29.719,78.317 28.596,78.317 28.596,79.441 29.719,79.441 29.719,78.317 	"/>
	<polygon points="25.225,83.935 26.348,83.935 26.348,82.812 25.225,82.812 25.225,83.935 	"/>
	<polygon points="24.101,68.205 25.225,68.205 25.225,67.081 24.101,67.081 24.101,68.205 	"/>
	<polygon points="17.36,40.115 15.112,40.115 15.112,41.238 17.36,41.238 17.36,40.115 	"/>
	<polygon points="28.596,81.688 28.596,82.812 29.719,82.812 29.719,81.688 28.596,81.688 	"/>
	<polygon points="12.865,59.216 13.989,59.216 13.989,58.092 12.865,58.092 12.865,59.216 	"/>
	<polygon points="58.933,8.654 57.809,8.654 57.809,9.778 58.933,9.778 58.933,8.654 	"/>
	<polygon points="42.079,35.621 42.079,36.744 43.202,36.744 43.202,35.621 42.079,35.621 	"/>
	<polygon points="45.449,27.755 45.449,28.879 46.573,28.879 46.573,27.755 45.449,27.755 	"/>
	<polygon points="25.225,100.789 26.348,100.789 26.348,99.665 25.225,99.665 25.225,100.789 	"/>
	<polygon points="44.326,30.003 45.449,30.003 45.449,28.879 44.326,28.879 44.326,30.003 	"/>
	<polygon points="43.202,26.632 44.326,26.632 44.326,25.508 43.202,25.508 43.202,26.632 	"/>
	<polygon points="27.472,100.789 28.596,100.789 28.596,99.665 27.472,99.665 27.472,100.789 	"/>
	<polygon points="56.685,10.901 55.562,10.901 55.562,12.025 56.685,12.025 56.685,10.901 	"/>
	<polygon points="8.371,51.351 8.371,52.474 9.494,52.474 9.494,51.351 8.371,51.351 	"/>
	<polygon points="62.303,9.778 61.18,9.778 61.18,10.901 62.303,10.901 62.303,9.778 	"/>
	<polygon points="24.101,85.059 25.225,85.059 25.225,83.935 24.101,83.935 24.101,85.059 	"/>
	<polygon points="85.899,96.295 87.022,96.295 87.022,95.171 85.899,95.171 85.899,96.295 	"/>
	<polygon points="87.022,95.171 88.146,95.171 88.146,94.047 87.022,94.047 87.022,95.171 	"/>
	<polygon points="92.64,94.047 91.517,94.047 91.517,95.171 90.393,95.171 90.393,96.295 89.27,96.295 89.27,98.542 90.393,98.542 
		90.393,97.418 91.517,97.418 91.517,96.295 92.64,96.295 92.64,95.171 93.764,95.171 93.764,92.924 92.64,92.924 92.64,94.047 	"/>
	<polygon points="88.146,60.34 89.27,60.34 89.27,59.216 88.146,59.216 88.146,60.34 	"/>
	<polygon points="85.899,62.587 87.022,62.587 87.022,61.463 85.899,61.463 85.899,62.587 	"/>
	<polygon points="89.27,88.429 88.146,88.429 88.146,89.553 89.27,89.553 89.27,88.429 	"/>
	<polygon points="87.022,61.463 88.146,61.463 88.146,60.34 87.022,60.34 87.022,61.463 	"/>
	<polygon points="89.27,83.935 88.146,83.935 88.146,85.059 89.27,85.059 89.27,83.935 	"/>
	<polygon points="89.27,92.924 88.146,92.924 88.146,94.047 89.27,94.047 89.27,92.924 	"/>
	<polygon points="84.775,97.418 85.899,97.418 85.899,96.295 84.775,96.295 84.775,97.418 	"/>
	<polygon points="44.326,96.295 45.449,96.295 45.449,95.171 44.326,95.171 44.326,96.295 	"/>
	<polygon points="88.146,86.182 88.146,85.059 87.022,85.059 87.022,86.182 88.146,86.182 	"/>
	<polygon points="89.27,87.306 89.27,86.182 88.146,86.182 88.146,87.306 89.27,87.306 	"/>
	<polygon points="87.022,99.665 85.899,99.665 85.899,100.789 84.775,100.789 84.775,101.913 83.652,101.913 83.652,103.036 
		85.899,103.036 85.899,101.913 87.022,101.913 87.022,100.789 88.146,100.789 88.146,98.542 87.022,98.542 87.022,99.665 	"/>
	<polygon points="46.573,94.047 47.697,94.047 47.697,92.924 46.573,92.924 46.573,94.047 	"/>
	<polygon points="45.449,95.171 46.573,95.171 46.573,94.047 45.449,94.047 45.449,95.171 	"/>
	<polygon points="88.146,81.688 88.146,80.564 87.022,80.564 87.022,81.688 88.146,81.688 	"/>
	<polygon points="90.393,58.092 89.27,58.092 89.27,59.216 90.393,59.216 90.393,58.092 	"/>
	<polygon points="101.629,43.486 102.753,43.486 102.753,42.362 101.629,42.362 101.629,43.486 	"/>
	<polygon points="99.382,45.733 100.506,45.733 100.506,44.609 99.382,44.609 99.382,45.733 	"/>
	<polygon points="102.753,42.362 103.876,42.362 103.876,41.238 102.753,41.238 102.753,42.362 	"/>
	<polygon points="91.517,90.677 92.64,90.677 92.64,89.553 91.517,89.553 91.517,90.677 	"/>
	<polygon points="93.764,88.429 94.888,88.429 94.888,87.306 93.764,87.306 93.764,88.429 	"/>
	<polygon points="92.64,89.553 93.764,89.553 93.764,88.429 92.64,88.429 92.64,89.553 	"/>
	<polygon points="100.506,44.609 101.629,44.609 101.629,43.486 100.506,43.486 100.506,44.609 	"/>
	<polygon points="90.393,91.8 91.517,91.8 91.517,90.677 90.393,90.677 90.393,91.8 	"/>
	<polygon points="89.27,77.194 88.146,77.194 88.146,78.317 89.27,78.317 89.27,77.194 	"/>
	<polygon points="87.022,79.441 88.146,79.441 88.146,78.317 87.022,78.317 87.022,77.194 84.775,77.194 84.775,78.317 
		83.652,78.317 83.652,79.441 85.899,79.441 85.899,80.564 87.022,80.564 87.022,79.441 	"/>
	<polygon points="97.135,49.104 97.135,47.98 98.258,47.98 98.258,46.856 96.011,46.856 96.011,49.104 97.135,49.104 	"/>
	<polygon points="84.775,63.71 83.652,63.71 83.652,64.834 84.775,64.834 84.775,63.71 	"/>
	<polygon points="83.652,65.958 83.652,64.834 82.528,64.834 82.528,65.958 83.652,65.958 	"/>
	<polygon points="40.955,96.295 42.079,96.295 42.079,95.171 40.955,95.171 40.955,96.295 	"/>
	<polygon points="37.584,99.665 36.461,99.665 36.461,100.789 37.584,100.789 37.584,99.665 	"/>
	<polygon points="18.483,64.834 19.607,64.834 19.607,63.71 18.483,63.71 18.483,64.834 	"/>
	<polygon points="17.36,65.958 18.483,65.958 18.483,64.834 17.36,64.834 17.36,65.958 	"/>
	<polygon points="16.236,67.081 17.36,67.081 17.36,65.958 16.236,65.958 16.236,67.081 	"/>
	<polygon points="38.708,98.542 37.584,98.542 37.584,99.665 38.708,99.665 38.708,98.542 	"/>
	<polygon points="35.337,101.913 36.461,101.913 36.461,100.789 35.337,100.789 35.337,101.913 	"/>
	<polygon points="43.202,97.418 44.326,97.418 44.326,96.295 43.202,96.295 43.202,97.418 	"/>
	<polygon points="74.663,101.913 75.787,101.913 75.787,100.789 74.663,100.789 74.663,101.913 	"/>
	<polygon points="70.169,100.789 71.292,100.789 71.292,99.665 70.169,99.665 70.169,100.789 	"/>
	<polygon points="11.742,45.733 12.865,45.733 12.865,43.486 11.742,43.486 11.742,44.609 10.618,44.609 10.618,46.856 
		11.742,46.856 11.742,45.733 	"/>
	<polygon points="61.18,95.171 62.303,95.171 62.303,94.047 61.18,94.047 61.18,95.171 	"/>
	<polygon points="15.112,41.238 13.989,41.238 13.989,42.362 12.865,42.362 12.865,43.486 15.112,43.486 15.112,41.238 	"/>
	<polygon points="9.494,47.98 10.618,47.98 10.618,46.856 8.371,46.856 8.371,47.98 7.247,47.98 7.247,49.104 9.494,49.104 
		9.494,47.98 	"/>
	<polygon points="15.112,68.205 16.236,68.205 16.236,67.081 15.112,67.081 15.112,68.205 	"/>
	<polygon points="39.831,97.418 38.708,97.418 38.708,98.542 39.831,98.542 39.831,97.418 	"/>
	<polygon points="45.449,91.8 44.326,91.8 44.326,92.924 45.449,92.924 45.449,91.8 	"/>
	<polygon points="56.685,90.677 57.809,90.677 57.809,89.553 56.685,89.553 56.685,90.677 	"/>
	<polygon points="88.146,90.677 88.146,89.553 87.022,89.553 87.022,90.677 88.146,90.677 	"/>
	<polygon points="40.955,99.665 42.079,99.665 42.079,98.542 40.955,98.542 40.955,99.665 	"/>
	<polygon points="43.202,94.047 42.079,94.047 42.079,95.171 43.202,95.171 43.202,94.047 	"/>
	<polygon points="44.326,92.924 43.202,92.924 43.202,94.047 44.326,94.047 44.326,92.924 	"/>
	<polygon points="64.551,9.778 63.427,9.778 63.427,10.901 64.551,10.901 64.551,9.778 	"/>
	<polygon points="85.899,91.8 87.022,91.8 87.022,90.677 85.899,90.677 85.899,91.8 	"/>
	<polygon points="81.404,96.295 82.528,96.295 82.528,95.171 81.404,95.171 81.404,96.295 	"/>
	<polygon points="38.708,101.913 39.831,101.913 39.831,100.789 38.708,100.789 38.708,101.913 	"/>
	<polygon points="84.775,92.924 85.899,92.924 85.899,91.8 84.775,91.8 84.775,92.924 	"/>
	<polygon points="37.584,103.036 38.708,103.036 38.708,101.913 37.584,101.913 37.584,103.036 	"/>
	<polygon points="80.281,97.418 80.281,96.295 79.157,96.295 79.157,97.418 80.281,97.418 	"/>
	<polygon points="39.831,100.789 40.955,100.789 40.955,99.665 39.831,99.665 39.831,100.789 	"/>
	<polygon points="70.169,53.598 70.169,52.474 69.045,52.474 69.045,53.598 70.169,53.598 	"/>
	<polygon points="44.326,52.474 43.202,52.474 43.202,53.598 42.079,53.598 42.079,54.722 44.326,54.722 44.326,52.474 	"/>
	<polygon points="45.449,52.474 45.449,51.351 44.326,51.351 44.326,52.474 45.449,52.474 	"/>
	<polygon points="45.449,58.092 45.449,56.969 44.326,56.969 44.326,58.092 45.449,58.092 	"/>
	<polygon points="45.449,54.722 44.326,54.722 44.326,55.845 45.449,55.845 45.449,54.722 	"/>
	<polygon points="46.573,74.946 46.573,76.07 47.697,76.07 47.697,74.946 46.573,74.946 	"/>
	<polygon points="51.067,49.104 52.191,49.104 52.191,47.98 51.067,47.98 51.067,49.104 	"/>
	<polygon points="47.697,51.351 47.697,50.227 45.449,50.227 45.449,51.351 47.697,51.351 	"/>
	<polygon points="46.573,74.946 46.573,73.823 45.449,73.823 45.449,74.946 46.573,74.946 	"/>
	<polygon points="44.326,73.823 45.449,73.823 45.449,71.576 46.573,71.576 46.573,70.452 45.449,70.452 45.449,69.328 
		46.573,69.328 46.573,65.958 47.697,65.958 47.697,63.71 48.82,63.71 48.82,62.587 45.449,62.587 45.449,63.71 46.573,63.71 
		46.573,64.834 45.449,64.834 45.449,68.205 44.326,68.205 44.326,72.699 43.202,72.699 43.202,74.946 44.326,74.946 44.326,73.823 
			"/>
	<polygon points="47.697,70.452 47.697,69.328 46.573,69.328 46.573,70.452 47.697,70.452 	"/>
	<polygon points="48.82,67.081 47.697,67.081 47.697,69.328 48.82,69.328 48.82,67.081 	"/>
	<polygon points="45.449,60.34 46.573,60.34 46.573,58.092 45.449,58.092 45.449,59.216 43.202,59.216 43.202,61.463 44.326,61.463 
		44.326,62.587 45.449,62.587 45.449,60.34 	"/>
	<polygon points="47.697,50.227 48.82,50.227 48.82,49.104 47.697,49.104 47.697,50.227 	"/>
	<polygon points="69.045,53.598 67.921,53.598 67.921,54.722 69.045,54.722 69.045,53.598 	"/>
	<polygon points="66.798,18.767 66.798,17.643 64.551,17.643 64.551,19.89 65.674,19.89 65.674,18.767 66.798,18.767 	"/>
	<polygon points="71.292,58.092 72.416,58.092 72.416,56.969 71.292,56.969 71.292,58.092 	"/>
	<polygon points="53.315,47.98 53.315,46.856 52.191,46.856 52.191,47.98 53.315,47.98 	"/>
	<polygon points="53.315,43.486 52.191,43.486 52.191,45.733 53.315,45.733 53.315,43.486 	"/>
	<polygon points="30.843,52.474 31.966,52.474 31.966,51.351 30.843,51.351 30.843,52.474 	"/>
	<polygon points="52.191,52.474 53.315,52.474 53.315,50.227 52.191,50.227 52.191,52.474 	"/>
	<polygon points="49.944,53.598 52.191,53.598 52.191,52.474 49.944,52.474 49.944,53.598 	"/>
	<polygon points="46.573,55.845 45.449,55.845 45.449,56.969 46.573,56.969 46.573,55.845 	"/>
	<polygon points="48.82,54.722 47.697,54.722 47.697,53.598 45.449,53.598 45.449,54.722 46.573,54.722 46.573,55.845 
		47.697,55.845 47.697,56.969 46.573,56.969 46.573,58.092 48.82,58.092 48.82,55.845 49.944,55.845 49.944,53.598 48.82,53.598 
		48.82,54.722 	"/>
	<polygon points="48.82,52.474 48.82,51.351 47.697,51.351 47.697,52.474 48.82,52.474 	"/>
	<polygon points="64.551,64.834 65.674,64.834 65.674,63.71 64.551,63.71 64.551,64.834 	"/>
	<polygon points="100.506,37.868 100.506,38.991 101.629,38.991 101.629,37.868 100.506,37.868 	"/>
	<path d="M96.011,43.486h-1.124v1.124h-1.124v1.124H92.64v1.124h-1.124v1.124H64.551v-3.371h-1.124v-3.371h-1.124v-3.371H61.18
		v-3.371h-1.124v-3.371h-1.124v-3.371h-2.247v-1.124h1.124v-3.371h-1.124v-2.247h-1.124v-4.494h2.247v1.124h-1.124v3.371h1.124
		v1.124h1.124v3.371h1.124v3.371h1.124v3.371h1.124v3.371h1.124v3.371h1.124v3.371h1.124v3.371h8.989v-1.124h1.124v1.124H92.64
		v-1.124h1.124v-1.124h1.124v-1.124h1.124V43.486L96.011,43.486z M83.652,51.351h-1.124v-1.124h1.124V51.351L83.652,51.351z
		 M83.652,54.722h-1.124v-1.124h1.124V54.722L83.652,54.722z M80.281,52.474h-1.124v-1.124h1.124V52.474L80.281,52.474z
		 M80.281,54.722h-1.124v-1.124h1.124V54.722L80.281,54.722z M78.034,52.474H76.91v-1.124h-2.247v-2.247h1.124v1.124h1.124v1.124
		h1.124V52.474L78.034,52.474z M66.798,50.227v-1.124h1.124v1.124H66.798L66.798,50.227z M63.427,51.351v-1.124h1.124v1.124H63.427
		L63.427,51.351z M61.18,49.104V47.98h1.124v1.124H61.18L61.18,49.104z M58.933,41.238h-1.124v-1.124h1.124V41.238L58.933,41.238z
		 M60.056,43.486h-2.247v-1.124h2.247V43.486L60.056,43.486z M60.056,50.227h1.124v1.124h-1.124V50.227L60.056,50.227z
		 M57.809,47.98v-1.124h2.247v1.124H57.809L57.809,47.98z M57.809,51.351v-2.247h1.124v2.247H57.809L57.809,51.351z M58.933,52.474
		h1.124v1.124h-1.124V52.474L58.933,52.474z M78.034,54.722H76.91v1.124h-1.124v-1.124h-1.124v2.247h-1.124v2.247h-2.247v2.247
		h-2.247v1.124h-1.124v1.124h1.124v1.124h-1.124V63.71h-1.124v2.247h-1.124v1.124h-2.247v-1.124h-1.124v1.124h-3.371v1.124h-1.124
		v2.247h-1.124v-1.124h-1.124v1.124h-1.124v1.124h2.247v1.124h-1.124v1.124h-1.124v-2.247h-1.124v1.124h-1.124v1.124h-1.124v-1.124
		h-1.124v2.247H48.82v1.124h-1.124v2.247h-1.124V76.07h-1.124v1.124h-1.124v2.247h1.124v1.124h-1.124v-1.124h-1.124v-2.247h1.124
		V76.07h-1.124v-1.124h-1.124v3.371h-1.124v1.124h1.124v1.124h-1.124v1.124h-1.124v3.371h-1.124v1.124h-1.124v-1.124h1.124v-3.371
		h1.124v-3.371h1.124v-3.371h1.124v-3.371h1.124v-3.371h1.124v-5.618h-1.124v-1.124h-1.124v-2.247h1.124v-2.247h1.124v-1.124h-2.247
		v1.124h-1.124v1.124h-1.124v1.124h1.124v1.124h-1.124v-1.124h-1.124v-1.124h-1.124v-1.124h1.124v1.124h1.124v-1.124h1.124v-1.124
		h1.124v-1.124h-1.124v-1.124h1.124v-2.247h2.247v-1.124h1.124v-1.124h1.124v-2.247h1.124v-3.371h1.124v-3.371h1.124v-3.371h1.124
		v-3.371h1.124v-3.371h1.124v-3.371h1.124v3.371h-1.124v3.371h-1.124v3.371h-1.124v3.371h-1.124v3.371H48.82v5.618h1.124v-2.247
		h2.247v-1.124h-1.124v-2.247h1.124v-3.371h1.124v-3.371h1.124v-3.371h1.124v-3.371h1.124v3.371h-1.124v3.371h1.124v-1.124h1.124
		v1.124h-1.124v1.124h-1.124v-1.124h-1.124v2.247h1.124v1.124h-2.247v3.371h2.247v-1.124h1.124v2.247h-2.247v1.124h-1.124v1.124
		h3.371v1.124h-2.247v1.124h-1.124v1.124h2.247v-1.124h1.124v1.124h-1.124v1.124h1.124v1.124h1.124v2.247h1.124v1.124h2.247v-2.247
		h1.124v2.247h2.247v-2.247h1.124v2.247h2.247v-1.124h-1.124v-2.247h2.247v-1.124h1.124v-1.124h1.124v1.124h-1.124v1.124h1.124
		v1.124h-1.124v1.124h-1.124v1.124h2.247v-1.124h1.124v-1.124h1.124v1.124h1.124v-1.124h1.124v1.124h1.124v-1.124h1.124V54.722
		L78.034,54.722z M76.91,59.216h-1.124v-1.124h1.124V59.216L76.91,59.216z M71.292,63.71h-1.124v-1.124h1.124V63.71L71.292,63.71z
		 M72.416,81.688v1.124h1.124v1.124h-1.124v-1.124h-1.124v-1.124h-1.124v-1.124h1.124v1.124H72.416L72.416,81.688z M71.292,72.699
		v1.124h-1.124v-1.124H71.292L71.292,72.699z M70.169,71.576h-1.124v-1.124h1.124V71.576L70.169,71.576z M69.045,79.441v1.124
		h-1.124v-1.124h-1.124v-1.124h1.124v1.124H69.045v-1.124h1.124v1.124H69.045L69.045,79.441z M58.933,70.452v-1.124h1.124v1.124
		H58.933L58.933,70.452z M65.674,74.946v-1.124h-2.247v-2.247h1.124v-2.247h-1.124v1.124h-1.124v1.124H61.18v1.124h-1.124v1.124
		h1.124v1.124h-1.124v-1.124h-1.124v-1.124h1.124v-1.124h1.124v-2.247h2.247v-1.124h1.124v1.124h1.124v1.124h1.124v1.124h-2.247
		v1.124h1.124v1.124h1.124v1.124h1.124v-1.124h1.124v1.124h-1.124v1.124h1.124v1.124h-1.124V76.07h-1.124v-1.124H65.674
		L65.674,74.946z M65.674,78.317h-1.124v-1.124h-1.124V76.07h-1.124v-1.124h1.124v1.124h1.124v1.124h1.124V78.317L65.674,78.317z
		 M52.191,76.07h-1.124v-1.124h1.124V76.07L52.191,76.07z M43.202,82.812h-1.124v-1.124h1.124V82.812L43.202,82.812z M37.584,67.081
		v-1.124h1.124v1.124H37.584L37.584,67.081z M36.461,81.688v3.371h-1.124v3.371h-1.124v2.247H33.09v-2.247h1.124v-3.371h1.124
		v-3.371H36.461v-3.371h1.124v-3.371h1.124v-3.371h1.124v-3.371h1.124V63.71h-2.247v-1.124h-1.124v-1.124h-1.124V60.34h-2.247
		v-1.124H33.09v-1.124h-1.124v-1.124h-2.247v-1.124h-1.124v-1.124h-2.247v-1.124h-1.124v-1.124h-1.124v-1.124h-2.247v-1.124H20.73
		v-1.124h-1.124V47.98H17.36v-1.124h-1.124v-1.124h3.371v1.124h1.124v1.124h1.124v1.124h2.247v1.124h1.124v1.124h1.124v1.124h2.247
		v1.124h1.124v1.124h2.247v1.124h1.124v1.124h1.124v1.124h2.247v1.124h1.124v1.124h1.124v1.124h2.247v1.124h1.124v5.618h-1.124
		v3.371h-1.124v3.371h-1.124v3.371h-1.124v3.371H36.461L36.461,81.688z M33.09,78.317h1.124v2.247H33.09V78.317L33.09,78.317z
		 M36.461,71.576v1.124h-1.124v-1.124H36.461L36.461,71.576z M34.213,68.205v2.247H33.09v-2.247H34.213v-1.124H33.09v-2.247h1.124
		v2.247h1.124v1.124H34.213L34.213,68.205z M34.213,72.699H33.09v-1.124h1.124V72.699L34.213,72.699z M31.966,61.463V60.34h1.124
		v1.124H31.966L31.966,61.463z M30.843,62.587h-1.124v-1.124h-1.124V60.34h1.124v1.124h1.124V62.587L30.843,62.587z M30.843,64.834
		h-1.124V63.71h1.124V64.834L30.843,64.834z M28.596,64.834h-1.124V63.71h-1.124v-1.124h1.124v1.124h1.124V64.834L28.596,64.834z
		 M25.225,60.34v-2.247h1.124v2.247H25.225L25.225,60.34z M24.101,56.969v-1.124h1.124v1.124H24.101L24.101,56.969z M24.101,61.463
		h-1.124V60.34h1.124V61.463L24.101,61.463z M19.607,54.722v-1.124h1.124v1.124H19.607L19.607,54.722z M21.854,59.216v1.124H20.73
		v-1.124H21.854v-1.124h1.124v1.124H21.854L21.854,59.216z M17.36,52.474v-1.124h1.124v1.124H17.36L17.36,52.474z M19.607,56.969
		h-1.124v-1.124h1.124V56.969L19.607,56.969z M16.236,55.845h-1.124v-1.124h1.124V55.845L16.236,55.845z M19.607,43.486h1.124v1.124
		h-1.124V43.486L19.607,43.486z M39.831,51.351v1.124h-1.124v-1.124H39.831L39.831,51.351z M22.978,45.733h2.247v-2.247h1.124
		v-1.124h1.124v-1.124h1.124v1.124h-1.124v1.124h-1.124v2.247h2.247v-1.124h1.124v1.124h3.371v-2.247h1.124v2.247h11.236v2.247
		h-8.989v2.247h1.124v1.124h-1.124v1.124h1.124v1.124h2.247v2.247h-1.124v-1.124h-1.124v1.124h-1.124v1.124h-1.124v-1.124h-1.124
		v-1.124H33.09v-1.124h1.124v1.124h1.124v1.124h1.124v-1.124h1.124v-1.124h-1.124v-1.124h-1.124v-1.124h1.124v-1.124h-1.124V47.98
		h-4.494v2.247h1.124v-1.124h1.124v1.124h-1.124v1.124h1.124v1.124h-1.124v1.124h-1.124v-1.124h-1.124v-1.124h1.124v-1.124h-1.124
		V47.98h-2.247v2.247h1.124v1.124h-1.124v-1.124h-1.124v-3.371h-2.247v1.124h-1.124V45.733L22.978,45.733z M28.596,38.991h1.124
		v1.124h1.124v1.124h1.124v2.247h-1.124v-2.247h-1.124v-1.124h-1.124V38.991L28.596,38.991z M34.213,40.115h1.124v1.124h1.124v2.247
		h-1.124v-1.124h-1.124V40.115L34.213,40.115z M37.584,42.362h1.124v1.124h1.124v1.124h-1.124v-1.124h-1.124V42.362L37.584,42.362z
		 M42.079,41.238h1.124v1.124h-1.124V41.238L42.079,41.238z M42.079,38.991h1.124v1.124h-1.124V38.991L42.079,38.991z
		 M44.326,38.991h1.124v1.124h-1.124V38.991L44.326,38.991z M46.573,37.868h1.124v1.124h-1.124V37.868L46.573,37.868z M48.82,32.25
		h1.124v1.124H48.82V32.25L48.82,32.25z M49.944,28.879h1.124v1.124h-1.124V28.879L49.944,28.879z M52.191,24.385v1.124h-1.124
		v-1.124H52.191L52.191,24.385z M49.944,21.014h1.124V19.89h1.124v1.124h1.124v1.124h-1.124v-1.124h-1.124v1.124h-1.124V21.014
		L49.944,21.014z M54.438,23.261h1.124v2.247h-1.124V23.261L54.438,23.261z M58.933,13.149h1.124v1.124h-1.124V13.149L58.933,13.149
		z M71.292,43.486h1.124v1.124h-1.124V43.486L71.292,43.486z M79.157,42.362h1.124v1.124h-1.124V42.362L79.157,42.362z
		 M82.528,42.362v1.124h-1.124v-1.124H82.528L82.528,42.362z M80.281,38.991h1.124v1.124h-1.124V38.991L80.281,38.991z
		 M83.652,41.238h1.124v1.124h-1.124V41.238L83.652,41.238z M84.775,38.991h1.124v1.124h-1.124V38.991L84.775,38.991z
		 M87.022,40.115h1.124v1.124h-1.124V40.115L87.022,40.115z M89.27,43.486v1.124h-1.124v-1.124H89.27L89.27,43.486z M89.27,40.115
		h1.124v1.124H89.27V40.115L89.27,40.115z M91.517,43.486v-1.124h1.124v1.124H91.517v1.124h-1.124v-1.124H91.517L91.517,43.486z
		 M30.843,91.8h-1.124v-1.124h1.124V91.8L30.843,91.8z M28.596,89.553v-1.124h1.124v1.124H28.596L28.596,89.553z M28.596,94.047
		h-2.247v-1.124h2.247V94.047L28.596,94.047z M26.348,97.418h-1.124v-1.124h1.124V97.418L26.348,97.418z M99.382,41.238h-1.124
		v1.124h-1.124v-1.124h1.124v-2.247h1.124v-1.124h-2.247v1.124h-1.124v1.124h-1.124v1.124h-1.124v-1.124H92.64v-1.124h1.124v1.124
		h1.124v-2.247h-3.371v1.124h-1.124v-1.124h-2.247v1.124h-1.124v-1.124h-3.371v2.247h-1.124v-2.247h-4.494v1.124h1.124v2.247h-1.124
		v1.124H76.91v-1.124h-1.124v-1.124h1.124v1.124h1.124v-2.247H76.91v-1.124h-3.371v2.247h1.124v2.247h-2.247v-1.124h1.124v-1.124
		h-1.124v-2.247h-1.124v3.371h-1.124v-1.124h-1.124v-1.124h-1.124v2.247h1.124v3.371h-1.124v-2.247h-1.124v-3.371h-1.124v-4.494
		h-1.124v-3.371h-1.124v-3.371h-1.124v-3.371H61.18v-3.371h-1.124v-5.618h1.124v-2.247h1.124v-1.124H61.18v-1.124h-2.247v1.124
		h-1.124v1.124h-1.124v2.247h-2.247v3.371h-1.124v-2.247h-1.124v1.124h-1.124v1.124h-1.124v1.124H48.82v3.371h-1.124v2.247h1.124
		v-1.124h1.124v1.124H48.82v1.124h-2.247v1.124h1.124v1.124h-1.124v2.247h1.124v1.124h-1.124v-1.124h-1.124v2.247h1.124v1.124
		h-1.124v-1.124h-1.124v1.124h-1.124v1.124h3.371v1.124h-1.124v1.124h-1.124v-1.124h-1.124v1.124h-2.247v1.124h-1.124v1.124h-1.124
		v-1.124h1.124v-1.124h-3.371v1.124h1.124v1.124h-1.124v-1.124h-1.124v-1.124h-3.371v1.124h1.124v1.124h-1.124v-1.124h-1.124v-1.124
		h-5.618v1.124h1.124v1.124h-1.124v2.247h-1.124v-2.247h1.124v-1.124h-1.124v-1.124h-2.247v2.247h-2.247v1.124h1.124v1.124h-1.124
		v-1.124h-1.124v1.124H17.36v1.124h1.124v1.124h-3.371v2.247h-2.247v1.124h-1.124v1.124h1.124v1.124h1.124v-1.124h1.124v1.124
		h-1.124v1.124h-1.124v-1.124h-1.124v2.247H9.494v1.124h2.247v1.124h-1.124v1.124h2.247v-2.247h1.124v-1.124h1.124v1.124h-1.124
		v2.247h-1.124v1.124h1.124v1.124h2.247v-1.124h1.124v1.124h2.247v1.124H17.36v1.124h2.247v1.124h2.247v3.371h1.124V63.71h1.124
		v-1.124h1.124v1.124h-1.124v1.124h2.247v1.124h-1.124v1.124h3.371v-1.124h1.124v1.124h1.124v1.124h-1.124v1.124h2.247v3.371h-1.124
		v1.124h2.247v1.124h1.124v-1.124h1.124v1.124h-1.124v1.124H33.09v-1.124h-2.247v1.124h1.124v1.124h-1.124v3.371h-1.124v1.124h1.124
		v1.124h-1.124v1.124h1.124v2.247h1.124v1.124h-1.124v-1.124h-1.124v-2.247h-1.124v1.124h-1.124v1.124h1.124v1.124h-1.124v2.247
		h-2.247v1.124h2.247V91.8h-2.247v3.371h-1.124v3.371h2.247v1.124h1.124v-2.247h2.247v-1.124h1.124v-1.124h1.124v-1.124h1.124
		v-1.124h1.124V91.8h1.124v-1.124h2.247v-2.247h2.247v-1.124h1.124v-1.124h2.247v-1.124h1.124v-1.124h1.124v-1.124h2.247v-1.124
		h1.124v-1.124h2.247v-1.124h1.124v-1.124h1.124v-1.124h1.124V76.07h1.124v-1.124h1.124v-1.124h1.124v1.124h1.124v1.124h2.247v1.124
		h1.124v1.124h1.124v1.124h2.247v1.124h1.124v1.124h1.124v1.124h2.247v1.124h1.124v1.124h2.247v1.124h1.124v1.124h1.124v1.124h1.124
		v1.124h2.247v-1.124h-1.124v-1.124H76.91v-3.371h-1.124v-4.494h-1.124V76.07h-1.124v-3.371h-1.124v-3.371h-1.124v-4.494h1.124
		v2.247h1.124v3.371h1.124v3.371h1.124v3.371h1.124v3.371h1.124v4.494h1.124v3.371h1.124V91.8h1.124v1.124h1.124v2.247h1.124v-4.494
		h-1.124v-3.371h-1.124v-3.371h-1.124v-3.371h-1.124v-3.371h-1.124v-3.371H76.91v-4.494h-1.124v-3.371h-1.124v-1.124h-1.124V63.71
		h1.124v-1.124h1.124v-1.124h1.124V60.34h1.124v-1.124h2.247v-1.124h1.124v-1.124h1.124v-1.124h2.247v-1.124h1.124v-1.124h1.124
		v-1.124h2.247v-1.124h1.124v-1.124h1.124v-1.124h1.124V47.98h2.247v-1.124h1.124v-1.124h1.124v-1.124h1.124v-1.124h1.124v-1.124
		h1.124v-3.371h-1.124V41.238L99.382,41.238z"/>
	<polygon points="101.629,38.991 101.629,41.238 102.753,41.238 102.753,38.991 101.629,38.991 	"/>
	<polygon points="70.169,58.092 70.169,59.216 71.292,59.216 71.292,58.092 70.169,58.092 	"/>
	<polygon points="72.416,54.722 72.416,56.969 73.539,56.969 73.539,54.722 72.416,54.722 	"/>
	<polygon points="28.596,76.07 27.472,76.07 27.472,77.194 28.596,77.194 28.596,76.07 	"/>
	<polygon points="26.348,78.317 25.225,78.317 25.225,79.441 26.348,79.441 26.348,78.317 	"/>
	<polygon points="27.472,77.194 26.348,77.194 26.348,78.317 27.472,78.317 27.472,77.194 	"/>
	<polygon points="103.876,40.115 103.876,41.238 105,41.238 105,40.115 103.876,40.115 	"/>
	<polygon points="58.933,64.834 60.056,64.834 60.056,63.71 58.933,63.71 58.933,64.834 	"/>
	<polygon points="29.719,74.946 28.596,74.946 28.596,76.07 29.719,76.07 29.719,74.946 	"/>
	<polygon points="66.798,61.463 66.798,62.587 67.921,62.587 67.921,61.463 66.798,61.463 	"/>
	<polygon points="53.315,69.328 53.315,70.452 54.438,70.452 54.438,69.328 53.315,69.328 	"/>
	<polygon points="91.517,51.351 91.517,52.474 90.393,52.474 90.393,53.598 92.64,53.598 92.64,52.474 93.764,52.474 93.764,51.351 
		94.888,51.351 94.888,50.227 93.764,50.227 93.764,49.104 92.64,49.104 92.64,51.351 91.517,51.351 	"/>
	<polygon points="57.809,65.958 58.933,65.958 58.933,64.834 57.809,64.834 57.809,65.958 	"/>
	<polygon points="65.674,62.587 65.674,63.71 66.798,63.71 66.798,62.587 65.674,62.587 	"/>
	<polygon points="52.191,70.452 52.191,71.576 53.315,71.576 53.315,70.452 52.191,70.452 	"/>
	<polygon points="51.067,71.576 51.067,72.699 52.191,72.699 52.191,71.576 51.067,71.576 	"/>
	<polygon points="56.685,67.081 57.809,67.081 57.809,65.958 56.685,65.958 56.685,67.081 	"/>
	<polygon points="55.562,68.205 56.685,68.205 56.685,67.081 55.562,67.081 55.562,68.205 	"/>
	<polygon points="49.944,59.216 48.82,59.216 48.82,60.34 47.697,60.34 47.697,61.463 49.944,61.463 49.944,60.34 51.067,60.34 
		51.067,58.092 49.944,58.092 49.944,59.216 	"/>
	<polygon points="47.697,73.823 47.697,74.946 48.82,74.946 48.82,73.823 47.697,73.823 	"/>
	<polygon points="67.921,60.34 67.921,61.463 69.045,61.463 69.045,60.34 67.921,60.34 	"/>
	<polygon points="49.944,51.351 49.944,50.227 48.82,50.227 48.82,51.351 49.944,51.351 	"/>
	<polygon points="63.427,24.385 63.427,25.508 64.551,25.508 64.551,26.632 63.427,26.632 63.427,27.755 64.551,27.755 
		64.551,31.126 66.798,31.126 66.798,32.25 65.674,32.25 65.674,33.373 66.798,33.373 66.798,35.621 67.921,35.621 67.921,36.744 
		66.798,36.744 66.798,38.991 67.921,38.991 67.921,37.868 69.045,37.868 69.045,38.991 70.169,38.991 70.169,36.744 69.045,36.744 
		69.045,34.497 67.921,34.497 67.921,30.003 66.798,30.003 66.798,27.755 65.674,27.755 65.674,24.385 64.551,24.385 64.551,21.014 
		62.303,21.014 62.303,24.385 63.427,24.385 	"/>
	<polygon points="61.18,21.014 62.303,21.014 62.303,19.89 63.427,19.89 63.427,17.643 62.303,17.643 62.303,15.396 61.18,15.396 
		61.18,21.014 	"/>
	<polygon points="70.169,36.744 72.416,36.744 72.416,35.621 71.292,35.621 71.292,33.373 70.169,33.373 70.169,32.25 69.045,32.25 
		69.045,34.497 70.169,34.497 70.169,36.744 	"/>
	<polygon points="88.146,54.722 87.022,54.722 87.022,55.845 85.899,55.845 85.899,56.969 88.146,56.969 88.146,55.845 
		89.27,55.845 89.27,54.722 90.393,54.722 90.393,53.598 88.146,53.598 88.146,54.722 	"/>
	<polygon points="73.539,37.868 73.539,36.744 72.416,36.744 72.416,37.868 73.539,37.868 	"/>
	<polygon points="62.303,14.272 62.303,15.396 63.427,15.396 63.427,14.272 62.303,14.272 	"/>
	<polygon points="48.82,18.767 47.697,18.767 47.697,19.89 48.82,19.89 48.82,18.767 	"/>
	<polygon points="63.427,15.396 63.427,16.519 65.674,16.519 65.674,14.272 64.551,14.272 64.551,15.396 63.427,15.396 	"/>
	<polygon points="47.697,19.89 46.573,19.89 46.573,21.014 47.697,21.014 47.697,19.89 	"/>
	<polygon points="46.573,22.137 46.573,23.261 47.697,23.261 47.697,22.137 46.573,22.137 	"/>
	<polygon points="64.551,14.272 64.551,13.149 65.674,13.149 65.674,12.025 63.427,12.025 63.427,14.272 64.551,14.272 	"/>
	<polygon points="63.427,12.025 63.427,10.901 62.303,10.901 62.303,12.025 63.427,12.025 	"/>
	<polygon points="71.292,25.508 70.169,25.508 70.169,26.632 71.292,26.632 71.292,25.508 	"/>
	<polygon points="70.169,27.755 70.169,26.632 69.045,26.632 69.045,27.755 70.169,27.755 	"/>
	<polygon points="69.045,23.261 66.798,23.261 66.798,22.137 65.674,22.137 65.674,24.385 69.045,24.385 69.045,23.261 	"/>
	<polygon points="67.921,21.014 66.798,21.014 66.798,22.137 67.921,22.137 67.921,21.014 	"/>
	<polygon points="65.674,19.89 65.674,21.014 66.798,21.014 66.798,19.89 65.674,19.89 	"/>
	<polygon points="67.921,26.632 69.045,26.632 69.045,25.508 66.798,25.508 66.798,27.755 67.921,27.755 67.921,26.632 	"/>
	<polygon points="98.258,34.497 97.135,34.497 97.135,35.621 98.258,35.621 98.258,34.497 	"/>
	<polygon points="71.292,31.126 70.169,31.126 70.169,32.25 71.292,32.25 71.292,31.126 	"/>
	<polygon points="71.292,30.003 71.292,28.879 69.045,28.879 69.045,30.003 71.292,30.003 	"/>
	<polygon points="67.921,28.879 69.045,28.879 69.045,27.755 67.921,27.755 67.921,28.879 	"/>
	<polygon points="97.135,35.621 96.011,35.621 96.011,36.744 97.135,36.744 97.135,35.621 	"/>
	<polygon points="96.011,36.744 94.888,36.744 94.888,37.868 96.011,37.868 96.011,36.744 	"/>
	<polygon points="82.528,73.823 83.652,73.823 83.652,69.328 82.528,69.328 82.528,71.576 81.404,71.576 81.404,72.699 
		82.528,72.699 82.528,73.823 	"/>
	<polygon points="85.899,85.059 87.022,85.059 87.022,81.688 85.899,81.688 85.899,80.564 84.775,80.564 84.775,83.935 
		85.899,83.935 85.899,85.059 	"/>
	<polygon points="82.528,74.946 82.528,76.07 84.775,76.07 84.775,73.823 83.652,73.823 83.652,74.946 82.528,74.946 	"/>
	<polygon points="84.775,87.306 83.652,87.306 83.652,90.677 84.775,90.677 84.775,89.553 87.022,89.553 87.022,88.429 
		85.899,88.429 85.899,87.306 87.022,87.306 87.022,86.182 84.775,86.182 84.775,87.306 	"/>
	<polygon points="80.281,94.047 80.281,95.171 81.404,95.171 81.404,94.047 80.281,94.047 	"/>
	<path d="M75.787,92.924h-1.124V91.8h1.124V92.924L75.787,92.924z M75.787,96.295h-1.124v-1.124h1.124V96.295L75.787,96.295z
		 M73.539,95.171h-1.124v-1.124h-1.124v-1.124h1.124v1.124h1.124V95.171L73.539,95.171z M70.169,91.8h-1.124v-2.247h1.124V91.8
		L70.169,91.8z M67.921,88.429h-1.124v-1.124h1.124V88.429L67.921,88.429z M65.674,87.306h-1.124v-1.124h1.124V87.306L65.674,87.306
		z M62.303,86.182H61.18v1.124h1.124v2.247H61.18v-2.247h-1.124v-1.124h1.124v-1.124h1.124V86.182L62.303,86.182z M58.933,82.812
		v-1.124h1.124v1.124H58.933L58.933,82.812z M58.933,85.059h-1.124v-1.124h1.124V85.059L58.933,85.059z M56.685,82.812v-1.124h1.124
		v1.124H56.685L56.685,82.812z M56.685,85.059h-1.124v-1.124h1.124V85.059L56.685,85.059z M54.438,81.688v-1.124h1.124v1.124H54.438
		L54.438,81.688z M56.685,78.317h1.124v1.124h-1.124V78.317L56.685,78.317z M79.157,92.924V91.8h-1.124v-1.124h-2.247v-1.124h-1.124
		v-1.124h-1.124v-1.124h-2.247v-1.124h-1.124v-1.124h-2.247v-1.124h-1.124v-1.124h-1.124v-1.124h-2.247v-1.124h-1.124v-1.124H61.18
		v-1.124h-2.247v-1.124h-1.124V76.07h-2.247v1.124h-1.124v2.247h-2.247v2.247h1.124v1.124h-1.124v1.124h-1.124v1.124h2.247v-1.124
		h1.124v1.124h-1.124v2.247h2.247v-1.124h1.124v1.124h1.124v2.247h2.247v1.124h1.124V91.8h2.247v-1.124h1.124v-1.124h1.124v1.124
		h1.124V91.8h-1.124v-1.124h-1.124V91.8h-1.124v1.124h-1.124v1.124h1.124v1.124h1.124v-2.247h1.124v1.124h1.124v2.247h1.124v-1.124
		h1.124v-1.124h1.124v1.124h-1.124v1.124h-1.124v1.124h3.371v-1.124h1.124v1.124h1.124v1.124h-1.124v-1.124h-1.124v2.247h2.247
		v1.124h1.124v-1.124h1.124v-2.247h2.247v-1.124h1.124v-2.247h1.124v-1.124H79.157L79.157,92.924z"/>
	<polygon points="79.157,61.463 76.91,61.463 76.91,62.587 75.787,62.587 75.787,65.958 76.91,65.958 76.91,69.328 78.034,69.328 
		78.034,67.081 79.157,67.081 79.157,65.958 78.034,65.958 78.034,62.587 80.281,62.587 80.281,61.463 81.404,61.463 81.404,60.34 
		79.157,60.34 79.157,61.463 	"/>
	<polygon points="83.652,58.092 81.404,58.092 81.404,60.34 82.528,60.34 82.528,59.216 84.775,59.216 84.775,58.092 85.899,58.092 
		85.899,56.969 83.652,56.969 83.652,58.092 	"/>
	<polygon points="81.404,67.081 80.281,67.081 80.281,69.328 81.404,69.328 81.404,68.205 82.528,68.205 82.528,65.958 
		81.404,65.958 81.404,67.081 	"/>
	<polygon points="79.157,64.834 79.157,65.958 81.404,65.958 81.404,64.834 82.528,64.834 82.528,63.71 81.404,63.71 81.404,62.587 
		80.281,62.587 80.281,64.834 79.157,64.834 	"/>
	<polygon points="78.034,72.699 79.157,72.699 79.157,76.07 80.281,76.07 80.281,80.564 81.404,80.564 81.404,83.935 82.528,83.935 
		82.528,87.306 83.652,87.306 83.652,86.182 84.775,86.182 84.775,83.935 83.652,83.935 83.652,82.812 82.528,82.812 82.528,81.688 
		83.652,81.688 83.652,80.564 82.528,80.564 82.528,76.07 81.404,76.07 81.404,74.946 80.281,74.946 80.281,73.823 81.404,73.823 
		81.404,72.699 80.281,72.699 80.281,69.328 78.034,69.328 78.034,72.699 	"/>
	<polygon points="29.719,98.542 28.596,98.542 28.596,99.665 30.843,99.665 30.843,97.418 29.719,97.418 29.719,98.542 	"/>
	<polygon points="78.034,98.542 79.157,98.542 79.157,97.418 78.034,97.418 78.034,98.542 	"/>
	<polygon points="11.742,49.104 10.618,49.104 10.618,50.227 11.742,50.227 11.742,49.104 	"/>
	<polygon points="28.596,67.081 28.596,68.205 29.719,68.205 29.719,67.081 28.596,67.081 	"/>
	<polygon points="16.236,58.092 16.236,59.216 17.36,59.216 17.36,58.092 16.236,58.092 	"/>
	<polygon points="10.618,50.227 9.494,50.227 9.494,51.351 10.618,51.351 10.618,50.227 	"/>
	<polygon points="37.584,91.8 36.461,91.8 36.461,92.924 34.213,92.924 34.213,94.047 33.09,94.047 33.09,95.171 31.966,95.171 
		31.966,96.295 30.843,96.295 30.843,97.418 33.09,97.418 33.09,96.295 34.213,96.295 34.213,95.171 35.337,95.171 35.337,94.047 
		37.584,94.047 37.584,92.924 38.708,92.924 38.708,90.677 37.584,90.677 37.584,91.8 	"/>
	<polygon points="42.079,88.429 40.955,88.429 40.955,89.553 38.708,89.553 38.708,90.677 39.831,90.677 39.831,91.8 40.955,91.8 
		40.955,90.677 42.079,90.677 42.079,89.553 43.202,89.553 43.202,88.429 44.326,88.429 44.326,87.306 42.079,87.306 42.079,88.429 
			"/>
	<polygon points="76.91,99.665 78.034,99.665 78.034,98.542 76.91,98.542 76.91,99.665 	"/>
	<polygon points="75.787,100.789 76.91,100.789 76.91,99.665 75.787,99.665 75.787,100.789 	"/>
	<polygon points="48.82,83.935 46.573,83.935 46.573,85.059 45.449,85.059 45.449,86.182 44.326,86.182 44.326,87.306 
		46.573,87.306 46.573,86.182 47.697,86.182 47.697,85.059 49.944,85.059 49.944,82.812 48.82,82.812 48.82,83.935 	"/>
	<polygon points="49.944,81.688 49.944,82.812 52.191,82.812 52.191,81.688 49.944,81.688 	"/>
</g>
</svg>
