<?xml version="1.0" encoding="iso-8859-1"?>
<!-- Generator: Adobe Illustrator 28.3.0, SVG Export Plug-In . SVG Version: 6.00 Build 0)  -->
<svg version="1.1" id="Layer_1" xmlns="http://www.w3.org/2000/svg" xmlns:xlink="http://www.w3.org/1999/xlink" x="0px" y="0px"
	 width="110px" height="110px" viewBox="0 0 110 110" enable-background="new 0 0 110 110" xml:space="preserve">
<g>
	<polygon points="14.211,54.858 14.211,56.832 14.868,56.832 14.868,54.858 14.211,54.858 	"/>
	<polygon points="82.632,69.332 82.632,68.016 81.974,68.016 81.974,69.332 82.632,69.332 	"/>
	<polygon points="85.263,68.016 85.263,67.358 84.605,67.358 84.605,68.016 85.263,68.016 	"/>
	<polygon points="80,62.095 80,63.411 80.658,63.411 80.658,62.095 80,62.095 	"/>
	<polygon points="81.974,67.358 81.974,65.385 81.316,65.385 81.316,67.358 81.974,67.358 	"/>
	<polygon points="83.947,71.306 83.947,71.964 84.605,71.964 84.605,71.306 83.947,71.306 	"/>
	<polygon points="86.579,72.622 85.921,72.622 85.921,73.279 86.579,73.279 86.579,72.622 	"/>
	<polygon points="80.658,63.411 80.658,65.385 81.316,65.385 81.316,63.411 80.658,63.411 	"/>
	<polygon points="83.947,74.595 83.947,72.622 83.289,72.622 83.289,74.595 83.947,74.595 	"/>
	<polygon points="85.263,73.937 85.921,73.937 85.921,73.279 85.263,73.279 85.263,73.937 	"/>
	<polygon points="89.211,73.937 89.211,71.964 88.553,71.964 88.553,73.937 89.211,73.937 	"/>
	<polygon points="84.605,75.253 84.605,74.595 83.947,74.595 83.947,75.253 84.605,75.253 	"/>
	<polygon points="83.947,75.911 83.947,77.885 84.605,77.885 84.605,75.911 83.947,75.911 	"/>
	<polygon points="70.789,34.464 71.447,34.464 71.447,33.806 70.789,33.806 70.789,34.464 	"/>
	<polygon points="83.289,63.411 82.632,63.411 82.632,64.069 83.289,64.069 83.289,63.411 	"/>
	<polygon points="70.789,24.595 69.474,24.595 69.474,25.911 70.132,25.911 70.132,25.253 70.789,25.253 70.789,24.595 	"/>
	<polygon points="72.105,25.911 72.105,25.253 71.447,25.253 71.447,25.911 72.105,25.911 	"/>
	<polygon points="72.763,43.674 73.421,43.674 73.421,42.358 72.763,42.358 72.763,43.674 	"/>
	<polygon points="71.447,35.779 71.447,35.122 70.789,35.122 70.789,36.437 72.105,36.437 72.105,35.779 71.447,35.779 	"/>
	<polygon points="85.921,66.043 85.263,66.043 85.263,66.7 85.921,66.7 85.921,66.043 	"/>
	<polygon points="80,61.437 80,60.122 79.342,60.122 79.342,61.437 80,61.437 	"/>
	<polygon points="79.342,52.227 80,52.227 80,50.911 79.342,50.911 79.342,52.227 	"/>
	<polygon points="81.316,60.122 81.316,59.464 80.658,59.464 80.658,60.122 81.316,60.122 	"/>
	<polygon points="16.842,61.437 16.842,63.411 17.5,63.411 17.5,61.437 16.842,61.437 	"/>
	<polygon points="13.553,53.543 13.553,54.858 14.211,54.858 14.211,53.543 13.553,53.543 	"/>
	<polygon points="90.526,80.516 90.526,77.227 89.868,77.227 89.868,80.516 90.526,80.516 	"/>
	<path d="M83.289,14.727v0.658h-5.921v-0.658H83.289L83.289,14.727z M84.605,14.727v0.658h-0.658v-0.658H84.605L84.605,14.727z
		 M81.316,16.043V16.7h-0.658v-0.658H81.316L81.316,16.043z M78.026,18.016v0.658h-0.658v-0.658H78.026L78.026,18.016z
		 M78.684,19.332v0.658h-0.658v0.658h-0.658V19.99h0.658v-0.658H78.684L78.684,19.332z M83.947,19.99v0.658h-0.658V19.99H83.947
		L83.947,19.99z M78.026,21.964v1.316h-0.658v-1.316H78.026L78.026,21.964z M80,23.279v0.658h-0.658v-0.658H80L80,23.279z
		 M83.947,25.911v0.658h-0.658v-0.658H83.947L83.947,25.911z M84.605,27.885v0.658h-0.658v-0.658H84.605L84.605,27.885z
		 M78.684,29.2v0.658h-0.658V29.2H78.684L78.684,29.2z M84.605,30.516v0.658h-0.658v-0.658H84.605L84.605,30.516z M79.342,33.806
		v1.316h-0.658v-1.316H79.342L79.342,33.806z M85.263,33.806v0.658h-0.658v-0.658H85.263L85.263,33.806z M83.289,35.122h-0.658
		v-0.658h0.658V35.122L83.289,35.122z M80,35.122v-0.658h0.658v0.658H80L80,35.122z M81.316,35.779v0.658h-0.658v-0.658H81.316
		L81.316,35.779z M82.632,36.437v0.658h-0.658v-0.658H82.632L82.632,36.437z M85.921,36.437v1.316h-0.658v-1.316H85.921
		L85.921,36.437z M79.342,37.753v-0.658H80v0.658H79.342L79.342,37.753z M85.263,39.069v0.658h-1.316v-0.658H85.263L85.263,39.069z
		 M86.579,39.727v0.658h-0.658v-0.658H86.579L86.579,39.727z M83.947,41.043h-0.658v-0.658h0.658V41.043L83.947,41.043z M80,40.385
		v-0.658h0.658v0.658H80L80,40.385z M85.921,41.7v0.658h-0.658V41.7H85.921L85.921,41.7z M87.237,41.7v1.316h-0.658V41.7H87.237
		L87.237,41.7z M81.316,43.674h-0.658v-1.316h0.658V43.674L81.316,43.674z M85.921,43.674v0.658h-0.658v-0.658H85.921L85.921,43.674
		z M87.895,43.674v1.316h-0.658v-1.316H87.895L87.895,43.674z M85.263,45.648h-0.658V44.99h0.658V45.648L85.263,45.648z
		 M88.553,45.648v1.316h-0.658v-1.316H88.553L88.553,45.648z M82.632,47.622h-0.658v-0.658h0.658V47.622L82.632,47.622z
		 M83.947,47.622v0.658h-0.658v-0.658H83.947L83.947,47.622z M87.895,47.622v0.658h-0.658v-0.658H87.895L87.895,47.622z
		 M89.211,47.622v0.658h-0.658v-0.658H89.211L89.211,47.622z M82.632,46.306v-0.658h0.658v0.658H82.632L82.632,46.306z
		 M81.316,45.648V44.99h0.658v0.658H81.316L81.316,45.648z M83.289,48.937v0.658h-0.658v-0.658H83.289L83.289,48.937z
		 M87.237,48.937v0.658h0.658v0.658h-0.658v-0.658h-0.658v-0.658H87.237L87.237,48.937z M89.868,49.595v0.658h-0.658v-0.658H89.868
		L89.868,49.595z M83.947,51.569h-0.658v-1.316h0.658V51.569L83.947,51.569z M90.526,51.569v0.658h-0.658v-0.658H90.526
		L90.526,51.569z M84.605,52.885h-0.658v-0.658h0.658V52.885L84.605,52.885z M91.184,52.885v0.658h-0.658v-0.658H91.184
		L91.184,52.885z M84.605,49.595h0.658v0.658h-0.658V49.595L84.605,49.595z M85.263,54.2v0.658h-0.658V54.2H85.263L85.263,54.2z
		 M87.895,54.2v0.658h-0.658v0.658h-0.658v-0.658h0.658V54.2H87.895L87.895,54.2z M89.211,54.2v0.658h-0.658V54.2H89.211
		L89.211,54.2z M90.526,54.858v0.658h-0.658v-0.658H90.526L90.526,54.858z M91.842,55.516v0.658H92.5v0.658h-0.658v-0.658h-0.658
		v-0.658H91.842L91.842,55.516z M85.263,56.174v-0.658h0.658v0.658H85.263L85.263,56.174z M86.579,57.49v0.658h-0.658V57.49H86.579
		L86.579,57.49z M87.895,57.49v0.658h-0.658V57.49H87.895L87.895,57.49z M89.868,57.49v0.658h-0.658V57.49H89.868L89.868,57.49z
		 M93.158,58.148v0.658H92.5v-0.658H93.158L93.158,58.148z M87.237,59.464h-0.658v-0.658h0.658V59.464L87.237,59.464z
		 M90.526,59.464v0.658h-0.658v0.658h-0.658v-0.658h0.658v-0.658H90.526L90.526,59.464z M91.842,59.464v0.658H92.5v0.658h-0.658
		v-0.658h-0.658v-0.658H91.842L91.842,59.464z M93.816,59.464v0.658h-0.658v-0.658H93.816L93.816,59.464z M94.474,60.779v0.658
		h-1.316v-0.658H94.474L94.474,60.779z M87.237,61.437v-0.658h0.658v0.658H87.237L87.237,61.437z M88.553,62.095v0.658h-0.658
		v-0.658H88.553L88.553,62.095z M95.132,62.753v1.316h-0.658v-0.658h-0.658v-0.658H95.132L95.132,62.753z M89.211,64.727h-0.658
		v-0.658h0.658V64.727L89.211,64.727z M91.842,64.727v0.658h-0.658v-0.658H91.842L91.842,64.727z M95.789,64.727v1.316h-0.658
		v-1.316H95.789L95.789,64.727z M89.868,66.7h-0.658v-0.658h0.658V66.7L89.868,66.7z M96.447,66.7v1.316h-0.658V66.7H96.447
		L96.447,66.7z M90.526,68.674h-0.658v-0.658h0.658V68.674L90.526,68.674z M95.789,68.674v0.658h-0.658v-0.658H95.789L95.789,68.674
		z M97.105,69.332v1.316h-0.658v0.658h-0.658v-0.658h0.658v-1.316H97.105L97.105,69.332z M95.789,71.964v0.658h-0.658v-0.658h-0.658
		v-0.658h0.658v0.658H95.789L95.789,71.964z M97.763,71.964v1.316h-0.658v0.658h-0.658v-0.658h0.658v-1.316H97.763L97.763,71.964z
		 M91.184,73.279v-0.658h0.658v0.658H91.184L91.184,73.279z M93.158,70.648V69.99h0.658v0.658H93.158L93.158,70.648z M90.526,70.648
		V69.99h0.658v0.658H90.526L90.526,70.648z M92.5,75.253v0.658h-0.658v-0.658H92.5L92.5,75.253z M98.421,75.253v0.658h-0.658v-0.658
		H98.421L98.421,75.253z M95.789,77.227v0.658h-0.658v-0.658H95.789L95.789,77.227z M97.105,77.227v0.658h-0.658v-0.658H97.105
		L97.105,77.227z M93.158,78.543V79.2H92.5v-0.658H93.158L93.158,78.543z M99.079,78.543V79.2h-0.658v-0.658H99.079L99.079,78.543z
		 M96.447,79.858h-0.658V79.2h0.658V79.858L96.447,79.858z M94.474,79.858V79.2h0.658v0.658H94.474L94.474,79.858z M99.737,81.174
		v0.658h-0.658v-0.658H99.737L99.737,81.174z M93.816,82.49v0.658h-0.658V82.49H93.816L93.816,82.49z M99.737,83.148v0.658h-0.658
		v-0.658H99.737L99.737,83.148z M93.816,85.122v0.658h-0.658v-0.658H93.816L93.816,85.122z M99.737,85.122v0.658h-0.658v-0.658
		H99.737L99.737,85.122z M95.132,86.437h-0.658v-0.658h0.658V86.437L95.132,86.437z M100.395,87.095v0.658h-0.658v-0.658H100.395
		L100.395,87.095z M94.474,88.411v0.658h-1.316v-0.658H94.474L94.474,88.411z M97.763,91.043V91.7h-0.658v-0.658H97.763
		L97.763,91.043z M100.395,91.7v0.658h-0.658V91.7H100.395L100.395,91.7z M94.474,96.306v0.658h-0.658v-0.658H94.474L94.474,96.306z
		 M76.053,14.069v0.658h0.658v0.658h-0.658v9.868h0.658v5.921h0.658v3.289h-0.658V32.49h-0.658v3.289h0.658v-0.658h1.316v1.974
		h-0.658v-1.316h-0.658v3.289h0.658v-0.658h1.316v1.316h-1.316V41.7h0.658v-1.316h0.658V41.7h0.658v1.974H80v2.632h0.658v1.974
		h0.658v1.974h0.658v1.316h0.658v1.974h0.658v1.974h0.658v1.316h0.658v1.974h0.658v1.316h0.658v1.974h0.658v1.316h0.658v1.974h0.658
		v1.974h0.658v1.974h0.658v1.974h0.658v2.632h0.658v2.632h0.658v3.289h0.658v4.605H92.5v7.895h0.658v7.237h5.921v-0.658h0.658v0.658
		h2.632v-5.263h-0.658v-0.658h0.658V91.7h-0.658v0.658h-0.658v-1.316h-0.658v-0.658h-0.658v-0.658h0.658v0.658h0.658v0.658h1.316
		v-0.658h-0.658v-1.316h-0.658v-0.658h0.658v-1.974h-0.658v-0.658h0.658v-2.632h-0.658v0.658h-0.658v-0.658h0.658v-1.974h-0.658
		v-0.658h0.658v-1.974h-0.658V79.2h-0.658v-0.658h0.658v-1.974h-0.658v-0.658h-0.658v-0.658h0.658v-1.316h-0.658v-0.658h0.658
		v-0.658h-1.316v-0.658h0.658v-1.316h-0.658V69.99h-0.658v-0.658h0.658v-1.316h-1.316v-0.658h0.658v-1.316h-1.316v-0.658h0.658
		v-1.316h-1.316v-0.658h0.658v-1.316h-1.316v-0.658h0.658v-1.316h-1.316v-0.658h0.658v-1.316h-0.658v0.658h-0.658v-0.658h0.658
		v-1.316h-1.316v-0.658h0.658v-1.316h-0.658v0.658H92.5v-0.658h0.658V54.2h0.658v0.658h0.658v-1.316h-2.632v-0.658H92.5v-1.316
		h-0.658v0.658h-0.658v-0.658h0.658v-1.974h-0.658v0.658h-0.658v-0.658h0.658v-1.316h-1.316v-0.658h0.658v-1.316h-0.658v0.658
		h-0.658v-0.658h0.658V44.99h-1.316v-0.658h0.658v-1.316h-0.658v-0.658h-0.658V41.7h0.658v-1.316h-1.316v-0.658h0.658v-1.316h-0.658
		v-0.658h-0.658v-0.658h0.658v-1.316h-0.658v-0.658h0.658v-1.316h-0.658v0.658h-0.658v-0.658h0.658V32.49h-0.658v-0.658h0.658
		v-1.974h-0.658v0.658h-0.658v-0.658h0.658v-1.316h-0.658v-0.658h0.658v-2.632h-1.316v-0.658h1.316v-0.658h-0.658v-1.974h-0.658
		v0.658h-1.974v-0.658h1.974v-0.658h0.658V19.99h-0.658v-0.658h0.658v-0.658h-0.658v-0.658h0.658V16.7h-0.658v-0.658h0.658v-1.974
		h-1.974v-0.658h-5.263v0.658H76.053L76.053,14.069z"/>
	<polygon points="16.184,60.122 16.184,61.437 16.842,61.437 16.842,60.122 16.184,60.122 	"/>
	<polygon points="9.605,41.7 9.605,43.674 10.263,43.674 10.263,41.7 9.605,41.7 	"/>
	<polygon points="90.526,87.753 90.526,87.095 89.868,87.095 89.868,87.753 90.526,87.753 	"/>
	<polygon points="18.158,65.385 18.158,67.358 18.816,67.358 18.816,65.385 18.158,65.385 	"/>
	<polygon points="76.053,26.569 76.053,25.911 75.395,25.911 75.395,26.569 76.053,26.569 	"/>
	<polygon points="17.5,63.411 17.5,65.385 18.158,65.385 18.158,63.411 17.5,63.411 	"/>
	<polygon points="19.474,69.332 19.474,71.306 20.132,71.306 20.132,69.332 19.474,69.332 	"/>
	<polygon points="14.868,56.832 14.868,58.148 15.526,58.148 15.526,56.832 14.868,56.832 	"/>
	<polygon points="87.895,87.095 87.895,87.753 88.553,87.753 88.553,87.095 87.895,87.095 	"/>
	<polygon points="87.237,83.806 87.237,83.148 86.579,83.148 86.579,83.806 87.237,83.806 	"/>
	<polygon points="88.553,83.148 88.553,82.49 87.895,82.49 87.895,83.148 88.553,83.148 	"/>
	<polygon points="89.211,74.595 89.211,77.227 89.868,77.227 89.868,74.595 89.211,74.595 	"/>
	<polygon points="91.184,84.464 91.184,81.174 90.526,81.174 90.526,84.464 91.184,84.464 	"/>
	<polygon points="92.5,95.648 92.5,94.332 91.842,94.332 91.842,95.648 92.5,95.648 	"/>
	<polygon points="86.579,96.306 86.579,95.648 87.237,95.648 87.237,94.99 86.579,94.99 86.579,93.016 85.921,93.016 85.921,96.306 
		86.579,96.306 	"/>
	<polygon points="89.868,93.016 89.868,93.674 90.526,93.674 90.526,93.016 89.868,93.016 	"/>
	<polygon points="91.842,93.016 91.842,85.779 91.184,85.779 91.184,93.016 91.842,93.016 	"/>
	<polygon points="87.895,93.674 87.895,94.332 88.553,94.332 88.553,93.674 87.895,93.674 	"/>
	<polygon points="18.816,67.358 18.816,69.332 19.474,69.332 19.474,67.358 18.816,67.358 	"/>
	<polygon points="87.895,97.622 87.237,97.622 87.237,98.279 87.895,98.279 87.895,97.622 	"/>
	<polygon points="78.026,102.227 78.026,101.569 77.368,101.569 77.368,102.227 78.026,102.227 	"/>
	<polygon points="24.079,101.569 24.079,102.227 24.737,102.227 24.737,101.569 24.079,101.569 	"/>
	<polygon points="68.158,100.911 68.158,100.253 58.947,100.253 58.947,100.911 59.605,100.911 59.605,101.569 60.263,101.569 
		60.263,100.911 64.211,100.911 64.211,101.569 64.868,101.569 64.868,100.911 65.526,100.911 65.526,101.569 66.184,101.569 
		66.184,100.911 68.158,100.911 	"/>
	<polygon points="102.368,73.279 102.368,72.622 101.711,72.622 101.711,73.279 102.368,73.279 	"/>
	<polygon points="102.368,100.911 102.368,100.253 93.158,100.253 93.158,100.911 102.368,100.911 	"/>
	<polygon points="86.579,99.595 86.579,96.964 85.921,96.964 85.921,99.595 86.579,99.595 	"/>
	<polygon points="75.395,99.595 75.395,96.306 74.737,96.306 74.737,99.595 75.395,99.595 	"/>
	<polygon points="34.605,93.674 34.605,99.595 35.263,99.595 35.263,93.674 34.605,93.674 	"/>
	<polygon points="51.711,94.99 51.711,99.595 52.368,99.595 52.368,94.99 51.711,94.99 	"/>
	<polygon points="41.184,100.253 41.184,97.622 40.526,97.622 40.526,96.964 39.868,96.964 39.868,98.279 40.526,98.279 
		40.526,100.253 41.184,100.253 	"/>
	<polygon points="58.289,99.595 58.289,94.99 57.632,94.99 57.632,99.595 58.289,99.595 	"/>
	<polygon points="68.816,100.253 69.474,100.253 69.474,98.279 70.132,98.279 70.132,96.964 69.474,96.964 69.474,97.622 
		68.816,97.622 68.816,100.253 	"/>
	<polygon points="75.395,94.332 74.737,94.332 74.737,95.648 75.395,95.648 75.395,94.332 	"/>
	<polygon points="68.816,94.332 68.816,96.964 69.474,96.964 69.474,94.332 68.816,94.332 	"/>
	<polygon points="35.263,100.253 35.921,100.253 35.921,99.595 35.263,99.595 35.263,100.253 	"/>
	<polygon points="92.5,99.595 92.5,96.306 91.842,96.306 91.842,98.279 90.526,98.279 90.526,98.937 91.842,98.937 91.842,99.595 
		92.5,99.595 	"/>
	<polygon points="104.342,81.174 104.342,80.516 103.684,80.516 103.684,81.174 104.342,81.174 	"/>
	<polygon points="105,84.464 105,83.806 104.342,83.806 104.342,84.464 105,84.464 	"/>
	<polygon points="102.368,82.49 102.368,80.516 101.711,80.516 101.711,82.49 102.368,82.49 	"/>
	<polygon points="100.395,73.279 100.395,74.595 101.053,74.595 101.053,73.279 100.395,73.279 	"/>
	<polygon points="105,73.937 105,73.279 104.342,73.279 104.342,73.937 105,73.937 	"/>
	<polygon points="105,75.253 105,74.595 104.342,74.595 104.342,75.253 105,75.253 	"/>
	<polygon points="103.026,84.464 103.026,82.49 102.368,82.49 102.368,84.464 103.026,84.464 	"/>
	<polygon points="103.684,99.595 103.684,96.306 103.026,96.306 103.026,99.595 103.684,99.595 	"/>
	<polygon points="91.184,100.253 91.184,99.595 90.526,99.595 90.526,100.253 91.184,100.253 	"/>
	<polygon points="103.684,95.648 103.684,94.332 104.342,94.332 104.342,93.674 103.026,93.674 103.026,95.648 103.684,95.648 	"/>
	<polygon points="105,90.385 105,89.727 104.342,89.727 104.342,90.385 105,90.385 	"/>
	<polygon points="103.684,91.043 103.684,89.727 103.026,89.727 103.026,91.043 103.684,91.043 	"/>
	<polygon points="103.684,93.016 103.684,91.7 103.026,91.7 103.026,93.016 103.684,93.016 	"/>
	<polygon points="103.684,89.069 103.684,88.411 103.026,88.411 103.026,85.122 102.368,85.122 102.368,89.069 103.684,89.069 	"/>
	<polygon points="89.211,96.964 89.211,96.306 88.553,96.306 88.553,96.964 89.211,96.964 	"/>
	<polygon points="5,21.306 5,21.964 5.658,21.964 5.658,21.306 5,21.306 	"/>
	<polygon points="6.316,14.069 6.316,23.937 5.658,23.937 5.658,24.595 6.974,24.595 6.974,14.069 6.316,14.069 	"/>
	<polygon points="5,18.016 5,18.674 5.658,18.674 5.658,18.016 5,18.016 	"/>
	<polygon points="35.921,11.437 35.921,12.753 36.579,12.753 36.579,11.437 35.921,11.437 	"/>
	<polygon points="5,31.832 5,32.49 5.658,32.49 5.658,31.832 5,31.832 	"/>
	<polygon points="41.184,93.674 40.526,93.674 40.526,96.964 41.184,96.964 41.184,93.674 	"/>
	<polygon points="6.974,25.911 6.974,30.516 7.632,30.516 7.632,25.911 6.974,25.911 	"/>
	<polygon points="22.105,12.095 22.105,12.753 22.763,12.753 22.763,12.095 22.105,12.095 	"/>
	<polygon points="25.395,10.122 25.395,10.779 26.053,10.779 26.053,10.122 25.395,10.122 	"/>
	<polygon points="5,11.437 5,12.753 5.658,12.753 5.658,11.437 5,11.437 	"/>
	<polygon points="15.526,10.122 15.526,10.779 16.184,10.779 16.184,10.122 15.526,10.122 	"/>
	<polygon points="7.632,12.095 7.632,12.753 16.842,12.753 16.842,12.095 7.632,12.095 	"/>
	<polygon points="6.316,32.49 6.316,33.148 6.974,33.148 6.974,32.49 6.316,32.49 	"/>
	<polygon points="18.816,12.095 18.816,12.753 19.474,12.753 19.474,12.095 18.816,12.095 	"/>
	<polygon points="24.737,12.095 24.737,12.753 33.947,12.753 33.947,12.095 24.737,12.095 	"/>
	<polygon points="6.974,24.595 6.974,25.253 7.632,25.253 7.632,24.595 6.974,24.595 	"/>
	<polygon points="22.763,85.122 22.763,89.069 22.105,89.069 22.105,89.727 23.421,89.727 23.421,85.122 22.763,85.122 	"/>
	<polygon points="22.763,90.385 22.763,91.043 23.421,91.043 23.421,90.385 22.763,90.385 	"/>
	<polygon points="23.421,92.358 23.421,94.332 22.763,94.332 22.763,94.99 24.079,94.99 24.079,92.358 23.421,92.358 	"/>
	<polygon points="23.421,91.043 23.421,91.7 24.079,91.7 24.079,91.043 23.421,91.043 	"/>
	<polygon points="50.395,101.569 50.395,100.911 51.053,100.911 51.053,100.253 41.842,100.253 41.842,100.911 49.737,100.911 
		49.737,101.569 50.395,101.569 	"/>
	<polygon points="23.421,95.648 23.421,99.595 24.079,99.595 24.079,95.648 23.421,95.648 	"/>
	<polygon points="21.447,98.937 21.447,99.595 22.105,99.595 22.105,98.937 21.447,98.937 	"/>
	<polygon points="10.921,46.306 10.921,47.622 11.579,47.622 11.579,46.306 10.921,46.306 	"/>
	<polygon points="7.632,31.832 7.632,35.122 8.289,35.122 8.289,31.832 7.632,31.832 	"/>
	<polygon points="11.579,48.279 11.579,49.595 12.237,49.595 12.237,48.279 11.579,48.279 	"/>
	<polygon points="8.947,39.069 8.947,41.043 9.605,41.043 9.605,39.069 8.947,39.069 	"/>
	<polygon points="21.447,77.227 21.447,79.858 22.105,79.858 22.105,77.227 21.447,77.227 	"/>
	<polygon points="20.789,73.937 20.789,76.569 21.447,76.569 21.447,73.937 20.789,73.937 	"/>
	<polygon points="16.842,69.332 16.842,69.99 17.5,69.99 17.5,69.332 16.842,69.332 	"/>
	<polygon points="18.816,75.253 18.816,75.911 19.474,75.911 19.474,75.253 18.816,75.253 	"/>
	<polygon points="51.053,12.753 51.053,12.095 41.842,12.095 41.842,12.753 51.053,12.753 	"/>
	<polygon points="78.026,44.332 78.026,44.99 78.684,44.99 78.684,46.306 79.342,46.306 79.342,44.332 78.026,44.332 	"/>
	<polygon points="81.316,56.174 81.974,56.174 81.974,55.516 81.316,55.516 81.316,56.174 	"/>
	<polygon points="79.342,46.306 79.342,48.279 80,48.279 80,46.306 79.342,46.306 	"/>
	<polygon points="80,48.279 80,49.595 79.342,49.595 79.342,50.253 80.658,50.253 80.658,48.279 80,48.279 	"/>
	<polygon points="68.158,10.122 68.158,9.464 67.5,9.464 67.5,10.122 68.158,10.122 	"/>
	<polygon points="81.974,57.49 82.632,57.49 82.632,56.832 81.974,56.832 81.974,57.49 	"/>
	<polygon points="41.842,10.122 42.5,10.122 42.5,9.464 41.842,9.464 41.842,10.122 	"/>
	<polygon points="78.026,43.674 78.684,43.674 78.684,41.7 78.026,41.7 78.026,43.674 	"/>
	<polygon points="102.368,79.858 102.368,78.543 101.711,78.543 101.711,79.858 102.368,79.858 	"/>
	<polygon points="101.711,75.911 101.053,75.911 101.053,78.543 101.711,78.543 101.711,75.911 	"/>
	<polygon points="100.395,75.911 100.395,75.253 99.737,75.253 99.737,75.911 100.395,75.911 	"/>
	<polygon points="87.895,71.306 88.553,71.306 88.553,69.332 87.895,69.332 87.895,71.306 	"/>
	<polygon points="85.263,63.411 85.921,63.411 85.921,62.095 85.263,62.095 85.263,63.411 	"/>
	<polygon points="86.579,65.385 86.579,67.358 87.237,67.358 87.237,65.385 86.579,65.385 	"/>
	<polygon points="85.921,64.069 85.921,65.385 86.579,65.385 86.579,64.069 85.921,64.069 	"/>
	<polygon points="80.658,50.253 80.658,52.227 81.316,52.227 81.316,50.253 80.658,50.253 	"/>
	<polygon points="83.947,58.806 83.947,60.122 84.605,60.122 84.605,58.806 83.947,58.806 	"/>
	<polygon points="87.895,12.753 87.895,12.095 87.237,12.095 87.237,12.753 87.895,12.753 	"/>
	<polygon points="85.263,12.753 85.263,12.095 75.395,12.095 75.395,12.753 85.263,12.753 	"/>
	<polygon points="84.605,60.122 84.605,62.095 85.263,62.095 85.263,60.122 84.605,60.122 	"/>
	<polygon points="83.289,56.832 83.289,58.806 83.947,58.806 83.947,56.832 83.289,56.832 	"/>
	<polygon points="87.237,67.358 87.237,69.332 87.895,69.332 87.895,67.358 87.237,67.358 	"/>
	<path d="M14.868,14.727v0.658H8.947v-0.658H14.868L14.868,14.727z M12.895,16.043V16.7h-0.658v-0.658H12.895L12.895,16.043z
		 M9.605,17.358v0.658H8.947v-0.658H9.605L9.605,17.358z M15.526,18.674v0.658h-0.658v-0.658H15.526L15.526,18.674z M15.526,19.99
		v0.658h-0.658V19.99H15.526L15.526,19.99z M9.605,21.306H8.947v-0.658h0.658V21.306L9.605,21.306z M15.526,22.622v0.658h-0.658
		v-0.658H15.526L15.526,22.622z M10.263,28.543V29.2H9.605v-0.658H10.263L10.263,28.543z M15.526,28.543V29.2h0.658v0.658h-0.658
		V29.2h-0.658v-0.658H15.526L15.526,28.543z M11.579,31.832v0.658h-0.658v-0.658H11.579L11.579,31.832z M16.842,31.832v0.658h-1.316
		v-0.658H16.842L16.842,31.832z M10.921,33.148v1.316h-0.658v-1.316H10.921L10.921,33.148z M12.237,33.148v0.658h-0.658v-0.658
		H12.237L12.237,33.148z M16.842,33.806v0.658h-0.658v-0.658H16.842L16.842,33.806z M14.211,35.122h-0.658v0.658h-1.316v-0.658
		h1.316v-0.658h0.658V35.122L14.211,35.122z M11.579,36.437v0.658h-0.658v-0.658H11.579L11.579,36.437z M17.5,36.437v0.658h-0.658
		v-0.658H17.5L17.5,36.437z M9.605,37.753H8.947v-0.658h0.658V37.753L9.605,37.753z M18.158,39.069v0.658H17.5v-0.658H18.158
		L18.158,39.069z M12.237,40.385h-0.658v-0.658h0.658V40.385L12.237,40.385z M18.816,41.7v0.658H17.5v0.658h-0.658v-0.658H17.5V41.7
		H18.816L18.816,41.7z M12.237,43.016v-0.658h0.658v0.658H12.237L12.237,43.016z M19.474,43.674v0.658h-0.658v-0.658H19.474
		L19.474,43.674z M13.553,44.99h-0.658v-0.658h0.658V44.99L13.553,44.99z M16.184,44.99v0.658h-0.658V44.99H16.184L16.184,44.99z
		 M20.132,44.99v0.658h-0.658V44.99H20.132L20.132,44.99z M14.211,46.306v0.658h-0.658v-0.658H14.211L14.211,46.306z M20.789,46.964
		v1.316h-0.658v-0.658h-0.658v-0.658H20.789L20.789,46.964z M14.868,48.937h-0.658v-0.658h0.658V48.937L14.868,48.937z
		 M21.447,48.937v0.658h-0.658v-0.658H21.447L21.447,48.937z M15.526,50.253v0.658h-0.658v-0.658H15.526L15.526,50.253z
		 M22.105,50.911v1.316h0.658v0.658h-0.658v-0.658h-0.658v-1.316H22.105L22.105,50.911z M17.5,53.543h-0.658V54.2h-0.658v-0.658
		h0.658v-0.658H17.5V53.543L17.5,53.543z M20.132,54.2v0.658h-0.658V54.2H20.132L20.132,54.2z M23.421,54.2v0.658h-1.316v0.658
		h-0.658v-0.658h0.658V54.2H23.421L23.421,54.2z M24.079,55.516v1.316h-0.658v-1.316H24.079L24.079,55.516z M18.158,57.49H17.5
		v-0.658h0.658V57.49L18.158,57.49z M24.737,57.49v0.658h-0.658V57.49H24.737L24.737,57.49z M20.132,56.174h0.658v0.658h-0.658
		V56.174L20.132,56.174z M16.842,56.174v-0.658H17.5v0.658H16.842L16.842,56.174z M18.816,51.569h0.658v0.658h-0.658V51.569
		L18.816,51.569z M15.526,52.885v-0.658h0.658v0.658H15.526L15.526,52.885z M18.816,58.806v0.658h-0.658v-0.658H18.816
		L18.816,58.806z M25.395,58.806v1.316h-0.658v-1.316H25.395L25.395,58.806z M19.474,61.437h-0.658v-1.316h0.658V61.437
		L19.474,61.437z M23.421,60.779v0.658h-0.658v-0.658H23.421L23.421,60.779z M26.053,61.437v0.658h-0.658v-0.658H26.053
		L26.053,61.437z M20.789,61.437h0.658v0.658h-0.658V61.437L20.789,61.437z M20.132,62.753h-0.658v-0.658h0.658V62.753
		L20.132,62.753z M26.711,62.753v0.658h-0.658v0.658h-0.658v-0.658h0.658v-0.658H26.711L26.711,62.753z M20.132,64.727v-0.658h0.658
		v0.658H20.132L20.132,64.727z M27.368,64.727v0.658h-0.658v0.658h-0.658v-0.658h0.658v-0.658H27.368L27.368,64.727z M20.789,66.7
		v-1.316h0.658V66.7H20.789L20.789,66.7z M28.026,66.7v1.316h-0.658V66.7H28.026L28.026,66.7z M26.053,68.016v-0.658h0.658v0.658
		H26.053L26.053,68.016z M21.447,68.016v-0.658h0.658v0.658H21.447L21.447,68.016z M21.447,59.464h0.658v0.658h-0.658V59.464
		L21.447,59.464z M22.105,68.674v0.658h0.658v1.316h-0.658v-1.316h-0.658v-0.658H22.105L22.105,68.674z M24.737,68.674v0.658h-0.658
		v-0.658H24.737L24.737,68.674z M26.053,68.674v0.658h0.658v0.658h-0.658v-0.658h-0.658v-0.658H26.053L26.053,68.674z
		 M28.684,68.674v1.316h-0.658v-1.316H28.684L28.684,68.674z M29.342,71.306v1.316h-0.658v-1.316H29.342L29.342,71.306z
		 M22.763,72.622v-0.658h0.658v0.658H22.763L22.763,72.622z M24.737,73.279v0.658h-0.658v-0.658H24.737L24.737,73.279z
		 M28.026,73.937v0.658h-0.658v-0.658H28.026L28.026,73.937z M30,74.595v0.658h-0.658v-0.658H30L30,74.595z M26.711,75.911h-0.658
		v-0.658h0.658V75.911L26.711,75.911z M23.421,75.253v-0.658h0.658v0.658H23.421L23.421,75.253z M24.079,76.569v0.658h-0.658v-0.658
		H24.079L24.079,76.569z M24.737,77.885v0.658h-0.658v-0.658H24.737L24.737,77.885z M30.658,77.885v0.658H30v-0.658H30.658
		L30.658,77.885z M28.684,81.174v0.658h-0.658v-0.658H28.684L28.684,81.174z M24.737,82.49v-0.658h0.658v0.658H24.737L24.737,82.49z
		 M31.316,83.148v0.658h-0.658v-0.658H31.316L31.316,83.148z M25.395,84.464v0.658h-0.658v-0.658H25.395L25.395,84.464z
		 M31.974,85.779v0.658h-1.316v-0.658H31.974L31.974,85.779z M26.053,87.095v1.316h-0.658v-1.316H26.053L26.053,87.095z
		 M31.974,87.095v0.658h-0.658v-0.658H31.974L31.974,87.095z M31.974,89.727v0.658h-0.658v-0.658H31.974L31.974,89.727z
		 M7.632,14.069v9.868h0.658v0.658h0.658v0.658H8.289v5.263h0.658v4.605h0.658v1.316H8.947v-0.658H8.289v2.632h1.974v2.632h0.658
		v2.632h0.658v1.974h0.658v1.974h0.658v1.974h0.658v1.974h0.658v1.974h0.658v1.316h0.658v1.974h0.658v1.316h0.658v0.658h-0.658
		v-0.658h-0.658v0.658h-0.658v0.658h0.658v0.658h0.658v-0.658h0.658v0.658H17.5v1.316h0.658v1.974h0.658v1.974h0.658V66.7h0.658
		v1.974h0.658v2.632h0.658v1.974h0.658v3.289h0.658v3.289h0.658v3.947h0.658v6.579h0.658v10.526h9.211v-0.658h-8.553v-0.658h1.316
		v-0.658h0.658v0.658h6.579v-3.947h-0.658V94.99h0.658v-2.632h-0.658V91.7h0.658v-1.974h-0.658v0.658h-0.658v-0.658h0.658v-0.658
		h0.658v-0.658h-0.658v-0.658h-0.658v-0.658h0.658v-1.316h-0.658v-0.658h0.658v-0.658h1.316v-1.316h-0.658v0.658h-0.658v-0.658
		h-1.316V82.49h0.658v-1.316h-1.974v-0.658h1.974v-1.974h0.658V79.2h0.658v-1.316h-1.974v0.658h-0.658v-0.658h0.658v-1.316h-0.658
		v-0.658h0.658v-1.316h-0.658v0.658h-0.658v-0.658h0.658v-1.316h-0.658v-0.658H30v-0.658h0.658v-1.316H30V69.99h-0.658v-0.658H30
		v-1.316h-0.658v-0.658h-0.658V66.7h0.658v-1.316h-1.316v-0.658h0.658v-1.316h-1.316v-0.658h0.658v-1.316h-0.658v0.658h-0.658
		v-0.658h0.658v-1.974h-0.658v0.658h-0.658v-0.658h0.658v-1.316h-1.316V57.49h0.658v-1.316h-0.658v0.658h-0.658v-0.658h0.658v-1.316
		h-1.316V54.2h0.658v-1.316h-0.658v0.658h-0.658v-0.658h0.658v-1.316h-1.316v-0.658h0.658v-1.316h-0.658v0.658h-0.658v-0.658h0.658
		v-1.316h-1.316v-0.658h0.658v-1.316h-1.316v-0.658h0.658v-1.316h-1.316v-0.658h0.658v-1.316h-1.316V41.7h0.658v-1.316h-0.658
		v-0.658h-0.658v-0.658h0.658v-1.974h-1.316v-0.658h0.658v-1.316h-0.658v-0.658h0.658v-1.316h-0.658v0.658H17.5v-0.658h0.658v-1.316
		H17.5v-0.658h0.658v-0.658h1.316v-1.974h-0.658v1.316h-0.658V29.2H17.5v0.658h-0.658V29.2H17.5v-1.974h-0.658v-0.658H17.5v-1.974
		h-0.658v-0.658h-0.658v-0.658h0.658v0.658H17.5v-1.316h-0.658v-1.316h-0.658v-0.658h0.658v-1.974h-0.658v-0.658h0.658v-1.974
		h-0.658v-0.658h0.658v-1.316h-1.974v-0.658H9.605v0.658H7.632L7.632,14.069z"/>
	<polygon points="96.447,59.464 96.447,58.148 95.789,58.148 95.789,59.464 96.447,59.464 	"/>
	<polygon points="68.158,12.753 68.158,12.095 58.947,12.095 58.947,12.753 68.158,12.753 	"/>
	<polygon points="78.026,10.779 78.026,11.437 78.684,11.437 78.684,10.779 78.026,10.779 	"/>
	<polygon points="84.605,10.779 84.605,10.122 83.947,10.122 83.947,10.779 84.605,10.779 	"/>
	<polygon points="81.316,52.227 81.316,53.543 81.974,53.543 81.974,52.227 81.316,52.227 	"/>
	<polygon points="82.632,55.516 82.632,56.832 83.289,56.832 83.289,55.516 82.632,55.516 	"/>
	<polygon points="81.974,53.543 81.974,55.516 82.632,55.516 82.632,53.543 81.974,53.543 	"/>
	<polygon points="91.842,48.279 91.842,46.306 91.184,46.306 91.184,48.279 91.842,48.279 	"/>
	<polygon points="91.184,44.332 90.526,44.332 90.526,46.306 91.184,46.306 91.184,44.332 	"/>
	<polygon points="89.868,41.7 89.868,40.385 89.211,40.385 89.211,41.7 89.868,41.7 	"/>
	<polygon points="89.211,39.727 89.211,37.753 88.553,37.753 88.553,39.727 89.211,39.727 	"/>
	<polygon points="94.474,48.937 94.474,48.279 93.816,48.279 93.816,48.937 94.474,48.937 	"/>
	<polygon points="86.579,22.622 86.579,19.332 85.921,19.332 85.921,22.622 86.579,22.622 	"/>
	<polygon points="87.895,18.674 87.895,18.016 87.237,18.016 87.237,18.674 87.895,18.674 	"/>
	<polygon points="97.105,61.437 97.105,60.122 96.447,60.122 96.447,61.437 97.105,61.437 	"/>
	<polygon points="88.553,21.964 88.553,21.306 87.895,21.306 87.895,21.964 88.553,21.964 	"/>
	<polygon points="87.237,25.911 87.237,24.595 86.579,24.595 86.579,25.911 87.237,25.911 	"/>
	<polygon points="99.737,69.332 99.737,68.016 99.079,68.016 99.079,69.332 99.737,69.332 	"/>
	<polygon points="100.395,69.99 100.395,70.648 101.053,70.648 101.053,69.332 99.737,69.332 99.737,69.99 100.395,69.99 	"/>
	<polygon points="99.737,71.964 100.395,71.964 100.395,70.648 99.737,70.648 99.737,71.964 	"/>
	<polygon points="97.105,63.411 97.763,63.411 97.763,62.095 97.105,62.095 97.105,63.411 	"/>
	<polygon points="98.421,62.095 98.421,61.437 97.763,61.437 97.763,62.095 98.421,62.095 	"/>
	<polygon points="99.079,67.358 99.079,66.043 98.421,66.043 98.421,67.358 99.079,67.358 	"/>
	<polygon points="98.421,65.385 98.421,64.069 97.763,64.069 97.763,65.385 98.421,65.385 	"/>
	<polygon points="88.553,36.437 89.211,36.437 89.211,35.779 88.553,35.779 88.553,35.122 87.895,35.122 87.895,37.095 
		88.553,37.095 88.553,36.437 	"/>
	<polygon points="101.053,72.622 101.053,71.964 100.395,71.964 100.395,72.622 101.053,72.622 	"/>
	<polygon points="91.842,43.674 91.184,43.674 91.184,44.332 91.842,44.332 91.842,43.674 	"/>
	<polygon points="89.868,42.358 89.868,44.332 90.526,44.332 90.526,42.358 89.868,42.358 	"/>
	<polygon points="92.5,49.595 92.5,48.279 91.842,48.279 91.842,49.595 92.5,49.595 	"/>
	<polygon points="86.579,18.674 86.579,16.043 85.921,16.043 85.921,18.674 86.579,18.674 	"/>
	<polygon points="95.132,56.174 95.132,54.858 94.474,54.858 94.474,56.174 95.132,56.174 	"/>
	<polygon points="93.816,52.885 93.816,51.569 93.158,51.569 93.158,52.885 93.816,52.885 	"/>
	<polygon points="93.158,50.253 92.5,50.253 92.5,51.569 93.158,51.569 93.158,50.253 	"/>
	<polygon points="87.237,27.227 87.895,27.227 87.895,26.569 86.579,26.569 86.579,29.858 87.237,29.858 87.237,27.227 	"/>
	<polygon points="86.579,15.385 86.579,14.069 85.921,14.069 85.921,15.385 86.579,15.385 	"/>
	<polygon points="87.895,31.174 87.895,29.858 87.237,29.858 87.237,31.174 87.895,31.174 	"/>
	<polygon points="87.895,31.832 87.237,31.832 87.237,33.806 87.895,33.806 87.895,31.832 	"/>
	<polygon points="87.895,37.753 87.895,37.095 87.237,37.095 87.237,37.753 87.895,37.753 	"/>
	<polygon points="95.789,56.832 95.132,56.832 95.132,58.148 95.789,58.148 95.789,56.832 	"/>
	<polygon points="88.553,34.464 88.553,33.806 87.895,33.806 87.895,34.464 88.553,34.464 	"/>
	<polygon points="53.026,67.358 53.026,69.332 53.684,69.332 53.684,67.358 53.026,67.358 	"/>
	<polygon points="46.447,50.253 46.447,51.569 47.105,51.569 47.105,50.253 46.447,50.253 	"/>
	<polygon points="41.184,27.227 41.184,31.174 41.842,31.174 41.842,27.227 41.184,27.227 	"/>
	<polygon points="47.105,51.569 47.105,53.543 47.763,53.543 47.763,51.569 47.105,51.569 	"/>
	<polygon points="41.842,31.832 42.5,31.832 42.5,31.174 41.842,31.174 41.842,31.832 	"/>
	<polygon points="64.868,69.99 64.868,69.332 64.211,69.332 64.211,69.99 64.868,69.99 	"/>
	<polygon points="45.789,48.279 45.789,50.253 46.447,50.253 46.447,48.279 45.789,48.279 	"/>
	<polygon points="48.421,55.516 48.421,56.832 49.079,56.832 49.079,55.516 48.421,55.516 	"/>
	<polygon points="47.763,53.543 47.763,55.516 48.421,55.516 48.421,53.543 47.763,53.543 	"/>
	<polygon points="47.763,59.464 49.079,59.464 49.079,58.806 47.763,58.806 47.763,59.464 	"/>
	<polygon points="56.974,85.122 57.632,85.122 57.632,84.464 56.974,84.464 56.974,85.122 	"/>
	<polygon points="53.684,71.306 54.342,71.306 54.342,69.332 53.684,69.332 53.684,71.306 	"/>
	<polygon points="65.526,72.622 65.526,71.964 64.868,71.964 64.868,72.622 65.526,72.622 	"/>
	<polygon points="45.132,46.306 45.132,48.279 45.789,48.279 45.789,46.306 45.132,46.306 	"/>
	<polygon points="66.184,69.99 65.526,69.99 65.526,71.964 66.184,71.964 66.184,69.99 	"/>
	<polygon points="52.368,66.7 53.026,66.7 53.026,65.385 52.368,65.385 52.368,66.7 	"/>
	<polygon points="44.474,44.332 44.474,46.306 45.132,46.306 45.132,44.332 44.474,44.332 	"/>
	<polygon points="49.737,58.806 49.737,60.122 50.395,60.122 50.395,58.806 49.737,58.806 	"/>
	<polygon points="49.079,56.832 49.079,58.806 49.737,58.806 49.737,56.832 49.079,56.832 	"/>
	<polygon points="30.658,54.858 31.316,54.858 31.316,53.543 30.658,53.543 30.658,54.858 	"/>
	<polygon points="31.316,55.516 31.316,56.832 31.974,56.832 31.974,55.516 31.316,55.516 	"/>
	<polygon points="35.263,65.385 35.263,67.358 35.921,67.358 35.921,65.385 35.263,65.385 	"/>
	<polygon points="24.737,26.569 24.079,26.569 24.079,31.174 25.395,31.174 25.395,30.516 24.737,30.516 24.737,26.569 	"/>
	<polygon points="50.395,60.122 50.395,62.095 51.053,62.095 51.053,60.122 50.395,60.122 	"/>
	<polygon points="32.632,58.806 32.632,60.122 33.289,60.122 33.289,58.806 32.632,58.806 	"/>
	<polygon points="31.316,58.806 31.974,58.806 31.974,58.148 31.316,58.148 31.316,58.806 	"/>
	<polygon points="31.974,58.148 32.632,58.148 32.632,56.832 31.974,56.832 31.974,58.148 	"/>
	<polygon points="29.342,50.253 29.342,51.569 30,51.569 30,50.253 29.342,50.253 	"/>
	<polygon points="60.921,56.174 60.921,54.858 60.263,54.858 60.263,56.174 60.921,56.174 	"/>
	<polygon points="60.263,54.858 60.263,52.885 59.605,52.885 59.605,54.858 60.263,54.858 	"/>
	<polygon points="51.053,62.095 51.053,63.411 51.711,63.411 51.711,62.095 51.053,62.095 	"/>
	<polygon points="35.921,67.358 35.921,69.332 36.579,69.332 36.579,67.358 35.921,67.358 	"/>
	<polygon points="59.605,52.885 59.605,51.569 58.947,51.569 58.947,52.885 59.605,52.885 	"/>
	<polygon points="43.816,56.174 43.816,54.858 43.158,54.858 43.158,56.174 43.816,56.174 	"/>
	<polygon points="36.579,69.332 36.579,71.306 37.237,71.306 37.237,69.332 36.579,69.332 	"/>
	<polygon points="37.237,71.306 37.237,73.937 37.895,73.937 37.895,71.306 37.237,71.306 	"/>
	<polygon points="53.026,24.595 53.026,23.279 52.368,23.279 52.368,24.595 53.026,24.595 	"/>
	<polygon points="58.289,26.569 58.947,26.569 58.947,25.911 58.289,25.911 58.289,26.569 	"/>
	<polygon points="59.605,35.122 59.605,32.49 58.947,32.49 58.947,35.122 59.605,35.122 	"/>
	<polygon points="54.342,36.437 54.342,34.464 53.684,34.464 53.684,36.437 54.342,36.437 	"/>
	<polygon points="58.947,31.174 58.947,27.227 58.289,27.227 58.289,31.174 58.947,31.174 	"/>
	<polygon points="53.684,33.148 53.684,31.174 53.026,31.174 53.026,33.148 53.684,33.148 	"/>
	<polygon points="55,39.069 55,37.753 54.342,37.753 54.342,39.069 55,39.069 	"/>
	<polygon points="56.316,37.753 56.316,37.095 55.658,37.095 55.658,37.753 56.316,37.753 	"/>
	<polygon points="60.263,38.411 60.263,35.779 59.605,35.779 59.605,38.411 60.263,38.411 	"/>
	<polygon points="55,37.095 55,36.437 54.342,36.437 54.342,37.095 55,37.095 	"/>
	<polygon points="59.605,46.306 59.605,45.648 58.947,45.648 58.947,46.306 59.605,46.306 	"/>
	<polygon points="56.316,44.332 56.316,45.648 56.974,45.648 56.974,44.332 56.316,44.332 	"/>
	<polygon points="58.947,47.622 58.947,46.964 58.289,46.964 58.289,47.622 58.947,47.622 	"/>
	<polygon points="57.632,47.622 57.632,46.306 56.974,46.306 56.974,47.622 57.632,47.622 	"/>
	<polygon points="54.342,33.806 54.342,33.148 53.684,33.148 53.684,33.806 54.342,33.806 	"/>
	<polygon points="57.632,39.069 57.632,39.727 58.289,39.727 58.289,39.069 57.632,39.069 	"/>
	<polygon points="55.658,43.674 56.316,43.674 56.316,42.358 55.658,42.358 55.658,43.674 	"/>
	<polygon points="55,41.7 55.658,41.7 55.658,40.385 55,40.385 55,41.7 	"/>
	<polygon points="62.895,60.122 62.237,60.122 62.237,61.437 62.895,61.437 62.895,60.122 	"/>
	<polygon points="58.947,50.253 58.289,50.253 58.289,51.569 58.947,51.569 58.947,50.253 	"/>
	<polygon points="63.553,59.464 62.895,59.464 62.895,60.122 63.553,60.122 63.553,59.464 	"/>
	<polygon points="61.579,58.148 61.579,57.49 62.237,57.49 62.237,56.832 61.579,56.832 61.579,56.174 60.921,56.174 60.921,58.148 
		61.579,58.148 	"/>
	<polygon points="62.237,59.464 62.237,58.148 61.579,58.148 61.579,59.464 62.237,59.464 	"/>
	<polygon points="65.526,68.016 64.868,68.016 64.868,69.332 65.526,69.332 65.526,68.016 	"/>
	<polygon points="64.868,62.753 64.211,62.753 64.211,63.411 64.868,63.411 64.868,62.753 	"/>
	<polygon points="63.553,63.411 63.553,61.437 62.895,61.437 62.895,63.411 63.553,63.411 	"/>
	<polygon points="64.211,65.385 64.211,63.411 63.553,63.411 63.553,65.385 64.211,65.385 	"/>
	<polygon points="65.526,60.122 66.184,60.122 66.184,59.464 65.526,59.464 65.526,60.122 	"/>
	<polygon points="58.289,14.069 57.632,14.069 57.632,16.043 58.289,16.043 58.289,14.069 	"/>
	<polygon points="58.289,23.937 58.289,16.7 57.632,16.7 57.632,23.937 58.289,23.937 	"/>
	<polygon points="58.289,48.279 57.632,48.279 57.632,49.595 58.289,49.595 58.289,48.279 	"/>
	<polygon points="33.289,61.437 33.947,61.437 33.947,60.122 33.289,60.122 33.289,61.437 	"/>
	<polygon points="57.632,25.253 58.289,25.253 58.289,24.595 57.632,24.595 57.632,25.253 	"/>
	<polygon points="53.684,37.095 53.026,37.095 53.026,37.753 53.684,37.753 53.684,37.095 	"/>
	<polygon points="53.684,30.516 53.684,29.2 53.026,29.2 53.026,30.516 53.684,30.516 	"/>
	<polygon points="53.026,34.464 53.026,33.806 52.368,33.806 52.368,34.464 53.026,34.464 	"/>
	<polygon points="51.711,14.069 51.711,21.964 52.368,21.964 52.368,14.069 51.711,14.069 	"/>
	<polygon points="45.132,54.858 45.789,54.858 45.789,54.2 45.132,54.2 45.132,54.858 	"/>
	<polygon points="42.5,48.279 42.5,48.937 43.158,48.937 43.158,48.279 42.5,48.279 	"/>
	<polygon points="43.158,49.595 43.816,49.595 43.816,48.937 43.158,48.937 43.158,49.595 	"/>
	<polygon points="39.868,46.306 39.868,47.622 40.526,47.622 40.526,46.306 39.868,46.306 	"/>
	<polygon points="48.421,60.122 48.421,60.779 49.079,60.779 49.079,60.122 48.421,60.122 	"/>
	<polygon points="49.079,69.332 49.737,69.332 49.737,68.674 49.079,68.674 49.079,69.332 	"/>
	<polygon points="43.158,45.648 43.816,45.648 43.816,44.99 43.158,44.99 43.158,45.648 	"/>
	<polygon points="49.737,67.358 49.737,68.016 50.395,68.016 50.395,67.358 49.737,67.358 	"/>
	<polygon points="50.395,71.964 50.395,73.279 51.053,73.279 51.053,71.964 50.395,71.964 	"/>
	<polygon points="36.579,32.49 36.579,31.174 35.921,31.174 35.921,33.148 36.579,33.148 36.579,33.806 37.237,33.806 37.237,32.49 
		36.579,32.49 	"/>
	<polygon points="37.895,39.069 37.895,37.753 37.237,37.753 37.237,39.069 37.895,39.069 	"/>
	<polygon points="37.237,36.437 37.237,34.464 36.579,34.464 36.579,36.437 37.237,36.437 	"/>
	<polygon points="43.816,43.674 44.474,43.674 44.474,41.7 43.816,41.7 43.816,43.674 	"/>
	<polygon points="43.816,41.043 43.816,39.069 43.158,39.069 43.158,41.043 43.816,41.043 	"/>
	<polygon points="43.158,37.753 43.158,35.779 42.5,35.779 42.5,37.753 43.158,37.753 	"/>
	<polygon points="42.5,35.122 42.5,32.49 41.842,32.49 41.842,35.122 42.5,35.122 	"/>
	<polygon points="41.184,37.095 41.842,37.095 41.842,36.437 41.184,36.437 41.184,37.095 	"/>
	<polygon points="52.368,94.332 52.368,91.7 51.711,91.7 51.711,94.332 52.368,94.332 	"/>
	<polygon points="75.395,25.911 75.395,14.069 74.737,14.069 74.737,25.911 75.395,25.911 	"/>
	<polygon points="51.053,84.464 51.053,88.411 51.711,88.411 51.711,84.464 51.053,84.464 	"/>
	<polygon points="51.711,89.727 52.368,89.727 52.368,88.411 51.711,88.411 51.711,89.727 	"/>
	<polygon points="58.289,94.332 58.289,93.016 57.632,93.016 57.632,94.332 58.289,94.332 	"/>
	<path d="M45.132,14.727v0.658h-1.974v-0.658H45.132L45.132,14.727z M49.737,14.727v0.658h-3.289v0.658h-0.658V16.7h-0.658v0.658
		h-0.658V16.7h0.658v-0.658h0.658v-1.316H49.737L49.737,14.727z M49.737,17.358v0.658h-0.658v-0.658H49.737L49.737,17.358z
		 M45.132,18.674v-0.658h0.658v0.658H45.132L45.132,18.674z M48.421,18.674v0.658h1.316v0.658h-1.316v-0.658h-0.658v-0.658H48.421
		L48.421,18.674z M43.158,19.332v-0.658h0.658v0.658H43.158L43.158,19.332z M43.816,21.306v0.658h-0.658v-0.658H43.816
		L43.816,21.306z M49.737,21.306v0.658h-0.658v0.658h-0.658v-0.658h0.658v-0.658H49.737L49.737,21.306z M44.474,23.279h-0.658
		v-0.658h0.658V23.279L44.474,23.279z M49.737,23.279v0.658h-0.658v-0.658H49.737L49.737,23.279z M47.763,25.911v0.658h-0.658
		v-0.658H47.763L47.763,25.911z M48.421,27.227v0.658h-0.658v-0.658H48.421L48.421,27.227z M45.132,28.543h-0.658v1.316h-0.658
		v-1.316h0.658v-0.658h0.658V28.543L45.132,28.543z M46.447,28.543V29.2h-0.658v-0.658H46.447L46.447,28.543z M49.079,29.2v0.658
		h-0.658V29.2H49.079L49.079,29.2z M50.395,29.858v0.658h-0.658v-0.658H50.395L50.395,29.858z M51.711,29.858v0.658h-0.658v-0.658
		H51.711L51.711,29.858z M45.789,31.174v-0.658h0.658v0.658H45.789L45.789,31.174z M45.789,32.49v0.658h-0.658v0.658h-0.658v-0.658
		h0.658V32.49H45.789L45.789,32.49z M47.105,33.148v0.658h0.658v0.658h-0.658v-0.658h-0.658v-0.658H47.105L47.105,33.148z
		 M51.053,33.806v0.658h-0.658v0.658h-0.658v-0.658h0.658v-0.658H51.053L51.053,33.806z M46.447,35.779v0.658h-0.658v0.658h-0.658
		v-0.658h0.658v-0.658H46.447L46.447,35.779z M51.711,37.095v0.658h-0.658v-0.658H51.711L51.711,37.095z M45.789,38.411v0.658
		h-0.658v-0.658H45.789L45.789,38.411z M52.368,39.069v1.316h-0.658v-1.316H52.368L52.368,39.069z M45.789,40.385v-0.658h0.658
		v0.658H45.789L45.789,40.385z M53.026,41.7v0.658h-0.658V41.7H53.026L53.026,41.7z M47.105,43.016h-0.658v-0.658h0.658V43.016
		L47.105,43.016z M53.684,43.674v0.658h-0.658v-0.658H53.684L53.684,43.674z M52.368,44.99h-0.658v-0.658h0.658V44.99L52.368,44.99z
		 M53.684,44.99v0.658h0.658v0.658h-0.658v-0.658h-0.658V44.99H53.684L53.684,44.99z M48.421,47.622h-0.658v-1.316h-0.658v-0.658
		h0.658v0.658h0.658V47.622L48.421,47.622z M55,46.964v0.658h-0.658v-0.658H55L55,46.964z M50.395,48.279h0.658v0.658h0.658v0.658
		h-0.658v-0.658h-0.658V48.279h-0.658v-0.658h0.658V48.279L50.395,48.279z M53.026,48.937v0.658h-0.658v-0.658H53.026L53.026,48.937
		z M55.658,48.937v1.316H55v-0.658h-0.658v-0.658H55.658L55.658,48.937z M49.737,50.911h-0.658v-0.658h0.658V50.911L49.737,50.911z
		 M56.316,50.911v0.658h-0.658v-0.658H56.316L56.316,50.911z M55,52.227h-0.658v-0.658H55V52.227L55,52.227z M56.974,52.227v1.316
		h-0.658v-1.316H56.974L56.974,52.227z M55,54.2h-0.658v-0.658h-0.658v-0.658h0.658v0.658H55V54.2L55,54.2z M57.632,54.2v0.658
		h-0.658V54.2H57.632L57.632,54.2z M52.368,53.543h0.658V54.2h-0.658V53.543L52.368,53.543z M50.395,54.858V54.2h0.658v0.658H50.395
		L50.395,54.858z M51.053,52.885v-0.658h0.658v0.658H51.053L51.053,52.885z M49.737,52.885v-0.658h0.658v0.658H49.737L49.737,52.885
		z M48.421,49.595v-1.316h0.658v1.316H48.421L48.421,49.595z M49.079,44.99h0.658v0.658h1.316v0.658h-1.316v-0.658h-0.658V44.99
		L49.079,44.99z M47.105,44.99v-0.658h0.658v0.658H47.105L47.105,44.99z M51.711,55.516v0.658h-0.658v-0.658H51.711L51.711,55.516z
		 M58.289,56.174v0.658h-0.658v-0.658H58.289L58.289,56.174z M52.368,57.49v0.658h-0.658V57.49H52.368L52.368,57.49z M58.947,57.49
		v1.316h-0.658V57.49H58.947L58.947,57.49z M52.368,59.464v-0.658h0.658v0.658H52.368L52.368,59.464z M55.658,59.464v0.658H55
		v-0.658H55.658L55.658,59.464z M59.605,59.464v0.658h-0.658v-0.658H59.605L59.605,59.464z M58.289,60.779h-0.658v0.658h-0.658
		v-0.658h0.658v-0.658h0.658V60.779L58.289,60.779z M60.263,60.779v1.316h-0.658v-1.316H60.263L60.263,60.779z M58.947,62.753
		h-0.658v-0.658h0.658V62.753L58.947,62.753z M60.921,62.753v1.316h-0.658v-1.316H60.921L60.921,62.753z M55,64.727h-0.658v-0.658
		H55V64.727L55,64.727z M61.579,64.727v1.316h-1.316v-0.658h0.658v-0.658H61.579L61.579,64.727z M55.658,66.7H55v-0.658h0.658V66.7
		L55.658,66.7z M62.237,66.7v1.316h-0.658V66.7H62.237L62.237,66.7z M56.316,68.674h-0.658v-0.658h0.658V68.674L56.316,68.674z
		 M59.605,68.674v0.658h-1.316v-0.658H59.605L59.605,68.674z M61.579,68.674v0.658h-0.658v-0.658H61.579L61.579,68.674z
		 M62.895,69.332v0.658h-0.658v-0.658H62.895L62.895,69.332z M58.289,70.648h-0.658V69.99h0.658V70.648L58.289,70.648z
		 M56.316,70.648V69.99h0.658v0.658H56.316L56.316,70.648z M55,63.411v-0.658h0.658v0.658H55L55,63.411z M53.684,63.411v-1.316
		h0.658v1.316H53.684L53.684,63.411z M55.658,61.437h0.658v0.658h0.658v0.658h-0.658v-0.658h-0.658V61.437L55.658,61.437z
		 M54.342,61.437v-0.658H55v0.658H54.342L54.342,61.437z M53.026,61.437v-0.658h0.658v0.658H53.026L53.026,61.437z M56.974,71.306
		v0.658h0.658v0.658h-0.658v-0.658h-0.658v-0.658H56.974L56.974,71.306z M63.553,71.306v1.316h-0.658v-1.316H63.553L63.553,71.306z
		 M60.263,73.279h-0.658v-0.658h0.658V73.279L60.263,73.279z M58.289,74.595v1.316h-0.658v-1.316H58.289L58.289,74.595z
		 M64.211,74.595v1.316h-0.658v-1.316H64.211L64.211,74.595z M61.579,76.569v0.658h-1.316v-0.658H61.579L61.579,76.569z
		 M58.947,77.885v0.658h-0.658v-0.658H58.947L58.947,77.885z M62.237,77.885v0.658h-0.658v-0.658H62.237L62.237,77.885z
		 M64.868,78.543V79.2h-0.658v-0.658H64.868L64.868,78.543z M63.553,79.858h-0.658V79.2h0.658V79.858L63.553,79.858z M65.526,81.174
		v0.658h-0.658v-0.658H65.526L65.526,81.174z M62.895,82.49v-0.658h0.658v0.658H62.895L62.895,82.49z M61.579,83.148v0.658h-0.658
		v-0.658H61.579L61.579,83.148z M65.526,83.148v0.658h-1.316v-0.658H65.526L65.526,83.148z M58.947,82.49v-0.658h0.658v0.658H58.947
		L58.947,82.49z M64.211,85.122v0.658h-0.658v-0.658H64.211L64.211,85.122z M65.526,85.122v0.658h-0.658v-0.658H65.526
		L65.526,85.122z M60.921,86.437h-0.658v0.658h-0.658v-0.658h0.658v-0.658h0.658V86.437L60.921,86.437z M66.842,86.437v0.658h-1.316
		v0.658h-0.658v-0.658h0.658v-0.658H66.842L66.842,86.437z M61.579,88.411h-0.658v-0.658h0.658V88.411L61.579,88.411z
		 M66.184,88.411v0.658h-0.658v-0.658H66.184L66.184,88.411z M59.605,89.069v-0.658h0.658v0.658H59.605L59.605,89.069z
		 M66.184,91.043V91.7h-0.658v-0.658H66.184L66.184,91.043z M64.868,93.016v0.658h-0.658v-0.658H64.868L64.868,93.016z
		 M60.921,94.332v-0.658h0.658v0.658H60.921L60.921,94.332z M65.526,94.99v0.658h-0.658V94.99H65.526L65.526,94.99z M66.842,97.622
		v0.658h-0.658v-0.658H66.842L66.842,97.622z M41.842,14.069v10.526h-0.658V16.7h-0.658v8.553h0.658v1.316h0.658v-1.316H42.5v5.921
		h0.658v3.947h0.658v3.289h0.658v2.632h0.658v2.632h0.658v1.974h0.658v2.632h0.658v1.974h0.658v1.316h0.658v1.974h0.658v1.316h0.658
		v1.974h0.658v1.974h0.658v1.316h0.658v1.974h0.658v1.316h0.658v0.658h-0.658v-0.658h-0.658v1.974h0.658v-0.658h0.658v0.658h0.658
		v1.974h0.658v1.974H55v1.974h0.658v2.632h0.658v2.632h0.658v3.289h0.658v4.605h0.658V91.7h0.658v7.895h2.632v-0.658h0.658v0.658
		h5.921V94.99H67.5v-0.658h0.658v-1.316H67.5v-0.658h0.658v-1.974H67.5v0.658h-0.658v-0.658H67.5v-0.658h0.658v-0.658H67.5v-0.658
		h-0.658v-0.658H67.5v-1.974h-0.658v-0.658H67.5v-1.974h-0.658v0.658h-0.658v-0.658h0.658v-1.974h-0.658v-0.658h0.658v-1.974h-0.658
		V79.2h-0.658v-0.658h0.658v-1.316h-0.658v-1.316h0.658v-0.658h-1.316v-0.658h0.658v-1.316h-0.658v-0.658h-0.658v-0.658h0.658
		v-1.316h-0.658V69.99h-0.658v-0.658h0.658v-1.316h-1.316v-0.658h0.658v-1.316h-1.316v-1.316h0.658v-1.316h-0.658v0.658h-0.658
		v-0.658h0.658v-1.974h-0.658v0.658h-0.658v-0.658h0.658v-1.316h-1.316v-0.658h0.658v-1.316h-1.316V57.49h0.658v-1.316h-0.658v0.658
		h-0.658v-0.658h0.658v-1.316h-1.316V54.2h0.658v-1.316h-0.658v0.658h-0.658v-0.658h0.658v-1.316h-1.316v-0.658h0.658v-1.316h-0.658
		v0.658h-0.658v-0.658h0.658v-1.316h-1.316v-0.658h0.658v-1.316H55v-0.658h0.658v-1.316h-1.316v-0.658H55v-1.316h-1.316V41.7h0.658
		v-1.316h-1.316v-0.658h0.658v-1.316h-0.658v-0.658h-0.658v-1.316h0.658v-1.316h-0.658v0.658h-1.316v-0.658h1.316v-0.658h-0.658
		v-0.658h0.658V32.49h-0.658v-0.658h0.658V29.2h-0.658v-0.658h-0.658v-0.658h0.658v-1.316h-0.658v-0.658h1.316V29.2h0.658v-3.947
		h-1.316v-0.658h-1.316v-0.658h1.316v-1.316h-0.658V19.99h-0.658v-0.658h0.658V16.7h-0.658v-0.658h0.658v-1.974h-1.974v-0.658
		h-5.263v0.658H41.842L41.842,14.069z"/>
	<polygon points="51.711,91.043 52.368,91.043 52.368,90.385 51.711,90.385 51.711,91.043 	"/>
	<polygon points="56.316,79.858 56.316,77.227 55.658,77.227 55.658,79.858 56.316,79.858 	"/>
	<polygon points="55,73.937 55,71.964 54.342,71.964 54.342,73.937 55,73.937 	"/>
	<polygon points="57.632,91.7 57.632,85.779 56.974,85.779 56.974,91.7 57.632,91.7 	"/>
	<polygon points="55.658,76.569 55.658,74.595 55,74.595 55,76.569 55.658,76.569 	"/>
	<polygon points="51.053,81.832 51.053,79.858 50.395,79.858 50.395,81.832 51.053,81.832 	"/>
	<polygon points="56.974,83.806 56.974,80.516 56.316,80.516 56.316,83.806 56.974,83.806 	"/>
	<polygon points="53.684,76.569 54.342,76.569 54.342,75.911 53.684,75.911 53.684,76.569 	"/>
	<polygon points="51.711,83.806 51.711,81.832 51.053,81.832 51.053,83.806 51.711,83.806 	"/>
	<polygon points="54.342,81.174 54.342,80.516 53.684,80.516 53.684,81.174 54.342,81.174 	"/>
	<polygon points="53.026,79.858 53.026,80.516 53.684,80.516 53.684,79.858 53.026,79.858 	"/>
	<polygon points="53.026,77.227 53.026,77.885 53.684,77.885 53.684,77.227 53.026,77.227 	"/>
	<polygon points="51.053,79.2 51.053,77.885 50.395,77.885 50.395,79.2 51.053,79.2 	"/>
	<polygon points="48.421,72.622 48.421,71.964 47.763,71.964 47.763,72.622 48.421,72.622 	"/>
	<polygon points="50.395,75.253 50.395,74.595 49.737,74.595 49.737,75.253 50.395,75.253 	"/>
	<polygon points="49.079,69.99 48.421,69.99 48.421,71.964 49.079,71.964 49.079,69.99 	"/>
	<polygon points="49.737,72.622 49.079,72.622 49.079,74.595 49.737,74.595 49.737,72.622 	"/>
	<polygon points="47.763,69.99 47.763,69.332 47.105,69.332 47.105,69.99 47.763,69.99 	"/>
	<polygon points="45.789,60.122 45.132,60.122 45.132,61.437 45.789,61.437 45.789,60.122 	"/>
	<polygon points="48.421,68.016 47.763,68.016 47.763,69.332 48.421,69.332 48.421,68.016 	"/>
	<polygon points="46.447,63.411 46.447,61.437 45.789,61.437 45.789,63.411 46.447,63.411 	"/>
	<polygon points="38.553,41.7 38.553,40.385 37.895,40.385 37.895,41.7 38.553,41.7 	"/>
	<polygon points="37.895,76.569 38.553,76.569 38.553,73.937 37.895,73.937 37.895,76.569 	"/>
	<polygon points="33.289,64.069 33.947,64.069 33.947,63.411 33.289,63.411 33.289,64.069 	"/>
	<polygon points="50.395,75.911 49.737,75.911 49.737,77.885 50.395,77.885 50.395,75.911 	"/>
	<polygon points="33.947,62.095 33.947,63.411 34.605,63.411 34.605,62.095 33.947,62.095 	"/>
	<polygon points="32.632,62.095 32.632,63.411 33.289,63.411 33.289,62.095 32.632,62.095 	"/>
	<polygon points="39.868,84.464 40.526,84.464 40.526,83.806 39.868,83.806 39.868,84.464 	"/>
	<polygon points="34.605,63.411 34.605,65.385 35.263,65.385 35.263,63.411 34.605,63.411 	"/>
	<polygon points="49.737,78.543 49.737,77.885 49.079,77.885 49.079,78.543 49.737,78.543 	"/>
	<polygon points="47.105,64.727 47.105,63.411 46.447,63.411 46.447,64.727 47.105,64.727 	"/>
	<polygon points="35.263,23.937 35.263,25.911 35.921,25.911 35.921,23.937 35.263,23.937 	"/>
	<polygon points="41.184,16.043 41.184,14.069 40.526,14.069 40.526,16.043 41.184,16.043 	"/>
	<polygon points="34.605,14.069 34.605,15.385 35.263,15.385 35.263,14.069 34.605,14.069 	"/>
	<polygon points="35.921,23.279 35.921,22.622 36.579,22.622 36.579,21.964 35.921,21.964 35.921,21.306 35.263,21.306 
		35.263,23.279 35.921,23.279 	"/>
	<polygon points="36.579,26.569 35.263,26.569 35.263,28.543 35.921,28.543 35.921,27.227 36.579,27.227 36.579,26.569 	"/>
	<polygon points="44.474,58.148 44.474,56.174 43.816,56.174 43.816,58.148 44.474,58.148 	"/>
	<polygon points="35.263,21.306 35.263,16.043 34.605,16.043 34.605,21.306 35.263,21.306 	"/>
	<polygon points="35.921,30.516 36.579,30.516 36.579,29.2 35.921,29.2 35.921,30.516 	"/>
	<polygon points="39.868,41.7 39.868,41.043 39.211,41.043 39.211,41.7 39.868,41.7 	"/>
	<polygon points="41.842,50.911 41.842,49.595 41.184,49.595 41.184,50.911 41.842,50.911 	"/>
	<polygon points="42.5,51.569 41.842,51.569 41.842,52.885 42.5,52.885 42.5,51.569 	"/>
	<polygon points="43.158,53.543 42.5,53.543 42.5,54.858 43.158,54.858 43.158,53.543 	"/>
	<polygon points="45.789,59.464 45.789,58.806 45.132,58.806 45.132,58.148 44.474,58.148 44.474,59.464 45.789,59.464 	"/>
	<polygon points="39.211,42.358 38.553,42.358 38.553,44.332 39.211,44.332 39.211,42.358 	"/>
	<polygon points="35.921,34.464 35.921,33.806 35.263,33.806 35.263,34.464 35.921,34.464 	"/>
	<polygon points="41.184,48.279 40.526,48.279 40.526,49.595 41.184,49.595 41.184,48.279 	"/>
	<polygon points="39.868,45.648 39.868,44.332 39.211,44.332 39.211,45.648 39.868,45.648 	"/>
	<polygon points="43.158,39.069 43.158,38.411 42.5,38.411 42.5,39.069 43.158,39.069 	"/>
	<polygon points="22.763,80.516 22.105,80.516 22.105,84.464 23.421,84.464 23.421,83.806 22.763,83.806 22.763,80.516 	"/>
	<polygon points="20.132,39.727 20.132,39.069 19.474,39.069 19.474,39.727 20.132,39.727 	"/>
	<polygon points="20.132,73.279 20.789,73.279 20.789,71.306 20.132,71.306 20.132,73.279 	"/>
	<polygon points="17.5,68.016 18.158,68.016 18.158,67.358 17.5,67.358 17.5,68.016 	"/>
	<polygon points="66.842,58.806 66.842,60.122 67.5,60.122 67.5,58.806 66.842,58.806 	"/>
	<polygon points="12.237,50.253 12.237,51.569 12.895,51.569 12.895,50.253 12.237,50.253 	"/>
	<polygon points="32.632,72.622 31.974,72.622 31.974,74.595 32.632,74.595 32.632,72.622 	"/>
	<polygon points="33.289,75.253 33.289,74.595 32.632,74.595 32.632,75.253 33.289,75.253 	"/>
	<polygon points="62.237,46.306 62.237,48.279 62.895,48.279 62.895,46.306 62.237,46.306 	"/>
	<polygon points="62.895,48.279 62.895,50.253 63.553,50.253 63.553,48.279 62.895,48.279 	"/>
	<polygon points="61.579,44.332 61.579,46.306 62.237,46.306 62.237,44.332 61.579,44.332 	"/>
	<polygon points="63.553,51.569 64.211,51.569 64.211,50.253 63.553,50.253 63.553,51.569 	"/>
	<polygon points="64.868,53.543 64.868,55.516 65.526,55.516 65.526,53.543 64.868,53.543 	"/>
	<polygon points="68.816,63.411 68.816,65.385 69.474,65.385 69.474,63.411 68.816,63.411 	"/>
	<polygon points="66.184,65.385 66.842,65.385 66.842,64.727 66.184,64.727 66.184,65.385 	"/>
	<polygon points="12.895,51.569 12.895,53.543 13.553,53.543 13.553,51.569 12.895,51.569 	"/>
	<polygon points="10.263,45.648 10.921,45.648 10.921,43.674 10.263,43.674 10.263,45.648 	"/>
	<polygon points="31.316,67.358 30.658,67.358 30.658,69.332 31.316,69.332 31.316,67.358 	"/>
	<polygon points="25.395,51.569 24.737,51.569 24.737,52.885 25.395,52.885 25.395,51.569 	"/>
	<polygon points="24.737,50.911 24.737,49.595 24.079,49.595 24.079,50.911 24.737,50.911 	"/>
	<polygon points="26.053,54.2 26.053,52.885 25.395,52.885 25.395,54.2 26.053,54.2 	"/>
	<polygon points="27.368,57.49 27.368,56.174 26.711,56.174 26.711,57.49 27.368,57.49 	"/>
	<polygon points="31.316,72.622 31.316,71.964 30.658,71.964 30.658,72.622 31.316,72.622 	"/>
	<polygon points="24.079,48.279 23.421,48.279 23.421,49.595 24.079,49.595 24.079,48.279 	"/>
	<polygon points="78.026,56.174 78.026,54.858 77.368,54.858 77.368,56.174 78.026,56.174 	"/>
	<polygon points="25.395,48.937 24.737,48.937 24.737,49.595 25.395,49.595 25.395,48.937 	"/>
	<polygon points="26.711,54.858 26.053,54.858 26.053,56.174 26.711,56.174 26.711,54.858 	"/>
	<polygon points="30.658,69.99 30.658,69.332 30,69.332 30,69.99 30.658,69.99 	"/>
	<polygon points="64.211,52.227 64.211,52.885 63.553,52.885 63.553,54.2 64.211,54.2 64.211,53.543 64.868,53.543 64.868,52.227 
		64.211,52.227 	"/>
	<polygon points="70.132,67.358 70.132,69.332 70.789,69.332 70.789,67.358 70.132,67.358 	"/>
	<polygon points="31.974,69.99 31.316,69.99 31.316,71.964 31.974,71.964 31.974,69.99 	"/>
	<polygon points="28.026,58.148 27.368,58.148 27.368,59.464 28.026,59.464 28.026,58.148 	"/>
	<polygon points="28.684,60.122 28.026,60.122 28.026,61.437 28.684,61.437 28.684,60.122 	"/>
	<polygon points="29.342,62.753 29.342,61.437 28.684,61.437 28.684,62.753 29.342,62.753 	"/>
	<polygon points="31.974,66.7 31.316,66.7 31.316,67.358 31.974,67.358 31.974,66.7 	"/>
	<polygon points="66.184,56.832 66.184,55.516 65.526,55.516 65.526,56.832 64.868,56.832 64.868,57.49 66.184,57.49 66.184,58.806 
		66.842,58.806 66.842,56.832 66.184,56.832 	"/>
	<polygon points="77.368,53.543 76.711,53.543 76.711,54.858 77.368,54.858 77.368,53.543 	"/>
	<polygon points="72.763,45.648 72.763,44.332 72.105,44.332 72.105,45.648 72.763,45.648 	"/>
	<polygon points="72.763,41.7 72.763,41.043 73.421,41.043 73.421,40.385 72.105,40.385 72.105,41.7 72.763,41.7 	"/>
	<polygon points="70.789,37.753 70.789,37.095 70.132,37.095 70.132,37.753 70.789,37.753 	"/>
	<polygon points="76.053,50.253 75.395,50.253 75.395,51.569 76.053,51.569 76.053,50.253 	"/>
	<polygon points="76.711,52.885 76.711,51.569 76.053,51.569 76.053,52.885 76.711,52.885 	"/>
	<polygon points="70.789,33.148 70.789,31.174 70.132,31.174 70.132,33.148 70.789,33.148 	"/>
	<polygon points="75.395,48.279 74.737,48.279 74.737,49.595 75.395,49.595 75.395,48.279 	"/>
	<polygon points="74.079,44.332 73.421,44.332 73.421,46.306 74.079,46.306 74.079,44.332 	"/>
	<polygon points="76.053,31.832 76.053,27.227 75.395,27.227 75.395,31.832 76.053,31.832 	"/>
	<polygon points="68.816,18.016 69.474,18.016 69.474,16.7 68.816,16.7 68.816,18.016 	"/>
	<polygon points="73.421,22.622 73.421,21.964 72.763,21.964 72.763,22.622 73.421,22.622 	"/>
	<polygon points="70.132,23.937 70.132,22.622 69.474,22.622 69.474,23.937 70.132,23.937 	"/>
	<polygon points="70.789,19.99 69.474,19.99 69.474,18.674 68.816,18.674 68.816,22.622 69.474,22.622 69.474,20.648 70.789,20.648 
		70.789,19.99 	"/>
	<polygon points="70.132,29.2 70.132,26.569 69.474,26.569 69.474,29.2 70.132,29.2 	"/>
	<polygon points="68.816,14.069 68.816,16.043 69.474,16.043 69.474,14.069 68.816,14.069 	"/>
	<polygon points="70.789,30.516 70.789,29.2 70.132,29.2 70.132,30.516 70.789,30.516 	"/>
	<polygon points="74.079,85.122 74.737,85.122 74.737,84.464 74.079,84.464 74.079,85.122 	"/>
	<polygon points="86.579,92.358 86.579,91.043 85.921,91.043 85.921,92.358 86.579,92.358 	"/>
	<polygon points="67.5,61.437 68.158,61.437 68.158,60.122 67.5,60.122 67.5,61.437 	"/>
	<polygon points="85.921,91.043 85.921,90.385 85.263,90.385 85.263,91.043 85.921,91.043 	"/>
	<polygon points="87.237,89.727 86.579,89.727 86.579,89.069 85.921,89.069 85.921,90.385 87.237,90.385 87.237,89.727 	"/>
	<polygon points="73.421,81.174 73.421,84.464 74.079,84.464 74.079,81.174 73.421,81.174 	"/>
	<polygon points="85.263,85.122 85.263,89.069 85.921,89.069 85.921,85.122 85.263,85.122 	"/>
	<polygon points="68.158,62.095 68.158,63.411 68.816,63.411 68.816,62.095 68.158,62.095 	"/>
	<polygon points="79.342,59.464 79.342,58.148 78.684,58.148 78.684,59.464 79.342,59.464 	"/>
	<polygon points="70.789,71.306 71.447,71.306 71.447,69.332 70.789,69.332 70.789,71.306 	"/>
	<polygon points="83.289,76.569 83.289,75.253 82.632,75.253 82.632,76.569 83.289,76.569 	"/>
	<polygon points="85.263,82.49 85.263,79.858 84.605,79.858 84.605,82.49 85.263,82.49 	"/>
	<polygon points="82.632,72.622 82.632,71.964 81.974,71.964 81.974,72.622 82.632,72.622 	"/>
	<polygon points="78.684,58.148 78.684,56.174 78.026,56.174 78.026,58.148 78.684,58.148 	"/>
	<polygon points="83.289,69.99 82.632,69.99 82.632,71.964 83.289,71.964 83.289,69.99 	"/>
	<polygon points="85.921,84.464 85.921,82.49 85.263,82.49 85.263,84.464 85.921,84.464 	"/>
	<polygon points="84.605,79.2 83.947,79.2 83.947,79.858 84.605,79.858 84.605,79.2 	"/>
	<polygon points="85.263,78.543 84.605,78.543 84.605,79.2 85.263,79.2 85.263,78.543 	"/>
	<polygon points="60.263,39.069 60.263,41.7 60.921,41.7 60.921,39.069 60.263,39.069 	"/>
	<polygon points="37.237,89.069 37.237,88.411 36.579,88.411 36.579,89.069 37.237,89.069 	"/>
	<polygon points="41.184,93.016 41.184,91.7 40.526,91.7 40.526,93.016 41.184,93.016 	"/>
	<polygon points="68.816,89.727 69.474,89.727 69.474,88.411 68.816,88.411 68.816,89.727 	"/>
	<polygon points="33.947,85.122 33.947,87.753 34.605,87.753 34.605,85.122 33.947,85.122 	"/>
	<path d="M66.842,14.727v0.658h-6.579v-0.658H66.842L66.842,14.727z M63.553,18.016v0.658h-0.658v-0.658H63.553L63.553,18.016z
		 M67.5,18.016v0.658h-0.658v-0.658H67.5L67.5,18.016z M60.921,19.332v1.316h-0.658v-1.316h-0.658v-0.658h0.658v0.658H60.921
		L60.921,19.332z M62.237,19.332v0.658h-0.658v-0.658H62.237L62.237,19.332z M64.211,19.332v0.658h-0.658v-0.658H64.211
		L64.211,19.332z M66.842,19.99v0.658h-0.658V19.99H66.842L66.842,19.99z M60.921,21.964v0.658h-0.658v-0.658H60.921L60.921,21.964z
		 M64.868,21.964v0.658h-0.658v-0.658H64.868L64.868,21.964z M66.842,22.622v0.658h-0.658v-0.658H66.842L66.842,22.622z
		 M66.842,24.595v0.658h-0.658v-0.658H66.842L66.842,24.595z M64.868,26.569v0.658h-0.658v-0.658H64.868L64.868,26.569z
		 M61.579,27.885v-0.658h0.658v0.658H61.579L61.579,27.885z M67.5,27.885v0.658h-0.658v-0.658H67.5L67.5,27.885z M61.579,29.2v0.658
		h-0.658V29.2H61.579L61.579,29.2z M67.5,29.858v0.658h-0.658v-0.658H67.5L67.5,29.858z M62.895,31.174h0.658v0.658h-0.658V31.174
		h-0.658v-0.658h0.658V31.174L62.895,31.174z M66.184,32.49v0.658h-0.658V32.49H66.184L66.184,32.49z M68.158,32.49v0.658H67.5
		V32.49H68.158L68.158,32.49z M62.237,33.806v0.658h-0.658v-0.658H62.237L62.237,33.806z M68.158,34.464v0.658H67.5v-0.658H68.158
		L68.158,34.464z M68.816,35.779v0.658h-0.658v-0.658H68.816L68.816,35.779z M62.895,37.095v0.658h-0.658v-0.658H62.895
		L62.895,37.095z M68.816,37.095v0.658h-0.658v-0.658H68.816L68.816,37.095z M66.184,38.411v0.658h-0.658v-0.658H66.184
		L66.184,38.411z M67.5,39.069v0.658h-0.658v-0.658H67.5L67.5,39.069z M69.474,39.069v1.316h-0.658v-0.658h-0.658v-0.658H69.474
		L69.474,39.069z M66.842,41.043h-0.658v-0.658h0.658V41.043L66.842,41.043z M64.868,40.385v-0.658h0.658v0.658H64.868
		L64.868,40.385z M62.895,40.385v-0.658h0.658v0.658H62.895L62.895,40.385z M70.132,41.7v0.658h-0.658V41.7H70.132L70.132,41.7z
		 M66.842,43.016h-0.658v-0.658h0.658V43.016L66.842,43.016z M63.553,43.016v-0.658h0.658v0.658H63.553L63.553,43.016z
		 M65.526,43.674v0.658h-0.658v1.316h-0.658v-1.316h0.658v-0.658H65.526L65.526,43.674z M70.789,43.674v1.316h-0.658v-1.316H70.789
		L70.789,43.674z M65.526,46.964v0.658h-0.658v-0.658H65.526L65.526,46.964z M70.132,48.279v0.658h0.658v0.658h-0.658v-0.658h-0.658
		v-0.658H70.132L70.132,48.279z M72.763,48.937v1.316h-0.658v-1.316H72.763L72.763,48.937z M66.842,50.911h-0.658v-0.658h0.658
		V50.911L66.842,50.911z M73.421,50.911v1.316h-0.658v-1.316H73.421L73.421,50.911z M67.5,52.885h-0.658v-0.658H67.5V52.885
		L67.5,52.885z M74.079,52.885v0.658h-0.658V54.2h-0.658v-0.658h0.658v-0.658H74.079L74.079,52.885z M74.737,54.2v1.316h-0.658V54.2
		H74.737L74.737,54.2z M72.105,54.858h0.658v0.658h-0.658V54.858L72.105,54.858z M68.816,56.174h-0.658v-0.658h0.658v-0.658h0.658
		v0.658h-0.658V56.174L68.816,56.174z M75.395,56.174v0.658h-0.658v-0.658H75.395L75.395,56.174z M74.079,57.49h-0.658v0.658h-1.974
		V57.49h1.974v-0.658h0.658V57.49L74.079,57.49z M76.053,57.49v1.316h-0.658V57.49H76.053L76.053,57.49z M70.132,59.464h-0.658
		v-0.658h0.658V59.464L70.132,59.464z M71.447,59.464v0.658h-0.658v-0.658H71.447L71.447,59.464z M76.711,59.464v0.658h-0.658
		v-0.658H76.711L76.711,59.464z M70.132,58.148V57.49h0.658v0.658H70.132L70.132,58.148z M68.816,58.148V57.49h0.658v0.658H68.816
		L68.816,58.148z M67.5,54.858V54.2h0.658v0.658H67.5L67.5,54.858z M66.842,49.595v-0.658H67.5v0.658H66.842L66.842,49.595z
		 M65.526,49.595v-0.658h0.658v0.658H65.526L65.526,49.595z M70.789,60.779v0.658h-0.658v-0.658H70.789L70.789,60.779z
		 M77.368,60.779v1.316h-0.658v-1.316H77.368L77.368,60.779z M74.737,62.753h-0.658v-0.658h0.658V62.753L74.737,62.753z
		 M78.026,62.753v1.316h-0.658v-1.316H78.026L78.026,62.753z M72.105,64.727h-0.658v-0.658h0.658V64.727L72.105,64.727z
		 M77.368,64.727v0.658h-0.658v-0.658H77.368L77.368,64.727z M78.684,64.727v1.316h-0.658v-1.316H78.684L78.684,64.727z
		 M72.763,66.7h-0.658v-0.658h0.658V66.7L72.763,66.7z M79.342,66.7v1.316h-0.658V66.7H79.342L79.342,66.7z M75.395,67.358h0.658
		v0.658h-0.658V67.358L75.395,67.358z M73.421,68.674h-0.658v-0.658h0.658V68.674L73.421,68.674z M70.789,62.753v-0.658h0.658v0.658
		H70.789L70.789,62.753z M74.079,69.99v0.658h-0.658V69.99H74.079L74.079,69.99z M78.026,69.99v0.658h-0.658V69.99H78.026
		L78.026,69.99z M74.737,71.964v1.316h-0.658v-1.316H74.737L74.737,71.964z M80.658,71.964v0.658H80v-0.658H80.658L80.658,71.964z
		 M76.711,73.279v0.658h-0.658v-0.658H76.711L76.711,73.279z M78.026,73.937v0.658h-0.658v-0.658H78.026L78.026,73.937z
		 M81.316,74.595v1.316H80v-0.658h0.658v-0.658H81.316L81.316,74.595z M76.711,75.911v-0.658h0.658v0.658H76.711L76.711,75.911z
		 M74.737,75.253v-0.658h0.658v0.658H74.737L74.737,75.253z M75.395,76.569v0.658h-0.658v-0.658H75.395L75.395,76.569z
		 M76.053,77.885V79.2h-0.658v-1.316H76.053L76.053,77.885z M78.684,77.885v0.658h-1.316v-0.658H78.684L78.684,77.885z
		 M81.974,78.543V79.2h-0.658v-0.658H81.974L81.974,78.543z M80.658,80.516v0.658H80v0.658h-0.658v-0.658H80v-0.658H80.658
		L80.658,80.516z M76.711,82.49v0.658h-0.658V82.49H76.711L76.711,82.49z M78.026,83.148v0.658h-0.658v-0.658H78.026L78.026,83.148z
		 M81.316,83.148v0.658h0.658v-0.658h0.658v0.658h-0.658v0.658h-0.658v-0.658H80v-0.658H81.316L81.316,83.148z M78.026,85.122
		v-0.658h1.316v0.658H78.026L78.026,85.122z M81.316,85.122v0.658h-0.658v-0.658H81.316L81.316,85.122z M80,86.437h-0.658v-0.658H80
		V86.437L80,86.437z M83.289,87.095v0.658h-0.658v-0.658H83.289L83.289,87.095z M77.368,89.069h-0.658v-0.658h0.658v-0.658h0.658
		v0.658h-0.658V89.069L77.368,89.069z M83.289,89.069v0.658h-0.658v-0.658H83.289L83.289,89.069z M83.289,91.043V91.7h-0.658v-0.658
		H83.289L83.289,91.043z M78.684,95.648v0.658h-0.658v-0.658H78.684L78.684,95.648z M81.316,97.622v0.658h-0.658v-0.658H81.316
		L81.316,97.622z M58.947,14.069v11.184h0.658v5.921h0.658v3.947h0.658v3.289h0.658V41.7h0.658v1.316h-0.658V41.7h-0.658v1.974
		h1.974v2.632h0.658v1.974h0.658v1.974h0.658v1.316h0.658v1.974h0.658v1.974h0.658v1.316H67.5v1.974h0.658v1.316h0.658v1.974h0.658
		v1.316h0.658v1.974h0.658v0.658h-0.658v-0.658h-0.658v1.974h0.658V66.7h0.658v0.658h0.658v1.974h0.658v1.974h0.658v1.316h-0.658
		v-0.658h-0.658v1.974h0.658v-0.658h0.658v0.658h0.658v2.632h0.658v3.289h0.658v4.605h0.658V91.7h0.658v5.921h0.658v0.658h-0.658
		v2.632h9.211v-0.658h-8.553v-0.658h8.553v-3.947h-0.658V94.99h0.658v-1.316h-0.658v-0.658h0.658v-1.974h-0.658V91.7h-0.658v-0.658
		h0.658v-0.658h0.658v-0.658h-0.658v-0.658h-0.658v-0.658h0.658v-1.974h-0.658v-0.658h0.658v-2.632h-0.658v0.658h-0.658v-0.658
		h0.658v-1.316h-1.974v-0.658h-0.658v-0.658h0.658v0.658h1.974v-1.316h-0.658V79.2h-0.658v-0.658h0.658v-1.316h-0.658v-0.658h-0.658
		v-1.316h0.658v-1.974h-0.658v-0.658h-0.658v-0.658h0.658v-1.316h-0.658V69.99h-0.658v-0.658H80v0.658h-0.658v-0.658H80v-0.658
		h0.658v0.658h0.658v-1.316H80v-0.658h0.658v-1.316h-1.316v-0.658H80v-1.316h-1.316v-0.658h0.658v-1.316h-1.316v-0.658h0.658v-1.316
		h-1.316v-0.658h0.658v-1.316h-0.658v0.658h-0.658v-0.658h0.658v-1.974h-0.658v0.658h-0.658v-0.658h0.658v-1.316h-0.658v0.658
		h-0.658v-0.658h0.658v-1.974h-0.658v0.658h-0.658v-0.658h0.658v-1.316h-0.658v0.658h-0.658v-1.316h0.658v-1.316h-0.658v0.658
		h-0.658v-0.658h0.658v-1.316h-1.316v-0.658h1.974v-1.316h-0.658v0.658h-0.658v-0.658h-0.658v0.658h-0.658v-1.316h-0.658v0.658
		h-0.658v0.658h0.658v0.658h0.658v0.658h-0.658v-0.658h-0.658v-0.658h-0.658v-0.658h0.658v-0.658h0.658v-1.316h0.658v-1.974h-1.316
		V41.7h0.658v-1.316h0.658v-2.632h-0.658v1.974h-0.658v0.658h-0.658v-0.658h0.658v-1.316h-0.658v-0.658h-0.658v-0.658h0.658v-1.316
		h-0.658v-0.658h0.658v-1.316h-0.658v0.658h-0.658v-0.658h0.658V32.49h-0.658v-0.658h0.658v-1.974h-0.658v0.658h-0.658v-0.658h0.658
		v-1.974h-0.658v-1.316h0.658v-1.316h-0.658v-0.658H67.5v-0.658h0.658v0.658h0.658v-1.316h-0.658v-0.658H67.5v-0.658h0.658v-1.316
		H67.5V19.99h0.658v-2.632H67.5V16.7h0.658v-1.316H67.5v-0.658h0.658v-1.316H67.5v0.658h-1.316v-0.658h-5.263v0.658H58.947
		L58.947,14.069z"/>
	<path d="M32.632,14.727v0.658h-5.921v0.658h-0.658v-0.658h0.658v-0.658H32.632L32.632,14.727z M31.974,16.043V16.7h-0.658v-0.658
		H31.974L31.974,16.043z M27.368,18.674v0.658h-1.316v-0.658H27.368L27.368,18.674z M30,18.674v0.658h-0.658v-0.658H30L30,18.674z
		 M32.632,18.674v0.658h-0.658v-0.658H32.632L32.632,18.674z M26.711,20.648v1.316h-0.658v-1.316H26.711L26.711,20.648z
		 M30.658,20.648v0.658H30v-0.658H30.658L30.658,20.648z M32.632,20.648v0.658h-0.658v-0.658H32.632L32.632,20.648z M32.632,23.937
		v0.658h-0.658v-0.658H32.632L32.632,23.937z M31.974,25.911v0.658h-0.658v-0.658H31.974L31.974,25.911z M33.289,27.227v0.658
		h-0.658v-0.658H33.289L33.289,27.227z M30,28.543h-0.658v-0.658H30V28.543L30,28.543z M27.368,29.2h-0.658v-0.658h0.658V29.2
		L27.368,29.2z M33.289,29.858v0.658h-0.658v-0.658H33.289L33.289,29.858z M32.632,31.174v0.658h-0.658v-0.658H32.632L32.632,31.174
		z M30.658,32.49H30v-0.658h0.658V32.49L30.658,32.49z M28.026,33.148v0.658h-0.658v-0.658H28.026L28.026,33.148z M33.947,33.148
		v1.316h-0.658v-0.658h-0.658v-0.658H33.947L33.947,33.148z M30.658,35.122H30v-0.658h0.658V35.122L30.658,35.122z M28.684,36.437
		v1.316h-0.658v-1.316H28.684L28.684,36.437z M31.974,36.437v0.658h-0.658v-0.658H31.974L31.974,36.437z M33.947,36.437v0.658h0.658
		v0.658h-0.658v-0.658h-0.658v-0.658H33.947L33.947,36.437z M35.263,39.069v1.316h-0.658v-1.316H35.263L35.263,39.069z
		 M28.684,40.385v-0.658h0.658v0.658H28.684L28.684,40.385z M35.921,41.043v1.316h-0.658v-1.316H35.921L35.921,41.043z
		 M33.947,43.016h-1.316v-0.658h1.316V43.016L33.947,43.016z M29.342,43.016v-0.658H30v0.658H29.342L29.342,43.016z M31.316,43.674
		v0.658h-0.658v0.658H30v-0.658h0.658v-0.658H31.316L31.316,43.674z M36.579,43.674v0.658h-0.658v-0.658H36.579L36.579,43.674z
		 M32.632,45.648v0.658h-1.316v0.658h-0.658v-0.658h0.658v-0.658H32.632L32.632,45.648z M37.237,45.648v0.658h-0.658v-0.658H37.237
		L37.237,45.648z M37.895,46.964v0.658h-0.658v-0.658H37.895L37.895,46.964z M31.974,48.279v0.658h-0.658v-0.658H31.974
		L31.974,48.279z M33.947,48.279v0.658h-0.658v-0.658H33.947L33.947,48.279z M35.921,48.279v0.658h-0.658v-0.658H35.921
		L35.921,48.279z M38.553,48.937v0.658h-1.316v-0.658H38.553L38.553,48.937z M32.632,50.253v0.658h-0.658v-0.658H32.632
		L32.632,50.253z M39.211,50.911v0.658h-1.316v-0.658H39.211L39.211,50.911z M33.289,52.227v0.658h-0.658v-0.658H33.289
		L33.289,52.227z M39.868,52.227v1.316h-0.658v-1.316H39.868L39.868,52.227z M35.263,54.2h-0.658v-0.658h0.658V54.2L35.263,54.2z
		 M37.237,54.2v0.658h0.658v0.658h-0.658v-0.658h-0.658V54.2H37.237L37.237,54.2z M40.526,54.2v0.658h-0.658V54.2H40.526
		L40.526,54.2z M39.868,55.516v0.658h-0.658v-0.658H39.868L39.868,55.516z M41.184,55.516v0.658h-0.658v-0.658H41.184L41.184,55.516
		z M35.263,56.174v-0.658h0.658v0.658H35.263L35.263,56.174z M33.947,56.174v-0.658h0.658v0.658H33.947L33.947,56.174z
		 M33.289,54.858V54.2h0.658v0.658H33.289L33.289,54.858z M40.526,56.832v0.658h1.316v0.658h-1.316V57.49h-0.658v-0.658H40.526
		L40.526,56.832z M39.211,58.806h-0.658v-0.658h0.658V58.806L39.211,58.806z M42.5,58.806v1.316h-0.658v-1.316H42.5L42.5,58.806z
		 M36.579,61.437h-0.658v-1.316h0.658V61.437L36.579,61.437z M39.868,60.779v0.658h-0.658v-0.658H39.868L39.868,60.779z
		 M43.158,60.779v1.316H42.5v-1.316H43.158L43.158,60.779z M37.237,62.753h-0.658v-0.658h0.658V62.753L37.237,62.753z
		 M41.842,62.753v0.658h-0.658v-0.658H41.842L41.842,62.753z M43.816,62.753v1.316h-0.658v-1.316H43.816L43.816,62.753z
		 M38.553,64.727v-0.658h1.974v0.658H38.553L38.553,64.727z M43.158,64.727v0.658H42.5v-0.658H43.158L43.158,64.727z M44.474,64.727
		v0.658h-0.658v-0.658H44.474L44.474,64.727z M38.553,66.7h-0.658v-1.316h0.658V66.7L38.553,66.7z M39.868,66.7v0.658h-0.658v1.316
		h-0.658v-1.316h0.658V66.7H39.868L39.868,66.7z M45.132,66.7v1.316h-0.658V66.7H45.132L45.132,66.7z M45.789,68.674v1.316h-0.658
		v-1.316H45.789L45.789,68.674z M44.474,70.648h-0.658V69.99h0.658V70.648L44.474,70.648z M39.211,70.648V69.99h0.658v0.658H39.211
		L39.211,70.648z M37.237,64.727v-0.658h0.658v0.658H37.237L37.237,64.727z M35.263,59.464v-0.658h0.658v0.658H35.263L35.263,59.464
		z M34.605,58.148V57.49h0.658v0.658H34.605L34.605,58.148z M40.526,71.964v0.658h-0.658v-0.658H40.526L40.526,71.964z
		 M46.447,71.964v0.658h-0.658v-0.658H46.447L46.447,71.964z M41.184,74.595v0.658h-0.658v-0.658H41.184L41.184,74.595z
		 M47.105,74.595v0.658h-0.658v-0.658H47.105L47.105,74.595z M43.158,75.911v0.658h-1.316v-0.658H43.158L43.158,75.911z
		 M41.842,77.885v0.658h-0.658v-0.658H41.842L41.842,77.885z M47.763,78.543V79.2h-0.658v-0.658H47.763L47.763,78.543z
		 M48.421,81.174v0.658h-1.316v-0.658H48.421L48.421,81.174z M41.842,82.49v-0.658H42.5v0.658H41.842L41.842,82.49z M48.421,83.148
		v0.658h-0.658v-0.658H48.421L48.421,83.148z M49.079,85.779v0.658h-1.316v-0.658H49.079L49.079,85.779z M45.132,87.095v0.658
		h-0.658v-0.658H45.132L45.132,87.095z M43.158,88.411H42.5v-0.658h0.658V88.411L43.158,88.411z M47.105,88.411v0.658h-0.658v-0.658
		H47.105L47.105,88.411z M49.079,88.411v0.658h-0.658v0.658h-0.658v-0.658h0.658v-0.658H49.079L49.079,88.411z M47.763,90.385v0.658
		h-0.658v-0.658H47.763L47.763,90.385z M49.079,91.7v0.658h-0.658V91.7H49.079L49.079,91.7z M43.816,93.674v0.658H42.5v-0.658
		H43.816L43.816,93.674z M45.132,93.674v0.658h-0.658v-0.658H45.132L45.132,93.674z M47.105,93.674v0.658h-0.658v-0.658H47.105
		L47.105,93.674z M49.737,94.332v0.658h-0.658v0.658h-1.316V94.99h1.316v-0.658H49.737L49.737,94.332z M24.737,14.069v10.526h0.658
		v5.921h0.658v4.605h0.658v3.289h0.658v2.632h0.658v2.632h0.658v0.658h-1.316v1.316h0.658V44.99h0.658v0.658h0.658v1.974H30v1.974
		h0.658v1.974h0.658v0.658h-0.658v-0.658H30v1.974h0.658v-0.658h0.658v0.658h0.658v1.316h0.658v1.974h0.658v1.316h0.658v1.974h0.658
		v1.316h0.658v1.974h0.658v1.974h0.658v1.974h0.658v1.974h0.658v1.974h0.658v2.632h0.658v2.632h0.658v1.316h-0.658v-0.658h-0.658
		v2.632h0.658v-1.316h0.658v1.316h0.658v3.947h0.658v5.921h-0.658v-4.605h-0.658v5.921h0.658v-0.658h0.658v0.658h0.658v8.553h1.316
		v-0.658h0.658v0.658h4.605v-0.658h0.658v0.658h1.974v-2.632h-0.658v-0.658h0.658v-2.632h-0.658v-0.658h0.658v-1.974h-0.658v-0.658
		h-0.658v-0.658h0.658v0.658h0.658v-1.316h-0.658v-0.658h-0.658v-0.658h0.658v-2.632h-0.658v-0.658h0.658V82.49h-0.658v0.658h-0.658
		V82.49h0.658v-1.316h-0.658v-0.658h0.658V79.2h-0.658v-0.658h-0.658v-0.658h0.658v-1.316h-0.658v-0.658h0.658v-1.316h-0.658v0.658
		h-0.658v-0.658h0.658v-1.316h-0.658v-0.658h-0.658v-0.658h0.658v-1.316h-0.658V69.99h-0.658v-0.658h0.658v-1.316h-1.316v-0.658
		h0.658V66.7h0.658v0.658h0.658v-1.974h-0.658v0.658h-1.316v-0.658h-0.658v-0.658h0.658v-1.316h-1.316v-0.658h0.658v-1.316h-0.658
		v0.658h-0.658v-0.658h0.658v-1.316h-1.316v-0.658h0.658v-1.316H42.5V57.49h0.658v-1.316H42.5v0.658h-0.658v-0.658H42.5v-1.316
		h-1.316V54.2h0.658v-1.316h-0.658v0.658h-0.658v-0.658h0.658v-1.316h-1.316v-0.658h0.658v-1.316h-0.658v0.658h-0.658v-0.658h0.658
		v-1.316h-1.316v-0.658h0.658v-1.316h-1.316v-0.658h0.658v-1.316h-1.316v-0.658h0.658v-1.316h-1.316V41.7h0.658v-1.316h-0.658
		v-0.658h-0.658v-0.658h0.658v-1.316h-0.658v-0.658h-0.658v-0.658h0.658v-1.316h-0.658v-0.658h-0.658v-0.658h0.658v-1.974h-0.658
		v-0.658h0.658V29.2h-0.658v0.658h-0.658V29.2h-0.658v-0.658h0.658V29.2h0.658v-1.316h-0.658v-0.658h0.658v-2.632h-0.658v-0.658
		h-0.658v-0.658h0.658v0.658h0.658v-1.316h-0.658v-0.658h-0.658v-0.658h0.658v-1.974h-0.658v-0.658h0.658v-1.316h-0.658V16.7h0.658
		v-1.316h-0.658v-0.658h0.658v-0.658h-1.974v-0.658h-5.263v0.658H24.737L24.737,14.069z"/>
	<polygon points="74.808,90.385 74.808,85.779 74.079,85.779 74.079,90.385 74.808,90.385 	"/>
	<polygon points="34.605,87.753 34.605,89.069 35.263,89.069 35.263,87.753 34.605,87.753 	"/>
	<polygon points="34.605,91.043 34.605,93.016 35.263,93.016 35.263,91.043 34.605,91.043 	"/>
	<polygon points="35.263,79.2 35.921,79.2 35.921,78.543 35.263,78.543 35.263,79.2 	"/>
	<polygon points="39.868,83.148 39.868,80.516 39.211,80.516 39.211,83.148 39.868,83.148 	"/>
	<polygon points="33.947,75.911 32.632,75.911 32.632,77.227 33.289,77.227 33.289,76.569 33.947,76.569 33.947,75.911 	"/>
	<polygon points="36.579,73.279 36.579,72.622 35.921,72.622 35.921,73.279 36.579,73.279 	"/>
	<polygon points="36.579,77.227 36.579,76.569 35.921,76.569 35.921,77.227 36.579,77.227 	"/>
	<polygon points="33.947,81.832 33.947,79.858 33.289,79.858 33.289,81.832 33.947,81.832 	"/>
	<polygon points="37.895,81.832 37.895,81.174 37.237,81.174 37.237,81.832 37.895,81.832 	"/>
	<polygon points="37.895,79.858 37.895,79.2 37.237,79.2 37.237,79.858 37.895,79.858 	"/>
	<polygon points="34.605,82.49 34.605,81.832 33.947,81.832 33.947,82.49 34.605,82.49 	"/>
	<polygon points="68.158,82.49 68.158,79.2 67.5,79.2 67.5,82.49 68.158,82.49 	"/>
	<polygon points="73.421,79.858 73.421,77.227 72.763,77.227 72.763,79.858 73.421,79.858 	"/>
	<polygon points="68.158,84.464 68.158,88.411 68.816,88.411 68.816,84.464 68.158,84.464 	"/>
	<polygon points="68.816,69.99 68.158,69.99 68.158,70.648 68.816,70.648 68.816,69.99 	"/>
	<polygon points="71.447,80.516 70.789,80.516 70.789,81.174 71.447,81.174 71.447,80.516 	"/>
	<polygon points="67.5,71.306 68.158,71.306 68.158,70.648 67.5,70.648 67.5,71.306 	"/>
	<polygon points="64.211,67.358 64.868,67.358 64.868,66.043 64.211,66.043 64.211,67.358 	"/>
	<polygon points="66.184,67.358 66.184,68.016 66.842,68.016 66.842,67.358 66.184,67.358 	"/>
	<polygon points="68.816,83.806 68.816,82.49 68.158,82.49 68.158,83.806 68.816,83.806 	"/>
	<polygon points="74.737,91.043 74.079,91.043 74.079,92.358 74.737,92.358 74.737,91.043 	"/>
	<polygon points="67.5,77.885 67.5,75.911 66.842,75.911 66.842,77.885 67.5,77.885 	"/>
	<polygon points="67.5,75.253 67.5,74.595 66.842,74.595 66.842,75.253 67.5,75.253 	"/>
	<polygon points="69.474,93.674 69.474,90.385 68.816,90.385 68.816,93.674 69.474,93.674 	"/>
	<polygon points="73.421,93.016 74.079,93.016 74.079,92.358 73.421,92.358 73.421,93.016 	"/>
	<polygon points="68.158,78.543 68.158,77.885 67.5,77.885 67.5,78.543 68.158,78.543 	"/>
	<polygon points="67.5,73.279 66.842,73.279 66.842,72.622 66.184,72.622 66.184,74.595 66.842,74.595 66.842,73.937 67.5,73.937 
		67.5,73.279 	"/>
	<polygon points="72.763,76.569 72.763,74.595 72.105,74.595 72.105,76.569 72.763,76.569 	"/>
	<polygon points="28.684,46.306 28.026,46.306 28.026,48.279 28.684,48.279 28.684,46.306 	"/>
	<polygon points="20.132,36.437 20.132,34.464 19.474,34.464 19.474,36.437 20.132,36.437 	"/>
	<polygon points="26.053,38.411 26.053,35.779 25.395,35.779 25.395,38.411 26.053,38.411 	"/>
	<polygon points="20.789,27.885 21.447,27.885 21.447,27.227 20.789,27.227 20.789,27.885 	"/>
	<polygon points="24.079,25.911 24.737,25.911 24.737,25.253 24.079,25.253 24.079,25.911 	"/>
	<polygon points="25.395,35.122 25.395,31.832 24.737,31.832 24.737,35.122 25.395,35.122 	"/>
	<polygon points="22.763,34.464 22.763,33.806 22.105,33.806 22.105,34.464 22.763,34.464 	"/>
	<polygon points="24.079,17.358 24.079,14.069 23.421,14.069 23.421,17.358 24.079,17.358 	"/>
	<polygon points="20.789,37.095 20.789,36.437 20.132,36.437 20.132,37.095 20.789,37.095 	"/>
	<polygon points="24.079,24.595 24.079,18.016 23.421,18.016 23.421,24.595 24.079,24.595 	"/>
	<polygon points="19.474,27.885 19.474,27.227 18.816,27.227 18.816,24.595 18.158,24.595 18.158,28.543 18.816,28.543 
		18.816,27.885 19.474,27.885 	"/>
	<polygon points="25.395,41.7 25.395,41.043 24.737,41.043 24.737,41.7 25.395,41.7 	"/>
	<polygon points="19.474,31.174 18.816,31.174 18.816,33.148 19.474,33.148 19.474,31.174 	"/>
	<polygon points="20.132,33.806 20.132,33.148 19.474,33.148 19.474,33.806 20.132,33.806 	"/>
	<polygon points="22.105,15.385 22.763,15.385 22.763,14.727 22.105,14.727 22.105,15.385 	"/>
	<polygon points="18.816,23.937 18.816,21.306 18.158,21.306 18.158,23.937 18.816,23.937 	"/>
	<polygon points="17.5,14.069 17.5,21.306 18.158,21.306 18.158,18.674 18.816,18.674 18.816,17.358 18.158,17.358 18.158,14.069 
		17.5,14.069 	"/>
	<polygon points="22.105,21.306 21.447,21.306 21.447,21.964 22.105,21.964 22.105,21.306 	"/>
	<polygon points="22.763,46.306 22.763,47.622 23.421,47.622 23.421,46.306 22.763,46.306 	"/>
	<polygon points="20.789,37.753 20.132,37.753 20.132,39.069 20.789,39.069 20.789,37.753 	"/>
	<polygon points="27.368,51.569 28.026,51.569 28.026,50.911 27.368,50.911 27.368,51.569 	"/>
	<polygon points="27.368,48.937 28.026,48.937 28.026,48.279 27.368,48.279 27.368,48.937 	"/>
	<polygon points="33.289,72.622 33.289,73.279 33.947,73.279 33.947,72.622 33.289,72.622 	"/>
	<polygon points="29.342,49.595 29.342,48.279 28.684,48.279 28.684,49.595 29.342,49.595 	"/>
	<polygon points="30,64.069 30,63.411 29.342,63.411 29.342,64.727 31.316,64.727 31.316,64.069 30,64.069 	"/>
	<polygon points="33.289,70.648 34.605,70.648 34.605,69.99 33.289,69.99 33.289,70.648 	"/>
	<polygon points="24.079,40.385 24.079,41.043 24.737,41.043 24.737,40.385 24.079,40.385 	"/>
	<polygon points="30,65.385 30,66.7 30.658,66.7 30.658,65.385 30,65.385 	"/>
	<polygon points="22.105,44.332 22.105,45.648 22.763,45.648 22.763,44.332 22.105,44.332 	"/>
	<polygon points="21.447,41.7 21.447,39.727 20.789,39.727 20.789,41.7 21.447,41.7 	"/>
	<polygon points="26.711,41.043 26.711,39.069 26.053,39.069 26.053,41.043 26.711,41.043 	"/>
	<polygon points="23.421,41.043 23.421,40.385 22.763,40.385 22.763,41.043 23.421,41.043 	"/>
	<polygon points="26.711,44.332 26.053,44.332 26.053,44.99 26.711,44.99 26.711,44.332 	"/>
	<polygon points="21.447,43.674 22.105,43.674 22.105,42.358 21.447,42.358 21.447,43.674 	"/>
	<polygon points="27.368,43.674 27.368,41.7 26.711,41.7 26.711,43.674 27.368,43.674 	"/>
</g>
</svg>
