<?xml version="1.0" encoding="iso-8859-1"?>
<!-- Generator: Adobe Illustrator 28.3.0, SVG Export Plug-In . SVG Version: 6.00 Build 0)  -->
<svg version="1.1" id="Layer_1" xmlns="http://www.w3.org/2000/svg" xmlns:xlink="http://www.w3.org/1999/xlink" x="0px" y="0px"
	 width="110px" height="110px" viewBox="0 0 110 110" enable-background="new 0 0 110 110" xml:space="preserve">
<g>
	<rect x="63.125" y="32.408" width="0.625" height="0.625"/>
	<rect x="101.25" y="61.783" width="0.625" height="0.625"/>
	<rect x="51.875" y="35.533" width="0.625" height="0.625"/>
	<rect x="61.875" y="31.783" width="1.25" height="0.625"/>
	<rect x="18.75" y="84.908" width="0.625" height="0.625"/>
	<rect x="22.5" y="74.908" width="0.625" height="0.625"/>
	<rect x="96.25" y="64.908" width="1.25" height="0.625"/>
	<rect x="101.25" y="63.033" width="0.625" height="0.625"/>
	<polygon points="64.375,47.408 64.375,46.783 65,46.783 65,45.533 64.375,45.533 64.375,46.158 63.75,46.158 63.75,46.783 
		63.125,46.783 63.125,47.408 	"/>
	<rect x="16.25" y="81.783" width="0.625" height="1.25"/>
	<polygon points="69.375,74.283 68.75,74.283 68.75,73.033 71.25,73.033 71.25,73.658 73.125,73.658 73.125,73.033 71.875,73.033 
		71.875,72.408 67.5,72.408 67.5,73.033 68.125,73.033 68.125,74.283 67.5,74.283 67.5,74.908 69.375,74.908 	"/>
	<rect x="16.875" y="80.533" width="0.625" height="1.25"/>
	<rect x="100" y="63.658" width="1.25" height="0.625"/>
	<rect x="53.125" y="46.783" width="0.625" height="0.625"/>
	<rect x="53.75" y="45.533" width="0.625" height="1.25"/>
	<rect x="24.375" y="71.158" width="0.625" height="0.625"/>
	<rect x="17.5" y="79.283" width="0.625" height="1.25"/>
	<rect x="61.25" y="31.158" width="0.625" height="0.625"/>
	<rect x="23.75" y="72.408" width="1.25" height="0.625"/>
	<rect x="100.625" y="62.408" width="0.625" height="0.625"/>
	<rect x="15.625" y="83.033" width="0.625" height="0.625"/>
	<rect x="94.375" y="65.533" width="1.25" height="0.625"/>
	<rect x="83.125" y="60.533" width="0.625" height="1.25"/>
	<polygon points="20.625,73.033 20.625,73.658 20,73.658 20,75.533 20.625,75.533 20.625,74.283 21.25,74.283 21.25,73.033 	"/>
	<rect x="21.875" y="70.533" width="0.625" height="1.25"/>
	<rect x="21.25" y="71.783" width="0.625" height="1.25"/>
	<rect x="83.75" y="59.283" width="0.625" height="1.25"/>
	<rect x="11.875" y="75.533" width="0.625" height="0.625"/>
	<rect x="82.5" y="61.783" width="0.625" height="1.875"/>
	<rect x="65.625" y="44.283" width="0.625" height="0.625"/>
	<rect x="62.5" y="54.283" width="0.625" height="0.625"/>
	<rect x="85.625" y="54.908" width="0.625" height="1.25"/>
	<rect x="63.125" y="48.658" width="0.625" height="0.625"/>
	<rect x="61.25" y="52.408" width="0.625" height="1.25"/>
	<rect x="22.5" y="69.283" width="0.625" height="1.25"/>
	<rect x="65" y="44.908" width="0.625" height="0.625"/>
	<rect x="84.375" y="58.033" width="0.625" height="1.25"/>
	<rect x="85" y="56.158" width="0.625" height="1.875"/>
	<rect x="61.875" y="49.283" width="1.25" height="0.625"/>
	<rect x="19.375" y="75.533" width="0.625" height="1.25"/>
	<polygon points="66.25,35.533 66.25,34.908 65.625,34.908 65.625,36.158 66.25,36.158 66.25,37.408 66.875,37.408 66.875,39.908 
		67.5,39.908 67.5,40.533 66.875,40.533 66.875,43.033 66.25,43.033 66.25,44.283 66.875,44.283 66.875,44.908 67.5,44.908 
		67.5,43.033 68.125,43.033 68.125,39.283 67.5,39.283 67.5,36.783 66.875,36.783 66.875,35.533 	"/>
	<rect x="58.125" y="73.033" width="0.625" height="0.625"/>
	<rect x="58.75" y="73.658" width="0.625" height="0.625"/>
	<rect x="57.5" y="66.783" width="0.625" height="5.625"/>
	<polygon points="63.75,33.033 63.75,33.658 64.375,33.658 64.375,34.283 65,34.283 65,34.908 65.625,34.908 65.625,33.658 
		65,33.658 65,33.033 	"/>
	<rect x="65.625" y="71.783" width="1.25" height="0.625"/>
	<rect x="60.625" y="74.908" width="1.25" height="0.625"/>
	<rect x="59.375" y="74.283" width="1.25" height="0.625"/>
	<rect x="75.625" y="71.783" width="1.25" height="0.625"/>
	<rect x="81.875" y="63.658" width="0.625" height="0.625"/>
	<rect x="18.75" y="76.783" width="0.625" height="1.25"/>
	<rect x="81.25" y="64.283" width="0.625" height="1.25"/>
	<rect x="18.125" y="78.033" width="0.625" height="1.25"/>
	<rect x="66.25" y="44.908" width="0.625" height="1.25"/>
	<rect x="80.625" y="67.408" width="0.625" height="0.625"/>
	<rect x="65.625" y="46.158" width="0.625" height="0.625"/>
	<rect x="48.125" y="48.033" width="0.625" height="0.625"/>
	<rect x="74.375" y="28.658" width="0.625" height="1.25"/>
	<polygon points="75.625,33.033 76.25,33.033 76.25,32.408 76.875,32.408 76.875,31.783 76.25,31.783 76.25,31.158 75.625,31.158 	
		"/>
	<rect x="73.125" y="22.408" width="0.625" height="0.625"/>
	<rect x="73.75" y="21.158" width="0.625" height="0.625"/>
	<rect x="49.375" y="49.283" width="1.25" height="0.625"/>
	<rect x="75" y="30.533" width="0.625" height="0.625"/>
	<rect x="86.25" y="53.658" width="0.625" height="1.25"/>
	<polygon points="77.5,37.408 78.125,37.408 78.125,39.283 78.75,39.283 78.75,36.783 78.125,36.783 78.125,36.158 77.5,36.158 	"/>
	<rect x="76.875" y="34.283" width="0.625" height="1.875"/>
	<rect x="76.25" y="33.033" width="0.625" height="1.25"/>
	<rect x="48.75" y="48.658" width="0.625" height="0.625"/>
	<rect x="45.625" y="46.783" width="0.625" height="0.625"/>
	<rect x="72.5" y="23.658" width="0.625" height="1.875"/>
	<rect x="71.875" y="22.408" width="0.625" height="1.25"/>
	<rect x="45" y="46.158" width="0.625" height="0.625"/>
	<rect x="71.25" y="21.158" width="0.625" height="1.25"/>
	<rect x="73.75" y="26.783" width="0.625" height="1.25"/>
	<rect x="73.125" y="25.533" width="0.625" height="1.25"/>
	<rect x="72.5" y="17.408" width="0.625" height="0.625"/>
	<rect x="43.75" y="44.908" width="0.625" height="0.625"/>
	<rect x="44.375" y="45.533" width="0.625" height="0.625"/>
	<rect x="96.25" y="63.658" width="1.25" height="0.625"/>
	<rect x="96.875" y="34.283" width="0.625" height="0.625"/>
	<rect x="98.125" y="27.408" width="0.625" height="0.625"/>
	<rect x="98.125" y="25.533" width="0.625" height="0.625"/>
	<rect x="96.25" y="28.658" width="0.625" height="1.875"/>
	<rect x="70.625" y="19.283" width="0.625" height="1.25"/>
	<rect x="47.5" y="46.783" width="0.625" height="1.25"/>
	<rect x="69.375" y="73.658" width="1.875" height="0.625"/>
	<rect x="45.625" y="44.908" width="0.625" height="0.625"/>
	<rect x="44.375" y="44.283" width="1.25" height="0.625"/>
	<rect x="99.375" y="61.158" width="0.625" height="0.625"/>
	<rect x="46.25" y="45.533" width="0.625" height="0.625"/>
	<rect x="79.375" y="41.158" width="0.625" height="1.875"/>
	<rect x="80" y="43.033" width="0.625" height="2.5"/>
	<rect x="46.875" y="46.158" width="0.625" height="0.625"/>
	<rect x="78.75" y="39.283" width="0.625" height="1.875"/>
	<rect x="91.875" y="26.158" width="0.625" height="0.625"/>
	<polygon points="95,32.408 95,33.033 94.375,33.033 94.375,34.908 95,34.908 95,33.658 95.625,33.658 95.625,32.408 	"/>
	<rect x="95.625" y="30.533" width="0.625" height="1.875"/>
	<rect x="80.625" y="45.533" width="0.625" height="0.625"/>
	<rect x="90" y="29.283" width="0.625" height="0.625"/>
	<rect x="11.875" y="46.158" width="1.25" height="0.625"/>
	<polygon points="53.75,36.158 53.75,36.783 53.125,36.783 53.125,37.408 53.75,37.408 53.75,38.658 54.375,38.658 54.375,38.033 
		55,38.033 55,37.408 54.375,37.408 54.375,36.158 	"/>
	<rect x="6.875" y="42.408" width="0.625" height="0.625"/>
	<rect x="20.625" y="35.533" width="0.625" height="0.625"/>
	<rect x="16.25" y="37.408" width="0.625" height="0.625"/>
	<rect x="15" y="37.408" width="0.625" height="0.625"/>
	<rect x="70" y="18.033" width="0.625" height="1.25"/>
	<rect x="21.875" y="36.158" width="0.625" height="0.625"/>
	<rect x="25.625" y="14.908" width="0.625" height="1.25"/>
	<rect x="25" y="16.783" width="0.625" height="0.625"/>
	<rect x="25" y="34.908" width="0.625" height="0.625"/>
	<polygon points="55.625,44.908 55,44.908 55,43.658 54.375,43.658 54.375,45.533 55,45.533 55,47.408 55.625,47.408 	"/>
	<rect x="35.625" y="56.783" width="0.625" height="0.625"/>
	<rect x="52.5" y="36.158" width="0.625" height="0.625"/>
	<rect x="12.5" y="49.908" width="0.625" height="0.625"/>
	<rect x="53.125" y="35.533" width="0.625" height="0.625"/>
	<rect x="55.625" y="47.408" width="0.625" height="0.625"/>
	<polygon points="56.25,48.033 56.25,49.283 58.75,49.283 58.75,48.658 56.875,48.658 56.875,48.033 	"/>
	<rect x="5" y="45.533" width="0.625" height="1.875"/>
	<polygon points="54.375,38.658 54.375,41.158 55,41.158 55,43.033 55.625,43.033 55.625,44.908 56.25,44.908 56.25,41.158 
		55.625,41.158 55.625,38.658 	"/>
	<rect x="10.625" y="82.408" width="0.625" height="0.625"/>
	<rect x="20" y="36.783" width="0.625" height="0.625"/>
	<polygon points="66.875,11.783 67.5,11.783 67.5,13.033 68.125,13.033 68.125,11.158 67.5,11.158 67.5,10.533 66.875,10.533 	"/>
	<rect x="52.5" y="47.408" width="0.625" height="0.625"/>
	<rect x="65.625" y="8.033" width="0.625" height="0.625"/>
	<rect x="66.25" y="8.658" width="0.625" height="1.875"/>
	<polygon points="51.25,34.908 51.25,35.533 51.875,35.533 51.875,34.908 52.5,34.908 52.5,34.283 50.625,34.283 50.625,34.908 	"/>
	<rect x="68.125" y="13.033" width="0.625" height="1.875"/>
	<rect x="69.375" y="16.783" width="0.625" height="1.25"/>
	<rect x="46.25" y="47.408" width="0.625" height="0.625"/>
	<rect x="33.75" y="11.783" width="0.625" height="0.625"/>
	<rect x="68.75" y="14.908" width="0.625" height="1.25"/>
	<rect x="69.375" y="10.533" width="0.625" height="0.625"/>
	<rect x="49.375" y="33.658" width="1.25" height="0.625"/>
	<rect x="52.5" y="34.908" width="0.625" height="0.625"/>
	<rect x="53.75" y="23.033" width="0.625" height="0.625"/>
	<rect x="38.75" y="15.533" width="0.625" height="0.625"/>
	<rect x="43.75" y="18.033" width="0.625" height="0.625"/>
	<rect x="61.875" y="26.158" width="0.625" height="0.625"/>
	<rect x="54.375" y="22.408" width="0.625" height="0.625"/>
	<rect x="42.5" y="33.033" width="1.875" height="0.625"/>
	<rect x="60.625" y="19.908" width="0.625" height="0.625"/>
	<rect x="11.25" y="48.033" width="0.625" height="0.625"/>
	<rect x="39.375" y="94.908" width="0.625" height="0.625"/>
	<rect x="42.5" y="102.408" width="0.625" height="1.25"/>
	<rect x="38.75" y="58.658" width="3.125" height="0.625"/>
	<rect x="38.75" y="93.658" width="0.625" height="1.25"/>
	<rect x="66.25" y="31.158" width="0.625" height="0.625"/>
	<rect x="65" y="29.908" width="0.625" height="0.625"/>
	<rect x="38.75" y="78.658" width="0.625" height="1.875"/>
	<rect x="68.75" y="33.658" width="0.625" height="0.625"/>
	<rect x="36.25" y="71.158" width="0.625" height="1.875"/>
	<rect x="29.375" y="70.533" width="0.625" height="1.25"/>
	<rect x="68.125" y="33.033" width="0.625" height="0.625"/>
	<rect x="13.75" y="77.408" width="0.625" height="1.25"/>
	<rect x="18.125" y="66.783" width="0.625" height="1.25"/>
	<rect x="11.875" y="81.783" width="0.625" height="1.25"/>
	<rect x="35.625" y="86.158" width="0.625" height="1.25"/>
	<rect x="39.375" y="80.533" width="0.625" height="1.875"/>
	<rect x="26.875" y="60.533" width="0.625" height="0.625"/>
	<rect x="66.875" y="31.783" width="0.625" height="0.625"/>
	<rect x="67.5" y="32.408" width="0.625" height="0.625"/>
	<rect x="65.625" y="30.533" width="0.625" height="0.625"/>
	<rect x="40" y="82.408" width="0.625" height="1.875"/>
	<rect x="78.75" y="98.033" width="0.625" height="0.625"/>
	<rect x="70" y="93.658" width="1.25" height="0.625"/>
	<rect x="82.5" y="96.783" width="0.625" height="0.625"/>
	<rect x="66.25" y="81.158" width="1.875" height="0.625"/>
	<rect x="63.75" y="6.158" width="2.5" height="0.625"/>
	<rect x="68.75" y="93.033" width="1.25" height="0.625"/>
	<rect x="65.625" y="80.533" width="0.625" height="0.625"/>
	<rect x="81.875" y="95.533" width="0.625" height="0.625"/>
	<rect x="77.5" y="96.783" width="1.25" height="0.625"/>
	<rect x="41.25" y="86.158" width="0.625" height="1.875"/>
	<rect x="40.625" y="84.283" width="0.625" height="1.875"/>
	<rect x="73.75" y="44.908" width="0.625" height="3.75"/>
	<rect x="76.875" y="44.283" width="0.625" height="6.25"/>
	<rect x="65.625" y="91.783" width="1.25" height="0.625"/>
	<rect x="63.75" y="91.158" width="1.25" height="0.625"/>
	<rect x="66.875" y="92.408" width="1.25" height="0.625"/>
	<rect x="73.125" y="42.408" width="0.625" height="2.5"/>
	<rect x="69.375" y="34.908" width="0.625" height="0.625"/>
	<rect x="65.625" y="81.783" width="0.625" height="0.625"/>
	<rect x="41.25" y="29.908" width="1.875" height="0.625"/>
	<rect x="21.25" y="59.283" width="0.625" height="1.25"/>
	<rect x="46.25" y="21.158" width="1.25" height="0.625"/>
	<rect x="51.25" y="29.283" width="0.625" height="0.625"/>
	<rect x="23.75" y="36.783" width="1.25" height="0.625"/>
	<rect x="6.875" y="48.033" width="1.25" height="0.625"/>
	<rect x="8.125" y="47.408" width="1.25" height="0.625"/>
	<rect x="38.125" y="38.658" width="1.875" height="0.625"/>
	<rect x="40.625" y="24.283" width="1.25" height="0.625"/>
	<rect x="43.125" y="39.908" width="1.25" height="0.625"/>
	<rect x="30.625" y="19.283" width="1.25" height="0.625"/>
	<rect x="35.625" y="16.783" width="1.25" height="0.625"/>
	<rect x="26.875" y="13.658" width="2.5" height="0.625"/>
	<rect x="29.375" y="14.283" width="1.25" height="0.625"/>
	<rect x="40" y="23.658" width="0.625" height="0.625"/>
	<rect x="38.75" y="18.033" width="1.25" height="0.625"/>
	<rect x="36.875" y="17.408" width="1.25" height="0.625"/>
	<rect x="38.75" y="23.033" width="1.25" height="0.625"/>
	<rect x="35" y="21.158" width="0.625" height="0.625"/>
	<rect x="48.75" y="29.908" width="1.875" height="0.625"/>
	<rect x="13.75" y="45.533" width="1.25" height="0.625"/>
	<rect x="53.75" y="24.283" width="1.25" height="0.625"/>
	<rect x="49.375" y="44.283" width="0.625" height="0.625"/>
	<rect x="51.25" y="40.533" width="0.625" height="3.75"/>
	<rect x="44.375" y="40.533" width="1.25" height="0.625"/>
	<polygon points="45.625,41.783 46.25,41.783 46.25,42.408 47.5,42.408 47.5,43.033 48.125,43.033 48.125,41.783 46.875,41.783 
		46.875,41.158 45.625,41.158 	"/>
	<rect x="31.25" y="63.033" width="0.625" height="2.5"/>
	<rect x="48.75" y="43.658" width="0.625" height="0.625"/>
	<rect x="48.125" y="43.033" width="0.625" height="0.625"/>
	<polygon points="50,46.158 50.625,46.158 50.625,45.533 51.25,45.533 51.25,44.283 50.625,44.283 50.625,44.908 50,44.908 	"/>
	<rect x="6.25" y="48.658" width="0.625" height="0.625"/>
	<rect x="48.125" y="36.783" width="1.25" height="0.625"/>
	<rect x="10" y="46.783" width="1.25" height="0.625"/>
	<rect x="36.25" y="38.033" width="1.875" height="0.625"/>
	<rect x="58.125" y="26.158" width="1.25" height="0.625"/>
	<rect x="50.625" y="38.658" width="0.625" height="1.25"/>
	<rect x="50" y="38.033" width="0.625" height="0.625"/>
	<rect x="49.375" y="37.408" width="0.625" height="0.625"/>
	<rect x="78.125" y="63.658" width="0.625" height="0.625"/>
	<rect x="44.375" y="104.908" width="1.25" height="0.625"/>
	<rect x="63.125" y="64.908" width="0.625" height="0.625"/>
	<polygon points="32.5,58.658 32.5,59.908 31.875,59.908 31.875,62.408 32.5,62.408 32.5,60.533 33.125,60.533 33.125,59.908 
		33.75,59.908 33.75,59.283 33.125,59.283 33.125,58.658 	"/>
	<rect x="36.25" y="94.283" width="0.625" height="0.625"/>
	<rect x="63.75" y="65.533" width="0.625" height="0.625"/>
	<rect x="31.875" y="83.033" width="0.625" height="0.625"/>
	<rect x="61.875" y="63.033" width="0.625" height="1.25"/>
	<rect x="31.25" y="80.533" width="0.625" height="0.625"/>
	<rect x="62.5" y="64.283" width="0.625" height="0.625"/>
	<rect x="46.25" y="103.658" width="0.625" height="0.625"/>
	<polygon points="65.625,67.408 65.625,68.033 65,68.033 65,68.658 66.875,68.658 66.875,69.283 71.875,69.283 71.875,68.658 
		68.125,68.658 68.125,68.033 66.875,68.033 66.875,67.408 	"/>
	<rect x="42.5" y="89.908" width="0.625" height="1.875"/>
	<rect x="86.875" y="51.783" width="0.625" height="1.25"/>
	<rect x="43.125" y="89.283" width="0.625" height="0.625"/>
	<rect x="30" y="83.033" width="0.625" height="0.625"/>
	<rect x="43.75" y="89.908" width="0.625" height="0.625"/>
	<rect x="41.875" y="88.658" width="0.625" height="1.25"/>
	<rect x="64.375" y="66.158" width="0.625" height="0.625"/>
	<rect x="65" y="66.783" width="0.625" height="0.625"/>
	<rect x="25" y="64.283" width="0.625" height="1.25"/>
	<rect x="71.875" y="67.408" width="0.625" height="0.625"/>
	<rect x="24.375" y="65.533" width="0.625" height="1.25"/>
	<polygon points="70.625,55.533 70.625,56.158 71.25,56.158 71.25,56.783 72.5,56.783 72.5,56.158 71.875,56.158 71.875,55.533 	"/>
	<rect x="87.5" y="55.533" width="0.625" height="0.625"/>
	<rect x="70" y="54.908" width="0.625" height="0.625"/>
	<rect x="86.875" y="54.908" width="0.625" height="0.625"/>
	<rect x="23.125" y="68.033" width="0.625" height="1.25"/>
	<rect x="23.75" y="66.783" width="0.625" height="1.25"/>
	<rect x="60.625" y="50.533" width="0.625" height="1.875"/>
	<rect x="64.375" y="55.533" width="1.25" height="0.625"/>
	<rect x="26.875" y="66.158" width="0.625" height="0.625"/>
	<rect x="31.875" y="68.033" width="0.625" height="0.625"/>
	<polygon points="87.5,50.533 87.5,51.783 88.75,51.783 88.75,51.158 88.125,51.158 88.125,50.533 	"/>
	<rect x="26.25" y="61.783" width="0.625" height="1.25"/>
	<rect x="68.75" y="80.533" width="1.25" height="0.625"/>
	<rect x="88.75" y="47.408" width="0.625" height="1.25"/>
	<rect x="88.125" y="48.658" width="0.625" height="1.875"/>
	<rect x="25.625" y="63.033" width="0.625" height="1.25"/>
	<rect x="61.875" y="53.658" width="0.625" height="0.625"/>
	<rect x="93.75" y="35.533" width="0.625" height="1.25"/>
	<rect x="66.25" y="94.908" width="0.625" height="0.625"/>
	<rect x="56.25" y="89.908" width="0.625" height="0.625"/>
	<rect x="66.875" y="93.658" width="0.625" height="0.625"/>
	<rect x="63.125" y="54.908" width="1.25" height="0.625"/>
	<rect x="51.875" y="88.033" width="0.625" height="0.625"/>
	<rect x="93.125" y="36.783" width="0.625" height="1.25"/>
	<rect x="76.25" y="97.408" width="0.625" height="0.625"/>
	<rect x="43.125" y="91.783" width="0.625" height="1.875"/>
	<rect x="83.125" y="95.533" width="0.625" height="0.625"/>
	<rect x="83.75" y="75.533" width="0.625" height="0.625"/>
	<rect x="79.375" y="61.783" width="0.625" height="0.625"/>
	<rect x="70.625" y="79.908" width="1.25" height="0.625"/>
	<rect x="80" y="99.283" width="0.625" height="0.625"/>
	<rect x="63.125" y="6.783" width="0.625" height="0.625"/>
	<rect x="80.625" y="46.783" width="0.625" height="3.125"/>
	<rect x="82.5" y="99.283" width="0.625" height="0.625"/>
	<rect x="50.625" y="89.908" width="0.625" height="0.625"/>
	<rect x="83.75" y="97.408" width="0.625" height="0.625"/>
	<rect x="52.5" y="87.408" width="0.625" height="0.625"/>
	<polygon points="65,67.408 64.375,67.408 64.375,66.783 63.125,66.783 63.125,67.408 63.75,67.408 63.75,68.033 65,68.033 	"/>
	<rect x="41.875" y="84.908" width="0.625" height="0.625"/>
	<rect x="62.5" y="66.158" width="0.625" height="0.625"/>
	<rect x="91.875" y="39.908" width="0.625" height="1.25"/>
	<rect x="46.25" y="101.158" width="0.625" height="1.875"/>
	<rect x="43.75" y="93.658" width="0.625" height="1.875"/>
	<rect x="44.375" y="95.533" width="0.625" height="1.875"/>
	<rect x="45" y="97.408" width="0.625" height="1.875"/>
	<rect x="45.625" y="99.283" width="0.625" height="1.875"/>
	<rect x="61.25" y="64.283" width="0.625" height="1.25"/>
	<rect x="46.25" y="98.033" width="0.625" height="0.625"/>
	<rect x="60.625" y="63.658" width="0.625" height="0.625"/>
	<rect x="61.25" y="61.158" width="0.625" height="1.875"/>
	<rect x="41.875" y="83.033" width="0.625" height="0.625"/>
	<rect x="47.5" y="101.783" width="1.25" height="0.625"/>
	<rect x="61.875" y="65.533" width="0.625" height="0.625"/>
	<rect x="44.375" y="92.408" width="0.625" height="0.625"/>
	<rect x="92.5" y="38.033" width="0.625" height="1.875"/>
	<rect x="59.375" y="26.783" width="1.25" height="0.625"/>
	<rect x="42.5" y="80.533" width="0.625" height="0.625"/>
	<rect x="41.875" y="79.908" width="0.625" height="0.625"/>
	<rect x="43.125" y="81.158" width="0.625" height="0.625"/>
	<rect x="41.25" y="79.283" width="0.625" height="0.625"/>
	<rect x="40.625" y="78.658" width="0.625" height="0.625"/>
	<polygon points="45.625,82.408 45,82.408 45,81.783 43.75,81.783 43.75,82.408 44.375,82.408 44.375,83.033 45.625,83.033 	"/>
	<rect x="51.875" y="86.158" width="1.875" height="0.625"/>
	<rect x="50.625" y="85.533" width="1.25" height="0.625"/>
	<rect x="40" y="78.033" width="0.625" height="0.625"/>
	<rect x="49.375" y="84.908" width="1.25" height="0.625"/>
	<rect x="46.875" y="83.658" width="1.25" height="0.625"/>
	<rect x="48.125" y="84.283" width="1.25" height="0.625"/>
	<rect x="45.625" y="83.033" width="1.25" height="0.625"/>
	<rect x="53.75" y="86.783" width="1.25" height="0.625"/>
	<rect x="41.25" y="62.408" width="0.625" height="0.625"/>
	<rect x="39.375" y="76.783" width="0.625" height="1.25"/>
	<rect x="39.375" y="64.283" width="0.625" height="1.25"/>
	<rect x="40" y="63.658" width="0.625" height="0.625"/>
	<rect x="42.5" y="61.158" width="0.625" height="0.625"/>
	<rect x="41.875" y="61.783" width="0.625" height="0.625"/>
	<rect x="40.625" y="63.033" width="0.625" height="0.625"/>
	<rect x="38.125" y="76.783" width="0.625" height="1.875"/>
	<polygon points="38.125,75.533 38.75,75.533 38.75,74.283 38.125,74.283 38.125,74.908 37.5,74.908 37.5,76.783 38.125,76.783 	"/>
	<rect x="38.75" y="75.533" width="0.625" height="1.25"/>
	<rect x="38.125" y="66.783" width="0.625" height="1.875"/>
	<polygon points="37.5,73.658 38.125,73.658 38.125,68.658 37.5,68.658 37.5,73.033 36.875,73.033 36.875,74.908 37.5,74.908 	"/>
	<rect x="38.75" y="65.533" width="0.625" height="1.25"/>
	<rect x="55.625" y="79.908" width="0.625" height="0.625"/>
	<rect x="55" y="81.158" width="1.25" height="0.625"/>
	<rect x="52.5" y="77.408" width="0.625" height="0.625"/>
	<rect x="43.125" y="60.533" width="0.625" height="0.625"/>
	<rect x="49.375" y="78.033" width="1.25" height="0.625"/>
	<rect x="53.75" y="80.533" width="1.25" height="0.625"/>
	<rect x="54.375" y="79.283" width="1.25" height="0.625"/>
	<rect x="53.125" y="78.033" width="0.625" height="0.625"/>
	<rect x="51.875" y="76.158" width="0.625" height="0.625"/>
	<rect x="50.625" y="73.658" width="0.625" height="1.25"/>
	<rect x="50" y="71.783" width="0.625" height="1.875"/>
	<rect x="51.25" y="75.533" width="0.625" height="0.625"/>
	<rect x="53.75" y="78.658" width="0.625" height="0.625"/>
	<polygon points="49.375,77.408 48.75,77.408 48.75,76.783 47.5,76.783 47.5,77.408 48.125,77.408 48.125,78.033 49.375,78.033 	"/>
	<rect x="56.25" y="88.033" width="1.875" height="0.625"/>
	<rect x="60" y="89.283" width="1.25" height="0.625"/>
	<rect x="46.875" y="76.158" width="0.625" height="0.625"/>
	<rect x="71.875" y="94.283" width="1.25" height="0.625"/>
	<rect x="62.5" y="90.533" width="1.25" height="0.625"/>
	<rect x="58.125" y="88.658" width="1.25" height="0.625"/>
	<rect x="55" y="87.408" width="1.25" height="0.625"/>
	<rect x="61.25" y="89.908" width="1.25" height="0.625"/>
	<rect x="79.375" y="97.408" width="1.25" height="0.625"/>
	<rect x="46.25" y="69.908" width="0.625" height="0.625"/>
	<rect x="43.75" y="43.658" width="0.625" height="0.625"/>
	<rect x="76.25" y="96.158" width="1.25" height="0.625"/>
	<rect x="75" y="95.533" width="1.25" height="0.625"/>
	<rect x="73.125" y="94.908" width="1.25" height="0.625"/>
	<rect x="30.625" y="56.158" width="0.625" height="0.625"/>
	<rect x="31.25" y="55.533" width="0.625" height="0.625"/>
	<rect x="31.875" y="54.908" width="0.625" height="0.625"/>
	<rect x="30" y="56.783" width="0.625" height="0.625"/>
	<rect x="30" y="54.283" width="0.625" height="1.25"/>
	<rect x="29.375" y="55.533" width="0.625" height="1.25"/>
	<polygon points="44.375,60.533 44.375,59.283 43.125,59.283 43.125,59.908 43.75,59.908 43.75,60.533 	"/>
	<rect x="41.875" y="50.533" width="0.625" height="0.625"/>
	<rect x="32.5" y="54.283" width="0.625" height="0.625"/>
	<rect x="39.375" y="48.033" width="0.625" height="0.625"/>
	<rect x="35.625" y="51.783" width="1.875" height="0.625"/>
	<rect x="37.5" y="51.158" width="1.875" height="0.625"/>
	<rect x="33.125" y="53.658" width="0.625" height="0.625"/>
	<rect x="17.5" y="68.658" width="0.625" height="1.25"/>
	<rect x="16.875" y="69.908" width="0.625" height="1.25"/>
	<polygon points="43.75,49.283 43.75,51.158 42.5,51.158 42.5,51.783 44.375,51.783 44.375,49.283 	"/>
	<rect x="16.25" y="71.158" width="0.625" height="1.875"/>
	<rect x="18.75" y="65.533" width="0.625" height="1.25"/>
	<rect x="15.625" y="73.033" width="0.625" height="1.25"/>
	<rect x="19.375" y="63.658" width="0.625" height="1.875"/>
	<rect x="13.125" y="79.283" width="0.625" height="1.25"/>
	<rect x="32.5" y="49.908" width="0.625" height="0.625"/>
	<rect x="12.5" y="80.533" width="0.625" height="1.25"/>
	<rect x="31.25" y="51.783" width="0.625" height="1.25"/>
	<rect x="14.375" y="76.158" width="0.625" height="1.25"/>
	<rect x="30.625" y="53.033" width="0.625" height="1.25"/>
	<rect x="15" y="74.283" width="0.625" height="1.875"/>
	<polygon points="30,57.408 29.375,57.408 29.375,56.783 28.75,56.783 28.75,58.033 29.375,58.033 29.375,58.658 30,58.658 	"/>
	<rect x="36.25" y="87.408" width="0.625" height="1.25"/>
	<rect x="34.375" y="83.033" width="0.625" height="1.25"/>
	<rect x="35" y="84.283" width="0.625" height="1.25"/>
	<rect x="33.75" y="81.158" width="0.625" height="1.875"/>
	<polygon points="33.75,79.908 33.125,79.908 33.125,78.033 32.5,78.033 32.5,80.533 33.125,80.533 33.125,81.158 33.75,81.158 	"/>
	<rect x="31.875" y="76.783" width="0.625" height="1.25"/>
	<rect x="41.875" y="101.158" width="0.625" height="0.625"/>
	<rect x="41.25" y="99.283" width="0.625" height="1.875"/>
	<rect x="31.25" y="74.908" width="0.625" height="1.875"/>
	<rect x="40.625" y="98.033" width="0.625" height="1.25"/>
	<rect x="40" y="96.158" width="0.625" height="1.875"/>
	<rect x="36.875" y="88.658" width="0.625" height="1.875"/>
	<polygon points="38.125,91.783 38.125,90.533 37.5,90.533 37.5,92.408 38.125,92.408 38.125,93.033 38.75,93.033 38.75,91.783 	"/>
	<rect x="30.625" y="73.658" width="0.625" height="1.25"/>
	<polygon points="40,46.783 40,48.033 40.625,48.033 40.625,47.408 41.875,47.408 41.875,46.783 	"/>
	<rect x="33.75" y="51.158" width="0.625" height="0.625"/>
	<rect x="43.125" y="48.658" width="0.625" height="0.625"/>
	<rect x="41.875" y="47.408" width="0.625" height="0.625"/>
	<polygon points="33.125,49.908 33.75,49.908 33.75,49.283 34.375,49.283 34.375,48.658 35,48.658 35,48.033 35.625,48.033 
		35.625,47.408 34.375,47.408 34.375,48.033 33.75,48.033 33.75,48.658 33.125,48.658 	"/>
	<rect x="42.5" y="48.033" width="0.625" height="0.625"/>
	<rect x="40.625" y="50.533" width="0.625" height="0.625"/>
	<rect x="30" y="71.783" width="0.625" height="1.875"/>
	<rect x="31.875" y="50.533" width="0.625" height="1.25"/>
	<rect x="28.75" y="68.033" width="0.625" height="1.875"/>
	<polygon points="28.125,59.283 28.75,59.283 28.75,60.533 29.375,60.533 29.375,58.658 28.75,58.658 28.75,58.033 28.125,58.033 
		28.125,58.658 27.5,58.658 27.5,60.533 28.125,60.533 	"/>
	<rect x="28.125" y="60.533" width="0.625" height="7.5"/>
	<polygon points="46.25,75.533 46.25,73.658 45.625,73.658 45.625,69.283 45,69.283 45,74.283 45.625,74.283 45.625,75.533 	"/>
	<rect x="65.625" y="52.408" width="1.25" height="0.625"/>
	<rect x="43.75" y="29.283" width="4.375" height="0.625"/>
	<rect x="62.5" y="15.533" width="0.625" height="0.625"/>
	<rect x="45" y="26.158" width="0.625" height="0.625"/>
	<rect x="43.75" y="25.533" width="0.625" height="0.625"/>
	<rect x="43.75" y="27.408" width="0.625" height="0.625"/>
	<rect x="68.125" y="48.033" width="0.625" height="0.625"/>
	<rect x="67.5" y="48.658" width="0.625" height="0.625"/>
	<rect x="42.5" y="24.908" width="0.625" height="0.625"/>
	<rect x="66.875" y="49.283" width="0.625" height="0.625"/>
	<rect x="64.375" y="51.158" width="1.25" height="1.25"/>
	<rect x="66.25" y="49.908" width="0.625" height="0.625"/>
	<rect x="65.625" y="50.533" width="0.625" height="0.625"/>
	<rect x="17.5" y="63.033" width="0.625" height="0.625"/>
	<rect x="15.625" y="66.158" width="0.625" height="0.625"/>
	<polygon points="68.75,46.783 68.75,48.033 70,48.033 70,47.408 69.375,47.408 69.375,46.783 	"/>
	<rect x="27.5" y="43.658" width="0.625" height="0.625"/>
	<rect x="15" y="65.533" width="0.625" height="0.625"/>
	<rect x="17.5" y="64.908" width="0.625" height="0.625"/>
	<rect x="30" y="31.158" width="0.625" height="0.625"/>
	<rect x="37.5" y="22.408" width="0.625" height="0.625"/>
	<rect x="40.625" y="25.533" width="0.625" height="0.625"/>
	<rect x="36.25" y="21.783" width="0.625" height="0.625"/>
	<rect x="38.75" y="24.283" width="0.625" height="0.625"/>
	<rect x="36.25" y="23.658" width="0.625" height="0.625"/>
	<rect x="31.25" y="31.158" width="0.625" height="0.625"/>
	<rect x="30.625" y="20.533" width="0.625" height="0.625"/>
	<rect x="25" y="48.033" width="0.625" height="0.625"/>
	<rect x="77.5" y="71.158" width="1.25" height="0.625"/>
	<rect x="83.125" y="69.283" width="1.25" height="0.625"/>
	<rect x="79.375" y="70.533" width="1.25" height="0.625"/>
	<rect x="86.875" y="68.033" width="1.25" height="0.625"/>
	<polygon points="86.25,69.283 86.25,68.033 85.625,68.033 85.625,68.658 85,68.658 85,69.283 	"/>
	<rect x="84.375" y="63.033" width="0.625" height="0.625"/>
	<rect x="69.375" y="46.158" width="0.625" height="0.625"/>
	<rect x="104.375" y="69.908" width="0.625" height="0.625"/>
	<polygon points="104.375,64.908 103.75,64.908 103.75,66.158 103.125,66.158 103.125,66.783 104.375,66.783 	"/>
	<rect x="104.375" y="68.033" width="0.625" height="0.625"/>
	<rect x="73.75" y="72.408" width="1.25" height="0.625"/>
	<rect x="72.5" y="71.783" width="1.25" height="0.625"/>
	<rect x="62.5" y="74.908" width="4.375" height="0.625"/>
	<rect x="81.25" y="69.908" width="1.25" height="0.625"/>
	<rect x="70.625" y="48.033" width="0.625" height="0.625"/>
	<rect x="71.25" y="44.908" width="0.625" height="0.625"/>
	<rect x="67.5" y="51.158" width="0.625" height="0.625"/>
	<rect x="68.125" y="52.408" width="2.5" height="0.625"/>
	<rect x="70" y="44.283" width="0.625" height="1.875"/>
	<rect x="70.625" y="41.783" width="0.625" height="2.5"/>
	<rect x="92.5" y="66.158" width="1.25" height="0.625"/>
	<rect x="93.125" y="43.658" width="0.625" height="0.625"/>
	<rect x="88.125" y="57.408" width="0.625" height="0.625"/>
	<rect x="88.75" y="67.408" width="1.25" height="0.625"/>
	<rect x="90.625" y="66.783" width="1.25" height="0.625"/>
	<rect x="88.75" y="55.533" width="0.625" height="0.625"/>
	<rect x="67.5" y="87.408" width="1.25" height="0.625"/>
	<rect x="66.25" y="86.783" width="1.25" height="0.625"/>
	<rect x="68.75" y="88.033" width="1.25" height="0.625"/>
	<rect x="47.5" y="68.033" width="0.625" height="0.625"/>
	<rect x="70" y="88.658" width="1.25" height="0.625"/>
	<rect x="71.25" y="89.283" width="1.25" height="0.625"/>
	<rect x="72.5" y="89.908" width="1.25" height="0.625"/>
	<rect x="61.25" y="84.283" width="1.25" height="0.625"/>
	<rect x="60" y="83.658" width="1.25" height="0.625"/>
	<rect x="73.75" y="90.533" width="1.25" height="0.625"/>
	<polygon points="58.75,83.658 60,83.658 60,82.408 61.875,82.408 61.875,81.783 59.375,81.783 59.375,83.033 58.75,83.033 	"/>
	<rect x="63.75" y="85.533" width="1.25" height="0.625"/>
	<rect x="62.5" y="84.908" width="1.25" height="0.625"/>
	<rect x="65" y="86.158" width="1.25" height="0.625"/>
	<rect x="76.25" y="91.783" width="1.25" height="0.625"/>
	<polygon points="20.625,63.658 20.625,62.408 20,62.408 20,61.783 19.375,61.783 19.375,63.033 20,63.033 20,63.658 	"/>
	<rect x="50.625" y="78.658" width="1.25" height="0.625"/>
	<polygon points="52.5,79.908 52.5,80.533 53.75,80.533 53.75,79.908 53.125,79.908 53.125,79.283 51.875,79.283 51.875,79.908 	"/>
	<rect x="46.25" y="67.408" width="0.625" height="0.625"/>
	<rect x="76.875" y="93.033" width="0.625" height="0.625"/>
	<rect x="45.625" y="68.033" width="0.625" height="1.25"/>
	<rect x="78.125" y="93.658" width="0.625" height="0.625"/>
	<polygon points="77.5,93.033 78.75,93.033 78.75,93.658 80,93.658 80,93.033 79.375,93.033 79.375,92.408 77.5,92.408 	"/>
	<rect x="75" y="91.158" width="1.25" height="0.625"/>
	<rect x="57.5" y="82.408" width="1.25" height="0.625"/>
	<rect x="80" y="93.658" width="1.25" height="0.625"/>
	<rect x="79.375" y="94.283" width="0.625" height="0.625"/>
	<rect x="81.25" y="94.283" width="0.625" height="0.625"/>
	<rect x="67.5" y="82.408" width="0.625" height="0.625"/>
	<rect x="71.875" y="87.408" width="0.625" height="0.625"/>
	<rect x="69.375" y="86.783" width="0.625" height="0.625"/>
	<rect x="78.125" y="91.158" width="0.625" height="0.625"/>
	<rect x="56.25" y="81.783" width="1.25" height="0.625"/>
	<rect x="68.125" y="84.908" width="0.625" height="0.625"/>
	<path d="M101.25,64.283v0.625h-1.875v-0.625h-1.25v0.625h0.625v0.625H97.5v0.625h-1.875v0.625h-1.25v0.625H92.5v0.625h-1.875v0.625
		H88.75v0.625h-1.875v0.625H85v0.625h-1.875v0.625H81.25v0.625h-1.875v0.625H77.5v0.625h-1.875v0.625h-2.5v0.625H71.25v0.625h-1.875
		v0.625H67.5v0.625h-6.25v0.625h-0.625v-1.25H60v0.625h-0.625v-0.625H58.75v-0.625h-0.625v-0.625H57.5v-1.25h-0.625v-1.875H56.25
		v-3.125h0.625v-1.875H57.5v-0.625h0.625v-0.625h0.625v-0.625h0.625v-0.625H57.5v0.625h-0.625v0.625H56.25v0.625h-0.625v1.875H55v5
		h0.625v1.25h0.625v1.25h0.625v0.625H57.5v0.625h0.625v0.625h1.25v0.625h1.875v0.625h3.125v-0.625H65v0.625h1.25v-0.625h-0.625
		v-0.625h0.625v0.625h1.875v-0.625h0.625v-0.625h0.625v0.625h1.25v-1.25h1.25v0.625H72.5v0.625h-0.625v0.625h-1.25v0.625H70v-0.625
		h-0.625v0.625H68.75v0.625H67.5v-0.625h-1.25v0.625h0.625v0.625H63.75v0.625h-2.5v0.625h-0.625v-1.25h-1.25v0.625H58.75v-1.25
		h-0.625v0.625H57.5v-0.625h-1.25v-0.625h-0.625v-0.625H55v-0.625h-0.625v-1.25H53.75v-0.625h-0.625v-1.875H52.5v-2.5h-0.625v-3.125
		H52.5v-2.5h-1.25v-0.625h-0.625v-0.625h-2.5v0.625H47.5v-0.625h0.625v-0.625h-1.25v0.625H46.25v0.625h0.625v0.625H46.25v0.625
		h-0.625v-0.625h0.625v-0.625H45v0.625h-0.625v0.625H43.75v0.625h-0.625v-0.625H42.5v1.25h0.625v0.625h0.625v-0.625h0.625v-0.625H45
		v0.625h-0.625v0.625H43.75v0.625h-0.625v1.875H42.5v3.75h0.625v1.875h0.625v0.625h0.625v1.25H45v0.625h0.625v0.625h1.25v0.625H47.5
		v0.625h0.625v0.625H47.5v0.625h1.25v-0.625h0.625v0.625H48.75v0.625H50v-0.625h0.625v0.625h1.25v0.625h1.25v0.625h1.25v0.625H55
		v0.625h1.25v0.625h1.25v0.625h1.25v1.25H57.5v-1.25h-0.625v0.625H56.25v-1.25h-0.625v0.625H55v-1.25h-0.625v0.625h-1.25v-1.25H52.5
		v0.625h-0.625v-1.25H51.25v0.625h-0.625v-1.25H50v0.625h-0.625v-0.625h-1.25v-0.625h-1.25v-1.25H47.5v-0.625h-0.625v-0.625h-1.25
		v0.625h0.625v1.25h-0.625v-0.625H45v-0.625h-0.625v-0.625H43.75v-0.625h-0.625v-0.625H42.5v-0.625h-0.625v-1.25H41.25v-1.25h-0.625
		v-1.875H40v-3.125h0.625v-2.5h0.625v-1.25h0.625v-1.25H42.5v-0.625h0.625v-0.625h0.625v-0.625h0.625v-0.625H45v-0.625h0.625v-0.625
		h0.625v1.25h0.625v-3.125H46.25v-0.625h-0.625v-0.625h-1.25v-1.25h-1.25v0.625H42.5v-0.625h-0.625v0.625H41.25v-0.625h0.625v-0.625
		H40v0.625h-2.5v0.625h-1.25v0.625h-0.625v-0.625H35v-0.625h0.625v-0.625h-1.25v0.625H33.75v1.25h-0.625v0.625h1.25v-0.625H35v0.625
		h-0.625v1.25H33.75v0.625h-0.625v1.875H32.5v5.625h0.625v2.5h0.625v1.875h0.625v1.875H35v1.875h0.625v1.875h0.625v1.875h0.625
		v1.875H37.5v1.875h0.625v1.875h0.625v1.25h0.625v1.25H38.75v-1.25h-0.625v-1.25H37.5v-1.875h-0.625v-1.875H36.25v-1.25h-0.625
		v-1.25H35v-1.875h-0.625v-1.25H33.75v-1.875h-0.625v-1.25H32.5v-1.875h-0.625v-1.875H31.25v-2.5h-0.625v-5h0.625v-2.5h0.625v-1.25
		H32.5v-0.625h0.625v-0.625h0.625v-0.625h0.625v-0.625H35v-0.625h0.625v-0.625h1.25v-0.625H37.5v1.25h-1.25v0.625h-0.625v0.625
		h0.625v0.625h1.25v-0.625h-0.625v-0.625H37.5v0.625h1.875v-0.625h-1.25v-1.25h0.625v-1.25h0.625v0.625h5v0.625h1.25v-1.25h0.625
		v-0.625h0.625v-1.875H46.25v-1.875h-0.625v-0.625H45v-0.625h-0.625v-0.625H43.75v-0.625h-0.625v-0.625h-1.25v-0.625H41.25v-0.625
		H40v0.625h-0.625v-0.625h-3.75v0.625h-1.25v0.625H33.75v0.625h-0.625v0.625H32.5v0.625h-0.625v0.625H31.25v0.625h-0.625v1.25H30
		v0.625h-1.25v0.625h0.625v0.625H28.75v1.25h-0.625v1.25H27.5v1.25h-0.625v1.25H26.25v1.25h-0.625v1.25H25v1.25h-0.625v1.25H23.75
		v1.25h-0.625v1.25H22.5v1.875h-0.625v1.25H21.25v1.25h-0.625v-1.25h0.625v-1.25h0.625v-1.875H22.5v-1.25h0.625v-1.25h0.625v-1.875
		h0.625v-1.25H25v-1.875h0.625v-1.25h0.625v-1.25h0.625v-1.875H27.5v-1.25h0.625v-1.25h0.625v-1.25h0.625v-1.25H30v-0.625h0.625
		v-1.25h0.625v-0.625h0.625v-0.625H32.5v-0.625h0.625v-0.625h1.25v-0.625H35v-0.625h1.25v0.625h0.625v-1.25H37.5v0.625h4.375v0.625
		h1.25v0.625h1.25v0.625h1.25v0.625h0.625v0.625h0.625v0.625H47.5v0.625h0.625v0.625h0.625v1.25h0.625v0.625h1.25v-1.25H50v-0.625
		h-0.625v-1.25H48.75v-0.625h-0.625v-0.625H47.5v-0.625h-0.625v-0.625h-1.25v-0.625h-1.25v-1.25H43.75v0.625h-0.625v-0.625H42.5
		v-0.625h-1.875v0.625H40v-1.25h-1.25v0.625h-3.125v0.625H35v-1.25h-1.25v0.625h0.625v0.625H33.75v0.625h-0.625v0.625H32.5v-0.625
		h0.625v-0.625h-1.25v0.625h-1.25v1.25h0.625v-0.625h0.625v0.625H31.25v0.625h-0.625v0.625H30v0.625h-0.625v1.25H28.75v0.625h-0.625
		v1.25H27.5v1.25h-0.625v1.25H26.25v1.875h-0.625v1.25H25v1.25h-0.625v1.25H23.75v1.875h-0.625v1.25H22.5v1.875h-0.625v1.25H21.25
		v1.25h-0.625v1.875H20v1.25h-0.625v1.875H18.75v1.25h-0.625v1.875H17.5v1.25h-0.625v1.25H16.25v1.875h-0.625v1.25H15v1.875h-0.625
		v1.25H13.75v1.25h-0.625v1.25h0.625v0.625h0.625v0.625H13.75v0.625H15v-3.125h0.625v-1.25h0.625v-1.25h0.625v-1.875H17.5v-1.25
		h0.625v-0.625h0.625v-1.25h0.625v-1.25H20v-0.625h0.625v-1.25h0.625v-1.25h0.625v-1.25H22.5v-1.25h0.625v-1.25h0.625v-1.25h0.625
		v-1.25H25v-1.25h0.625v-1.25h0.625v-1.25h0.625v-1.25H27.5v-1.25h0.625v-1.25h0.625v-1.25h0.625v-1.25H30v-1.25h0.625v-1.25h0.625
		v-0.625h0.625v-1.25H32.5v-0.625h0.625v-0.625h0.625v-0.625h0.625v-0.625H35v-0.625h0.625v-0.625h0.625v1.25h-0.625v0.625h1.25
		v-0.625h2.5v-0.625h-2.5v-1.25H37.5v0.625h3.125v0.625h1.25v0.625H42.5v0.625h0.625v0.625h0.625v0.625h0.625v0.625H45v3.75h-0.625
		v-0.625h-1.25v0.625H42.5v-0.625h-5v0.625h-1.875v0.625H35v-0.625h0.625v-0.625h-1.25v0.625H33.75v0.625h0.625v0.625H33.75v0.625
		h-0.625v0.625H32.5v0.625h-0.625v0.625H31.25v0.625h-0.625v1.25H30v1.875h-0.625v7.5H30v1.875h0.625v1.875h0.625v1.875h0.625v1.25
		H32.5v1.875h0.625v1.25h0.625v1.875h0.625v1.25H35v1.25h0.625v1.875h0.625v1.25h0.625v1.875H37.5v1.25h0.625v1.875h0.625v1.25
		h0.625v1.25H40v1.875h0.625v1.25h0.625v1.875h0.625v1.25H42.5v1.875h0.625v1.25h0.625v1.25h0.625v0.625h1.25v-1.875H45v-1.25
		h-0.625v-1.875H43.75v-1.875h-0.625v-1.25H42.5v-2.5h-0.625v-3.125H41.25v-1.875h-0.625v-1.875H40v-1.875h-0.625v-1.875H38.75
		v-1.875h-0.625v-1.875H37.5v-1.875h-0.625v-1.875H36.25v-1.875h-0.625v-1.875H35v-2.5h-0.625v-3.125H33.75v-2.5h0.625v-2.5H35
		v-1.25h0.625v-0.625h0.625v-0.625h1.25v-0.625h0.625v0.625h0.625v-1.25h0.625v0.625h3.75v0.625h1.25v0.625H45v0.625h0.625v0.625
		h-1.25v0.625H43.75v0.625h-0.625v0.625H42.5v0.625h-0.625v0.625H41.25v0.625h-0.625v1.25H40v1.25h-0.625v1.875H38.75v5h0.625v1.875
		H40v1.25h0.625v1.25h0.625v0.625h0.625v0.625H42.5v0.625h0.625v0.625h0.625v0.625H45v0.625h0.625v0.625h1.25v0.625h1.25v0.625h1.25
		v0.625h1.25v0.625h1.25v0.625h1.875v0.625H55v0.625h1.25v0.625h1.875v0.625h1.25v0.625h1.875v0.625h1.25v0.625h1.25v0.625h1.875
		v0.625h1.25v0.625h1.875v0.625H70v0.625h1.875v0.625h1.25v0.625h1.25v0.625h1.875v0.625h1.25v0.625h1.875v0.625h1.25v0.625h0.625
		v0.625h-0.625v0.625h1.25v-0.625H82.5v-0.625h-0.625v-1.25H81.25v-1.25h-0.625v0.625h-1.25v-0.625h-1.25v-0.625h-1.25v-0.625H76.25
		v-1.25h-0.625v0.625H75v-0.625h-1.25v-0.625H72.5v-0.625h-1.25v-0.625H70v-0.625h-1.25v-1.25h-0.625v0.625H67.5v-1.25h-0.625v0.625
		H66.25v-0.625H65v-1.25h-0.625v0.625H63.75v-1.25h-0.625v0.625H62.5v-1.25h-0.625v0.625H61.25v-0.625H60v-1.25h-0.625v0.625H58.75
		v-0.625H57.5v-0.625h-1.25v-0.625H55v-0.625h-0.625v-0.625h-1.25v-0.625h-1.25v-1.25H51.25v0.625h-0.625v-1.25H50v0.625h-0.625
		v-0.625H48.75v-0.625H47.5v-0.625h-0.625v-0.625H46.25v-0.625h-0.625v-1.25H45v-0.625h-0.625v-1.875H43.75v-1.875h0.625v-2.5H45
		v-0.625h0.625v-1.25h0.625v-0.625h0.625v-0.625h1.25v-0.625h0.625v1.25H47.5v0.625h-0.625v0.625h1.25v-0.625h1.25v5H50v-5.625
		h-0.625v-0.625H50v0.625h0.625v-0.625h0.625v0.625h-0.625v5.625h0.625v1.875h0.625v1.25H52.5v1.25h0.625v0.625h0.625v1.25h0.625
		v0.625h1.25v0.625h0.625v0.625h1.25v0.625h1.875v0.625h3.75v-0.625h0.625v0.625H65v-0.625h0.625v-0.625h1.25v0.625h1.875v-1.25
		h0.625v0.625H70v-1.25h1.25v0.625h0.625v-1.25H72.5v1.25h-0.625v0.625h1.25v-1.25h0.625v-1.25h0.625v0.625H75v-1.25h0.625v0.625
		h1.25v-1.25H77.5v0.625h0.625v-1.25h0.625v1.25h-0.625v0.625h1.25v-0.625h1.875v-0.625h-1.875v-0.625H80v-0.625h0.625v0.625h0.625
		v-1.25h0.625v1.25H81.25v0.625h1.25v-0.625h1.25v-0.625H82.5v-1.25h1.25v0.625h0.625v-1.25H85v0.625h0.625v-1.25h0.625v0.625h0.625
		v0.625h1.875v-0.625H87.5v-1.25h0.625v0.625h0.625v-1.25h0.625v1.25H88.75v0.625H90v-0.625h1.875v-0.625H90v-0.625h0.625v-0.625
		h0.625v0.625h0.625v-1.25H92.5v0.625h0.625v-1.25h1.25v0.625H95v-1.25h0.625v0.625h0.625v-1.25h0.625v0.625H97.5v-1.25h0.625v0.625
		h1.25v-0.625H98.75v-0.625h0.625v0.625h1.25v-0.625H100v-0.625h1.25v0.625h0.625v0.625h-1.25v0.625h1.875v-1.875h-0.625v-0.625
		h0.625v-1.25H101.25z M63.75,77.408h-0.625v-0.625h0.625V77.408z M20,71.783h-0.625v-1.25H20V71.783z M20.625,69.908H20v-0.625
		h0.625V69.908z M41.25,91.783v0.625h-0.625v-0.625H41.25z M40,88.658v1.25h0.625v1.25H40v-1.25h-0.625v-1.25H40z M71.25,91.783
		h0.625v0.625H71.25V91.783z M70,91.158h0.625v0.625H70V91.158z M68.125,90.533h0.625v0.625h-0.625V90.533z M66.875,89.908H67.5
		v0.625h-0.625V89.908z M65,88.658h0.625v0.625h0.625v0.625H65V88.658z M63.75,88.033h0.625v1.25H63.75V88.033z M59.375,86.158h1.25
		v0.625h1.25v0.625h1.25v1.25H62.5v-0.625h-0.625v-0.625H61.25v0.625h-0.625v-1.25H60v0.625h-0.625V86.158z M73.75,76.783h-0.625
		v-1.875h0.625V76.783z M75.625,76.158h-1.25v-0.625H75v-1.25h0.625V76.158z M77.5,74.908h-0.625v0.625H76.25v-0.625h0.625v-1.25
		H77.5V74.908z M80,74.283h-1.25v0.625h-0.625v-0.625h0.625v-1.25h0.625v0.625H80V74.283z M81.875,73.658h-1.25v-1.25h0.625v0.625
		h0.625V73.658z M83.125,73.033H82.5v-1.25h0.625V73.033z M85,72.408h-1.25v-0.625h0.625v-0.625H85V72.408z M86.875,71.158H86.25
		v-0.625h0.625V71.158z M88.75,70.533h-0.625v-0.625h0.625V70.533z M90.625,69.908H90v-0.625h0.625V69.908z M92.5,69.283h-0.625
		v-0.625H92.5V69.283z"/>
	<rect x="80" y="91.158" width="0.625" height="0.625"/>
	<rect x="35.625" y="60.533" width="0.625" height="1.25"/>
	<polygon points="37.5,60.533 37.5,59.908 38.125,59.908 38.125,59.283 36.875,59.283 36.875,59.908 36.25,59.908 36.25,60.533 	"/>
	<rect x="35" y="61.783" width="0.625" height="6.875"/>
	<rect x="35.625" y="68.658" width="0.625" height="1.875"/>
	<rect x="62.5" y="81.783" width="2.5" height="0.625"/>
	<rect x="66.25" y="83.033" width="1.25" height="0.625"/>
	<rect x="99.375" y="68.033" width="1.25" height="0.625"/>
	<rect x="75" y="78.033" width="1.25" height="0.625"/>
	<rect x="73.75" y="78.658" width="1.25" height="0.625"/>
	<rect x="84.375" y="74.283" width="1.25" height="0.625"/>
	<rect x="76.875" y="77.408" width="1.25" height="0.625"/>
	<rect x="57.5" y="81.158" width="1.25" height="0.625"/>
	<rect x="56.25" y="80.533" width="1.25" height="0.625"/>
	<rect x="95" y="69.908" width="1.25" height="0.625"/>
	<rect x="97.5" y="68.658" width="1.875" height="0.625"/>
	<rect x="96.25" y="69.283" width="1.25" height="0.625"/>
	<rect x="93.125" y="70.533" width="1.25" height="0.625"/>
	<rect x="91.875" y="71.158" width="1.25" height="0.625"/>
	<rect x="85.625" y="73.658" width="1.25" height="0.625"/>
	<rect x="46.25" y="75.533" width="0.625" height="0.625"/>
	<polygon points="79.375,68.033 80,68.033 80,67.408 80.625,67.408 80.625,66.783 81.25,66.783 81.25,65.533 80.625,65.533 
		80.625,66.158 80,66.158 80,66.783 79.375,66.783 	"/>
	<rect x="86.25" y="41.158" width="0.625" height="1.25"/>
	<rect x="82.5" y="48.658" width="0.625" height="1.25"/>
	<rect x="83.125" y="47.408" width="0.625" height="1.25"/>
	<rect x="86.875" y="39.908" width="0.625" height="1.25"/>
	<rect x="87.5" y="38.658" width="0.625" height="1.25"/>
	<rect x="88.125" y="37.408" width="0.625" height="1.25"/>
	<rect x="66.875" y="64.283" width="1.25" height="0.625"/>
	<rect x="70" y="61.158" width="0.625" height="0.625"/>
	<rect x="65.625" y="63.033" width="0.625" height="0.625"/>
	<rect x="66.25" y="63.658" width="0.625" height="0.625"/>
	<rect x="70" y="59.908" width="1.875" height="0.625"/>
	<rect x="69.375" y="60.533" width="0.625" height="0.625"/>
	<rect x="65" y="61.783" width="0.625" height="1.25"/>
	<polygon points="91.25,43.033 92.5,43.033 92.5,42.408 91.875,42.408 91.875,41.158 91.25,41.158 	"/>
	<rect x="90.625" y="43.033" width="0.625" height="1.25"/>
	<rect x="95" y="27.408" width="0.625" height="0.625"/>
	<rect x="90" y="44.283" width="0.625" height="1.25"/>
	<rect x="88.75" y="36.158" width="0.625" height="1.25"/>
	<rect x="89.375" y="45.533" width="0.625" height="1.875"/>
	<rect x="94.375" y="26.783" width="0.625" height="0.625"/>
	<rect x="92.5" y="28.658" width="0.625" height="1.25"/>
	<rect x="89.375" y="35.533" width="0.625" height="0.625"/>
	<rect x="90.625" y="32.408" width="0.625" height="1.25"/>
	<rect x="90" y="33.658" width="0.625" height="1.25"/>
	<rect x="91.25" y="31.158" width="0.625" height="1.25"/>
	<rect x="91.875" y="29.908" width="0.625" height="1.25"/>
	<rect x="83.75" y="46.158" width="0.625" height="1.25"/>
	<rect x="77.5" y="55.533" width="0.625" height="0.625"/>
	<rect x="76.875" y="56.158" width="0.625" height="0.625"/>
	<polygon points="64.375,59.908 64.375,61.783 65,61.783 65,61.158 68.75,61.158 68.75,60.533 65,60.533 65,59.908 	"/>
	<rect x="75.625" y="57.408" width="0.625" height="0.625"/>
	<rect x="78.125" y="54.908" width="0.625" height="0.625"/>
	<rect x="79.375" y="52.408" width="0.625" height="1.25"/>
	<rect x="78.75" y="53.658" width="0.625" height="1.25"/>
	<rect x="63.75" y="13.658" width="0.625" height="1.875"/>
	<rect x="64.375" y="15.533" width="0.625" height="1.875"/>
	<rect x="68.125" y="61.783" width="0.625" height="0.625"/>
	<rect x="63.125" y="11.783" width="0.625" height="1.25"/>
	<rect x="72.5" y="61.783" width="0.625" height="0.625"/>
	<rect x="65" y="17.408" width="0.625" height="1.875"/>
	<rect x="76.25" y="56.783" width="0.625" height="0.625"/>
	<rect x="75.625" y="61.783" width="0.625" height="0.625"/>
	<rect x="76.25" y="60.533" width="0.625" height="1.25"/>
	<rect x="78.125" y="57.408" width="0.625" height="0.625"/>
	<rect x="76.875" y="59.283" width="0.625" height="1.25"/>
	<rect x="68.125" y="64.908" width="1.25" height="0.625"/>
	<rect x="70" y="64.908" width="2.5" height="0.625"/>
	<rect x="81.25" y="51.158" width="0.625" height="1.25"/>
	<rect x="80.625" y="52.408" width="0.625" height="1.25"/>
	<rect x="80" y="49.908" width="0.625" height="2.5"/>
	<rect x="79.375" y="54.908" width="0.625" height="1.25"/>
	<rect x="78.75" y="56.158" width="0.625" height="0.625"/>
	<rect x="80" y="53.658" width="0.625" height="1.25"/>
	<polygon points="63.125,9.908 62.5,9.908 62.5,8.033 61.875,8.033 61.875,10.533 62.5,10.533 62.5,11.783 63.125,11.783 	"/>
	<rect x="44.375" y="78.033" width="0.625" height="0.625"/>
	<polygon points="41.875,66.783 41.875,68.033 41.25,68.033 41.25,74.283 41.875,74.283 41.875,69.908 42.5,69.908 42.5,68.033 
		43.125,68.033 43.125,67.408 42.5,67.408 42.5,66.783 	"/>
	<rect x="42.5" y="75.533" width="0.625" height="1.25"/>
	<rect x="43.75" y="77.408" width="0.625" height="0.625"/>
	<rect x="45" y="78.658" width="0.625" height="0.625"/>
	<rect x="41.875" y="74.283" width="0.625" height="1.25"/>
	<rect x="43.125" y="76.783" width="0.625" height="0.625"/>
	<rect x="53.125" y="64.283" width="0.625" height="0.625"/>
	<rect x="55" y="63.658" width="0.625" height="0.625"/>
	<rect x="57.5" y="62.408" width="2.5" height="0.625"/>
	<polygon points="45,63.658 45.625,63.658 45.625,63.033 44.375,63.033 44.375,63.658 43.75,63.658 43.75,64.283 43.125,64.283 
		43.125,65.533 43.75,65.533 43.75,64.908 44.375,64.908 44.375,64.283 45,64.283 	"/>
	<polygon points="51.875,64.283 51.875,63.658 52.5,63.658 52.5,63.033 51.25,63.033 51.25,64.283 	"/>
	<rect x="48.125" y="62.408" width="3.125" height="0.625"/>
	<polygon points="34.375,44.283 35,44.283 35,43.658 33.75,43.658 33.75,44.283 33.125,44.283 33.125,44.908 32.5,44.908 
		32.5,45.533 31.875,45.533 31.875,46.158 31.25,46.158 31.25,46.783 30.625,46.783 30.625,48.033 31.25,48.033 31.25,47.408 
		31.875,47.408 31.875,46.783 32.5,46.783 32.5,46.158 33.125,46.158 33.125,45.533 33.75,45.533 33.75,44.908 34.375,44.908 	"/>
	<rect x="45.625" y="62.408" width="0.625" height="0.625"/>
	<polygon points="35.625,42.408 35.625,43.033 35,43.033 35,43.658 36.875,43.658 36.875,43.033 36.25,43.033 36.25,42.408 	"/>
	<rect x="30" y="48.033" width="0.625" height="0.625"/>
	<polygon points="36.875,43.033 39.375,43.033 39.375,43.658 41.25,43.658 41.25,43.033 40.625,43.033 40.625,42.408 36.875,42.408 
			"/>
	<rect x="54.375" y="65.533" width="0.625" height="1.25"/>
	<polygon points="41.875,43.033 41.875,44.283 42.5,44.283 42.5,44.908 43.75,44.908 43.75,44.283 43.125,44.283 43.125,43.033 	"/>
	<rect x="29.375" y="49.283" width="0.625" height="0.625"/>
	<rect x="46.875" y="58.033" width="0.625" height="0.625"/>
	<rect x="46.25" y="57.408" width="0.625" height="0.625"/>
	<polygon points="45,56.783 45,57.408 46.25,57.408 46.25,56.783 45.625,56.783 45.625,56.158 44.375,56.158 44.375,56.783 	"/>
	<polygon points="43.75,56.158 43.75,55.533 45.625,55.533 45.625,54.908 43.125,54.908 43.125,55.533 41.875,55.533 41.875,56.158 
			"/>
	<polygon points="41.875,55.533 41.875,54.908 42.5,54.908 42.5,54.283 39.375,54.283 39.375,55.533 	"/>
	<rect x="45.625" y="54.283" width="0.625" height="0.625"/>
	<polygon points="54.375,72.408 54.375,67.408 53.75,67.408 53.75,65.533 53.125,65.533 53.125,72.408 53.75,72.408 53.75,73.658 
		54.375,73.658 54.375,74.908 55,74.908 55,76.158 55.625,76.158 55.625,75.533 56.25,75.533 56.25,74.908 55.625,74.908 
		55.625,74.283 55,74.283 55,72.408 	"/>
	<rect x="58.125" y="65.533" width="0.625" height="1.25"/>
	<rect x="52.5" y="61.158" width="0.625" height="0.625"/>
	<rect x="58.75" y="66.783" width="0.625" height="0.625"/>
	<rect x="61.25" y="58.033" width="0.625" height="1.875"/>
	<rect x="59.375" y="67.408" width="0.625" height="0.625"/>
	<rect x="60.625" y="59.908" width="0.625" height="0.625"/>
	<rect x="59.375" y="48.658" width="1.25" height="0.625"/>
	<rect x="64.375" y="71.158" width="1.25" height="0.625"/>
	<polygon points="64.375,70.533 63.125,70.533 63.125,71.783 63.75,71.783 63.75,71.158 64.375,71.158 	"/>
	<rect x="60" y="68.033" width="0.625" height="0.625"/>
	<polygon points="77.5,68.658 77.5,69.283 76.875,69.283 76.875,69.908 76.25,69.908 76.25,70.533 77.5,70.533 77.5,69.908 
		78.125,69.908 78.125,69.283 78.75,69.283 78.75,68.658 	"/>
	<polygon points="63.125,69.908 62.5,69.908 62.5,69.283 61.25,69.283 61.25,69.908 61.875,69.908 61.875,70.533 63.125,70.533 	"/>
	<rect x="60.625" y="68.658" width="0.625" height="0.625"/>
	<rect x="46.875" y="48.658" width="0.625" height="1.25"/>
	<polygon points="56.25,75.533 56.25,76.158 55.625,76.158 55.625,76.783 56.25,76.783 56.25,77.408 56.875,77.408 56.875,78.033 
		58.75,78.033 58.75,77.408 58.125,77.408 58.125,76.783 57.5,76.783 57.5,76.158 56.875,76.158 56.875,75.533 	"/>
	<rect x="55.625" y="64.283" width="0.625" height="0.625"/>
	<rect x="55" y="64.908" width="0.625" height="0.625"/>
	<rect x="78.75" y="68.033" width="0.625" height="0.625"/>
	<rect x="58.75" y="78.033" width="1.875" height="0.625"/>
	<rect x="61.875" y="78.658" width="1.875" height="0.625"/>
	<polygon points="57.5,63.033 56.25,63.033 56.25,64.283 56.875,64.283 56.875,63.658 57.5,63.658 	"/>
	<rect x="47.5" y="49.908" width="0.625" height="3.125"/>
	<rect x="53.75" y="64.908" width="0.625" height="0.625"/>
	<rect x="47.5" y="59.283" width="0.625" height="2.5"/>
	<rect x="46.875" y="53.033" width="0.625" height="0.625"/>
	<rect x="48.75" y="51.158" width="1.25" height="0.625"/>
	<rect x="72.5" y="50.533" width="0.625" height="1.25"/>
	<rect x="28.125" y="34.908" width="1.875" height="0.625"/>
	<rect x="25.625" y="36.158" width="1.25" height="0.625"/>
	<polygon points="31.25,34.908 31.25,34.283 33.125,34.283 33.125,33.658 30.625,33.658 30.625,34.283 30,34.283 30,34.908 	"/>
	<rect x="39.375" y="30.533" width="1.875" height="0.625"/>
	<rect x="36.25" y="31.783" width="1.25" height="0.625"/>
	<rect x="65.625" y="19.283" width="0.625" height="1.875"/>
	<rect x="26.875" y="35.533" width="1.25" height="0.625"/>
	<rect x="15" y="40.533" width="1.25" height="0.625"/>
	<rect x="16.25" y="39.908" width="1.25" height="0.625"/>
	<rect x="13.125" y="41.158" width="1.875" height="0.625"/>
	<rect x="19.375" y="38.658" width="1.25" height="0.625"/>
	<rect x="22.5" y="37.408" width="1.25" height="0.625"/>
	<rect x="20.625" y="38.033" width="1.875" height="0.625"/>
	<rect x="55" y="33.033" width="0.625" height="0.625"/>
	<rect x="56.875" y="34.908" width="0.625" height="1.25"/>
	<rect x="56.25" y="34.283" width="0.625" height="0.625"/>
	<rect x="57.5" y="36.158" width="0.625" height="1.25"/>
	<rect x="58.125" y="37.408" width="0.625" height="1.25"/>
	<rect x="58.75" y="38.658" width="0.625" height="3.75"/>
	<rect x="55.625" y="33.658" width="0.625" height="0.625"/>
	<rect x="53.125" y="31.783" width="1.25" height="0.625"/>
	<rect x="61.875" y="39.283" width="0.625" height="0.625"/>
	<rect x="52.5" y="31.158" width="0.625" height="0.625"/>
	<rect x="11.875" y="41.783" width="1.25" height="0.625"/>
	<rect x="60" y="38.658" width="0.625" height="0.625"/>
	<rect x="59.375" y="35.533" width="0.625" height="0.625"/>
	<rect x="54.375" y="32.408" width="0.625" height="0.625"/>
	<rect x="28.125" y="44.908" width="0.625" height="1.25"/>
	<rect x="26.25" y="46.158" width="0.625" height="0.625"/>
	<rect x="26.875" y="46.783" width="0.625" height="1.25"/>
	<rect x="26.875" y="45.533" width="0.625" height="0.625"/>
	<rect x="51.25" y="30.533" width="1.25" height="0.625"/>
	<rect x="27.5" y="46.158" width="0.625" height="0.625"/>
	<rect x="28.75" y="44.283" width="0.625" height="0.625"/>
	<rect x="26.25" y="48.033" width="0.625" height="1.25"/>
	<rect x="10.625" y="42.408" width="1.25" height="0.625"/>
	<polygon points="23.125,58.033 23.125,56.158 23.75,56.158 23.75,54.908 23.125,54.908 23.125,55.533 22.5,55.533 22.5,58.033 	"/>
	<rect x="25.625" y="49.283" width="0.625" height="1.25"/>
	<rect x="21.875" y="58.033" width="0.625" height="1.25"/>
	<rect x="24.375" y="51.783" width="0.625" height="1.875"/>
	<polygon points="25.625,51.783 25.625,50.533 24.375,50.533 24.375,51.158 25,51.158 25,51.783 	"/>
	<rect x="23.75" y="53.658" width="0.625" height="1.25"/>
	<path d="M33.75,38.658h0.625v-1.25H35v1.25h-0.625v0.625h1.25v0.625H37.5v-0.625h-1.25v-0.625h-0.625v-0.625h0.625v-1.25h0.625
		v0.625h1.25v-1.25h0.625v0.625h1.875v-1.25h0.625v1.25h-0.625v0.625h1.25v-1.25H42.5v-1.25h0.625v0.625h5v0.625h1.25v0.625h1.25
		v0.625h0.625v1.25h0.625v1.25H52.5v4.375h-0.625v1.25H51.25v0.625h-0.625v1.25h0.625v1.25h-0.625v0.625h1.25v-0.625H52.5v-0.625
		h-0.625v-1.25H52.5v-0.625h0.625v-1.25h0.625v-5.625h-0.625v-1.25H52.5v-0.625h-0.625v-0.625H51.25v-0.625h-0.625v-1.25H50v0.625
		h-0.625v-1.25H48.75v0.625h-0.625v-0.625h-1.25v0.625H46.25v-1.25h2.5v-0.625h-3.125v0.625H45v0.625h-3.75v0.625h-2.5v0.625h-1.875
		v0.625h-1.25v-1.875h1.25v0.625H37.5v-1.25h0.625v1.25h0.625v-1.25h0.625v-0.625H40v0.625h0.625v-1.25h0.625v1.25h0.625v-0.625
		H42.5v-1.25h0.625v0.625h6.25v0.625h1.875v0.625h1.25v0.625h0.625v0.625h0.625v0.625h0.625v0.625H55v1.25h0.625v1.25h0.625v1.875
		h0.625v5H56.25v1.875h0.625v0.625H60v-0.625h0.625v0.625h0.625v-1.25h0.625v1.25H61.25v0.625h1.25v-0.625h0.625v-0.625H62.5v-1.25
		h1.25v-0.625h0.625v-1.25H65v-0.625h0.625v-1.25h0.625v-4.375h-0.625v-1.25H65v-1.25h-0.625v-0.625H63.75v-0.625h-0.625v-0.625
		H62.5v-0.625h-1.25v-0.625h-0.625v-0.625h-1.25v-1.25H58.75v0.625h-0.625v-1.25H57.5v0.625h-0.625v-1.25H56.25v0.625h-0.625v-0.625
		h-1.25v-1.25H53.75v0.625h-0.625v-0.625h-1.25v-0.625h-1.25v-0.625h-1.25v-0.625h-1.25v-0.625H47.5v-0.625h-1.875v-0.625h-1.25
		v-0.625h-1.25v-0.625h-1.25v-0.625h-1.25v-0.625h1.25v0.625h1.875v0.625H45v0.625h1.25v0.625h1.875v0.625h1.25v0.625h1.25v0.625
		H52.5v0.625h1.25v0.625H55v0.625h1.875v0.625h1.25v0.625h1.25v0.625h1.25v0.625H60v0.625h1.25v-0.625h0.625v0.625h1.25v0.625h0.625
		v0.625H65v0.625h0.625v0.625h0.625v0.625h0.625v1.25H67.5v1.25h0.625v1.875h0.625v4.375h-0.625v1.875H67.5v1.25h-0.625v0.625H66.25
		v0.625h-0.625v-0.625H65v0.625h-0.625v0.625H63.75v0.625H65v-0.625h0.625v0.625H65v0.625h-1.25v0.625h-0.625v0.625h-1.25v1.875
		H62.5v0.625h0.625v1.25h1.25v0.625h1.25v0.625h3.75v-0.625H70v-0.625h1.25v0.625h0.625v0.625H72.5v0.625h1.25v-0.625h-0.625v-0.625
		H72.5v-1.25h0.625v-0.625h1.25v-0.625H75v-1.25h0.625v-1.25h0.625v-6.25h-0.625v-2.5H75v-1.875h-0.625v-1.875H73.75v-2.5h-0.625
		v-1.875H72.5v-1.875h-0.625v-1.875H71.25v-1.25h-0.625v-1.875h0.625v1.875h0.625v1.25H72.5v1.875h0.625v1.25h0.625v1.875h0.625
		v1.25H75v1.875h0.625v1.875h0.625v1.25h0.625v1.875H77.5v1.875h0.625v6.875H77.5v1.25h-0.625v-1.875H76.25v1.25h-0.625v1.875h0.625
		v-0.625h0.625v0.625H76.25v0.625h-0.625v1.25H75v-1.25h0.625v-0.625H73.75v0.625h-0.625v0.625h0.625v0.625h0.625v0.625H73.75v0.625
		H72.5v0.625h-1.875v0.625H67.5v-0.625h3.125v-0.625H70v-0.625h-1.25v0.625h-0.625v-0.625h-2.5v0.625h-1.25v0.625h1.875v-0.625
		h0.625v1.25h-1.25v0.625h-1.25v-1.25H63.75v-0.625h0.625v-0.625h-1.25v0.625H62.5v0.625h0.625v0.625H62.5v5h0.625v1.25h0.625v0.625
		h0.625v0.625H65v0.625h0.625v0.625h1.25v0.625h1.875v0.625h2.5v-0.625h0.625v-0.625H72.5v0.625h1.25v-1.25H75v-0.625h0.625v-0.625
		h0.625v-0.625h0.625v-0.625H77.5v-0.625h0.625v-0.625h0.625v-1.25h0.625v-1.25H80v-1.25h0.625v-1.25h0.625v-1.25h0.625v-0.625H82.5
		v-1.25h0.625v-1.25h0.625v-1.25h0.625v-1.25H85v-1.25h0.625v-1.25h0.625v-1.25h0.625v-1.25H87.5v-1.25h0.625v1.25H87.5v1.25h-0.625
		v1.25H86.25v1.25h-0.625v1.25H85v1.875h-0.625v1.25H83.75v1.25h-0.625v1.25H82.5v1.875h-0.625v1.25H81.25v1.25H80v0.625h0.625v1.25
		H80v0.625h-0.625v-0.625H78.75v1.25h0.625v0.625H78.75v1.25h-0.625v0.625H77.5v0.625h-0.625v0.625H76.25v0.625h-0.625v0.625h-1.25
		v0.625H73.75v-0.625h0.625v-0.625h1.25v-0.625h0.625v-0.625h0.625v-0.625H77.5v-0.625h0.625v-1.25H77.5v0.625h-0.625v0.625H76.25
		v0.625h-0.625v0.625h-1.25v0.625H73.75v0.625H72.5v0.625h0.625v1.25H67.5v0.625h-0.625v-1.25H66.25v0.625H65v-0.625h-0.625v-0.625
		h-1.25v-0.625H62.5v-0.625h-0.625v-0.625H61.25v-0.625h-0.625v-1.25H60v-0.625h-0.625v0.625H58.75v0.625h0.625v0.625H60v1.25h0.625
		v0.625h0.625v0.625h1.25v0.625h0.625v0.625h1.25v0.625h1.25v0.625H67.5v0.625h3.125v-0.625h0.625v0.625h0.625v-1.25H72.5v0.625
		h1.25v-0.625h0.625v-0.625H75v1.25h-0.625v0.625h1.25v-0.625h0.625v-0.625h-0.625v-1.25h0.625v-0.625h1.25v-0.625h0.625v-0.625
		h0.625v-0.625h0.625v-1.25H80v-0.625h0.625v-1.25h0.625v-1.25h0.625v-1.25H82.5v-1.25h0.625v-1.25h0.625v-1.875h0.625v-1.25H85
		v-1.25h0.625v-1.875h0.625v-1.25h0.625v-1.25H87.5v-1.875h0.625v-1.25h0.625v-1.25h0.625v-1.875H90v-1.25h0.625v-1.25h0.625v-2.5
		h0.625v-1.875H92.5v-1.875h0.625v-1.25h0.625v-1.25h0.625v-1.25H95v-1.875h0.625v-0.625H95v-0.625h-0.625v-0.625H93.75v2.5h-0.625
		v1.25H92.5v1.25h-0.625v1.25H91.25v1.25h-0.625v1.25H90v1.25h-0.625v1.25H88.75v1.25h-0.625v1.25H87.5v1.25h-0.625v1.25H86.25
		v-1.25h-0.625v1.25H85v0.625h-0.625v1.875H85v-0.625h0.625v0.625H85v1.25h-0.625v1.25H83.75v1.25h-0.625v0.625H82.5v-0.625h-0.625
		v1.25H82.5v1.25h-0.625v1.25H81.25v1.25h-0.625v1.25H80v1.25h-0.625v0.625H78.75v0.625h-0.625v-0.625H77.5v1.25h0.625v1.25H77.5
		v1.25h-0.625v0.625H76.25v1.25h-0.625v0.625H75v0.625h-0.625v-0.625H75v-0.625h0.625v-1.25H75v0.625h-0.625v0.625H73.75v0.625H72.5
		v0.625h1.25v0.625H72.5v0.625h-3.75v0.625h-0.625v-1.25H67.5v0.625h-0.625v-0.625H66.25v-0.625h-0.625v-0.625H65v-0.625h-0.625
		v-1.25H63.75v-3.125H65v0.625h3.125v-0.625H67.5v-0.625h0.625v0.625h0.625v0.625H70v-0.625h-0.625v-0.625h1.25v0.625h1.25v-0.625
		H72.5v-0.625h0.625v1.25H72.5v0.625h1.25v-0.625H75v-0.625h0.625v-0.625H75v-1.25h0.625v-0.625h0.625v-0.625h0.625v-0.625H77.5
		v-0.625h0.625v-1.25h0.625v-1.25h0.625v-8.125H78.75v-1.875h-0.625v-1.875H77.5v-1.875h-0.625v-1.25H76.25v-1.875h-0.625v-1.25H75
		v-1.875h-0.625v-1.25H73.75v-1.25h-0.625v-1.875H72.5v-1.25h-0.625v-1.875H71.25v-1.25h-0.625v-1.875H70v-1.25h-0.625v-1.25H68.75
		v-1.25h-0.625v-1.25H67.5v-1.25h-0.625v-1.25H66.25v-1.875h-0.625V9.908H65v-2.5h-1.25v0.625h-0.625v1.875h0.625v1.875h0.625v1.875
		H65v1.875h0.625v1.875h0.625v1.875h0.625v1.875H67.5v1.875h0.625v1.875h0.625v1.25h0.625v2.5H70v1.875h0.625v1.875h0.625v1.875
		h0.625v1.875H72.5v1.875h0.625v1.875h0.625v1.875h0.625v2.5H75v5h-0.625v1.25H73.75v1.25h-0.625v0.625H72.5v0.625h-1.25v0.625h-5
		v0.625h-0.625v-0.625h-1.25v-0.625H63.75v-2.5H65v-0.625h0.625v-0.625h0.625v-0.625h0.625v-0.625H67.5v-0.625h0.625v-1.25h0.625
		v-0.625h0.625v-1.875H70v-5.625h-0.625v-1.875H68.75v-1.25h-0.625v-0.625H67.5v-0.625h-0.625v-0.625H66.25v-0.625h-0.625v-0.625H65
		v-0.625h-0.625v-0.625h-1.25v-1.25H62.5v0.625h-0.625v-1.25H61.25v0.625h-0.625v-1.25H60v0.625h-0.625v-1.25H58.75v0.625h-0.625
		v-0.625H57.5v-0.625h-0.625v0.625H56.25v-1.25h-0.625v0.625H55v-1.25h-0.625v0.625H53.75v-0.625h-0.625v-0.625H52.5v0.625h-0.625
		v-1.25H51.25v0.625h-0.625v-1.25H50v0.625h-1.25v-1.25h-0.625v0.625H47.5v-1.25h-0.625v0.625H46.25v-0.625h-0.625v-0.625H45v0.625
		h-0.625v-1.25H43.75v0.625h-0.625v-1.25H42.5v0.625h-1.25v-1.25h-0.625v0.625H40v-1.25h-0.625v0.625H38.75v-0.625h-0.625v-0.625
		H37.5v0.625h-0.625v0.625h1.25v0.625h0.625v0.625h-0.625v-0.625h-1.25v-0.625H36.25v-0.625h0.625v-1.25h-1.25v1.25H35v-1.875
		h-0.625v0.625h-1.25v-0.625H32.5v-0.625h-0.625v0.625H31.25v-0.625h0.625v-0.625h-1.25v0.625H30v-0.625h0.625v-0.625h-1.25v0.625
		H28.75v-1.25h-1.875v1.25H27.5v0.625h0.625v0.625h1.25v0.625h1.25v0.625H32.5v0.625h1.25v0.625h0.625v0.625H33.75v-0.625H32.5
		v0.625h0.625v0.625H35v-0.625h1.25v0.625h1.25v0.625h1.25v0.625H40v0.625h1.25v0.625h1.25v0.625h1.25v0.625H45v0.625h1.25v0.625
		h1.25v0.625h1.25v0.625H50v0.625h1.25v0.625h1.25v0.625h0.625v0.625h1.25v0.625h1.25v0.625h1.25v0.625h1.25v0.625h1.25v0.625h1.25
		v0.625h0.625v0.625h0.625v0.625H62.5v0.625h0.625v0.625h0.625v0.625h0.625v1.875H65v3.125h-0.625v1.25H63.75v1.25h-0.625v0.625
		H62.5v0.625h-0.625v-0.625H62.5v-0.625h0.625v-1.25H62.5v0.625h-0.625v0.625H61.25v0.625H60v0.625h1.25v0.625H60v0.625h-0.625
		v-0.625H60v-0.625h-0.625v-1.875H58.75v3.75h-0.625v-0.625H57.5v-0.625h0.625v-6.25H57.5v-1.875h-0.625v-1.25H56.25v-1.25h-0.625
		v-0.625H55v-0.625h-0.625v-0.625h-1.25v-0.625H52.5v-1.25h-0.625v0.625H51.25v-0.625h-0.625v-0.625H50v0.625h-0.625v-0.625H48.75
		v-0.625H47.5v0.625h0.625v0.625H47.5v-0.625h-0.625v-0.625h-2.5v0.625H41.25v0.625h-1.875v0.625H38.75v-0.625h0.625v-0.625H37.5
		v0.625h0.625v0.625H37.5v0.625h-1.25v0.625h-0.625v-0.625h0.625v-0.625h-1.875v0.625H35v0.625h-0.625v0.625h-1.25v0.625H31.25
		v0.625H30v0.625h-1.875v0.625h-1.25v0.625h-1.25v0.625H23.75v0.625H22.5v0.625h-1.875v0.625h-1.25v0.625H18.75v-0.625h0.625v-0.625
		h-1.25v1.25H17.5v0.625h-1.25v0.625H15v0.625h-1.875v0.625h-1.25v0.625h-1.25v-0.625H8.75v0.625H10v0.625H8.75v0.625H7.5v0.625
		H6.25v1.875h1.875v-1.25H8.75v0.625H10v-0.625H9.375v-0.625H10v0.625h1.25v-0.625h-0.625v-0.625h0.625v0.625h2.5v-0.625h-0.625
		v-0.625h0.625v0.625H15v-1.875h0.625v1.25h0.625v0.625h-0.625v0.625h1.25v-1.875H17.5v-0.625h0.625v1.25H17.5v0.625h1.25v-1.25
		h0.625v-1.25H20v1.25h-0.625v0.625h1.875v-0.625h-0.625v-0.625h0.625v-1.25h0.625v1.25H21.25v0.625h1.25v-1.25h0.625v-1.25h0.625
		v1.25h-0.625v0.625h1.25v-1.25H25v-1.25h0.625v1.25H25v0.625h1.25v-1.25h0.625v-1.25H27.5v1.25h-0.625v0.625h1.25v-1.25h0.625
		v-1.25h0.625v1.25H28.75v0.625H30v-1.25h0.625v-1.25h0.625v1.25h-0.625v0.625h1.25v-1.25H32.5v-1.25h0.625v1.25H32.5v0.625h1.25
		V38.658z M70,71.158h-0.625v-0.625H70V71.158z M90,39.283h0.625v0.625H90V39.283z M89.375,40.533H90v0.625h-0.625V40.533z
		 M88.75,41.783h0.625v0.625H88.75V41.783z M88.125,43.033h0.625v0.625h-0.625V43.033z M85.625,44.283h0.625v0.625h-0.625V44.283z
		 M74.375,58.658H73.75v-1.25h0.625V58.658z M68.125,19.908v-0.625h0.625v0.625H68.125z M68.75,21.783v-0.625h0.625v0.625H68.75z
		 M70,25.533v-1.25h-0.625v-1.875H70v1.875h0.625v1.25H70z M67.5,54.283h0.625v0.625H67.5V54.283z M40,21.783h-0.625v-0.625H40
		V21.783z M16.875,43.033H16.25v-0.625h0.625V43.033z M18.125,42.408H17.5v-0.625h0.625V42.408z M20,41.783h-1.25v-0.625H20V41.783z
		 M21.25,41.158h-0.625v-0.625h0.625V41.158z M24.375,39.908H23.75v0.625h-1.875v-0.625h1.875v-0.625h0.625V39.908z M25.625,39.908
		H25v-1.25h0.625V39.908z M27.5,39.283h-1.25v-0.625h0.625v-0.625H27.5V39.283z M31.875,37.408H31.25v0.625h-1.875v0.625h-1.25
		v-1.25h0.625v0.625h0.625v-1.25h1.25v0.625h0.625v-1.25h0.625V37.408z M33.125,36.783v0.625H32.5v-1.875h0.625v0.625h1.25v-1.25H35
		v1.875H33.125z"/>
	<rect x="43.125" y="36.158" width="3.75" height="0.625"/>
	<rect x="45" y="37.408" width="0.625" height="0.625"/>
	<rect x="29.375" y="43.658" width="0.625" height="0.625"/>
	<rect x="6.25" y="44.283" width="1.25" height="0.625"/>
	<rect x="7.5" y="43.658" width="1.25" height="0.625"/>
	<rect x="47.5" y="39.283" width="0.625" height="0.625"/>
	<rect x="30" y="43.033" width="0.625" height="0.625"/>
	<rect x="42.5" y="36.783" width="0.625" height="0.625"/>
	<rect x="33.125" y="40.533" width="0.625" height="0.625"/>
	<rect x="38.75" y="37.408" width="1.25" height="0.625"/>
	<rect x="40.625" y="39.283" width="1.875" height="0.625"/>
	<rect x="33.125" y="33.033" width="1.25" height="0.625"/>
	<rect x="20.625" y="61.158" width="0.625" height="1.25"/>
	<rect x="56.25" y="25.533" width="1.25" height="0.625"/>
	<rect x="55" y="24.908" width="1.25" height="0.625"/>
	<rect x="61.875" y="28.033" width="1.25" height="0.625"/>
	<rect x="71.25" y="51.783" width="1.25" height="0.625"/>
	<polygon points="63.125,29.283 63.75,29.283 63.75,29.908 65,29.908 65,29.283 64.375,29.283 64.375,28.658 63.125,28.658 	"/>
	<rect x="60.625" y="27.408" width="1.25" height="0.625"/>
	<rect x="47.5" y="21.783" width="1.25" height="0.625"/>
	<rect x="51.875" y="23.658" width="1.25" height="0.625"/>
	<rect x="43.125" y="19.908" width="1.25" height="0.625"/>
	<rect x="44.375" y="20.533" width="1.25" height="0.625"/>
	<rect x="48.75" y="22.408" width="1.875" height="0.625"/>
	<rect x="50.625" y="23.033" width="1.25" height="0.625"/>
	<rect x="68.75" y="28.658" width="0.625" height="1.875"/>
	<rect x="73.125" y="49.283" width="0.625" height="1.25"/>
	<polygon points="70,30.533 69.375,30.533 69.375,31.783 68.75,31.783 68.75,32.408 70,32.408 	"/>
	<rect x="41.25" y="19.283" width="1.875" height="0.625"/>
	<rect x="52.5" y="29.908" width="0.625" height="0.625"/>
	<rect x="66.875" y="23.033" width="0.625" height="1.875"/>
	<rect x="66.25" y="21.158" width="0.625" height="1.875"/>
	<rect x="68.125" y="26.783" width="0.625" height="1.875"/>
	<rect x="71.25" y="39.908" width="0.625" height="0.625"/>
	<rect x="71.875" y="38.033" width="0.625" height="1.875"/>
	<rect x="72.5" y="39.908" width="0.625" height="2.5"/>
	<polygon points="71.25,38.033 71.875,38.033 71.875,36.158 71.25,36.158 71.25,36.783 70.625,36.783 70.625,39.908 71.25,39.908 	
		"/>
	<polygon points="70.625,36.158 71.25,36.158 71.25,34.283 70.625,34.283 70.625,35.533 70,35.533 70,36.783 70.625,36.783 	"/>
	<rect x="70" y="32.408" width="0.625" height="1.875"/>
	<rect x="67.5" y="24.908" width="0.625" height="1.875"/>
	<rect x="62.5" y="36.158" width="0.625" height="0.625"/>
	<rect x="57.5" y="33.658" width="0.625" height="0.625"/>
	<rect x="61.875" y="35.533" width="0.625" height="0.625"/>
	<rect x="63.75" y="38.658" width="0.625" height="2.5"/>
	<rect x="61.25" y="34.908" width="0.625" height="0.625"/>
	<rect x="60.625" y="35.533" width="0.625" height="0.625"/>
	<rect x="58.125" y="33.033" width="1.25" height="0.625"/>
	<rect x="55" y="31.158" width="0.625" height="0.625"/>
	<polygon points="59.375,33.658 59.375,34.283 60,34.283 60,34.908 61.25,34.908 61.25,34.283 60.625,34.283 60.625,33.658 	"/>
	<rect x="40" y="18.658" width="1.25" height="0.625"/>
	<rect x="55.625" y="31.783" width="1.25" height="0.625"/>
	<rect x="56.875" y="32.408" width="1.25" height="0.625"/>
	<rect x="63.125" y="37.408" width="0.625" height="1.25"/>
	<rect x="53.75" y="30.533" width="0.625" height="0.625"/>
	<rect x="32.5" y="15.533" width="1.25" height="0.625"/>
	<rect x="30.625" y="14.908" width="1.875" height="0.625"/>
	<rect x="28.125" y="18.033" width="1.25" height="0.625"/>
	<rect x="27.5" y="17.408" width="0.625" height="0.625"/>
	<rect x="33.75" y="16.158" width="1.25" height="0.625"/>
	<rect x="33.125" y="16.783" width="0.625" height="0.625"/>
	<rect x="50" y="28.658" width="1.25" height="0.625"/>
	<rect x="48.75" y="28.033" width="1.25" height="0.625"/>
	<rect x="29.375" y="18.658" width="1.25" height="0.625"/>
	<rect x="63.125" y="41.783" width="0.625" height="1.25"/>
	<rect x="47.5" y="27.408" width="1.25" height="0.625"/>
	<rect x="46.25" y="26.783" width="1.25" height="0.625"/>
</g>
</svg>
