<?xml version="1.0" encoding="iso-8859-1"?>
<!-- Generator: Adobe Illustrator 28.3.0, SVG Export Plug-In . SVG Version: 6.00 Build 0)  -->
<svg version="1.1" id="Layer_1" xmlns="http://www.w3.org/2000/svg" xmlns:xlink="http://www.w3.org/1999/xlink" x="0px" y="0px"
	 width="110px" height="110px" viewBox="0 0 110 110" enable-background="new 0 0 110 110" xml:space="preserve">
<g>
	<polygon points="27.368,45.977 26.053,45.977 26.053,47.293 27.368,47.293 27.368,45.977 	"/>
	<polygon points="35.263,60.45 33.947,60.45 33.947,61.766 35.263,61.766 35.263,60.45 	"/>
	<polygon points="35.263,56.503 33.947,56.503 33.947,59.135 35.263,59.135 35.263,56.503 	"/>
	<polygon points="32.632,56.503 31.316,56.503 31.316,59.135 32.632,59.135 32.632,56.503 	"/>
	<polygon points="35.263,53.872 33.947,53.872 33.947,55.187 35.263,55.187 35.263,53.872 	"/>
	<polygon points="32.632,53.872 31.316,53.872 31.316,55.187 32.632,55.187 32.632,53.872 	"/>
	<polygon points="37.895,56.503 36.579,56.503 36.579,59.135 37.895,59.135 37.895,56.503 	"/>
	<polygon points="37.895,60.45 36.579,60.45 36.579,61.766 37.895,61.766 37.895,60.45 	"/>
	<polygon points="37.895,47.293 36.579,47.293 36.579,48.608 37.895,48.608 37.895,47.293 	"/>
	<polygon points="37.895,53.872 36.579,53.872 36.579,55.187 37.895,55.187 37.895,53.872 	"/>
	<polygon points="30,53.872 28.684,53.872 28.684,55.187 30,55.187 30,53.872 	"/>
	<polygon points="30,56.503 28.684,56.503 28.684,59.135 30,59.135 30,56.503 	"/>
	<polygon points="27.368,53.872 26.053,53.872 26.053,55.187 27.368,55.187 27.368,53.872 	"/>
	<polygon points="30,60.45 28.684,60.45 28.684,61.766 30,61.766 30,60.45 	"/>
	<polygon points="22.105,60.45 20.789,60.45 20.789,61.766 22.105,61.766 22.105,60.45 	"/>
	<polygon points="11.579,48.608 10.263,48.608 10.263,49.924 11.579,49.924 11.579,48.608 	"/>
	<polygon points="14.211,57.819 12.895,57.819 12.895,59.135 14.211,59.135 14.211,57.819 	"/>
	<polygon points="11.579,53.872 10.263,53.872 10.263,56.503 11.579,56.503 11.579,53.872 	"/>
	<polygon points="11.579,57.819 10.263,57.819 10.263,59.135 11.579,59.135 11.579,57.819 	"/>
	<polygon points="27.368,56.503 26.053,56.503 26.053,59.135 27.368,59.135 27.368,56.503 	"/>
	<polygon points="14.211,53.872 12.895,53.872 12.895,56.503 14.211,56.503 14.211,53.872 	"/>
	<polygon points="16.842,53.872 15.526,53.872 15.526,57.819 16.842,57.819 16.842,53.872 	"/>
	<polygon points="14.211,51.24 12.895,51.24 12.895,52.556 14.211,52.556 14.211,51.24 	"/>
	<polygon points="16.842,59.135 15.526,59.135 15.526,60.45 16.842,60.45 16.842,59.135 	"/>
	<polygon points="6.316,53.872 5,53.872 5,56.503 6.316,56.503 6.316,53.872 	"/>
	<polygon points="8.947,57.819 7.632,57.819 7.632,59.135 8.947,59.135 8.947,57.819 	"/>
	<polygon points="11.579,64.398 10.263,64.398 10.263,65.714 11.579,65.714 11.579,64.398 	"/>
	<polygon points="8.947,53.872 7.632,53.872 7.632,56.503 8.947,56.503 8.947,53.872 	"/>
	<polygon points="8.947,51.24 7.632,51.24 7.632,52.556 8.947,52.556 8.947,51.24 	"/>
	<polygon points="8.947,48.608 7.632,48.608 7.632,49.924 8.947,49.924 8.947,48.608 	"/>
	<polygon points="11.579,51.24 10.263,51.24 10.263,52.556 11.579,52.556 11.579,51.24 	"/>
	<polygon points="22.105,52.556 20.789,52.556 20.789,53.872 22.105,53.872 22.105,52.556 	"/>
	<polygon points="22.105,55.187 20.789,55.187 20.789,59.135 22.105,59.135 22.105,55.187 	"/>
	<polygon points="40.526,60.45 39.211,60.45 39.211,61.766 40.526,61.766 40.526,60.45 	"/>
	<polygon points="24.737,64.398 26.053,64.398 26.053,63.082 24.737,63.082 24.737,64.398 	"/>
	<polygon points="27.368,60.45 26.053,60.45 26.053,61.766 27.368,61.766 27.368,60.45 	"/>
	<polygon points="24.737,56.503 23.421,56.503 23.421,59.135 24.737,59.135 24.737,56.503 	"/>
	<polygon points="24.737,53.872 23.421,53.872 23.421,55.187 24.737,55.187 24.737,53.872 	"/>
	<polygon points="24.737,60.45 23.421,60.45 23.421,61.766 24.737,61.766 24.737,60.45 	"/>
	<polygon points="16.842,51.24 15.526,51.24 15.526,52.556 16.842,52.556 16.842,51.24 	"/>
	<polygon points="18.158,45.977 16.842,45.977 16.842,47.293 18.158,47.293 18.158,45.977 	"/>
	<polygon points="18.158,53.872 19.474,53.872 19.474,52.556 18.158,52.556 18.158,53.872 	"/>
	<polygon points="19.474,55.187 18.158,55.187 18.158,57.819 19.474,57.819 19.474,55.187 	"/>
	<polygon points="18.158,60.45 19.474,60.45 19.474,59.135 18.158,59.135 18.158,60.45 	"/>
	<polygon points="82.632,60.45 81.316,60.45 81.316,61.766 82.632,61.766 82.632,60.45 	"/>
	<polygon points="82.632,56.503 81.316,56.503 81.316,59.135 82.632,59.135 82.632,56.503 	"/>
	<polygon points="82.632,53.872 81.316,53.872 81.316,55.187 82.632,55.187 82.632,53.872 	"/>
	<polygon points="80,56.503 78.684,56.503 78.684,59.135 80,59.135 80,56.503 	"/>
	<polygon points="80,60.45 78.684,60.45 78.684,61.766 80,61.766 80,60.45 	"/>
	<polygon points="80,53.872 78.684,53.872 78.684,55.187 80,55.187 80,53.872 	"/>
	<polygon points="85.263,53.872 83.947,53.872 83.947,55.187 85.263,55.187 85.263,53.872 	"/>
	<polygon points="85.263,48.608 83.947,48.608 83.947,49.924 85.263,49.924 85.263,48.608 	"/>
	<polygon points="85.263,56.503 83.947,56.503 83.947,59.135 85.263,59.135 85.263,56.503 	"/>
	<polygon points="85.263,60.45 83.947,60.45 83.947,61.766 85.263,61.766 85.263,60.45 	"/>
	<polygon points="72.105,52.556 70.789,52.556 70.789,55.187 72.105,55.187 72.105,52.556 	"/>
	<polygon points="72.105,56.503 70.789,56.503 70.789,59.135 72.105,59.135 72.105,56.503 	"/>
	<polygon points="74.737,60.45 73.421,60.45 73.421,61.766 74.737,61.766 74.737,60.45 	"/>
	<polygon points="72.105,60.45 70.789,60.45 70.789,61.766 72.105,61.766 72.105,60.45 	"/>
	<polygon points="73.421,63.082 73.421,61.766 72.105,61.766 72.105,63.082 73.421,63.082 	"/>
	<polygon points="77.368,53.872 76.053,53.872 76.053,55.187 77.368,55.187 77.368,53.872 	"/>
	<polygon points="74.737,56.503 73.421,56.503 73.421,59.135 74.737,59.135 74.737,56.503 	"/>
	<polygon points="77.368,56.503 76.053,56.503 76.053,59.135 77.368,59.135 77.368,56.503 	"/>
	<polygon points="74.737,53.872 73.421,53.872 73.421,55.187 74.737,55.187 74.737,53.872 	"/>
	<polygon points="95.789,51.24 94.474,51.24 94.474,52.556 95.789,52.556 95.789,51.24 	"/>
	<polygon points="98.421,57.819 97.105,57.819 97.105,59.135 98.421,59.135 98.421,57.819 	"/>
	<polygon points="95.789,53.872 94.474,53.872 94.474,56.503 95.789,56.503 95.789,53.872 	"/>
	<polygon points="95.789,57.819 94.474,57.819 94.474,59.135 95.789,59.135 95.789,57.819 	"/>
	<polygon points="98.421,53.872 97.105,53.872 97.105,56.503 98.421,56.503 98.421,53.872 	"/>
	<polygon points="101.053,53.872 99.737,53.872 99.737,56.503 101.053,56.503 101.053,53.872 	"/>
	<polygon points="98.421,51.24 97.105,51.24 97.105,52.556 98.421,52.556 98.421,51.24 	"/>
	<polygon points="101.053,51.24 99.737,51.24 99.737,52.556 101.053,52.556 101.053,51.24 	"/>
	<polygon points="101.053,57.819 99.737,57.819 99.737,59.135 101.053,59.135 101.053,57.819 	"/>
	<polygon points="87.895,52.556 86.579,52.556 86.579,53.872 87.895,53.872 87.895,52.556 	"/>
	<polygon points="90.526,59.135 89.211,59.135 89.211,60.45 90.526,60.45 90.526,59.135 	"/>
	<polygon points="87.895,55.187 86.579,55.187 86.579,59.135 87.895,59.135 87.895,55.187 	"/>
	<polygon points="87.895,60.45 86.579,60.45 86.579,61.766 87.895,61.766 87.895,60.45 	"/>
	<polygon points="90.526,55.187 89.211,55.187 89.211,57.819 90.526,57.819 90.526,55.187 	"/>
	<polygon points="90.526,52.556 89.211,52.556 89.211,53.872 90.526,53.872 90.526,52.556 	"/>
	<polygon points="93.158,59.135 91.842,59.135 91.842,60.45 93.158,60.45 93.158,59.135 	"/>
	<polygon points="93.158,53.872 91.842,53.872 91.842,57.819 93.158,57.819 93.158,53.872 	"/>
	<polygon points="91.842,47.293 90.526,47.293 90.526,48.608 91.842,48.608 91.842,47.293 	"/>
	<polygon points="93.158,51.24 91.842,51.24 91.842,52.556 93.158,52.556 93.158,51.24 	"/>
	<polygon points="61.579,60.45 62.895,60.45 62.895,59.135 61.579,59.135 61.579,60.45 	"/>
	<polygon points="45.789,53.872 44.474,53.872 44.474,57.819 45.789,57.819 45.789,53.872 	"/>
	<polygon points="45.789,59.135 44.474,59.135 44.474,60.45 45.789,60.45 45.789,59.135 	"/>
	<polygon points="48.421,56.503 48.421,53.872 47.105,53.872 47.105,56.503 48.421,56.503 	"/>
	<polygon points="47.105,52.556 45.789,52.556 45.789,53.872 47.105,53.872 47.105,52.556 	"/>
	<polygon points="47.105,60.45 48.421,60.45 48.421,59.135 47.105,59.135 47.105,60.45 	"/>
	<polygon points="48.421,51.24 47.105,51.24 47.105,52.556 48.421,52.556 48.421,51.24 	"/>
	<polygon points="49.737,57.819 48.421,57.819 48.421,59.135 49.737,59.135 49.737,57.819 	"/>
	<polygon points="44.474,51.24 44.474,52.556 45.789,52.556 45.789,51.24 44.474,51.24 	"/>
	<polygon points="40.526,52.556 39.211,52.556 39.211,53.872 40.526,53.872 40.526,52.556 	"/>
	<polygon points="43.158,59.135 41.842,59.135 41.842,60.45 43.158,60.45 43.158,59.135 	"/>
	<polygon points="51.053,53.872 49.737,53.872 49.737,56.503 51.053,56.503 51.053,53.872 	"/>
	<polygon points="43.158,52.556 41.842,52.556 41.842,53.872 43.158,53.872 43.158,52.556 	"/>
	<polygon points="43.158,55.187 41.842,55.187 41.842,57.819 43.158,57.819 43.158,55.187 	"/>
	<polygon points="58.947,53.872 57.632,53.872 57.632,56.503 58.947,56.503 58.947,53.872 	"/>
	<polygon points="60.263,57.819 58.947,57.819 58.947,59.135 60.263,59.135 60.263,57.819 	"/>
	<polygon points="40.526,55.187 39.211,55.187 39.211,59.135 40.526,59.135 40.526,55.187 	"/>
	<polygon points="58.947,51.24 57.632,51.24 57.632,52.556 58.947,52.556 58.947,51.24 	"/>
	<polygon points="61.579,51.24 60.263,51.24 60.263,52.556 61.579,52.556 61.579,51.24 	"/>
	<polygon points="61.579,53.872 60.263,53.872 60.263,56.503 61.579,56.503 61.579,53.872 	"/>
	<polygon points="66.842,55.187 65.526,55.187 65.526,57.819 66.842,57.819 66.842,55.187 	"/>
	<polygon points="66.842,52.556 65.526,52.556 65.526,53.872 66.842,53.872 66.842,52.556 	"/>
	<polygon points="64.211,48.608 62.895,48.608 62.895,49.924 64.211,49.924 64.211,48.608 	"/>
	<polygon points="64.211,51.24 62.895,51.24 62.895,52.556 64.211,52.556 64.211,51.24 	"/>
	<polygon points="64.211,53.872 62.895,53.872 62.895,57.819 64.211,57.819 64.211,53.872 	"/>
	<polygon points="55,57.819 53.684,57.819 53.684,59.135 55,59.135 55,57.819 	"/>
	<polygon points="53.684,53.872 52.368,53.872 52.368,56.503 53.684,56.503 53.684,53.872 	"/>
	<polygon points="53.684,51.24 52.368,51.24 52.368,52.556 53.684,52.556 53.684,51.24 	"/>
	<polygon points="52.368,57.819 51.053,57.819 51.053,59.135 52.368,59.135 52.368,57.819 	"/>
	<polygon points="56.316,51.24 55,51.24 55,52.556 56.316,52.556 56.316,51.24 	"/>
	<polygon points="57.632,57.819 56.316,57.819 56.316,59.135 57.632,59.135 57.632,57.819 	"/>
	<polygon points="56.316,53.872 55,53.872 55,56.503 56.316,56.503 56.316,53.872 	"/>
	<polygon points="55,61.766 53.684,61.766 53.684,63.082 55,63.082 55,61.766 	"/>
	<polygon points="51.053,51.24 49.737,51.24 49.737,52.556 51.053,52.556 51.053,51.24 	"/>
	<polygon points="68.158,59.135 69.474,59.135 69.474,55.187 68.158,55.187 68.158,59.135 	"/>
	<polygon points="66.842,60.45 68.158,60.45 68.158,59.135 66.842,59.135 66.842,60.45 	"/>
	<polygon points="68.158,53.872 69.474,53.872 69.474,52.556 68.158,52.556 68.158,53.872 	"/>
	<polygon points="69.474,61.766 69.474,60.45 68.158,60.45 68.158,61.766 69.474,61.766 	"/>
	<polygon points="103.684,53.872 103.684,56.503 105,56.503 105,53.872 103.684,53.872 	"/>
	<polygon points="65.526,59.135 64.211,59.135 64.211,61.766 65.526,61.766 65.526,59.135 	"/>
</g>
</svg>
