<?xml version="1.0" encoding="iso-8859-1"?>
<!-- Generator: Adobe Illustrator 28.3.0, SVG Export Plug-In . SVG Version: 6.00 Build 0)  -->
<svg version="1.1" id="Layer_1" xmlns="http://www.w3.org/2000/svg" xmlns:xlink="http://www.w3.org/1999/xlink" x="0px" y="0px"
	 width="110px" height="110px" viewBox="0 0 110 110" enable-background="new 0 0 110 110" xml:space="preserve">
<g>
	<path d="M105,52.188h-0.813v-6.053h-0.88v-6.034h-2.374v-5.627h-2.44v-5.588h-3.734v-4.833h-3.822v-4.745h-4.833v-3.734h-4.922
		v-3.581h-5.627V9.62h-5.676V7.428h-6.053V6.615h-6.053V5.889h-6.107v0.813h-6.053v0.813h-6.053v2.358H33.93v2.374h-5.626v3.726
		h-4.837v3.763h-4.803v4.833H14.93v4.879h-3.654v5.627H8.901v5.654H6.627v6.053H5.813v6.053H5v6.107h0.174v1.294h0.813v6.053h1.047
		v5.989h2.374v5.627h2.585v5.504h3.734v4.833h3.939v4.627h4.833v3.734h5.007v3.436h5.627v2.374h5.722v2.025h6.053v0.813h6.053v0.552
		h6.107v-0.813h6.053v-0.964h6.011v-2.374h5.627v-2.512h5.546v-3.734h4.833v-3.881h4.686v-4.833h3.734v-4.964h3.508V76.1h2.374
		v-5.699h2.108v-6.053h0.813v-6.053H105V52.188z M98.253,64.294H97.44v5.699h-2.108v5.627h-2.374v4.964h-3.509v4.833h-3.734v3.88
		H81.03v3.734h-4.833v2.512h-5.546v2.374h-5.627v0.964h-6.011v0.813h-5.998v-0.553h-6.053v-0.813H41.24v-2.025h-5.627V93.93h-5.007
		v-3.436h-4.833V86.76h-3.939v-4.627h-3.734v-4.833h-2.585v-5.504h-2.374V66.17h-1.047v-5.989h-0.813v-6.053h-0.174V52.89h0.813
		v-6.053h0.813v-5.654h2.275v-5.627h2.374v-4.88h3.654v-4.833h3.734v-3.763h4.803v-3.726h4.837v-2.374h5.627v-2.358h5.631v-0.813
		h6.053v-0.813h5.998v0.726h6.053v0.813h5.676v2.191h5.627v2.374h4.922v3.581h4.833v3.734h3.822v4.745h3.734v4.833h2.44v5.589h2.374
		v5.627h0.88v6.034h0.813v5.998h-0.64V64.294z"/>
	<path d="M91.913,48.913H90.94v-6.029h-2.52v-5.519h-2.959v-5.312h-4.318v-4.318h-4.733v-3.752h-5.425v-2.805H65.18v-1.648H59.15
		v-0.972h-6.107v0.633h-6.029v1.008h-6.017v2.805h-5.425v3.223h-5.119v4.318h-4.318v4.926h-3.487v5.425h-2.805v5.912h-1.328v6.029
		h-0.973v6.107h0.293v1.815h0.972v6.029h1.88v5.73h2.805v5.425h3.943v4.593h4.346v4.281h5.425v2.805H42.8v2.289h6.029v0.972h6.029
		v0.047h6.107v-0.972h6.029v-2.2h5.624V86.95h5.425v-4.207h4.4v-4.539h4.016v-5.425h2.805v-5.701h1.969v-6.029h0.972v-6.107h-0.293
		V48.913z M85.502,62.345h-1.993v3.277h-2.84v2.742h-4.066v2.542h-4.454V72.6h-5.492v1.329h-5.694v0.587h-6.025v-0.028h-6.104
		v-0.587h-5.664v-1.383h-5.492v-1.695h-4.4v-2.586h-3.992v-2.775h-2.84v-3.277h-1.903v-3.461h-0.984v-3.642h-0.296v-1.049h0.984
		v-3.571h1.345v-3.277h2.84v-2.976h3.531v-2.609h4.372v-1.947h5.183v-1.695h5.492V37.35H53.1v-0.382h6.025v0.587h5.878v0.996h5.492
		v1.695h4.791v2.266h4.372v2.609h2.995v3.209h2.552v3.334h0.984v3.642h0.296v3.595h-0.984V62.345z"/>
</g>
</svg>
