<?xml version="1.0" encoding="iso-8859-1"?>
<!-- Generator: Adobe Illustrator 28.3.0, SVG Export Plug-In . SVG Version: 6.00 Build 0)  -->
<svg version="1.1" id="Layer_1" xmlns="http://www.w3.org/2000/svg" xmlns:xlink="http://www.w3.org/1999/xlink" x="0px" y="0px"
	 width="110px" height="110px" viewBox="0 0 110 110" enable-background="new 0 0 110 110" xml:space="preserve">
<g>
	<polygon points="74.832,51.96 73.969,51.96 73.969,51.097 72.242,51.097 72.242,50.234 70.516,50.234 70.516,49.371 68.789,49.371 
		68.789,50.234 67.063,50.234 67.063,51.097 65.336,51.097 65.336,52.824 64.473,52.824 64.473,54.55 63.609,54.55 63.609,55.414 
		64.473,55.414 64.473,56.277 63.609,56.277 63.609,58.003 64.473,58.003 64.473,58.867 65.336,58.867 65.336,60.593 67.063,60.593 
		67.063,61.456 68.789,61.456 68.789,62.32 71.379,62.32 71.379,61.456 72.242,61.456 72.242,60.593 73.969,60.593 73.969,59.73 
		74.832,59.73 74.832,58.003 75.695,58.003 75.695,53.687 74.832,53.687 	"/>
	<polygon points="16.223,51.96 15.359,51.96 15.359,51.097 13.633,51.097 13.633,50.234 11.906,50.234 11.906,49.371 10.18,49.371 
		10.18,50.234 8.453,50.234 8.453,51.097 6.726,51.097 6.726,51.96 5.863,51.96 5.863,55.414 5,55.414 5,57.14 5.863,57.14 
		5.863,59.73 6.726,59.73 6.726,60.593 8.453,60.593 8.453,61.456 9.316,61.456 9.316,62.32 10.18,62.32 10.18,61.456 
		11.043,61.456 11.043,62.32 11.906,62.32 11.906,61.456 13.633,61.456 13.633,60.593 15.359,60.593 15.359,59.73 16.223,59.73 
		16.223,58.003 17.086,58.003 17.086,53.687 16.223,53.687 	"/>
	<polygon points="45.527,51.96 44.664,51.96 44.664,51.097 42.938,51.097 42.938,50.234 41.211,50.234 41.211,49.371 39.484,49.371 
		39.484,50.234 36.895,50.234 36.895,51.097 36.031,51.097 36.031,52.824 35.168,52.824 35.168,53.687 34.305,53.687 34.305,54.55 
		35.168,54.55 35.168,55.414 34.305,55.414 34.305,57.14 35.168,57.14 35.168,59.73 36.031,59.73 36.031,60.593 37.758,60.593 
		37.758,61.456 39.484,61.456 39.484,62.32 41.211,62.32 41.211,61.456 42.938,61.456 42.938,60.593 44.664,60.593 44.664,59.73 
		45.527,59.73 45.527,58.003 46.391,58.003 46.391,53.687 45.527,53.687 	"/>
	<polygon points="104.137,53.687 104.137,51.96 103.274,51.96 103.274,51.097 101.547,51.097 101.547,50.234 100.684,50.234 
		100.684,49.371 99.82,49.371 99.82,50.234 98.957,50.234 98.957,49.371 98.094,49.371 98.094,50.234 95.504,50.234 95.504,51.097 
		94.641,51.097 94.641,51.96 93.778,51.96 93.778,55.414 92.914,55.414 92.914,57.14 93.778,57.14 93.778,58.867 94.641,58.867 
		94.641,60.593 96.367,60.593 96.367,61.456 98.094,61.456 98.094,62.32 99.82,62.32 99.82,61.456 101.547,61.456 101.547,60.593 
		103.274,60.593 103.274,59.73 104.137,59.73 104.137,58.003 105,58.003 105,53.687 	"/>
</g>
</svg>
