<?xml version="1.0" encoding="iso-8859-1"?>
<!-- Generator: Adobe Illustrator 28.3.0, SVG Export Plug-In . SVG Version: 6.00 Build 0)  -->
<svg version="1.1" id="Layer_1" xmlns="http://www.w3.org/2000/svg" xmlns:xlink="http://www.w3.org/1999/xlink" x="0px" y="0px"
	 width="110px" height="110px" viewBox="0 0 110 110" enable-background="new 0 0 110 110" xml:space="preserve">
<g>
	<polygon points="26.795,61.852 28.077,61.852 28.077,60.57 26.795,60.57 26.795,61.852 	"/>
	<polygon points="33.205,61.852 33.205,60.57 31.923,60.57 31.923,61.852 33.205,61.852 	"/>
	<polygon points="40.897,68.454 42.179,68.454 42.179,67.172 40.897,67.172 40.897,68.454 	"/>
	<polygon points="38.333,68.454 37.051,68.454 37.051,69.736 38.333,69.736 38.333,68.454 	"/>
	<polygon points="28.077,55.441 28.077,56.723 29.359,56.723 29.359,55.441 28.077,55.441 	"/>
	<polygon points="25.513,58.005 25.513,60.57 26.795,60.57 26.795,58.005 25.513,58.005 	"/>
	<polygon points="29.359,58.005 30.641,58.005 30.641,56.723 29.359,56.723 29.359,58.005 	"/>
	<polygon points="29.359,61.852 30.641,61.852 30.641,60.57 29.359,60.57 29.359,61.852 	"/>
	<polygon points="31.923,60.57 31.923,58.005 30.641,58.005 30.641,60.57 31.923,60.57 	"/>
	<polygon points="28.077,58.005 28.077,60.57 29.359,60.57 29.359,58.005 28.077,58.005 	"/>
	<polygon points="35.769,63.134 34.487,63.134 34.487,64.416 35.769,64.416 35.769,63.134 	"/>
	<polygon points="30.641,63.134 29.359,63.134 29.359,64.416 30.641,64.416 30.641,63.134 	"/>
	<polygon points="26.795,69.736 28.077,69.736 28.077,68.454 26.795,68.454 26.795,69.736 	"/>
	<polygon points="29.359,69.736 30.641,69.736 30.641,68.454 29.359,68.454 29.359,69.736 	"/>
	<polygon points="28.077,63.134 26.795,63.134 26.795,64.416 28.077,64.416 28.077,63.134 	"/>
	<polygon points="37.051,73.582 38.333,73.582 38.333,71.018 37.051,71.018 37.051,73.582 	"/>
	<polygon points="26.795,55.441 25.513,55.441 25.513,56.723 26.795,56.723 26.795,55.441 	"/>
	<polygon points="29.359,36.356 28.077,36.356 28.077,37.638 29.359,37.638 29.359,36.356 	"/>
	<polygon points="35.769,61.852 35.769,60.57 34.487,60.57 34.487,61.852 35.769,61.852 	"/>
	<polygon points="31.923,69.736 33.205,69.736 33.205,68.454 31.923,68.454 31.923,69.736 	"/>
	<polygon points="38.333,63.134 37.051,63.134 37.051,64.416 38.333,64.416 38.333,63.134 	"/>
	<polygon points="34.487,69.736 35.769,69.736 35.769,68.454 34.487,68.454 34.487,69.736 	"/>
	<polygon points="33.205,63.134 31.923,63.134 31.923,64.416 33.205,64.416 33.205,63.134 	"/>
	<polygon points="34.487,56.723 33.205,56.723 33.205,58.005 34.487,58.005 34.487,56.723 	"/>
	<polygon points="37.051,47.082 35.769,47.082 35.769,48.364 37.051,48.364 37.051,47.082 	"/>
	<polygon points="37.051,43.236 35.769,43.236 35.769,45.8 37.051,45.8 37.051,43.236 	"/>
	<polygon points="37.051,56.723 38.333,56.723 38.333,55.441 37.051,55.441 37.051,56.723 	"/>
	<polygon points="34.487,43.236 33.205,43.236 33.205,45.8 34.487,45.8 34.487,43.236 	"/>
	<polygon points="37.051,40.672 35.769,40.672 35.769,41.954 37.051,41.954 37.051,40.672 	"/>
	<polygon points="34.487,40.672 33.205,40.672 33.205,41.954 34.487,41.954 34.487,40.672 	"/>
	<polygon points="39.615,43.236 38.333,43.236 38.333,45.8 39.615,45.8 39.615,43.236 	"/>
	<polygon points="39.615,47.082 38.333,47.082 38.333,48.364 39.615,48.364 39.615,47.082 	"/>
	<polygon points="39.615,56.723 40.897,56.723 40.897,55.441 39.615,55.441 39.615,56.723 	"/>
	<polygon points="39.615,34.262 38.333,34.262 38.333,35.544 39.615,35.544 39.615,34.262 	"/>
	<polygon points="39.615,40.672 38.333,40.672 38.333,41.954 39.615,41.954 39.615,40.672 	"/>
	<polygon points="35.769,55.441 34.487,55.441 34.487,56.723 35.769,56.723 35.769,55.441 	"/>
	<polygon points="39.615,58.005 38.333,58.005 38.333,60.57 39.615,60.57 39.615,58.005 	"/>
	<polygon points="42.179,58.005 40.897,58.005 40.897,60.57 42.179,60.57 42.179,58.005 	"/>
	<polygon points="38.333,61.852 38.333,60.57 37.051,60.57 37.051,61.852 38.333,61.852 	"/>
	<polygon points="42.179,63.134 42.179,61.852 40.897,61.852 40.897,63.134 42.179,63.134 	"/>
	<polygon points="39.615,64.416 40.897,64.416 40.897,63.134 39.615,63.134 39.615,64.416 	"/>
	<polygon points="40.897,61.852 40.897,60.57 39.615,60.57 39.615,61.852 40.897,61.852 	"/>
	<polygon points="37.051,58.005 35.769,58.005 35.769,60.57 37.051,60.57 37.051,58.005 	"/>
	<polygon points="31.923,55.441 30.641,55.441 30.641,56.723 31.923,56.723 31.923,55.441 	"/>
	<polygon points="31.923,40.672 30.641,40.672 30.641,41.954 31.923,41.954 31.923,40.672 	"/>
	<polygon points="31.923,43.236 30.641,43.236 30.641,45.8 31.923,45.8 31.923,43.236 	"/>
	<polygon points="29.359,40.672 28.077,40.672 28.077,41.954 29.359,41.954 29.359,40.672 	"/>
	<polygon points="31.923,47.082 30.641,47.082 30.641,48.364 31.923,48.364 31.923,47.082 	"/>
	<polygon points="34.487,59.288 33.205,59.288 33.205,60.57 34.487,60.57 34.487,59.288 	"/>
	<polygon points="24.231,47.082 22.949,47.082 22.949,48.364 24.231,48.364 24.231,47.082 	"/>
	<polygon points="16.538,52.877 15.256,52.877 15.256,59.288 16.538,59.288 16.538,52.877 	"/>
	<polygon points="13.974,35.544 12.692,35.544 12.692,36.826 13.974,36.826 13.974,35.544 	"/>
	<polygon points="16.538,44.518 15.256,44.518 15.256,45.8 16.538,45.8 16.538,44.518 	"/>
	<polygon points="13.974,40.672 12.692,40.672 12.692,43.236 13.974,43.236 13.974,40.672 	"/>
	<polygon points="13.974,44.518 12.692,44.518 12.692,45.8 13.974,45.8 13.974,44.518 	"/>
	<polygon points="29.359,43.236 28.077,43.236 28.077,45.8 29.359,45.8 29.359,43.236 	"/>
	<polygon points="16.538,40.672 15.256,40.672 15.256,43.236 16.538,43.236 16.538,40.672 	"/>
	<polygon points="19.103,54.159 17.821,54.159 17.821,55.441 19.103,55.441 19.103,54.159 	"/>
	<polygon points="19.103,40.672 17.821,40.672 17.821,44.518 19.103,44.518 19.103,40.672 	"/>
	<polygon points="17.821,67.172 19.103,67.172 19.103,65.89 17.821,65.89 17.821,67.172 	"/>
	<polygon points="16.538,38.108 15.256,38.108 15.256,39.39 16.538,39.39 16.538,38.108 	"/>
	<polygon points="19.103,56.723 17.821,56.723 17.821,59.288 19.103,59.288 19.103,56.723 	"/>
	<polygon points="19.103,45.8 17.821,45.8 17.821,47.082 19.103,47.082 19.103,45.8 	"/>
	<polygon points="11.41,52.877 10.128,52.877 10.128,54.159 11.41,54.159 11.41,52.877 	"/>
	<polygon points="11.41,55.441 10.128,55.441 10.128,58.005 11.41,58.005 11.41,55.441 	"/>
	<polygon points="8.846,40.672 7.564,40.672 7.564,43.236 8.846,43.236 8.846,40.672 	"/>
	<polygon points="11.41,44.518 10.128,44.518 10.128,45.8 11.41,45.8 11.41,44.518 	"/>
	<polygon points="8.846,51.595 7.564,51.595 7.564,52.877 8.846,52.877 8.846,51.595 	"/>
	<polygon points="13.974,50.929 12.692,50.929 12.692,52.211 13.974,52.211 13.974,50.929 	"/>
	<polygon points="13.974,52.877 12.692,52.877 12.692,54.159 13.974,54.159 13.974,52.877 	"/>
	<polygon points="13.974,55.441 12.692,55.441 12.692,59.288 13.974,59.288 13.974,55.441 	"/>
	<polygon points="11.41,40.672 10.128,40.672 10.128,43.236 11.41,43.236 11.41,40.672 	"/>
	<polygon points="11.41,38.108 10.128,38.108 10.128,39.39 11.41,39.39 11.41,38.108 	"/>
	<polygon points="11.41,35.544 10.128,35.544 10.128,36.826 11.41,36.826 11.41,35.544 	"/>
	<polygon points="13.974,38.108 12.692,38.108 12.692,39.39 13.974,39.39 13.974,38.108 	"/>
	<polygon points="24.231,39.39 22.949,39.39 22.949,40.672 24.231,40.672 24.231,39.39 	"/>
	<polygon points="24.231,52.877 25.513,52.877 25.513,51.595 24.231,51.595 24.231,52.877 	"/>
	<polygon points="24.231,41.954 22.949,41.954 22.949,45.8 24.231,45.8 24.231,41.954 	"/>
	<polygon points="24.231,68.454 25.513,68.454 25.513,67.172 24.231,67.172 24.231,68.454 	"/>
	<polygon points="24.231,55.441 22.949,55.441 22.949,56.723 24.231,56.723 24.231,55.441 	"/>
	<polygon points="42.179,47.082 40.897,47.082 40.897,48.364 42.179,48.364 42.179,47.082 	"/>
	<polygon points="24.231,58.005 22.949,58.005 22.949,60.57 24.231,60.57 24.231,58.005 	"/>
	<polygon points="26.795,50.929 28.077,50.929 28.077,49.647 26.795,49.647 26.795,50.929 	"/>
	<polygon points="29.359,47.082 28.077,47.082 28.077,48.364 29.359,48.364 29.359,47.082 	"/>
	<polygon points="26.795,43.236 25.513,43.236 25.513,45.8 26.795,45.8 26.795,43.236 	"/>
	<polygon points="26.795,40.672 25.513,40.672 25.513,41.954 26.795,41.954 26.795,40.672 	"/>
	<polygon points="26.795,47.082 25.513,47.082 25.513,48.364 26.795,48.364 26.795,47.082 	"/>
	<polygon points="19.103,38.108 17.821,38.108 17.821,39.39 19.103,39.39 19.103,38.108 	"/>
	<polygon points="20.385,60.57 21.667,60.57 21.667,56.723 20.385,56.723 20.385,60.57 	"/>
	<polygon points="19.103,61.852 20.385,61.852 20.385,60.57 19.103,60.57 19.103,61.852 	"/>
	<polygon points="20.385,36.356 19.103,36.356 19.103,37.638 20.385,37.638 20.385,36.356 	"/>
	<polygon points="21.667,63.134 21.667,61.852 20.385,61.852 20.385,63.134 21.667,63.134 	"/>
	<polygon points="20.385,40.672 21.667,40.672 21.667,39.39 20.385,39.39 20.385,40.672 	"/>
	<polygon points="22.949,68.454 22.949,67.172 21.667,67.172 21.667,68.454 22.949,68.454 	"/>
	<polygon points="20.385,55.441 21.667,55.441 21.667,54.159 20.385,54.159 20.385,55.441 	"/>
	<polygon points="20.385,65.89 20.385,67.172 21.667,67.172 21.667,65.89 20.385,65.89 	"/>
	<polygon points="24.231,61.852 22.949,61.852 22.949,63.134 24.231,63.134 24.231,61.852 	"/>
	<polygon points="21.667,41.954 20.385,41.954 20.385,44.518 21.667,44.518 21.667,41.954 	"/>
	<polygon points="20.385,47.082 21.667,47.082 21.667,45.8 20.385,45.8 20.385,47.082 	"/>
	<polygon points="8.846,55.441 7.564,55.441 7.564,58.005 8.846,58.005 8.846,55.441 	"/>
	<polygon points="83.205,47.082 81.923,47.082 81.923,48.364 83.205,48.364 83.205,47.082 	"/>
	<polygon points="83.205,43.236 81.923,43.236 81.923,45.8 83.205,45.8 83.205,43.236 	"/>
	<polygon points="88.333,55.441 87.051,55.441 87.051,56.723 88.333,56.723 88.333,55.441 	"/>
	<polygon points="83.205,40.672 81.923,40.672 81.923,41.954 83.205,41.954 83.205,40.672 	"/>
	<polygon points="80.641,43.236 79.359,43.236 79.359,45.8 80.641,45.8 80.641,43.236 	"/>
	<polygon points="80.641,47.082 79.359,47.082 79.359,48.364 80.641,48.364 80.641,47.082 	"/>
	<polygon points="80.641,40.672 79.359,40.672 79.359,41.954 80.641,41.954 80.641,40.672 	"/>
	<polygon points="85.769,40.672 84.487,40.672 84.487,41.954 85.769,41.954 85.769,40.672 	"/>
	<polygon points="85.769,35.544 84.487,35.544 84.487,36.826 85.769,36.826 85.769,35.544 	"/>
	<polygon points="85.769,55.441 84.487,55.441 84.487,56.723 85.769,56.723 85.769,55.441 	"/>
	<polygon points="85.769,43.236 84.487,43.236 84.487,45.8 85.769,45.8 85.769,43.236 	"/>
	<polygon points="85.769,47.082 84.487,47.082 84.487,48.364 85.769,48.364 85.769,47.082 	"/>
	<polygon points="83.205,55.441 81.923,55.441 81.923,56.723 83.205,56.723 83.205,55.441 	"/>
	<polygon points="72.949,39.39 71.667,39.39 71.667,41.954 72.949,41.954 72.949,39.39 	"/>
	<polygon points="72.949,43.236 71.667,43.236 71.667,45.8 72.949,45.8 72.949,43.236 	"/>
	<polygon points="75.513,47.082 74.231,47.082 74.231,48.364 75.513,48.364 75.513,47.082 	"/>
	<polygon points="72.949,47.082 71.667,47.082 71.667,48.364 72.949,48.364 72.949,47.082 	"/>
	<polygon points="74.231,56.723 75.513,56.723 75.513,55.441 74.231,55.441 74.231,56.723 	"/>
	<polygon points="74.231,49.647 74.231,48.364 72.949,48.364 72.949,49.647 74.231,49.647 	"/>
	<polygon points="80.641,55.441 79.359,55.441 79.359,56.723 80.641,56.723 80.641,55.441 	"/>
	<polygon points="78.077,40.672 76.795,40.672 76.795,41.954 78.077,41.954 78.077,40.672 	"/>
	<polygon points="75.513,43.236 74.231,43.236 74.231,45.8 75.513,45.8 75.513,43.236 	"/>
	<polygon points="78.077,43.236 76.795,43.236 76.795,45.8 78.077,45.8 78.077,43.236 	"/>
	<polygon points="75.513,40.672 74.231,40.672 74.231,41.954 75.513,41.954 75.513,40.672 	"/>
	<polygon points="78.077,55.441 76.795,55.441 76.795,56.723 78.077,56.723 78.077,55.441 	"/>
	<polygon points="72.949,52.877 71.667,52.877 71.667,54.159 72.949,54.159 72.949,52.877 	"/>
	<polygon points="98.59,52.877 97.308,52.877 97.308,54.159 98.59,54.159 98.59,52.877 	"/>
	<polygon points="96.026,38.108 94.744,38.108 94.744,39.39 96.026,39.39 96.026,38.108 	"/>
	<polygon points="98.59,44.518 97.308,44.518 97.308,45.8 98.59,45.8 98.59,44.518 	"/>
	<polygon points="96.026,40.672 94.744,40.672 94.744,43.236 96.026,43.236 96.026,40.672 	"/>
	<polygon points="96.026,44.518 94.744,44.518 94.744,45.8 96.026,45.8 96.026,44.518 	"/>
	<polygon points="98.59,40.672 97.308,40.672 97.308,43.236 98.59,43.236 98.59,40.672 	"/>
	<polygon points="101.154,40.672 99.872,40.672 99.872,43.236 101.154,43.236 101.154,40.672 	"/>
	<polygon points="98.59,38.108 97.308,38.108 97.308,39.39 98.59,39.39 98.59,38.108 	"/>
	<polygon points="96.026,52.877 94.744,52.877 94.744,54.159 96.026,54.159 96.026,52.877 	"/>
	<polygon points="101.154,38.108 99.872,38.108 99.872,39.39 101.154,39.39 101.154,38.108 	"/>
	<polygon points="101.154,52.877 99.872,52.877 99.872,54.159 101.154,54.159 101.154,52.877 	"/>
	<polygon points="101.154,44.518 99.872,44.518 99.872,45.8 101.154,45.8 101.154,44.518 	"/>
	<polygon points="88.333,39.39 87.051,39.39 87.051,40.672 88.333,40.672 88.333,39.39 	"/>
	<polygon points="90.897,54.159 89.615,54.159 89.615,55.441 90.897,55.441 90.897,54.159 	"/>
	<polygon points="90.897,45.8 89.615,45.8 89.615,47.082 90.897,47.082 90.897,45.8 	"/>
	<polygon points="88.333,41.954 87.051,41.954 87.051,45.8 88.333,45.8 88.333,41.954 	"/>
	<polygon points="88.333,47.082 87.051,47.082 87.051,48.364 88.333,48.364 88.333,47.082 	"/>
	<polygon points="90.897,41.954 89.615,41.954 89.615,44.518 90.897,44.518 90.897,41.954 	"/>
	<polygon points="90.897,39.39 89.615,39.39 89.615,40.672 90.897,40.672 90.897,39.39 	"/>
	<polygon points="93.462,45.8 92.179,45.8 92.179,47.082 93.462,47.082 93.462,45.8 	"/>
	<polygon points="92.179,55.441 93.462,55.441 93.462,54.159 92.179,54.159 92.179,55.441 	"/>
	<polygon points="93.462,40.672 92.179,40.672 92.179,44.518 93.462,44.518 93.462,40.672 	"/>
	<polygon points="92.179,34.262 90.897,34.262 90.897,35.544 92.179,35.544 92.179,34.262 	"/>
	<polygon points="93.462,38.108 92.179,38.108 92.179,39.39 93.462,39.39 93.462,38.108 	"/>
	<polygon points="62.692,47.082 63.974,47.082 63.974,45.8 62.692,45.8 62.692,47.082 	"/>
	<polygon points="47.308,40.672 46.026,40.672 46.026,44.518 47.308,44.518 47.308,40.672 	"/>
	<polygon points="47.308,45.8 46.026,45.8 46.026,47.082 47.308,47.082 47.308,45.8 	"/>
	<polygon points="49.872,43.236 49.872,40.672 48.59,40.672 48.59,43.236 49.872,43.236 	"/>
	<polygon points="47.308,54.159 46.026,54.159 46.026,55.441 47.308,55.441 47.308,54.159 	"/>
	<polygon points="48.59,39.39 47.308,39.39 47.308,40.672 48.59,40.672 48.59,39.39 	"/>
	<polygon points="47.308,56.723 46.026,56.723 46.026,59.288 47.308,59.288 47.308,56.723 	"/>
	<polygon points="48.59,52.877 47.308,52.877 47.308,54.159 48.59,54.159 48.59,52.877 	"/>
	<polygon points="48.59,47.082 49.872,47.082 49.872,45.8 48.59,45.8 48.59,47.082 	"/>
	<polygon points="49.872,38.108 48.59,38.108 48.59,39.39 49.872,39.39 49.872,38.108 	"/>
	<polygon points="51.154,44.518 49.872,44.518 49.872,45.8 51.154,45.8 51.154,44.518 	"/>
	<polygon points="49.872,54.159 51.154,54.159 51.154,52.877 49.872,52.877 49.872,54.159 	"/>
	<polygon points="46.026,38.108 46.026,39.39 47.308,39.39 47.308,38.108 46.026,38.108 	"/>
	<polygon points="44.744,54.159 43.462,54.159 43.462,55.441 44.744,55.441 44.744,54.159 	"/>
	<polygon points="42.179,56.723 43.462,56.723 43.462,55.441 42.179,55.441 42.179,56.723 	"/>
	<polygon points="44.744,61.852 43.462,61.852 43.462,63.134 44.744,63.134 44.744,61.852 	"/>
	<polygon points="44.744,60.57 44.744,56.723 43.462,56.723 43.462,60.57 44.744,60.57 	"/>
	<polygon points="42.179,39.39 40.897,39.39 40.897,40.672 42.179,40.672 42.179,39.39 	"/>
	<polygon points="43.462,68.454 44.744,68.454 44.744,67.172 43.462,67.172 43.462,68.454 	"/>
	<polygon points="44.744,45.8 43.462,45.8 43.462,47.082 44.744,47.082 44.744,45.8 	"/>
	<polygon points="52.436,40.672 51.154,40.672 51.154,43.236 52.436,43.236 52.436,40.672 	"/>
	<polygon points="44.744,39.39 43.462,39.39 43.462,40.672 44.744,40.672 44.744,39.39 	"/>
	<polygon points="47.308,65.89 46.026,65.89 46.026,67.172 47.308,67.172 47.308,65.89 	"/>
	<polygon points="44.744,41.954 43.462,41.954 43.462,44.518 44.744,44.518 44.744,41.954 	"/>
	<polygon points="47.308,60.57 46.026,60.57 46.026,61.852 47.308,61.852 47.308,60.57 	"/>
	<polygon points="55,54.159 56.282,54.159 56.282,52.877 55,52.877 55,54.159 	"/>
	<polygon points="60.128,40.672 58.846,40.672 58.846,43.236 60.128,43.236 60.128,40.672 	"/>
	<polygon points="61.41,44.518 60.128,44.518 60.128,45.8 61.41,45.8 61.41,44.518 	"/>
	<polygon points="42.179,41.954 40.897,41.954 40.897,45.8 42.179,45.8 42.179,41.954 	"/>
	<polygon points="60.128,38.108 58.846,38.108 58.846,39.39 60.128,39.39 60.128,38.108 	"/>
	<polygon points="62.692,38.108 61.41,38.108 61.41,39.39 62.692,39.39 62.692,38.108 	"/>
	<polygon points="60.128,54.159 61.41,54.159 61.41,52.877 60.128,52.877 60.128,54.159 	"/>
	<polygon points="62.692,40.672 61.41,40.672 61.41,43.236 62.692,43.236 62.692,40.672 	"/>
	<polygon points="67.821,41.954 66.538,41.954 66.538,44.518 67.821,44.518 67.821,41.954 	"/>
	<polygon points="67.821,39.39 66.538,39.39 66.538,40.672 67.821,40.672 67.821,39.39 	"/>
	<polygon points="65.256,35.544 63.974,35.544 63.974,36.826 65.256,36.826 65.256,35.544 	"/>
	<polygon points="65.256,38.108 63.974,38.108 63.974,39.39 65.256,39.39 65.256,38.108 	"/>
	<polygon points="65.256,40.672 63.974,40.672 63.974,44.518 65.256,44.518 65.256,40.672 	"/>
	<polygon points="72.949,55.441 71.667,55.441 71.667,56.723 72.949,56.723 72.949,55.441 	"/>
	<polygon points="56.282,44.518 55,44.518 55,45.8 56.282,45.8 56.282,44.518 	"/>
	<polygon points="55,40.672 53.718,40.672 53.718,43.236 55,43.236 55,40.672 	"/>
	<polygon points="55,38.108 53.718,38.108 53.718,39.39 55,39.39 55,38.108 	"/>
	<polygon points="53.718,44.518 52.436,44.518 52.436,45.8 53.718,45.8 53.718,44.518 	"/>
	<polygon points="52.436,54.159 53.718,54.159 53.718,52.877 52.436,52.877 52.436,54.159 	"/>
	<polygon points="57.564,38.108 56.282,38.108 56.282,39.39 57.564,39.39 57.564,38.108 	"/>
	<polygon points="57.564,54.159 58.846,54.159 58.846,52.877 57.564,52.877 57.564,54.159 	"/>
	<polygon points="58.846,44.518 57.564,44.518 57.564,45.8 58.846,45.8 58.846,44.518 	"/>
	<polygon points="57.564,40.672 56.282,40.672 56.282,43.236 57.564,43.236 57.564,40.672 	"/>
	<polygon points="56.282,48.364 55,48.364 55,49.647 56.282,49.647 56.282,48.364 	"/>
	<polygon points="52.436,38.108 51.154,38.108 51.154,39.39 52.436,39.39 52.436,38.108 	"/>
	<polygon points="94.744,55.441 94.744,58.005 96.026,58.005 96.026,55.441 94.744,55.441 	"/>
	<polygon points="84.487,74.864 84.487,76.147 85.769,76.147 85.769,74.864 84.487,74.864 	"/>
	<polygon points="93.462,68.454 92.179,68.454 92.179,69.736 93.462,69.736 93.462,68.454 	"/>
	<polygon points="85.769,77.429 87.051,77.429 87.051,76.147 85.769,76.147 85.769,77.429 	"/>
	<polygon points="89.615,74.864 90.897,74.864 90.897,73.582 89.615,73.582 89.615,74.864 	"/>
	<polygon points="83.205,69.736 84.487,69.736 84.487,68.454 83.205,68.454 83.205,69.736 	"/>
	<polygon points="92.179,74.864 93.462,74.864 93.462,73.582 92.179,73.582 92.179,74.864 	"/>
	<polygon points="81.923,63.134 80.641,63.134 80.641,64.416 81.923,64.416 81.923,63.134 	"/>
	<polygon points="81.923,73.582 83.205,73.582 83.205,71.018 81.923,71.018 81.923,73.582 	"/>
	<polygon points="81.923,76.147 83.205,76.147 83.205,74.864 81.923,74.864 81.923,76.147 	"/>
	<polygon points="85.769,67.172 84.487,67.172 84.487,68.454 85.769,68.454 85.769,67.172 	"/>
	<polygon points="83.205,64.416 84.487,64.416 84.487,63.134 83.205,63.134 83.205,64.416 	"/>
	<polygon points="87.051,76.147 88.333,76.147 88.333,74.864 87.051,74.864 87.051,76.147 	"/>
	<polygon points="89.615,72.3 90.897,72.3 90.897,71.018 89.615,71.018 89.615,72.3 	"/>
	<polygon points="84.487,73.582 85.769,73.582 85.769,71.018 84.487,71.018 84.487,73.582 	"/>
	<polygon points="87.051,73.582 88.333,73.582 88.333,71.018 87.051,71.018 87.051,73.582 	"/>
	<polygon points="97.308,73.582 98.59,73.582 98.59,72.3 97.308,72.3 97.308,73.582 	"/>
	<polygon points="90.897,69.736 90.897,71.018 92.179,71.018 92.179,69.736 90.897,69.736 	"/>
	<polygon points="88.333,69.736 88.333,71.018 89.615,71.018 89.615,69.736 88.333,69.736 	"/>
	<polygon points="85.769,69.736 85.769,71.018 87.051,71.018 87.051,69.736 85.769,69.736 	"/>
	<polygon points="101.154,71.018 102.436,71.018 102.436,69.736 101.154,69.736 101.154,71.018 	"/>
	<polygon points="99.872,73.582 101.154,73.582 101.154,72.3 99.872,72.3 99.872,73.582 	"/>
	<polygon points="98.59,71.018 99.872,71.018 99.872,69.736 98.59,69.736 98.59,71.018 	"/>
	<polygon points="92.179,72.3 93.462,72.3 93.462,71.018 92.179,71.018 92.179,72.3 	"/>
	<polygon points="96.026,71.018 97.308,71.018 97.308,69.736 96.026,69.736 96.026,71.018 	"/>
	<polygon points="94.744,73.582 96.026,73.582 96.026,72.3 94.744,72.3 94.744,73.582 	"/>
	<polygon points="71.667,76.147 72.949,76.147 72.949,74.864 71.667,74.864 71.667,76.147 	"/>
	<polygon points="74.231,63.134 72.949,63.134 72.949,64.416 74.231,64.416 74.231,63.134 	"/>
	<polygon points="69.103,45.8 70.385,45.8 70.385,41.954 69.103,41.954 69.103,45.8 	"/>
	<polygon points="67.821,47.082 69.103,47.082 69.103,45.8 67.821,45.8 67.821,47.082 	"/>
	<polygon points="72.949,66.98 74.231,66.98 74.231,65.698 72.949,65.698 72.949,66.98 	"/>
	<polygon points="71.667,73.582 72.949,73.582 72.949,71.018 71.667,71.018 71.667,73.582 	"/>
	<polygon points="69.103,40.672 70.385,40.672 70.385,39.39 69.103,39.39 69.103,40.672 	"/>
	<polygon points="69.103,68.454 70.385,68.454 70.385,67.172 69.103,67.172 69.103,68.454 	"/>
	<polygon points="69.103,73.582 70.385,73.582 70.385,69.736 69.103,69.736 69.103,73.582 	"/>
	<polygon points="69.103,60.57 70.385,60.57 70.385,58.005 69.103,58.005 69.103,60.57 	"/>
	<polygon points="70.385,48.364 70.385,47.082 69.103,47.082 69.103,48.364 70.385,48.364 	"/>
	<polygon points="69.103,56.723 70.385,56.723 70.385,55.441 69.103,55.441 69.103,56.723 	"/>
	<polygon points="76.795,73.582 78.077,73.582 78.077,71.018 76.795,71.018 76.795,73.582 	"/>
	<polygon points="78.077,69.736 79.359,69.736 79.359,68.454 78.077,68.454 78.077,69.736 	"/>
	<polygon points="79.359,63.134 78.077,63.134 78.077,64.416 79.359,64.416 79.359,63.134 	"/>
	<polygon points="72.949,69.736 74.231,69.736 74.231,68.454 72.949,68.454 72.949,69.736 	"/>
	<polygon points="80.641,69.736 81.923,69.736 81.923,68.454 80.641,68.454 80.641,69.736 	"/>
	<polygon points="79.359,76.147 80.641,76.147 80.641,74.864 79.359,74.864 79.359,76.147 	"/>
	<polygon points="79.359,73.582 80.641,73.582 80.641,71.018 79.359,71.018 79.359,73.582 	"/>
	<polygon points="74.231,73.582 75.513,73.582 75.513,71.018 74.231,71.018 74.231,73.582 	"/>
	<polygon points="74.231,76.147 75.513,76.147 75.513,74.864 74.231,74.864 74.231,76.147 	"/>
	<polygon points="76.795,63.134 75.513,63.134 75.513,64.416 76.795,64.416 76.795,63.134 	"/>
	<polygon points="75.513,69.736 76.795,69.736 76.795,68.454 75.513,68.454 75.513,69.736 	"/>
	<polygon points="76.795,76.147 78.077,76.147 78.077,74.864 76.795,74.864 76.795,76.147 	"/>
	<polygon points="69.103,63.134 70.385,63.134 70.385,61.852 69.103,61.852 69.103,63.134 	"/>
	<polygon points="81.923,59.288 81.923,60.57 83.205,60.57 83.205,59.288 81.923,59.288 	"/>
	<polygon points="79.359,59.288 79.359,60.57 80.641,60.57 80.641,59.288 79.359,59.288 	"/>
	<polygon points="84.487,58.005 83.205,58.005 83.205,59.288 84.487,59.288 84.487,58.005 	"/>
	<polygon points="88.333,58.005 88.333,59.288 89.615,59.288 89.615,58.005 88.333,58.005 	"/>
	<polygon points="85.769,58.005 85.769,59.288 87.051,59.288 87.051,58.005 85.769,58.005 	"/>
	<polygon points="81.923,58.005 80.641,58.005 80.641,59.288 81.923,59.288 81.923,58.005 	"/>
	<polygon points="75.513,61.852 76.795,61.852 76.795,60.57 75.513,60.57 75.513,61.852 	"/>
	<polygon points="72.949,61.852 74.231,61.852 74.231,60.57 72.949,60.57 72.949,61.852 	"/>
	<polygon points="71.667,58.005 71.667,60.57 72.949,60.57 72.949,58.005 71.667,58.005 	"/>
	<polygon points="76.795,59.288 76.795,60.57 78.077,60.57 78.077,59.288 76.795,59.288 	"/>
	<polygon points="78.077,61.852 79.359,61.852 79.359,60.57 78.077,60.57 78.077,61.852 	"/>
	<polygon points="74.231,58.005 74.231,60.57 75.513,60.57 75.513,58.005 74.231,58.005 	"/>
	<polygon points="103.718,77.429 105,77.429 105,76.147 103.718,76.147 103.718,77.429 	"/>
	<polygon points="103.718,71.018 105,71.018 105,68.454 103.718,68.454 103.718,71.018 	"/>
	<polygon points="103.718,60.57 105,60.57 105,59.288 103.718,59.288 103.718,60.57 	"/>
	<polygon points="93.462,71.018 94.744,71.018 94.744,69.736 93.462,69.736 93.462,71.018 	"/>
	<polygon points="103.718,40.672 103.718,43.236 105,43.236 105,40.672 103.718,40.672 	"/>
	<polygon points="92.179,56.723 92.179,58.005 93.462,58.005 93.462,56.723 92.179,56.723 	"/>
	<polygon points="90.897,56.723 89.615,56.723 89.615,58.005 90.897,58.005 90.897,56.723 	"/>
	<polygon points="90.897,59.288 92.179,59.288 92.179,58.005 90.897,58.005 90.897,59.288 	"/>
	<polygon points="99.872,55.441 99.872,58.005 101.154,58.005 101.154,55.441 99.872,55.441 	"/>
	<polygon points="97.308,55.441 97.308,58.005 98.59,58.005 98.59,55.441 97.308,55.441 	"/>
	<polygon points="103.718,51.595 102.436,51.595 102.436,52.877 103.718,52.877 103.718,51.595 	"/>
	<polygon points="103.718,58.005 105,58.005 105,55.441 103.718,55.441 103.718,58.005 	"/>
	<polygon points="90.897,61.852 89.615,61.852 89.615,63.134 90.897,63.134 90.897,61.852 	"/>
	<polygon points="89.615,68.454 90.897,68.454 90.897,67.172 89.615,67.172 89.615,68.454 	"/>
	<polygon points="92.179,65.89 90.897,65.89 90.897,67.172 92.179,67.172 92.179,65.89 	"/>
	<polygon points="93.462,67.172 94.744,67.172 94.744,65.89 93.462,65.89 93.462,67.172 	"/>
	<polygon points="80.641,61.852 81.923,61.852 81.923,60.57 80.641,60.57 80.641,61.852 	"/>
	<polygon points="87.051,68.454 88.333,68.454 88.333,67.172 87.051,67.172 87.051,68.454 	"/>
	<polygon points="88.333,61.852 87.051,61.852 87.051,63.134 88.333,63.134 88.333,61.852 	"/>
	<polygon points="97.308,68.454 97.308,69.736 98.59,69.736 98.59,68.454 97.308,68.454 	"/>
	<polygon points="99.872,68.454 99.872,69.736 101.154,69.736 101.154,68.454 99.872,68.454 	"/>
	<polygon points="94.744,61.852 96.026,61.852 96.026,60.57 94.744,60.57 94.744,61.852 	"/>
	<polygon points="92.179,61.852 93.462,61.852 93.462,60.57 92.179,60.57 92.179,61.852 	"/>
	<polygon points="93.462,59.288 94.744,59.288 94.744,58.005 93.462,58.005 93.462,59.288 	"/>
	<polygon points="89.615,60.57 90.897,60.57 90.897,59.288 89.615,59.288 89.615,60.57 	"/>
	<polygon points="96.026,59.288 97.308,59.288 97.308,58.005 96.026,58.005 96.026,59.288 	"/>
	<polygon points="87.051,60.57 88.333,60.57 88.333,59.288 87.051,59.288 87.051,60.57 	"/>
	<polygon points="83.205,61.852 84.487,61.852 84.487,60.57 83.205,60.57 83.205,61.852 	"/>
	<polygon points="101.154,60.57 99.872,60.57 99.872,61.852 101.154,61.852 101.154,60.57 	"/>
	<polygon points="98.59,67.172 99.872,67.172 99.872,65.89 98.59,65.89 98.59,67.172 	"/>
	<polygon points="98.59,59.288 99.872,59.288 99.872,58.005 98.59,58.005 98.59,59.288 	"/>
	<polygon points="97.308,61.852 98.59,61.852 98.59,60.57 97.308,60.57 97.308,61.852 	"/>
	<polygon points="101.154,59.288 102.436,59.288 102.436,58.005 101.154,58.005 101.154,59.288 	"/>
	<polygon points="96.026,67.172 97.308,67.172 97.308,65.89 96.026,65.89 96.026,67.172 	"/>
	<polygon points="61.41,55.441 60.128,55.441 60.128,56.723 61.41,56.723 61.41,55.441 	"/>
	<polygon points="35.769,71.018 34.487,71.018 34.487,73.582 35.769,73.582 35.769,71.018 	"/>
	<polygon points="33.205,76.147 34.487,76.147 34.487,74.864 33.205,74.864 33.205,76.147 	"/>
	<polygon points="37.051,77.429 38.333,77.429 38.333,76.147 37.051,76.147 37.051,77.429 	"/>
	<polygon points="33.205,71.018 31.923,71.018 31.923,73.582 33.205,73.582 33.205,71.018 	"/>
	<polygon points="35.769,74.864 35.769,76.147 37.051,76.147 37.051,74.864 35.769,74.864 	"/>
	<polygon points="38.333,76.147 39.615,76.147 39.615,74.864 38.333,74.864 38.333,76.147 	"/>
	<polygon points="28.077,76.147 29.359,76.147 29.359,74.864 28.077,74.864 28.077,76.147 	"/>
	<polygon points="25.513,76.147 26.795,76.147 26.795,74.864 25.513,74.864 25.513,76.147 	"/>
	<polygon points="28.077,71.018 26.795,71.018 26.795,73.582 28.077,73.582 28.077,71.018 	"/>
	<polygon points="30.641,76.147 31.923,76.147 31.923,74.864 30.641,74.864 30.641,76.147 	"/>
	<polygon points="46.026,74.864 47.308,74.864 47.308,73.582 46.026,73.582 46.026,74.864 	"/>
	<polygon points="30.641,71.018 29.359,71.018 29.359,73.582 30.641,73.582 30.641,71.018 	"/>
	<polygon points="43.462,69.736 43.462,71.018 44.744,71.018 44.744,69.736 43.462,69.736 	"/>
	<polygon points="42.179,73.582 43.462,73.582 43.462,71.018 42.179,71.018 42.179,73.582 	"/>
	<polygon points="25.513,73.582 25.513,71.018 24.231,71.018 24.231,73.582 25.513,73.582 	"/>
	<polygon points="46.026,68.454 46.026,71.018 47.308,71.018 47.308,68.454 46.026,68.454 	"/>
	<polygon points="48.59,71.018 49.872,71.018 49.872,68.454 48.59,68.454 48.59,71.018 	"/>
	<polygon points="42.179,69.736 40.897,69.736 40.897,71.018 42.179,71.018 42.179,69.736 	"/>
	<polygon points="44.744,74.864 44.744,73.582 43.462,73.582 43.462,74.864 44.744,74.864 	"/>
	<polygon points="47.308,72.3 48.59,72.3 48.59,71.018 47.308,71.018 47.308,72.3 	"/>
	<polygon points="44.744,72.3 46.026,72.3 46.026,71.018 44.744,71.018 44.744,72.3 	"/>
	<polygon points="40.897,76.147 42.179,76.147 42.179,73.582 40.897,73.582 40.897,76.147 	"/>
	<polygon points="39.615,71.018 39.615,73.582 40.897,73.582 40.897,71.018 39.615,71.018 	"/>
	<polygon points="49.872,73.582 49.872,72.3 48.59,72.3 48.59,73.582 49.872,73.582 	"/>
	<polygon points="7.564,59.288 6.282,59.288 6.282,60.57 7.564,60.57 7.564,59.288 	"/>
	<polygon points="12.692,60.57 11.41,60.57 11.41,61.852 12.692,61.852 12.692,60.57 	"/>
	<polygon points="12.692,73.582 13.974,73.582 13.974,72.3 12.692,72.3 12.692,73.582 	"/>
	<polygon points="10.128,71.018 11.41,71.018 11.41,68.454 10.128,68.454 10.128,71.018 	"/>
	<polygon points="12.692,67.172 13.974,67.172 13.974,65.89 12.692,65.89 12.692,67.172 	"/>
	<polygon points="10.128,73.582 11.41,73.582 11.41,72.3 10.128,72.3 10.128,73.582 	"/>
	<polygon points="15.256,60.57 13.974,60.57 13.974,61.852 15.256,61.852 15.256,60.57 	"/>
	<polygon points="12.692,71.018 13.974,71.018 13.974,68.454 12.692,68.454 12.692,71.018 	"/>
	<g>
		<polygon points="5,77.429 6.282,77.429 6.282,76.147 5,76.147 5,77.429 		"/>
		<polygon points="37.878,51.783 36.596,51.783 36.596,53.066 37.878,53.066 37.878,51.783 		"/>
	</g>
	<polygon points="7.564,72.3 7.564,73.582 8.846,73.582 8.846,72.3 7.564,72.3 	"/>
	<polygon points="8.846,74.864 10.128,74.864 10.128,73.582 8.846,73.582 8.846,74.864 	"/>
	<polygon points="48.59,67.172 49.872,67.172 49.872,65.89 48.59,65.89 48.59,67.172 	"/>
	<polygon points="15.256,67.172 16.538,67.172 16.538,65.89 15.256,65.89 15.256,67.172 	"/>
	<polygon points="19.103,72.3 20.385,72.3 20.385,71.018 19.103,71.018 19.103,72.3 	"/>
	<polygon points="22.949,76.147 24.231,76.147 24.231,74.864 22.949,74.864 22.949,76.147 	"/>
	<polygon points="21.667,72.3 22.949,72.3 22.949,71.018 21.667,71.018 21.667,72.3 	"/>
	<polygon points="17.821,68.454 17.821,71.018 19.103,71.018 19.103,68.454 17.821,68.454 	"/>
	<polygon points="20.385,69.736 20.385,71.018 21.667,71.018 21.667,69.736 20.385,69.736 	"/>
	<polygon points="15.256,73.582 16.538,73.582 16.538,72.3 15.256,72.3 15.256,73.582 	"/>
	<polygon points="20.385,74.864 21.667,74.864 21.667,73.582 20.385,73.582 20.385,74.864 	"/>
	<polygon points="22.949,69.736 22.949,71.018 24.231,71.018 24.231,69.736 22.949,69.736 	"/>
	<polygon points="15.256,71.018 16.538,71.018 16.538,68.454 15.256,68.454 15.256,71.018 	"/>
	<polygon points="17.821,60.57 16.538,60.57 16.538,61.852 17.821,61.852 17.821,60.57 	"/>
	<polygon points="17.821,74.864 19.103,74.864 19.103,73.582 17.821,73.582 17.821,74.864 	"/>
	<polygon points="58.846,61.852 60.128,61.852 60.128,60.57 58.846,60.57 58.846,61.852 	"/>
	<polygon points="61.41,67.172 62.692,67.172 62.692,65.89 61.41,65.89 61.41,67.172 	"/>
	<polygon points="55,55.441 55,56.723 56.282,56.723 56.282,55.441 55,55.441 	"/>
	<polygon points="61.41,71.018 62.692,71.018 62.692,68.454 61.41,68.454 61.41,71.018 	"/>
	<polygon points="63.974,72.3 65.256,72.3 65.256,68.454 63.974,68.454 63.974,72.3 	"/>
	<polygon points="61.41,73.582 62.692,73.582 62.692,72.3 61.41,72.3 61.41,73.582 	"/>
	<polygon points="63.974,74.864 65.256,74.864 65.256,73.582 63.974,73.582 63.974,74.864 	"/>
	<polygon points="63.974,67.172 65.256,67.172 65.256,65.89 63.974,65.89 63.974,67.172 	"/>
	<polygon points="7.564,71.018 8.846,71.018 8.846,68.454 7.564,68.454 7.564,71.018 	"/>
	<polygon points="62.692,60.57 61.41,60.57 61.41,61.852 62.692,61.852 62.692,60.57 	"/>
	<polygon points="57.564,55.441 57.564,56.723 58.846,56.723 58.846,55.441 57.564,55.441 	"/>
	<polygon points="62.692,59.288 62.692,56.723 61.41,56.723 61.41,59.288 62.692,59.288 	"/>
	<polygon points="66.538,63.134 67.821,63.134 67.821,61.852 66.538,61.852 66.538,63.134 	"/>
	<polygon points="66.538,68.454 67.821,68.454 67.821,67.172 66.538,67.172 66.538,68.454 	"/>
	<polygon points="66.538,72.3 67.821,72.3 67.821,69.736 66.538,69.736 66.538,72.3 	"/>
	<polygon points="66.538,55.441 67.821,55.441 67.821,54.159 66.538,54.159 66.538,55.441 	"/>
	<polygon points="66.538,60.57 67.821,60.57 67.821,56.723 66.538,56.723 66.538,60.57 	"/>
	<polygon points="66.538,45.8 65.256,45.8 65.256,48.364 66.538,48.364 66.538,45.8 	"/>
	<polygon points="63.974,55.441 65.256,55.441 65.256,54.159 63.974,54.159 63.974,55.441 	"/>
	<polygon points="63.974,59.288 65.256,59.288 65.256,56.723 63.974,56.723 63.974,59.288 	"/>
	<polygon points="63.974,61.852 65.256,61.852 65.256,60.57 63.974,60.57 63.974,61.852 	"/>
	<polygon points="66.538,74.864 67.821,74.864 67.821,73.582 66.538,73.582 66.538,74.864 	"/>
	<polygon points="62.692,52.877 62.692,54.159 63.974,54.159 63.974,52.877 62.692,52.877 	"/>
	<polygon points="48.59,59.288 49.872,59.288 49.872,56.723 48.59,56.723 48.59,59.288 	"/>
	<polygon points="53.718,61.852 55,61.852 55,60.57 53.718,60.57 53.718,61.852 	"/>
	<polygon points="51.154,71.018 52.436,71.018 52.436,68.454 51.154,68.454 51.154,71.018 	"/>
	<polygon points="53.718,71.018 55,71.018 55,68.454 53.718,68.454 53.718,71.018 	"/>
	<polygon points="52.436,55.441 52.436,56.723 53.718,56.723 53.718,55.441 52.436,55.441 	"/>
	<polygon points="56.282,73.582 57.564,73.582 57.564,72.3 56.282,72.3 56.282,73.582 	"/>
	<polygon points="56.282,77.429 57.564,77.429 57.564,76.147 56.282,76.147 56.282,77.429 	"/>
	<polygon points="53.718,73.582 55,73.582 55,72.3 53.718,72.3 53.718,73.582 	"/>
	<polygon points="52.436,74.864 53.718,74.864 53.718,73.582 52.436,73.582 52.436,74.864 	"/>
	<polygon points="51.154,72.3 51.154,73.582 52.436,73.582 52.436,72.3 51.154,72.3 	"/>
	<polygon points="52.436,60.57 51.154,60.57 51.154,61.852 52.436,61.852 52.436,60.57 	"/>
	<polygon points="51.154,67.172 52.436,67.172 52.436,65.89 51.154,65.89 51.154,67.172 	"/>
	<polygon points="56.282,71.018 57.564,71.018 57.564,68.454 56.282,68.454 56.282,71.018 	"/>
	<polygon points="53.718,67.172 55,67.172 55,65.89 53.718,65.89 53.718,67.172 	"/>
	<polygon points="51.154,59.288 52.436,59.288 52.436,56.723 51.154,56.723 51.154,59.288 	"/>
	<polygon points="56.282,61.852 57.564,61.852 57.564,60.57 56.282,60.57 56.282,61.852 	"/>
	<polygon points="48.59,61.852 49.872,61.852 49.872,60.57 48.59,60.57 48.59,61.852 	"/>
	<polygon points="56.282,58.005 57.564,58.005 57.564,56.723 56.282,56.723 56.282,58.005 	"/>
	<polygon points="49.872,55.441 49.872,56.723 51.154,56.723 51.154,55.441 49.872,55.441 	"/>
	<polygon points="53.718,59.288 55,59.288 55,56.723 53.718,56.723 53.718,59.288 	"/>
	<polygon points="58.846,71.018 60.128,71.018 60.128,68.454 58.846,68.454 58.846,71.018 	"/>
	<polygon points="58.846,73.582 60.128,73.582 60.128,72.3 58.846,72.3 58.846,73.582 	"/>
	<polygon points="58.846,59.288 60.128,59.288 60.128,56.723 58.846,56.723 58.846,59.288 	"/>
	<polygon points="58.846,67.172 60.128,67.172 60.128,65.89 58.846,65.89 58.846,67.172 	"/>
	<polygon points="69.103,76.147 70.385,76.147 70.385,74.864 69.103,74.864 69.103,76.147 	"/>
</g>
</svg>
