<?xml version="1.0" encoding="iso-8859-1"?>
<!-- Generator: Adobe Illustrator 28.3.0, SVG Export Plug-In . SVG Version: 6.00 Build 0)  -->
<svg version="1.1" id="Layer_1" xmlns="http://www.w3.org/2000/svg" xmlns:xlink="http://www.w3.org/1999/xlink" x="0px" y="0px"
	 width="110px" height="110px" viewBox="0 0 110 110" enable-background="new 0 0 110 110" xml:space="preserve">
<g>
	<polygon points="9.698,78.664 9.027,78.664 9.027,79.335 9.698,79.335 9.698,78.664 	"/>
	<polygon points="11.711,84.704 12.383,84.704 12.383,84.033 11.711,84.033 11.711,84.704 	"/>
	<polygon points="23.121,96.114 23.792,96.114 23.792,95.443 23.121,95.443 23.121,96.114 	"/>
	<polygon points="11.711,82.691 12.383,82.691 12.383,82.02 11.711,82.02 11.711,82.691 	"/>
	<polygon points="9.698,81.349 10.369,81.349 10.369,80.677 9.698,80.677 9.698,81.349 	"/>
	<polygon points="7.013,43.765 6.342,43.765 6.342,45.778 7.013,45.778 7.013,43.765 	"/>
	<polygon points="6.342,46.449 5.671,46.449 5.671,49.134 6.342,49.134 6.342,46.449 	"/>
	<polygon points="5.671,64.57 6.342,64.57 6.342,62.557 5.671,62.557 5.671,64.57 	"/>
	<polygon points="5.671,49.805 5,49.805 5,60.543 5.671,60.543 5.671,49.805 	"/>
	<polygon points="5.671,61.214 5,61.214 5,61.885 5.671,61.885 5.671,61.214 	"/>
	<polygon points="7.685,41.08 7.013,41.08 7.013,43.094 7.685,43.094 7.685,41.08 	"/>
	<polygon points="16.409,23.63 16.409,24.302 17.752,24.302 17.752,23.63 16.409,23.63 	"/>
	<polygon points="16.409,24.973 15.738,24.973 15.738,25.644 16.409,25.644 16.409,24.973 	"/>
	<polygon points="27.819,14.906 28.49,14.906 28.49,14.234 27.148,14.234 27.148,14.906 26.477,14.906 26.477,15.577 27.819,15.577 
		27.819,14.906 	"/>
	<polygon points="104.329,47.792 103.658,47.792 103.658,48.463 104.329,48.463 104.329,47.792 	"/>
	<polygon points="71.443,8.865 70.101,8.865 70.101,9.536 71.443,9.536 71.443,8.865 	"/>
	<polygon points="11.711,31.684 12.383,31.684 12.383,31.013 11.711,31.013 11.711,31.684 	"/>
	<polygon points="27.148,97.456 28.49,97.456 28.49,96.785 27.148,96.785 27.148,97.456 	"/>
	<polygon points="27.819,99.469 28.49,99.469 28.49,98.798 27.819,98.798 27.819,99.469 	"/>
	<polygon points="12.383,29.671 12.383,31.013 13.054,31.013 13.054,29.671 12.383,29.671 	"/>
	<polygon points="27.819,100.812 28.49,100.812 28.49,100.141 27.819,100.141 27.819,100.812 	"/>
	<polygon points="11.711,29 11.711,29.671 12.383,29.671 12.383,29 11.711,29 	"/>
	<polygon points="13.725,29 13.054,29 13.054,29.671 13.725,29.671 13.725,29 	"/>
	<polygon points="28.49,12.221 27.819,12.221 27.819,12.892 28.49,12.892 28.49,12.221 	"/>
	<polygon points="37.215,6.852 36.544,6.852 36.544,7.523 37.215,7.523 37.215,6.852 	"/>
	<polygon points="28.49,10.879 27.819,10.879 27.819,11.55 28.49,11.55 28.49,10.879 	"/>
	<polygon points="12.383,26.986 11.711,26.986 11.711,27.657 12.383,27.657 12.383,26.986 	"/>
	<polygon points="20.436,15.577 19.765,15.577 19.765,16.248 20.436,16.248 20.436,15.577 	"/>
	<polygon points="8.356,39.067 7.685,39.067 7.685,41.08 8.356,41.08 8.356,39.067 	"/>
	<polygon points="53.322,6.181 48.624,6.181 48.624,6.852 53.322,6.852 53.322,6.181 	"/>
	<polygon points="57.349,6.181 53.993,6.181 53.993,6.852 57.349,6.852 57.349,6.181 	"/>
	<polygon points="11.711,32.355 11.04,32.355 11.04,33.026 11.711,33.026 11.711,32.355 	"/>
	<polygon points="39.228,6.852 38.557,6.852 38.557,7.523 39.228,7.523 39.228,6.852 	"/>
	<polygon points="47.282,6.852 46.611,6.852 46.611,7.523 47.282,7.523 47.282,6.852 	"/>
	<polygon points="10.369,34.369 11.04,34.369 11.04,33.026 10.369,33.026 10.369,34.369 	"/>
	<polygon points="26.477,15.577 25.805,15.577 25.805,16.248 26.477,16.248 26.477,15.577 	"/>
	<polygon points="9.698,32.355 9.027,32.355 9.027,33.026 9.698,33.026 9.698,32.355 	"/>
	<polygon points="9.027,37.724 8.356,37.724 8.356,39.067 9.027,39.067 9.027,37.724 	"/>
	<polygon points="9.698,36.382 9.027,36.382 9.027,37.053 9.698,37.053 9.698,36.382 	"/>
	<polygon points="10.369,30.342 9.698,30.342 9.698,31.013 10.369,31.013 10.369,30.342 	"/>
	<polygon points="93.591,20.946 92.919,20.946 92.919,21.617 93.591,21.617 93.591,20.946 	"/>
	<polygon points="92.248,22.288 91.577,22.288 91.577,22.959 92.248,22.959 92.248,22.288 	"/>
	<polygon points="9.698,35.711 10.369,35.711 10.369,34.369 9.698,34.369 9.698,35.711 	"/>
	<polygon points="104.329,49.805 103.658,49.805 103.658,50.476 104.329,50.476 104.329,49.805 	"/>
	<polygon points="92.248,23.63 90.906,23.63 90.906,24.302 92.248,24.302 92.248,23.63 	"/>
	<polygon points="68.087,102.825 68.758,102.825 68.758,102.154 68.087,102.154 68.087,102.825 	"/>
	<polygon points="39.228,8.865 37.215,8.865 37.215,9.536 39.228,9.536 39.228,8.865 	"/>
	<polygon points="36.544,104.839 37.215,104.839 37.215,104.167 36.544,104.167 36.544,104.839 	"/>
	<polygon points="36.544,12.892 37.215,12.892 37.215,10.208 36.544,10.208 36.544,12.892 	"/>
	<path d="M59.362,100.812h-0.671V9.536H58.02V8.865h0.671v0.671h0.671V100.812L59.362,100.812z M59.362,102.154h-0.671v-0.671h0.671
		V102.154L59.362,102.154z M53.993,102.825h-0.671v-0.671h0.671V102.825L53.993,102.825z M52.651,8.865h0.671v0.671h-0.671V8.865
		L52.651,8.865z M51.309,102.825h-0.671v-0.671h-0.671V10.879h0.671v91.275h0.671V102.825L51.309,102.825z M49.966,9.536h0.671
		v0.671h-0.671V9.536L49.966,9.536z M60.034,8.865h-0.671V8.194h-2.685V7.523h-4.027v0.671h-3.356V7.523h-0.671v95.973h4.027v0.671
		h4.027v-0.671h3.356v0.671h0.671V8.194h-0.671V8.865L60.034,8.865z"/>
	<path d="M27.148,18.932h-0.671v-0.671h0.671V18.932L27.148,18.932z M27.148,90.745h-0.671V19.604h0.671V90.745L27.148,90.745z
		 M25.805,19.604h-0.671v-0.671h0.671V19.604L25.805,19.604z M25.134,24.302h-0.671V23.63h0.671V24.302L25.134,24.302z
		 M24.463,86.047h-0.671v-0.671h0.671V86.047L24.463,86.047z M19.094,82.691h-0.671V82.02h0.671V82.691L19.094,82.691z
		 M17.752,31.684h-0.671v-0.671h0.671V31.684L17.752,31.684z M17.752,80.677h-0.671v-0.671h0.671V80.677L17.752,80.677z
		 M12.383,37.724h-0.671v-0.671h0.671V37.724L12.383,37.724z M12.383,47.12h-0.671v-2.013h0.671V47.12L12.383,47.12z M11.04,44.436
		v-0.671h0.671v0.671H11.04L11.04,44.436z M10.369,41.08v-0.671h0.671v0.671H10.369L10.369,41.08z M10.369,43.765H9.698v-1.342
		h0.671V43.765L10.369,43.765z M9.698,46.449H9.027v-1.342h0.671V46.449L9.698,46.449z M9.027,51.147H8.356v-2.013h0.671V51.147
		L9.027,51.147z M11.04,38.396h0.671v0.671H11.04V38.396L11.04,38.396z M28.49,15.577h-0.671v0.671h-1.342v0.671h-0.671v0.671
		h-0.671v0.671h-1.342v0.671h-0.671v0.671H22.45v0.671h-0.671v0.671h-0.671v0.671h-0.671v0.671h-0.671v0.671h-0.671v0.671h-0.671
		v0.671h-0.671v0.671h-0.671v1.342h-0.671v0.671h-0.671v-1.342h-0.671v1.342h-0.671v0.671h-0.671v0.671h1.342V29h-0.671v1.342
		h-0.671v0.671h-0.671v1.342h-0.671v1.342h-0.671v1.342H11.04v1.342h-0.671v2.013H9.698v1.342H9.027v2.013H8.356v2.685H7.685v3.356
		H7.013v6.04H6.342v4.027h0.671v6.04h0.671v3.356h0.671v2.685h0.671v2.013h0.671v1.342h0.671v2.013h0.671v1.342h0.671v1.342h0.671
		v1.342h0.671v0.671h0.671v1.342h0.671v1.342h0.671v0.671h0.671v0.671h0.671v1.342h0.671v0.671h0.671v0.671h0.671v0.671h0.671v1.342
		h0.671v0.671h0.671v0.671h0.671v0.671h0.671v0.671h1.342v0.671h0.671v0.671h0.671v0.671h0.671V94.1h0.671v0.671h1.342v0.671h0.671
		v0.671h1.342v-0.671H28.49V15.577L28.49,15.577z"/>
	<polygon points="58.02,6.852 60.705,6.852 60.705,6.181 58.02,6.181 58.02,6.852 	"/>
	<polygon points="62.047,8.865 62.718,8.865 62.718,8.194 62.047,8.194 62.047,8.865 	"/>
	<polygon points="62.047,7.523 62.718,7.523 62.718,6.852 62.047,6.852 62.047,7.523 	"/>
	<polygon points="62.047,102.154 61.376,102.154 61.376,103.496 62.718,103.496 62.718,102.825 62.047,102.825 62.047,102.154 	"/>
	<polygon points="62.047,104.839 62.718,104.839 62.718,104.167 62.047,104.167 62.047,104.839 	"/>
	<polygon points="29.832,96.785 30.503,96.785 30.503,14.906 29.832,14.906 29.832,96.785 	"/>
	<polygon points="46.611,8.865 47.282,8.865 47.282,9.536 47.953,9.536 47.953,8.194 46.611,8.194 46.611,8.865 	"/>
	<polygon points="46.611,104.839 47.282,104.839 47.282,104.167 46.611,104.167 46.611,104.839 	"/>
	<polygon points="46.611,103.496 47.282,103.496 47.282,102.825 46.611,102.825 46.611,103.496 	"/>
	<polygon points="48.624,105.51 57.349,105.51 57.349,104.839 48.624,104.839 48.624,105.51 	"/>
	<polygon points="58.02,105.51 60.034,105.51 60.034,104.839 58.02,104.839 58.02,105.51 	"/>
	<polygon points="104.329,60.543 104.329,51.818 103.658,51.818 103.658,61.885 104.329,61.885 104.329,61.214 105,61.214 
		105,60.543 104.329,60.543 	"/>
	<polygon points="37.886,102.825 39.228,102.825 39.228,102.154 37.886,102.154 37.886,102.825 	"/>
	<polygon points="40.57,9.536 41.242,9.536 41.242,8.865 40.57,8.865 40.57,9.536 	"/>
	<polygon points="39.228,10.208 37.886,10.208 37.886,100.812 38.557,100.812 38.557,101.483 39.899,101.483 39.899,100.812 
		39.228,100.812 39.228,10.208 	"/>
	<polygon points="40.57,102.825 41.242,102.825 41.242,102.154 40.57,102.154 40.57,102.825 	"/>
	<polygon points="38.557,104.839 39.228,104.839 39.228,104.167 38.557,104.167 38.557,104.839 	"/>
	<polygon points="40.57,101.483 41.242,101.483 41.242,10.208 40.57,10.208 40.57,101.483 	"/>
	<polygon points="93.591,86.047 94.262,86.047 94.262,26.315 93.591,26.315 93.591,86.047 	"/>
	<polygon points="22.45,18.932 21.779,18.932 21.779,19.604 22.45,19.604 22.45,18.932 	"/>
	<polygon points="21.107,20.275 21.779,20.275 21.779,19.604 20.436,19.604 20.436,20.275 19.765,20.275 19.765,20.946 
		21.107,20.946 21.107,20.275 	"/>
	<polygon points="92.919,90.745 93.591,90.745 93.591,90.073 92.919,90.073 92.919,90.745 	"/>
	<polygon points="92.919,86.718 93.591,86.718 93.591,86.047 92.919,86.047 92.919,86.718 	"/>
	<polygon points="23.121,18.261 22.45,18.261 22.45,18.932 23.121,18.932 23.121,18.261 	"/>
	<polygon points="100.302,61.885 100.973,61.885 100.973,60.543 100.302,60.543 100.302,61.885 	"/>
	<polygon points="25.134,16.919 25.805,16.919 25.805,16.248 24.463,16.248 24.463,16.919 23.792,16.919 23.792,17.59 25.134,17.59 
		25.134,16.919 	"/>
	<polygon points="102.315,48.463 101.644,48.463 101.644,63.228 102.987,63.228 102.987,51.147 102.315,51.147 102.315,48.463 	"/>
	<polygon points="23.792,17.59 23.121,17.59 23.121,18.261 23.792,18.261 23.792,17.59 	"/>
	<polygon points="100.302,59.872 100.973,59.872 100.973,49.134 100.302,49.134 100.302,59.872 	"/>
	<polygon points="70.101,101.483 71.443,101.483 71.443,10.879 70.772,10.879 70.772,10.208 69.43,10.208 69.43,10.879 
		70.101,10.879 70.101,101.483 	"/>
	<polygon points="70.101,102.825 72.114,102.825 72.114,102.154 70.101,102.154 70.101,102.825 	"/>
	<polygon points="72.114,101.483 72.785,101.483 72.785,98.798 72.114,98.798 72.114,101.483 	"/>
	<polygon points="92.919,84.704 92.248,84.704 92.248,24.973 90.906,24.973 90.906,26.315 91.577,26.315 91.577,87.389 
		90.906,87.389 90.906,88.06 92.248,88.06 92.248,85.375 92.919,85.375 92.919,84.704 	"/>
	<polygon points="68.087,101.483 68.758,101.483 68.758,10.208 68.087,10.208 68.087,101.483 	"/>
	<polygon points="68.087,9.536 68.758,9.536 68.758,8.865 68.087,8.865 68.087,9.536 	"/>
	<polygon points="18.423,22.959 17.752,22.959 17.752,23.63 18.423,23.63 18.423,22.959 	"/>
	<polygon points="19.765,20.946 19.094,20.946 19.094,22.288 19.765,22.288 19.765,20.946 	"/>
	<polygon points="91.577,89.402 92.248,89.402 92.248,88.731 91.577,88.731 91.577,89.402 	"/>
	<polygon points="19.094,22.288 18.423,22.288 18.423,22.959 19.094,22.959 19.094,22.288 	"/>
	<polygon points="89.564,86.718 90.235,86.718 90.235,24.973 89.564,24.973 89.564,86.718 	"/>
</g>
</svg>
