<?xml version="1.0" encoding="iso-8859-1"?>
<!-- Generator: Adobe Illustrator 28.3.0, SVG Export Plug-In . SVG Version: 6.00 Build 0)  -->
<svg version="1.1" id="Layer_1" xmlns="http://www.w3.org/2000/svg" xmlns:xlink="http://www.w3.org/1999/xlink" x="0px" y="0px"
	 width="110px" height="110px" viewBox="0 0 110 110" enable-background="new 0 0 110 110" xml:space="preserve">
<g>
	<rect x="47.5" y="54.417" width="0.714" height="2.143"/>
	<rect x="50.357" y="61.559" width="0.714" height="2.143"/>
	<rect x="46.786" y="52.988" width="0.714" height="1.429"/>
	<rect x="49.643" y="60.131" width="0.714" height="1.429"/>
	<rect x="42.5" y="40.131" width="0.714" height="2.143"/>
	<rect x="51.786" y="65.845" width="0.714" height="2.143"/>
	<rect x="51.072" y="63.702" width="0.714" height="2.143"/>
	<rect x="53.214" y="70.131" width="0.714" height="2.143"/>
	<rect x="48.214" y="56.56" width="0.714" height="1.429"/>
	<rect x="52.5" y="67.988" width="0.714" height="2.143"/>
	<rect x="58.214" y="105.131" width="0.714" height="0.714"/>
	<rect x="69.643" y="96.56" width="0.714" height="6.428"/>
	<rect x="70.357" y="102.988" width="0.714" height="0.714"/>
	<rect x="37.5" y="17.988" width="0.714" height="0.714"/>
	<polygon points="39.643,10.131 38.929,10.131 38.929,20.845 38.214,20.845 38.214,21.559 39.643,21.559 	"/>
	<rect x="37.5" y="14.417" width="0.714" height="0.714"/>
	<rect x="37.5" y="29.417" width="0.714" height="0.714"/>
	<rect x="39.643" y="22.988" width="0.714" height="5"/>
	<rect x="37.5" y="7.274" width="0.714" height="1.429"/>
	<rect x="48.929" y="5.845" width="0.714" height="0.714"/>
	<rect x="40.357" y="7.988" width="10" height="0.714"/>
	<rect x="38.929" y="30.131" width="0.714" height="0.714"/>
	<rect x="52.5" y="7.988" width="0.714" height="0.714"/>
	<rect x="39.643" y="21.559" width="0.714" height="0.714"/>
	<polygon points="57.5,87.274 56.786,87.274 56.786,91.56 56.071,91.56 56.071,92.274 57.5,92.274 	"/>
	<rect x="56.786" y="92.988" width="0.714" height="0.714"/>
	<polygon points="58.214,95.131 57.5,95.131 57.5,97.274 56.786,97.274 56.786,97.988 58.214,97.988 	"/>
	<rect x="57.5" y="93.702" width="0.714" height="0.714"/>
	<rect x="57.5" y="98.702" width="0.714" height="4.286"/>
	<rect x="55.357" y="102.274" width="0.714" height="0.714"/>
	<rect x="43.929" y="45.131" width="0.714" height="1.429"/>
	<rect x="40.357" y="29.417" width="0.714" height="3.571"/>
	<rect x="44.643" y="47.274" width="0.714" height="1.429"/>
	<rect x="41.786" y="37.274" width="0.714" height="2.143"/>
	<rect x="55.357" y="78.702" width="0.714" height="2.857"/>
	<rect x="54.643" y="75.131" width="0.714" height="2.857"/>
	<rect x="50.357" y="70.131" width="0.714" height="0.714"/>
	<rect x="52.5" y="76.56" width="0.714" height="0.714"/>
	<path d="M68.214,90.131H67.5v-0.714h0.714v-1.429H67.5v-0.714h0.714v-0.714h1.429v-1.429h-0.714v0.714h-0.714v-0.714h-1.429v-0.714
		H67.5v-1.429h-2.143v-0.714H67.5v-2.143h0.714v0.714h0.714v-1.429h-2.143v0.714h-0.714v-0.714h0.714v-1.429h-0.714v-0.714h0.714
		v-1.429h-0.714v0.714h-0.714v-0.714h0.714v-1.429h-0.714v-0.714h-0.714v-0.714h0.714V71.56h-0.714v-0.714h-0.714v-0.714h0.714
		v-1.429h-0.714v-0.714h-0.714v-0.714h0.714v-1.429H62.5v-0.714h0.714v-1.429h-1.429v-0.714H62.5v-1.429h-0.714v0.714h-0.714v-0.714
		h0.714v-2.143h-0.714v0.714h-0.714v-0.714h0.714v-1.429h-1.429v-0.714h0.715v-1.429h-0.715v0.714h-0.714v-0.714h0.714v-1.429
		h-1.429v-0.714h0.714v-1.429h-0.714v0.714H57.5v-0.714h0.714v-1.429h-1.429v-0.714H57.5v-1.429h-0.714v0.714h-0.714v-0.714h0.714
		v-1.429h-1.429v-0.714h0.714v-1.429h-1.429v-0.714h0.714v-1.429h-1.429v-0.714h0.714v-1.429h-1.429v-0.714h0.714v-1.429h-0.714
		v-0.714H52.5v-0.714h0.714v-2.143h-1.429v-0.714H52.5v-1.429h-0.714v-0.714H52.5v-1.429h-0.714v0.714h-0.714v-0.714h0.714v-1.429
		h-0.714v-0.714h0.714v-0.714h1.429v-2.143H52.5v1.429h-0.714v-0.714h-0.714v0.714h-0.714v-0.714h0.714v-2.143h-0.714v-0.714h0.714
		v-2.143h-0.714v-0.714h-0.714v-0.714h0.714v0.714h0.714v-1.429h-0.714v-1.429h-0.714v-0.714h0.714v-2.143h-0.714v-0.714h0.714
		v-2.143h-0.714V11.56h0.714v-1.429h-2.143V9.417H42.5v0.714h-2.143v10.714h0.714v0.714h0.714v0.714h-0.714v5.714h0.714v5H42.5
		v1.429h-0.714v-0.714h-0.714v2.857h2.143v2.857h0.714v2.857h0.714v2.143h0.714v2.143h0.714v2.143h0.715v2.143H47.5v2.143h0.714
		v1.429h0.714v2.143h0.714v1.429h0.714v0.714h-0.714v-0.714h-0.714v0.714h-0.714v0.714h0.714v0.714h0.714v-0.714h0.714v0.714h0.714
		v1.429h0.714v2.143H52.5v2.143h0.714v1.429h0.714v2.143h0.714v2.857h0.714v2.143h0.714v3.572h0.714v3.571H57.5v4.286h0.714v7.143
		h0.714v11.429h10v-0.714h-9.286v-0.714h1.429v-0.714h0.714v0.714h7.143v-4.286h-0.714v-0.714h0.714v-2.857h-0.714v-0.714h0.714
		v-2.143h-0.714v0.714H67.5v-0.714h0.714V91.56h0.714v-0.714h-0.714V90.131z M42.5,35.845h-0.714v-0.714H42.5V35.845z
		 M66.071,85.131v0.714h-0.714v-0.714H66.071z M63.214,69.417v1.429H62.5v-1.429H63.214z M62.5,67.274v1.429h-0.714v-1.429H62.5z
		 M61.072,62.988v0.714h-0.714v0.714h-0.715v-0.714h0.715v-0.714H61.072z M60.357,61.559v0.714h-0.715v-0.714H60.357z
		 M59.643,58.702v1.429h-0.714v-1.429H59.643z M58.928,74.417v0.714h-0.714v-0.714H58.928z M58.214,70.131v-0.714h0.714v0.714
		H58.214z M59.643,83.702v0.714h-0.714v-0.714H59.643z M58.928,57.274v0.714h-0.714v-0.714H58.928z M58.214,55.131v1.429H57.5
		v-1.429H58.214z M58.214,75.845v0.714H57.5v-0.714H58.214z M57.5,61.559h-0.714v-0.714H57.5V61.559z M57.5,53.702v0.714h-1.429
		v0.714h-0.714v-0.714h0.714v-0.714H57.5z M53.214,53.702h0.714v0.714h-0.714V53.702z M52.5,51.56v-0.714h0.714v0.714H52.5z
		 M53.929,55.845h0.714v0.714h-0.714V55.845z M54.643,61.559h0.714v0.714h-0.714V61.559z M56.071,67.988v0.714h-0.714v-0.714H56.071
		z M55.357,60.131v-0.714h0.714v0.714H55.357z M56.071,50.131v1.429h0.714v0.714h-0.714V51.56h-0.714v-1.429H56.071z M55.357,47.988
		v0.714h-0.714v-0.714H55.357z M54.643,45.845v1.429h-0.714v-0.714h-0.714v-0.714H54.643z M53.929,43.702v0.714h-0.714v-0.714
		H53.929z M53.214,42.274v0.714H52.5v-0.714H53.214z M52.5,40.131v0.714h-1.429v0.714h-0.714v-0.714h0.714v-0.714H52.5z
		 M49.643,32.274V31.56h0.714v0.714H49.643z M51.786,37.274v0.714h-0.714v-0.714H51.786z M51.072,34.417v0.714h-0.714v-0.714H51.072
		z M50.357,29.417v0.714h-1.429v-0.714H50.357z M49.643,43.702v0.714h-0.714v-0.714H49.643z M49.643,27.274h-0.714v-0.714h-0.714
		v-0.714h0.714v0.714h0.714V27.274z M48.929,19.417v0.714h-0.714v-0.714H48.929z M48.214,17.274V16.56h0.714v0.714H48.214z
		 M48.929,15.131v0.714h-0.714v-0.714H48.929z M41.786,10.845h6.429v0.714h-6.429V10.845z M44.643,30.845h0.714v0.714h-0.714V30.845
		z M43.929,30.131v-0.714h0.714v0.714H43.929z M45.357,32.988h1.429v-0.714H47.5v0.714h-0.714v0.714h-1.429V32.988z M45.357,12.988
		v-0.714h0.714v0.714H45.357z M41.786,13.702H42.5v0.714h-0.714V13.702z M41.786,17.988v-0.714H42.5v0.714H41.786z M42.5,26.559
		v-0.714h0.714v0.714H42.5z M43.214,32.274v-1.429h0.714v1.429H43.214z M43.929,35.131v-0.714h0.714v0.714H43.929z M44.643,38.702
		v-0.714h0.714v0.714H44.643z M45.357,41.559v-0.714h0.714v0.714H45.357z M46.071,43.702v-0.714h0.715v0.714H46.071z M46.786,45.845
		v-0.714H47.5v0.714H46.786z M47.5,47.988v-0.714h0.714v0.714H47.5z M48.214,50.131v-0.714h0.714v0.714H48.214z M48.929,52.274
		V51.56h0.714v0.714H48.929z M49.643,53.702v-0.714h0.714v-0.714h0.714v0.714h-0.714v0.714H49.643z M50.357,55.845v-0.714h0.714
		v0.714H50.357z M51.072,57.274V56.56h0.714v0.714H51.072z M51.786,59.417v-0.714H52.5v0.714H51.786z M52.5,61.559v-1.429h0.714
		v1.429H52.5z M53.214,62.988v-0.714h0.714v0.714H53.214z M53.929,65.131v-0.714h0.714v0.714H53.929z M54.643,67.274v-1.429h0.714
		v1.429H54.643z M56.071,71.56v-1.429h-0.714v-0.714h0.714v0.714h0.714v1.429H56.071z M56.786,73.702v-0.714H57.5v0.714H56.786z
		 M57.5,78.702v-0.714h0.714v0.714H57.5z M58.214,80.131v-0.714h0.714v0.714H58.214z M58.928,87.274v-0.714h0.714v0.714H58.928z
		 M60.357,90.845h-0.715v-1.429h0.715V90.845z M61.072,77.274h-0.714V76.56h0.714V77.274z M61.072,70.845h-0.714v-0.714h-0.715
		v-0.714h0.715v0.714h0.714V70.845z M61.072,68.702h-0.714v-0.714h0.714V68.702z M61.072,65.845v0.714h-0.714v-0.714H61.072v-0.714
		h0.714v0.714H61.072z M61.786,75.131H62.5v0.714h-0.714V75.131z M63.214,83.702H62.5v-0.714h0.714V83.702z M63.214,72.274h0.714
		v1.429h-0.714V72.274z M63.929,75.845h0.714v0.714h-0.714V75.845z M64.643,79.417h0.714v0.714h-0.714V79.417z M66.786,92.988
		h-0.714v-0.714h0.714V92.988z M66.786,90.131h-0.714v-0.714h0.714V90.131z M66.786,88.702h-1.429v-0.714h1.429V88.702z"/>
	<polygon points="56.786,82.274 56.071,82.274 56.071,86.559 57.5,86.559 57.5,85.845 56.786,85.845 	"/>
	<rect x="53.214" y="37.274" width="0.714" height="0.714"/>
	<rect x="53.929" y="72.274" width="0.714" height="2.143"/>
	<rect x="51.072" y="67.988" width="0.714" height="0.714"/>
	<rect x="45.357" y="49.417" width="0.714" height="1.429"/>
	<rect x="66.786" y="73.702" width="0.714" height="2.143"/>
	<rect x="67.5" y="75.845" width="0.714" height="0.714"/>
	<rect x="46.071" y="50.845" width="0.715" height="2.143"/>
	<rect x="43.214" y="42.274" width="0.714" height="2.143"/>
	<rect x="65.357" y="67.988" width="0.714" height="2.143"/>
	<rect x="58.928" y="50.845" width="0.714" height="1.429"/>
	<rect x="58.214" y="48.702" width="0.714" height="1.429"/>
	<rect x="59.643" y="52.274" width="0.715" height="1.429"/>
	<rect x="61.072" y="55.845" width="0.714" height="1.429"/>
	<rect x="65.357" y="72.988" width="0.714" height="0.714"/>
	<rect x="57.5" y="47.274" width="0.714" height="1.429"/>
	<rect x="58.928" y="47.988" width="0.714" height="0.714"/>
	<rect x="60.357" y="54.417" width="0.714" height="1.429"/>
	<rect x="64.643" y="70.131" width="0.714" height="0.714"/>
	<rect x="66.071" y="70.845" width="0.714" height="2.143"/>
	<rect x="61.786" y="57.988" width="0.714" height="1.429"/>
	<rect x="62.5" y="60.131" width="0.714" height="1.429"/>
	<rect x="63.214" y="61.559" width="0.714" height="1.429"/>
	<rect x="66.071" y="67.274" width="0.714" height="0.714"/>
	<rect x="71.786" y="90.845" width="0.714" height="0.714"/>
	<rect x="68.929" y="87.274" width="0.714" height="2.857"/>
	<rect x="69.643" y="90.131" width="0.714" height="1.429"/>
	<rect x="69.643" y="93.702" width="0.714" height="2.143"/>
	<rect x="70.357" y="80.131" width="0.714" height="0.714"/>
	<polygon points="67.5,78.702 68.214,78.702 68.214,77.988 68.929,77.988 68.929,77.274 67.5,77.274 	"/>
	<rect x="71.071" y="77.988" width="0.714" height="0.714"/>
	<rect x="68.214" y="81.559" width="0.714" height="2.143"/>
	<rect x="68.929" y="83.702" width="0.714" height="0.714"/>
	<rect x="53.214" y="32.274" width="0.714" height="2.143"/>
	<rect x="54.643" y="24.417" width="0.714" height="0.714"/>
	<rect x="56.071" y="31.56" width="0.714" height="0.714"/>
	<rect x="53.929" y="34.417" width="0.714" height="0.714"/>
	<polygon points="53.214,25.131 53.214,24.417 52.5,24.417 52.5,21.559 51.786,21.559 51.786,25.845 52.5,25.845 52.5,25.131 	"/>
	<rect x="52.5" y="28.702" width="0.714" height="2.143"/>
	<rect x="53.214" y="30.845" width="0.714" height="0.714"/>
	<rect x="51.786" y="17.988" width="0.714" height="2.857"/>
	<polygon points="51.786,15.131 52.5,15.131 52.5,13.702 51.786,13.702 51.786,10.131 51.072,10.131 51.072,17.988 51.786,17.988 	
		"/>
	<rect x="56.786" y="45.131" width="0.714" height="1.429"/>
	<rect x="53.929" y="35.845" width="0.714" height="1.429"/>
	<rect x="68.214" y="73.702" width="0.714" height="0.714"/>
	<polygon points="63.929,63.702 63.929,65.131 66.071,65.131 66.071,64.417 64.643,64.417 64.643,63.702 	"/>
	<rect x="68.214" y="70.845" width="1.429" height="0.714"/>
	<rect x="64.643" y="65.845" width="0.714" height="1.429"/>
	<rect x="56.071" y="42.988" width="0.714" height="1.429"/>
	<rect x="54.643" y="37.988" width="0.714" height="2.143"/>
	<rect x="56.786" y="38.702" width="0.714" height="0.714"/>
	<rect x="55.357" y="40.845" width="0.714" height="1.429"/>
</g>
</svg>
