<?xml version="1.0" encoding="iso-8859-1"?>
<!-- Generator: Adobe Illustrator 28.3.0, SVG Export Plug-In . SVG Version: 6.00 Build 0)  -->
<svg version="1.1" id="Layer_1" xmlns="http://www.w3.org/2000/svg" xmlns:xlink="http://www.w3.org/1999/xlink" x="0px" y="0px"
	 width="110px" height="110px" viewBox="0 0 110 110" enable-background="new 0 0 110 110" xml:space="preserve">
<g>
	<rect x="38.333" y="95.845" width="33.333" height="6.666"/>
	<path d="M98.333,49.179v-20h-6.667v-6.667H78.333v-6.666h-6.667V9.179H65v6.666h-6.667V9.179H45v6.666H25v6.666h-6.667v13.334
		h-6.667v13.334H5v13.333h6.666v13.334h6.667v13.334H25v6.666h13.333v-6.666h-6.667v-6.667H25v-6.666h6.666v6.666h6.667v6.667
		h33.333v-6.667h6.667v-6.666H85v6.666h-6.667v6.667h-6.667v6.666H85v-6.666h6.666V75.845h6.667V62.512H105V49.179H98.333z
		 M25,49.179h-6.667v-6.667H25V49.179z M91.666,55.845H85v-6.666h6.666V55.845z"/>
</g>
</svg>
