<?xml version="1.0" encoding="iso-8859-1"?>
<!-- Generator: Adobe Illustrator 28.3.0, SVG Export Plug-In . SVG Version: 6.00 Build 0)  -->
<svg version="1.1" id="Layer_1" xmlns="http://www.w3.org/2000/svg" xmlns:xlink="http://www.w3.org/1999/xlink" x="0px" y="0px"
	 width="110px" height="110px" viewBox="0 0 110 110" enable-background="new 0 0 110 110" xml:space="preserve">
<g>
	<rect x="52.059" y="24.228" width="0.735" height="0.735"/>
	<rect x="63.088" y="83.786" width="0.735" height="0.735"/>
	<rect x="65.294" y="19.816" width="0.735" height="1.471"/>
	<rect x="68.971" y="83.051" width="0.735" height="1.471"/>
	<rect x="61.618" y="83.786" width="0.735" height="0.735"/>
	<rect x="55.735" y="84.522" width="5.147" height="0.735"/>
	<rect x="52.794" y="23.492" width="0.735" height="0.735"/>
	<rect x="60.882" y="88.198" width="0.735" height="0.735"/>
	<rect x="61.618" y="28.639" width="0.735" height="0.735"/>
	<rect x="66.765" y="26.433" width="0.735" height="1.471"/>
	<rect x="62.353" y="24.963" width="0.735" height="0.735"/>
	<rect x="66.029" y="25.698" width="0.735" height="0.735"/>
	<rect x="63.088" y="25.698" width="0.735" height="0.735"/>
	<rect x="65.294" y="26.433" width="0.735" height="0.735"/>
	<rect x="63.824" y="24.963" width="0.735" height="0.735"/>
	<polygon points="53.529,24.963 59.412,24.963 59.412,25.698 60.147,25.698 60.147,24.963 60.882,24.963 60.882,25.698 
		61.618,25.698 61.618,24.963 62.353,24.963 62.353,24.228 56.471,24.228 56.471,23.492 55.735,23.492 55.735,24.228 55,24.228 
		55,23.492 54.265,23.492 54.265,24.228 53.529,24.228 	"/>
	<rect x="64.559" y="25.698" width="0.735" height="0.735"/>
	<rect x="63.088" y="82.316" width="0.735" height="0.735"/>
	<rect x="68.235" y="87.463" width="0.735" height="0.735"/>
	<rect x="55.735" y="88.933" width="0.735" height="0.735"/>
	<rect x="54.265" y="88.933" width="0.735" height="0.735"/>
	<rect x="66.765" y="88.198" width="0.735" height="0.735"/>
	<rect x="66.765" y="84.522" width="0.735" height="0.735"/>
	<rect x="68.235" y="85.992" width="0.735" height="0.735"/>
	<rect x="68.235" y="81.581" width="0.735" height="0.735"/>
	<rect x="67.5" y="83.786" width="0.735" height="0.735"/>
	<rect x="63.824" y="87.463" width="0.735" height="0.735"/>
	<rect x="66.029" y="86.728" width="0.735" height="0.735"/>
	<rect x="60.882" y="89.669" width="0.735" height="0.735"/>
	<rect x="52.059" y="15.404" width="0.735" height="0.735"/>
	<rect x="65.294" y="88.198" width="0.735" height="0.735"/>
	<rect x="64.559" y="88.933" width="0.735" height="0.735"/>
	<polygon points="59.412,90.404 60.147,90.404 60.147,88.933 57.206,88.933 57.206,89.669 57.941,89.669 57.941,90.404 
		58.676,90.404 58.676,89.669 59.412,89.669 	"/>
	<polygon points="61.618,86.728 61.618,85.992 60.882,85.992 60.882,86.728 60.147,86.728 60.147,85.992 59.412,85.992 
		59.412,86.728 53.529,86.728 53.529,87.463 54.265,87.463 54.265,88.198 55,88.198 55,87.463 55.735,87.463 55.735,88.198 
		56.471,88.198 56.471,87.463 62.353,87.463 62.353,86.728 	"/>
	<rect x="53.529" y="26.433" width="0.735" height="0.735"/>
	<rect x="54.265" y="84.522" width="0.735" height="0.735"/>
	<rect x="62.353" y="85.992" width="0.735" height="0.735"/>
	<rect x="52.059" y="86.728" width="0.735" height="0.735"/>
	<rect x="55" y="26.433" width="5.147" height="0.735"/>
	<rect x="52.794" y="87.463" width="0.735" height="0.735"/>
	<rect x="52.794" y="84.522" width="0.735" height="0.735"/>
	<rect x="63.824" y="85.992" width="0.735" height="0.735"/>
	<rect x="63.088" y="85.257" width="0.735" height="0.735"/>
	<rect x="65.294" y="84.522" width="0.735" height="0.735"/>
	<rect x="66.029" y="85.257" width="0.735" height="0.735"/>
	<rect x="51.324" y="84.522" width="0.735" height="0.735"/>
	<rect x="52.794" y="88.933" width="0.735" height="0.735"/>
	<rect x="64.559" y="85.257" width="0.735" height="0.735"/>
	<rect x="51.324" y="83.051" width="0.735" height="0.735"/>
	<rect x="68.235" y="84.522" width="0.735" height="0.735"/>
	<rect x="74.118" y="84.522" width="0.735" height="0.735"/>
	<rect x="71.912" y="87.463" width="0.735" height="1.471"/>
	<rect x="75.588" y="83.051" width="0.735" height="0.735"/>
	<rect x="72.647" y="85.257" width="0.735" height="0.735"/>
	<rect x="74.853" y="83.786" width="0.735" height="0.735"/>
	<rect x="77.059" y="80.11" width="0.735" height="0.735"/>
	<rect x="80" y="77.169" width="0.735" height="0.735"/>
	<rect x="68.971" y="88.933" width="0.735" height="0.735"/>
	<rect x="77.794" y="79.375" width="0.735" height="0.735"/>
	<rect x="85.882" y="66.875" width="0.735" height="1.471"/>
	<rect x="66.029" y="90.404" width="0.735" height="0.735"/>
	<rect x="64.559" y="90.404" width="0.735" height="0.735"/>
	<rect x="65.294" y="91.139" width="0.735" height="0.735"/>
	<rect x="72.647" y="91.139" width="0.735" height="0.735"/>
	<rect x="66.765" y="89.669" width="0.735" height="0.735"/>
	<rect x="71.176" y="85.992" width="0.735" height="0.735"/>
	<rect x="63.824" y="91.139" width="0.735" height="0.735"/>
	<rect x="71.176" y="90.404" width="0.735" height="2.206"/>
	<rect x="67.5" y="93.345" width="0.735" height="0.735"/>
	<rect x="78.529" y="78.639" width="0.735" height="0.735"/>
	<rect x="85.147" y="69.081" width="0.735" height="0.735"/>
	<rect x="88.088" y="52.169" width="0.735" height="8.824"/>
	<rect x="87.353" y="61.728" width="0.735" height="2.206"/>
	<rect x="88.824" y="49.228" width="0.735" height="0.735"/>
	<rect x="71.912" y="28.639" width="0.735" height="0.735"/>
	<rect x="71.176" y="29.375" width="0.735" height="0.735"/>
	<rect x="87.353" y="66.875" width="0.735" height="1.471"/>
	<rect x="88.088" y="63.933" width="0.735" height="2.206"/>
	<rect x="72.647" y="29.375" width="0.735" height="1.471"/>
	<rect x="88.824" y="60.992" width="0.735" height="2.206"/>
	<rect x="82.941" y="72.757" width="0.735" height="0.735"/>
	<rect x="83.676" y="72.022" width="0.735" height="0.735"/>
	<rect x="84.412" y="70.551" width="0.735" height="0.735"/>
	<rect x="84.412" y="73.492" width="0.735" height="0.735"/>
	<rect x="85.882" y="70.551" width="0.735" height="1.471"/>
	<rect x="85.147" y="72.022" width="0.735" height="1.471"/>
	<rect x="86.618" y="69.081" width="0.735" height="1.471"/>
	<rect x="86.618" y="64.669" width="0.735" height="1.471"/>
	<rect x="57.206" y="95.551" width="0.735" height="0.735"/>
	<rect x="49.853" y="19.081" width="0.735" height="0.735"/>
	<rect x="53.529" y="15.404" width="0.735" height="0.735"/>
	<rect x="63.824" y="19.816" width="0.735" height="1.471"/>
	<polygon points="53.529,18.345 52.794,18.345 52.794,19.816 60.882,19.816 60.882,20.551 61.618,20.551 61.618,19.816 
		62.353,19.816 62.353,20.551 63.088,20.551 63.088,19.816 63.824,19.816 63.824,19.081 59.412,19.081 59.412,18.345 57.206,18.345 
		57.206,19.081 56.471,19.081 56.471,18.345 55.735,18.345 55.735,19.081 55,19.081 55,18.345 54.265,18.345 54.265,19.081 
		53.529,19.081 	"/>
	<rect x="48.382" y="19.081" width="0.735" height="1.471"/>
	<rect x="51.324" y="22.022" width="0.735" height="0.735"/>
	<rect x="48.382" y="22.757" width="0.735" height="0.735"/>
	<rect x="47.647" y="21.286" width="0.735" height="0.735"/>
	<rect x="46.912" y="19.081" width="0.735" height="1.471"/>
	<rect x="56.471" y="16.875" width="0.735" height="0.735"/>
	<rect x="60.882" y="21.286" width="0.735" height="0.735"/>
	<rect x="55" y="16.875" width="0.735" height="0.735"/>
	<rect x="54.265" y="22.022" width="0.735" height="0.735"/>
	<rect x="52.794" y="22.022" width="0.735" height="0.735"/>
	<rect x="55.735" y="22.022" width="2.941" height="0.735"/>
	<rect x="50.588" y="21.286" width="0.735" height="0.735"/>
	<rect x="57.941" y="16.875" width="0.735" height="0.735"/>
	<rect x="59.412" y="16.875" width="0.735" height="0.735"/>
	<rect x="63.088" y="88.933" width="0.735" height="0.735"/>
	<polygon points="63.088,91.139 62.353,91.139 62.353,91.875 61.618,91.875 61.618,91.139 60.882,91.139 60.882,91.875 
		52.059,91.875 52.059,93.345 52.794,93.345 52.794,92.61 53.529,92.61 53.529,93.345 54.265,93.345 54.265,92.61 55,92.61 
		55,93.345 55.735,93.345 55.735,92.61 56.471,92.61 56.471,93.345 58.676,93.345 58.676,92.61 63.088,92.61 	"/>
	<rect x="62.353" y="94.816" width="0.735" height="0.735"/>
	<polygon points="60.882,95.551 61.618,95.551 61.618,94.081 55.735,94.081 55.735,94.816 59.412,94.816 59.412,95.551 
		60.147,95.551 60.147,94.816 60.882,94.816 	"/>
	<rect x="52.794" y="16.875" width="0.735" height="0.735"/>
	<rect x="62.353" y="93.345" width="0.735" height="0.735"/>
	<rect x="68.235" y="89.669" width="0.735" height="0.735"/>
	<rect x="67.5" y="90.404" width="0.735" height="0.735"/>
	<rect x="66.029" y="92.61" width="0.735" height="0.735"/>
	<rect x="62.353" y="88.198" width="0.735" height="0.735"/>
	<rect x="52.059" y="26.433" width="0.735" height="0.735"/>
	<rect x="49.853" y="22.022" width="0.735" height="0.735"/>
	<rect x="50.588" y="26.433" width="0.735" height="0.735"/>
	<rect x="51.324" y="27.169" width="0.735" height="0.735"/>
	<rect x="49.118" y="21.286" width="0.735" height="0.735"/>
	<rect x="55.735" y="95.551" width="0.735" height="0.735"/>
	<rect x="52.794" y="94.081" width="0.735" height="0.735"/>
	<rect x="54.265" y="94.081" width="0.735" height="0.735"/>
	<rect x="54.265" y="95.551" width="0.735" height="0.735"/>
	<rect x="45.441" y="19.816" width="0.735" height="0.735"/>
	<rect x="74.118" y="90.404" width="0.735" height="0.735"/>
	<rect x="75.588" y="95.551" width="0.735" height="0.735"/>
	<rect x="74.853" y="91.875" width="0.735" height="1.471"/>
	<rect x="74.853" y="18.345" width="0.735" height="1.471"/>
	<rect x="70.441" y="97.757" width="0.735" height="0.735"/>
	<rect x="69.706" y="98.492" width="0.735" height="0.735"/>
	<rect x="70.441" y="96.286" width="0.735" height="0.735"/>
	<rect x="74.118" y="94.816" width="0.735" height="0.735"/>
	<rect x="68.235" y="8.051" width="0.735" height="0.735"/>
	<rect x="74.118" y="96.286" width="0.735" height="0.735"/>
	<rect x="70.441" y="88.198" width="0.735" height="1.471"/>
	<rect x="75.588" y="89.669" width="0.735" height="0.735"/>
	<rect x="53.529" y="5.845" width="0.735" height="0.735"/>
	<rect x="52.059" y="5.845" width="0.735" height="0.735"/>
	<rect x="74.853" y="12.463" width="0.735" height="1.471"/>
	<rect x="74.118" y="11.728" width="0.735" height="0.735"/>
	<rect x="73.382" y="12.463" width="0.735" height="0.735"/>
	<rect x="60.882" y="6.581" width="0.735" height="0.735"/>
	<rect x="57.941" y="5.845" width="1.471" height="0.735"/>
	<rect x="65.294" y="7.316" width="0.735" height="0.735"/>
	<rect x="56.471" y="5.845" width="0.735" height="0.735"/>
	<rect x="55" y="5.845" width="0.735" height="0.735"/>
	<rect x="43.971" y="27.904" width="0.735" height="0.735"/>
	<rect x="40.294" y="29.375" width="0.735" height="0.735"/>
	<rect x="39.559" y="27.169" width="0.735" height="0.735"/>
	<rect x="38.824" y="27.904" width="0.735" height="1.471"/>
	<rect x="40.294" y="27.904" width="0.735" height="0.735"/>
	<rect x="41.029" y="26.433" width="0.735" height="1.471"/>
	<rect x="27.059" y="44.816" width="0.735" height="1.471"/>
	<rect x="27.059" y="60.257" width="0.735" height="0.735"/>
	<rect x="25.588" y="49.963" width="0.735" height="11.029"/>
	<rect x="26.324" y="47.022" width="0.735" height="2.206"/>
	<rect x="41.765" y="28.639" width="0.735" height="0.735"/>
	<rect x="27.059" y="58.786" width="0.735" height="0.735"/>
	<rect x="49.118" y="85.992" width="0.735" height="1.471"/>
	<rect x="72.647" y="11.728" width="0.735" height="0.735"/>
	<rect x="66.029" y="97.757" width="0.735" height="0.735"/>
	<rect x="66.765" y="99.228" width="0.735" height="0.735"/>
	<rect x="66.765" y="95.551" width="0.735" height="1.471"/>
	<rect x="68.235" y="94.816" width="0.735" height="1.471"/>
	<rect x="65.294" y="95.551" width="0.735" height="1.471"/>
	<rect x="44.706" y="29.375" width="0.735" height="0.735"/>
	<rect x="49.853" y="94.081" width="0.735" height="0.735"/>
	<rect x="44.706" y="81.581" width="0.735" height="0.735"/>
	<rect x="68.971" y="97.022" width="0.735" height="0.735"/>
	<rect x="70.441" y="10.992" width="0.735" height="0.735"/>
	<rect x="41.029" y="9.522" width="0.735" height="0.735"/>
	<rect x="40.294" y="8.051" width="0.735" height="0.735"/>
	<rect x="41.765" y="10.257" width="0.735" height="0.735"/>
	<rect x="42.5" y="7.316" width="0.735" height="0.735"/>
	<rect x="42.5" y="9.522" width="0.735" height="0.735"/>
	<rect x="41.765" y="8.051" width="0.735" height="0.735"/>
	<rect x="43.235" y="15.404" width="0.735" height="0.735"/>
	<rect x="43.971" y="14.669" width="0.735" height="0.735"/>
	<rect x="41.765" y="15.404" width="0.735" height="0.735"/>
	<rect x="42.5" y="11.728" width="0.735" height="0.735"/>
	<rect x="42.5" y="14.669" width="0.735" height="0.735"/>
	<rect x="36.618" y="8.786" width="0.735" height="1.471"/>
	<rect x="64.559" y="81.581" width="0.735" height="0.735"/>
	<rect x="36.618" y="11.728" width="0.735" height="0.735"/>
	<rect x="40.294" y="10.257" width="0.735" height="1.471"/>
	<rect x="36.618" y="13.933" width="0.735" height="0.735"/>
	<rect x="71.912" y="10.992" width="0.735" height="0.735"/>
	<rect x="37.353" y="10.992" width="0.735" height="0.735"/>
	<rect x="38.824" y="8.786" width="0.735" height="0.735"/>
	<rect x="38.824" y="10.257" width="0.735" height="1.471"/>
	<rect x="39.559" y="12.463" width="0.735" height="0.735"/>
	<rect x="43.971" y="11.728" width="0.735" height="1.471"/>
	<rect x="36.618" y="15.404" width="0.735" height="0.735"/>
	<rect x="66.029" y="9.522" width="0.735" height="0.735"/>
	<rect x="66.765" y="10.257" width="0.735" height="0.735"/>
	<rect x="67.5" y="9.522" width="0.735" height="0.735"/>
	<polygon points="49.853,9.522 63.088,9.522 63.088,10.257 63.824,10.257 63.824,9.522 64.559,9.522 64.559,10.257 65.294,10.257 
		65.294,9.522 66.029,9.522 66.029,8.786 62.353,8.786 62.353,8.051 54.265,8.051 54.265,8.786 53.529,8.786 53.529,8.051 
		52.794,8.051 52.794,8.786 52.059,8.786 52.059,8.051 51.324,8.051 51.324,8.786 50.588,8.786 50.588,8.051 49.853,8.051 	"/>
	<rect x="49.118" y="6.581" width="0.735" height="0.735"/>
	<rect x="68.235" y="10.257" width="0.735" height="0.735"/>
	<rect x="71.176" y="11.728" width="0.735" height="0.735"/>
	<rect x="29.265" y="40.404" width="0.735" height="0.735"/>
	<rect x="69.706" y="10.257" width="0.735" height="0.735"/>
	<rect x="43.971" y="8.786" width="0.735" height="1.471"/>
	<rect x="68.971" y="10.992" width="0.735" height="0.735"/>
	<rect x="48.382" y="8.051" width="0.735" height="1.471"/>
	<rect x="45.441" y="13.933" width="0.735" height="1.471"/>
	<rect x="45.441" y="12.463" width="0.735" height="0.735"/>
	<rect x="45.441" y="17.61" width="0.735" height="0.735"/>
	<rect x="44.706" y="16.875" width="0.735" height="0.735"/>
	<rect x="47.647" y="6.581" width="0.735" height="0.735"/>
	<rect x="43.971" y="7.316" width="0.735" height="0.735"/>
	<rect x="46.176" y="6.581" width="0.735" height="0.735"/>
	<rect x="46.912" y="8.786" width="0.735" height="0.735"/>
	<rect x="45.441" y="8.786" width="0.735" height="1.471"/>
	<rect x="45.441" y="10.992" width="0.735" height="0.735"/>
	<rect x="38.088" y="11.728" width="0.735" height="0.735"/>
	<rect x="75.588" y="36.728" width="0.735" height="0.735"/>
	<rect x="79.265" y="72.022" width="0.735" height="0.735"/>
	<rect x="82.206" y="66.139" width="0.735" height="0.735"/>
	<rect x="75.588" y="74.228" width="0.735" height="0.735"/>
	<rect x="81.471" y="65.404" width="0.735" height="0.735"/>
	<rect x="82.206" y="60.992" width="0.735" height="0.735"/>
	<rect x="72.647" y="78.639" width="0.735" height="0.735"/>
	<rect x="70.441" y="33.051" width="0.735" height="0.735"/>
	<rect x="71.912" y="79.375" width="0.735" height="0.735"/>
	<rect x="70.441" y="77.904" width="0.735" height="0.735"/>
	<rect x="71.176" y="80.11" width="0.735" height="0.735"/>
	<rect x="69.706" y="21.286" width="0.735" height="1.471"/>
	<rect x="68.235" y="21.286" width="0.735" height="1.471"/>
	<rect x="71.176" y="22.022" width="0.735" height="0.735"/>
	<rect x="71.912" y="22.757" width="0.735" height="1.471"/>
	<rect x="69.706" y="80.845" width="0.735" height="0.735"/>
	<rect x="70.441" y="22.757" width="0.735" height="0.735"/>
	<rect x="83.676" y="50.698" width="0.735" height="11.029"/>
	<rect x="82.941" y="62.463" width="0.735" height="2.206"/>
	<rect x="80.735" y="69.081" width="0.735" height="1.471"/>
	<rect x="80" y="70.551" width="0.735" height="0.735"/>
	<rect x="81.471" y="67.61" width="0.735" height="1.471"/>
	<rect x="50.588" y="91.875" width="0.735" height="1.471"/>
	<rect x="50.588" y="11.728" width="0.735" height="0.735"/>
	<rect x="50.588" y="86.728" width="0.735" height="0.735"/>
	<rect x="49.118" y="26.433" width="0.735" height="0.735"/>
	<rect x="49.853" y="84.522" width="0.735" height="0.735"/>
	<rect x="51.324" y="18.345" width="0.735" height="1.471"/>
	<rect x="49.853" y="28.639" width="0.735" height="0.735"/>
	<rect x="51.324" y="16.875" width="0.735" height="0.735"/>
	<rect x="64.559" y="29.375" width="0.735" height="0.735"/>
	<rect x="64.559" y="83.051" width="0.735" height="0.735"/>
	<rect x="66.765" y="82.316" width="0.735" height="0.735"/>
	<rect x="66.765" y="20.551" width="0.735" height="1.471"/>
	<rect x="51.324" y="94.081" width="0.735" height="0.735"/>
	<rect x="68.971" y="92.61" width="0.735" height="0.735"/>
	<rect x="69.706" y="94.081" width="0.735" height="1.471"/>
	<rect x="68.971" y="91.139" width="0.735" height="0.735"/>
	<rect x="70.441" y="84.522" width="0.735" height="0.735"/>
	<rect x="28.529" y="41.139" width="0.735" height="1.471"/>
	<rect x="65.294" y="94.081" width="0.735" height="0.735"/>
	<rect x="64.559" y="92.61" width="0.735" height="0.735"/>
	<rect x="51.324" y="88.933" width="0.735" height="0.735"/>
	<rect x="63.824" y="93.345" width="0.735" height="1.471"/>
	<rect x="69.706" y="85.257" width="0.735" height="0.735"/>
	<rect x="69.706" y="86.728" width="0.735" height="0.735"/>
	<rect x="39.559" y="18.345" width="0.735" height="0.735"/>
	<rect x="39.559" y="19.816" width="0.735" height="0.735"/>
	<rect x="40.294" y="23.492" width="0.735" height="0.735"/>
	<rect x="38.824" y="33.051" width="0.735" height="0.735"/>
	<rect x="41.029" y="19.081" width="0.735" height="0.735"/>
	<rect x="41.029" y="24.963" width="0.735" height="0.735"/>
	<rect x="41.765" y="20.551" width="0.735" height="1.471"/>
	<rect x="39.559" y="25.698" width="0.735" height="0.735"/>
	<rect x="40.294" y="21.286" width="0.735" height="0.735"/>
	<rect x="38.824" y="24.228" width="0.735" height="0.735"/>
	<rect x="39.559" y="22.022" width="0.735" height="0.735"/>
	<rect x="38.824" y="30.11" width="0.735" height="0.735"/>
	<rect x="36.618" y="27.169" width="0.735" height="0.735"/>
	<rect x="49.853" y="10.257" width="0.735" height="0.735"/>
	<rect x="35.882" y="27.904" width="0.735" height="0.735"/>
	<rect x="35.147" y="26.433" width="0.735" height="0.735"/>
	<rect x="38.824" y="77.904" width="0.735" height="0.735"/>
	<rect x="27.794" y="42.61" width="0.735" height="1.471"/>
	<rect x="42.5" y="24.228" width="0.735" height="0.735"/>
	<rect x="38.088" y="30.845" width="0.735" height="0.735"/>
	<rect x="37.353" y="24.963" width="0.735" height="0.735"/>
	<rect x="38.088" y="26.433" width="0.735" height="0.735"/>
	<rect x="35.882" y="25.698" width="0.735" height="0.735"/>
	<rect x="49.118" y="16.139" width="0.735" height="0.735"/>
	<rect x="48.382" y="13.933" width="0.735" height="0.735"/>
	<rect x="46.912" y="22.757" width="0.735" height="0.735"/>
	<rect x="46.176" y="16.139" width="0.735" height="0.735"/>
	<rect x="46.912" y="17.61" width="0.735" height="0.735"/>
	<rect x="46.912" y="13.933" width="0.735" height="1.471"/>
	<rect x="49.118" y="11.728" width="0.735" height="0.735"/>
	<rect x="49.853" y="13.198" width="0.735" height="1.471"/>
	<rect x="49.853" y="16.875" width="0.735" height="0.735"/>
	<rect x="47.647" y="16.139" width="0.735" height="0.735"/>
	<rect x="48.382" y="16.875" width="0.735" height="0.735"/>
	<rect x="70.441" y="27.904" width="0.735" height="1.471"/>
	<rect x="44.706" y="22.022" width="0.735" height="0.735"/>
	<rect x="44.706" y="23.492" width="0.735" height="0.735"/>
	<rect x="46.176" y="22.022" width="0.735" height="0.735"/>
	<rect x="42.5" y="17.61" width="0.735" height="1.471"/>
	<rect x="43.235" y="16.875" width="0.735" height="0.735"/>
	<rect x="43.971" y="18.345" width="0.735" height="0.735"/>
	<rect x="43.971" y="19.816" width="0.735" height="0.735"/>
	<rect x="42.5" y="22.757" width="0.735" height="0.735"/>
	<rect x="43.235" y="20.551" width="0.735" height="0.735"/>
	<rect x="44.706" y="20.551" width="0.735" height="0.735"/>
	<rect x="37.353" y="28.639" width="0.735" height="1.471"/>
	<rect x="49.118" y="97.757" width="0.735" height="0.735"/>
	<rect x="49.853" y="97.022" width="0.735" height="0.735"/>
	<rect x="48.382" y="97.022" width="0.735" height="0.735"/>
	<polygon points="64.559,96.286 63.824,96.286 63.824,97.022 63.088,97.022 63.088,96.286 62.353,96.286 62.353,97.022 
		51.324,97.022 51.324,97.757 52.059,97.757 52.059,98.492 52.794,98.492 52.794,97.757 53.529,97.757 53.529,98.492 54.265,98.492 
		54.265,97.757 55,97.757 55,98.492 60.147,98.492 60.147,97.757 64.559,97.757 	"/>
	<rect x="50.588" y="97.757" width="0.735" height="0.735"/>
	<rect x="91.029" y="68.345" width="0.735" height="1.471"/>
	<rect x="68.235" y="98.492" width="0.735" height="0.735"/>
	<rect x="61.618" y="99.228" width="0.735" height="1.471"/>
	<rect x="63.088" y="99.963" width="0.735" height="0.735"/>
	<rect x="65.294" y="99.228" width="0.735" height="0.735"/>
	<rect x="63.088" y="98.492" width="0.735" height="0.735"/>
	<rect x="58.676" y="99.228" width="0.735" height="0.735"/>
	<rect x="49.853" y="100.698" width="0.735" height="0.735"/>
	<rect x="49.853" y="99.228" width="0.735" height="0.735"/>
	<rect x="47.647" y="82.316" width="0.735" height="0.735"/>
	<rect x="47.647" y="27.169" width="0.735" height="1.471"/>
	<rect x="51.324" y="100.698" width="0.735" height="0.735"/>
	<rect x="57.206" y="100.698" width="2.941" height="0.735"/>
	<rect x="60.147" y="99.228" width="0.735" height="0.735"/>
	<rect x="47.647" y="85.992" width="0.735" height="1.471"/>
	<rect x="54.265" y="100.698" width="0.735" height="0.735"/>
	<rect x="55.735" y="100.698" width="0.735" height="0.735"/>
	<rect x="52.794" y="100.698" width="0.735" height="0.735"/>
	<rect x="67.5" y="97.757" width="0.735" height="0.735"/>
	<rect x="89.559" y="72.022" width="0.735" height="0.735"/>
	<rect x="88.824" y="73.492" width="0.735" height="0.735"/>
	<rect x="87.353" y="75.698" width="0.735" height="0.735"/>
	<rect x="88.088" y="74.963" width="0.735" height="0.735"/>
	<rect x="93.235" y="50.698" width="0.735" height="0.735"/>
	<rect x="93.235" y="52.169" width="0.735" height="10.294"/>
	<rect x="33.676" y="32.316" width="0.735" height="0.735"/>
	<rect x="91.765" y="69.816" width="0.735" height="1.471"/>
	<rect x="91.765" y="66.139" width="0.735" height="1.471"/>
	<rect x="72.647" y="94.081" width="0.735" height="0.735"/>
	<rect x="93.971" y="62.463" width="0.735" height="2.206"/>
	<rect x="77.059" y="88.933" width="0.735" height="0.735"/>
	<rect x="71.176" y="94.081" width="0.735" height="0.735"/>
	<rect x="72.647" y="97.022" width="0.735" height="0.735"/>
	<rect x="73.382" y="92.61" width="0.735" height="1.471"/>
	<rect x="71.912" y="93.345" width="0.735" height="0.735"/>
	<rect x="72.647" y="95.551" width="0.735" height="0.735"/>
	<rect x="77.059" y="94.816" width="0.735" height="0.735"/>
	<rect x="78.529" y="87.463" width="0.735" height="0.735"/>
	<rect x="77.794" y="88.198" width="0.735" height="0.735"/>
	<rect x="75.588" y="94.081" width="0.735" height="0.735"/>
	<rect x="76.324" y="93.345" width="0.735" height="0.735"/>
	<rect x="64.559" y="98.492" width="0.735" height="0.735"/>
	<rect x="30" y="38.933" width="0.735" height="0.735"/>
	<rect x="35.147" y="33.051" width="0.735" height="0.735"/>
	<rect x="34.412" y="33.786" width="0.735" height="0.735"/>
	<rect x="34.412" y="28.639" width="0.735" height="1.471"/>
	<rect x="32.941" y="35.257" width="0.735" height="0.735"/>
	<rect x="35.882" y="32.316" width="0.735" height="0.735"/>
	<rect x="36.618" y="31.581" width="0.735" height="0.735"/>
	<rect x="36.618" y="30.11" width="0.735" height="0.735"/>
	<rect x="36.618" y="16.875" width="0.735" height="1.471"/>
	<rect x="35.882" y="29.375" width="0.735" height="0.735"/>
	<rect x="35.147" y="30.11" width="0.735" height="1.471"/>
	<rect x="33.676" y="34.522" width="0.735" height="0.735"/>
	<rect x="30.735" y="38.198" width="0.735" height="0.735"/>
	<rect x="32.206" y="32.316" width="0.735" height="0.735"/>
	<rect x="31.471" y="34.522" width="0.735" height="1.471"/>
	<rect x="32.206" y="33.786" width="0.735" height="0.735"/>
	<rect x="32.941" y="33.051" width="0.735" height="0.735"/>
	<rect x="32.941" y="31.581" width="0.735" height="0.735"/>
	<rect x="32.206" y="35.992" width="0.735" height="0.735"/>
	<rect x="30.735" y="35.992" width="0.735" height="0.735"/>
	<rect x="30" y="36.728" width="0.735" height="0.735"/>
	<rect x="31.471" y="36.728" width="0.735" height="1.471"/>
	<rect x="46.912" y="24.963" width="0.735" height="0.735"/>
	<rect x="47.647" y="88.198" width="0.735" height="0.735"/>
	<rect x="46.176" y="25.698" width="0.735" height="0.735"/>
	<rect x="29.265" y="33.786" width="0.735" height="0.735"/>
	<rect x="69.706" y="27.169" width="0.735" height="0.735"/>
	<rect x="45.441" y="24.963" width="0.735" height="0.735"/>
	<rect x="50.588" y="24.228" width="0.735" height="0.735"/>
	<rect x="42.5" y="26.433" width="0.735" height="0.735"/>
	<rect x="44.706" y="25.698" width="0.735" height="0.735"/>
	<rect x="48.382" y="89.669" width="0.735" height="0.735"/>
	<rect x="43.971" y="26.433" width="0.735" height="0.735"/>
	<rect x="43.235" y="25.698" width="0.735" height="0.735"/>
	<rect x="49.853" y="24.963" width="0.735" height="0.735"/>
	<rect x="49.118" y="24.228" width="0.735" height="0.735"/>
	<rect x="43.971" y="84.522" width="0.735" height="0.735"/>
	<rect x="44.706" y="85.257" width="0.735" height="1.471"/>
	<rect x="42.5" y="83.786" width="0.735" height="1.471"/>
	<rect x="27.059" y="36.728" width="0.735" height="0.735"/>
	<rect x="43.235" y="85.257" width="0.735" height="0.735"/>
	<rect x="48.382" y="24.963" width="0.735" height="0.735"/>
	<rect x="46.176" y="27.169" width="0.735" height="0.735"/>
	<rect x="46.176" y="82.316" width="0.735" height="0.735"/>
	<rect x="46.176" y="85.257" width="0.735" height="1.471"/>
	<rect x="92.5" y="67.61" width="0.735" height="2.206"/>
	<rect x="77.794" y="84.522" width="0.735" height="0.735"/>
	<rect x="79.265" y="82.316" width="0.735" height="1.471"/>
	<rect x="78.529" y="83.786" width="0.735" height="0.735"/>
	<rect x="80" y="79.375" width="0.735" height="0.735"/>
	<rect x="80" y="80.845" width="0.735" height="1.471"/>
	<rect x="77.059" y="85.257" width="0.735" height="2.206"/>
	<rect x="83.676" y="74.963" width="0.735" height="0.735"/>
	<rect x="77.059" y="82.316" width="0.735" height="0.735"/>
	<rect x="77.794" y="83.051" width="0.735" height="0.735"/>
	<rect x="76.324" y="84.522" width="0.735" height="0.735"/>
	<rect x="77.059" y="83.786" width="0.735" height="0.735"/>
	<rect x="81.471" y="77.904" width="0.735" height="0.735"/>
	<rect x="82.206" y="76.433" width="0.735" height="1.471"/>
	<rect x="77.794" y="81.581" width="0.735" height="0.735"/>
	<rect x="82.941" y="77.904" width="0.735" height="0.735"/>
	<rect x="80.735" y="78.639" width="0.735" height="0.735"/>
	<rect x="81.471" y="79.375" width="0.735" height="2.941"/>
	<rect x="83.676" y="77.169" width="0.735" height="0.735"/>
	<rect x="82.941" y="75.698" width="0.735" height="0.735"/>
	<rect x="82.941" y="79.375" width="0.735" height="1.471"/>
	<rect x="82.206" y="78.639" width="0.735" height="0.735"/>
	<rect x="90.294" y="69.816" width="0.735" height="1.471"/>
	<rect x="84.412" y="77.904" width="0.735" height="0.735"/>
	<rect x="83.676" y="11.728" width="0.735" height="0.735"/>
	<rect x="76.324" y="13.198" width="0.735" height="1.471"/>
	<rect x="77.794" y="13.933" width="0.735" height="1.471"/>
	<rect x="86.618" y="77.169" width="0.735" height="0.735"/>
	<rect x="84.412" y="33.051" width="0.735" height="0.735"/>
	<rect x="80.735" y="82.316" width="0.735" height="0.735"/>
	<rect x="96.176" y="27.169" width="0.735" height="0.735"/>
	<rect x="78.529" y="80.845" width="0.735" height="0.735"/>
	<rect x="103.529" y="48.492" width="0.735" height="0.735"/>
	<rect x="80" y="84.522" width="0.735" height="0.735"/>
	<rect x="91.029" y="19.081" width="0.735" height="0.735"/>
	<rect x="88.824" y="17.61" width="0.735" height="0.735"/>
	<rect x="102.794" y="38.933" width="0.735" height="0.735"/>
	<rect x="74.118" y="85.992" width="0.735" height="0.735"/>
	<rect x="80.735" y="83.786" width="0.735" height="0.735"/>
	<rect x="74.853" y="86.728" width="0.735" height="0.735"/>
	<rect x="74.118" y="88.198" width="0.735" height="0.735"/>
	<rect x="75.588" y="85.257" width="0.735" height="1.471"/>
	<rect x="73.382" y="86.728" width="0.735" height="1.471"/>
	<rect x="78.529" y="85.257" width="0.735" height="0.735"/>
	<rect x="75.588" y="87.463" width="0.735" height="1.471"/>
	<rect x="73.382" y="88.933" width="0.735" height="0.735"/>
	<rect x="72.647" y="89.669" width="0.735" height="0.735"/>
	<rect x="83.676" y="78.639" width="0.735" height="0.735"/>
	<rect x="81.471" y="30.845" width="0.735" height="0.735"/>
	<rect x="82.206" y="31.581" width="0.735" height="0.735"/>
	<rect x="80.735" y="30.11" width="0.735" height="0.735"/>
	<rect x="78.529" y="27.169" width="0.735" height="1.471"/>
	<rect x="80" y="29.375" width="0.735" height="0.735"/>
	<rect x="79.265" y="28.639" width="0.735" height="0.735"/>
	<rect x="85.147" y="35.257" width="0.735" height="1.471"/>
	<rect x="85.882" y="36.728" width="0.735" height="0.735"/>
	<rect x="83.676" y="33.786" width="0.735" height="0.735"/>
	<rect x="84.412" y="34.522" width="0.735" height="0.735"/>
	<rect x="82.941" y="32.316" width="0.735" height="1.471"/>
	<rect x="74.853" y="24.228" width="0.735" height="0.735"/>
	<rect x="74.118" y="24.963" width="0.735" height="0.735"/>
	<rect x="86.618" y="37.463" width="0.735" height="1.471"/>
	<rect x="93.235" y="65.404" width="0.735" height="2.206"/>
	<rect x="73.382" y="23.492" width="0.735" height="1.471"/>
	<rect x="92.5" y="63.198" width="0.735" height="2.206"/>
	<rect x="76.324" y="26.433" width="0.735" height="0.735"/>
	<rect x="75.588" y="24.963" width="0.735" height="1.471"/>
	<rect x="77.794" y="26.433" width="0.735" height="0.735"/>
	<rect x="77.059" y="25.698" width="0.735" height="0.735"/>
	<rect x="77.059" y="27.169" width="0.735" height="0.735"/>
	<rect x="89.559" y="65.404" width="0.735" height="2.206"/>
	<rect x="84.412" y="76.433" width="0.735" height="0.735"/>
	<rect x="85.147" y="77.169" width="0.735" height="0.735"/>
	<rect x="85.147" y="74.963" width="0.735" height="1.471"/>
	<rect x="85.882" y="77.904" width="0.735" height="0.735"/>
	<rect x="85.882" y="74.228" width="0.735" height="0.735"/>
	<rect x="86.618" y="72.757" width="0.735" height="1.471"/>
	<rect x="82.206" y="82.316" width="0.735" height="0.735"/>
	<rect x="82.941" y="81.581" width="0.735" height="0.735"/>
	<rect x="84.412" y="80.11" width="0.735" height="0.735"/>
	<rect x="83.676" y="80.845" width="0.735" height="0.735"/>
	<rect x="85.147" y="78.639" width="0.735" height="1.471"/>
	<rect x="87.353" y="38.933" width="0.735" height="1.471"/>
	<rect x="89.559" y="44.081" width="0.735" height="2.941"/>
	<rect x="90.294" y="47.022" width="0.735" height="2.941"/>
	<rect x="87.353" y="71.286" width="0.735" height="1.471"/>
	<rect x="88.824" y="42.61" width="0.735" height="1.471"/>
	<rect x="88.088" y="40.404" width="0.735" height="2.206"/>
	<rect x="91.029" y="49.963" width="0.735" height="11.765"/>
	<rect x="88.824" y="67.61" width="0.735" height="2.206"/>
	<rect x="88.088" y="69.816" width="0.735" height="1.471"/>
	<rect x="81.471" y="83.051" width="0.735" height="0.735"/>
	<rect x="90.294" y="61.728" width="0.735" height="3.676"/>
	<rect x="47.647" y="24.228" width="0.735" height="0.735"/>
	<rect x="75.588" y="80.845" width="0.735" height="0.735"/>
	<rect x="72.647" y="83.051" width="0.735" height="0.735"/>
	<rect x="71.912" y="83.786" width="0.735" height="0.735"/>
	<rect x="71.176" y="81.581" width="0.735" height="0.735"/>
	<rect x="70.441" y="82.316" width="0.735" height="1.471"/>
	<rect x="63.088" y="10.992" width="0.735" height="0.735"/>
	<rect x="71.912" y="82.316" width="0.735" height="0.735"/>
	<rect x="82.206" y="74.228" width="0.735" height="0.735"/>
	<rect x="60.882" y="11.728" width="0.735" height="0.735"/>
	<rect x="59.412" y="11.728" width="0.735" height="0.735"/>
	<rect x="80" y="35.992" width="0.735" height="0.735"/>
	<rect x="63.824" y="12.463" width="0.735" height="0.735"/>
	<rect x="77.794" y="73.492" width="0.735" height="1.471"/>
	<rect x="77.059" y="74.963" width="0.735" height="0.735"/>
	<rect x="78.529" y="74.963" width="0.735" height="0.735"/>
	<rect x="75.588" y="76.433" width="0.735" height="0.735"/>
	<rect x="76.324" y="75.698" width="0.735" height="0.735"/>
	<rect x="76.324" y="77.169" width="0.735" height="0.735"/>
	<rect x="79.265" y="74.228" width="0.735" height="0.735"/>
	<rect x="77.794" y="75.698" width="0.735" height="0.735"/>
	<rect x="75.588" y="77.904" width="0.735" height="0.735"/>
	<rect x="77.059" y="76.433" width="0.735" height="0.735"/>
	<rect x="72.647" y="80.845" width="0.735" height="1.471"/>
	<rect x="67.5" y="16.139" width="0.735" height="0.735"/>
	<rect x="71.912" y="17.61" width="0.735" height="0.735"/>
	<rect x="72.647" y="16.875" width="0.735" height="0.735"/>
	<rect x="71.176" y="16.875" width="0.735" height="0.735"/>
	<rect x="70.441" y="16.139" width="0.735" height="0.735"/>
	<rect x="69.706" y="16.875" width="0.735" height="0.735"/>
	<rect x="46.912" y="10.992" width="0.735" height="0.735"/>
	<rect x="73.382" y="17.61" width="0.735" height="1.471"/>
	<rect x="41.029" y="12.463" width="0.735" height="0.735"/>
	<rect x="41.029" y="17.61" width="0.735" height="0.735"/>
	<rect x="68.971" y="16.139" width="0.735" height="0.735"/>
	<rect x="47.647" y="11.728" width="0.735" height="0.735"/>
	<rect x="55.735" y="10.257" width="2.941" height="0.735"/>
	<rect x="51.324" y="10.257" width="0.735" height="0.735"/>
	<polygon points="51.324,14.669 61.618,14.669 61.618,15.404 62.353,15.404 62.353,14.669 63.088,14.669 63.088,15.404 
		63.824,15.404 63.824,14.669 64.559,14.669 64.559,13.933 60.882,13.933 60.882,13.198 55.735,13.198 55.735,13.933 55,13.933 
		55,13.198 54.265,13.198 54.265,13.933 53.529,13.933 53.529,13.198 52.794,13.198 52.794,13.933 52.059,13.933 52.059,13.198 
		51.324,13.198 	"/>
	<rect x="68.235" y="15.404" width="0.735" height="0.735"/>
	<rect x="64.559" y="14.669" width="0.735" height="0.735"/>
	<rect x="41.765" y="13.198" width="0.735" height="0.735"/>
	<rect x="52.794" y="10.257" width="0.735" height="0.735"/>
	<rect x="74.853" y="77.169" width="0.735" height="0.735"/>
	<rect x="66.765" y="15.404" width="0.735" height="0.735"/>
	<rect x="65.294" y="15.404" width="0.735" height="0.735"/>
	<rect x="66.029" y="14.669" width="0.735" height="0.735"/>
	<rect x="54.265" y="10.257" width="0.735" height="0.735"/>
	<rect x="78.529" y="35.257" width="0.735" height="1.471"/>
	<rect x="80.735" y="38.198" width="0.735" height="1.471"/>
	<rect x="81.471" y="39.669" width="0.735" height="0.735"/>
	<rect x="79.265" y="36.728" width="0.735" height="0.735"/>
	<rect x="80" y="37.463" width="0.735" height="0.735"/>
	<rect x="82.206" y="40.404" width="0.735" height="1.471"/>
	<rect x="85.882" y="51.433" width="0.735" height="8.824"/>
	<rect x="85.147" y="47.757" width="0.735" height="3.676"/>
	<rect x="83.676" y="44.081" width="0.735" height="1.471"/>
	<rect x="84.412" y="45.551" width="0.735" height="2.206"/>
	<rect x="82.941" y="41.875" width="0.735" height="2.206"/>
	<rect x="74.853" y="30.845" width="0.735" height="0.735"/>
	<rect x="74.118" y="30.11" width="0.735" height="0.735"/>
	<rect x="73.382" y="30.845" width="0.735" height="0.735"/>
	<rect x="68.971" y="27.904" width="0.735" height="0.735"/>
	<rect x="68.235" y="26.433" width="0.735" height="1.471"/>
	<rect x="77.794" y="34.522" width="0.735" height="0.735"/>
	<rect x="85.147" y="60.257" width="0.735" height="3.676"/>
	<rect x="76.324" y="33.051" width="0.735" height="0.735"/>
	<rect x="77.059" y="33.786" width="0.735" height="0.735"/>
	<rect x="75.588" y="31.581" width="0.735" height="1.471"/>
	<rect x="74.118" y="31.581" width="0.735" height="0.735"/>
	<rect x="77.794" y="77.169" width="0.735" height="0.735"/>
	<rect x="76.324" y="78.639" width="0.735" height="0.735"/>
	<rect x="77.059" y="77.904" width="0.735" height="0.735"/>
	<rect x="75.588" y="79.375" width="0.735" height="0.735"/>
	<rect x="78.529" y="76.433" width="0.735" height="0.735"/>
	<rect x="74.118" y="77.904" width="0.735" height="0.735"/>
	<rect x="74.118" y="80.845" width="0.735" height="2.206"/>
	<rect x="74.853" y="80.11" width="0.735" height="0.735"/>
	<rect x="74.118" y="79.375" width="0.735" height="0.735"/>
	<rect x="74.853" y="78.639" width="0.735" height="0.735"/>
	<rect x="84.412" y="63.933" width="0.735" height="2.206"/>
	<rect x="79.265" y="75.698" width="0.735" height="0.735"/>
	<rect x="73.382" y="80.11" width="0.735" height="0.735"/>
	<rect x="80.735" y="72.022" width="0.735" height="1.471"/>
	<rect x="80" y="74.963" width="0.735" height="0.735"/>
	<rect x="81.471" y="71.286" width="0.735" height="0.735"/>
	<rect x="83.676" y="66.139" width="0.735" height="2.206"/>
	<rect x="82.941" y="68.345" width="0.735" height="1.471"/>
	<rect x="82.206" y="69.816" width="0.735" height="1.471"/>
	<rect x="80.735" y="75.698" width="0.735" height="0.735"/>
	<rect x="81.471" y="74.963" width="0.735" height="0.735"/>
	<rect x="80.735" y="74.228" width="0.735" height="0.735"/>
	<rect x="80" y="73.492" width="0.735" height="0.735"/>
	<rect x="33.676" y="79.375" width="0.735" height="0.735"/>
	<rect x="32.206" y="77.904" width="0.735" height="0.735"/>
	<rect x="30" y="75.698" width="0.735" height="0.735"/>
	<rect x="29.265" y="74.228" width="0.735" height="1.471"/>
	<rect x="31.471" y="77.169" width="0.735" height="0.735"/>
	<rect x="24.853" y="66.139" width="0.735" height="1.471"/>
	<rect x="30.735" y="74.963" width="0.735" height="0.735"/>
	<rect x="26.324" y="69.816" width="0.735" height="1.471"/>
	<rect x="28.529" y="73.492" width="0.735" height="0.735"/>
	<rect x="25.588" y="67.61" width="0.735" height="2.206"/>
	<rect x="27.059" y="71.286" width="0.735" height="0.735"/>
	<rect x="27.794" y="72.022" width="0.735" height="1.471"/>
	<rect x="30.735" y="76.433" width="0.735" height="0.735"/>
	<rect x="32.941" y="78.639" width="0.735" height="0.735"/>
	<rect x="37.353" y="82.316" width="0.735" height="0.735"/>
	<rect x="36.618" y="80.845" width="0.735" height="1.471"/>
	<rect x="38.824" y="82.316" width="0.735" height="1.471"/>
	<rect x="39.559" y="83.786" width="0.735" height="0.735"/>
	<rect x="38.088" y="81.581" width="0.735" height="0.735"/>
	<rect x="35.147" y="79.375" width="0.735" height="0.735"/>
	<rect x="35.882" y="80.11" width="0.735" height="0.735"/>
	<rect x="34.412" y="31.581" width="0.735" height="0.735"/>
	<rect x="34.412" y="80.11" width="0.735" height="0.735"/>
	<rect x="40.294" y="83.051" width="0.735" height="0.735"/>
	<rect x="35.147" y="80.845" width="0.735" height="0.735"/>
	<rect x="39.559" y="13.933" width="0.735" height="0.735"/>
	<rect x="30.735" y="33.786" width="0.735" height="0.735"/>
	<rect x="28.529" y="35.257" width="0.735" height="0.735"/>
	<rect x="29.265" y="35.992" width="0.735" height="0.735"/>
	<rect x="31.471" y="33.051" width="0.735" height="0.735"/>
	<rect x="33.676" y="30.845" width="0.735" height="0.735"/>
	<rect x="32.941" y="30.11" width="0.735" height="0.735"/>
	<rect x="27.794" y="35.992" width="0.735" height="0.735"/>
	<rect x="31.471" y="31.581" width="0.735" height="0.735"/>
	<rect x="32.206" y="30.845" width="0.735" height="0.735"/>
	<rect x="30.735" y="32.316" width="0.735" height="0.735"/>
	<rect x="30" y="34.522" width="0.735" height="1.471"/>
	<rect x="23.382" y="48.492" width="0.735" height="5.147"/>
	<rect x="24.853" y="44.081" width="0.735" height="2.206"/>
	<rect x="24.118" y="46.286" width="0.735" height="2.206"/>
	<rect x="22.647" y="53.639" width="0.735" height="4.412"/>
	<rect x="23.382" y="58.051" width="0.735" height="5.147"/>
	<rect x="26.324" y="40.404" width="0.735" height="1.471"/>
	<rect x="27.794" y="38.198" width="0.735" height="1.471"/>
	<rect x="25.588" y="41.875" width="0.735" height="2.206"/>
	<rect x="27.059" y="39.669" width="0.735" height="0.735"/>
	<rect x="28.529" y="36.728" width="0.735" height="1.471"/>
	<rect x="24.118" y="63.198" width="0.735" height="2.941"/>
	<rect x="35.147" y="22.022" width="0.735" height="0.735"/>
	<rect x="33.676" y="21.286" width="0.735" height="0.735"/>
	<rect x="35.882" y="23.492" width="0.735" height="1.471"/>
	<rect x="38.088" y="22.022" width="0.735" height="1.471"/>
	<rect x="34.412" y="20.551" width="0.735" height="0.735"/>
	<rect x="37.353" y="23.492" width="0.735" height="0.735"/>
	<rect x="35.147" y="16.139" width="0.735" height="0.735"/>
	<rect x="34.412" y="19.081" width="0.735" height="0.735"/>
	<rect x="32.941" y="19.081" width="0.735" height="1.471"/>
	<rect x="32.941" y="15.404" width="0.735" height="0.735"/>
	<rect x="33.676" y="16.875" width="0.735" height="0.735"/>
	<rect x="33.676" y="18.345" width="0.735" height="0.735"/>
	<rect x="39.559" y="16.875" width="0.735" height="0.735"/>
	<rect x="40.294" y="15.404" width="0.735" height="1.471"/>
	<rect x="38.088" y="16.875" width="0.735" height="0.735"/>
	<rect x="38.088" y="13.198" width="0.735" height="0.735"/>
	<rect x="38.824" y="16.139" width="0.735" height="0.735"/>
	<rect x="36.618" y="21.286" width="0.735" height="0.735"/>
	<rect x="38.088" y="14.669" width="0.735" height="0.735"/>
	<rect x="38.088" y="19.816" width="0.735" height="1.471"/>
	<rect x="36.618" y="22.757" width="0.735" height="0.735"/>
	<rect x="37.353" y="19.081" width="0.735" height="0.735"/>
	<rect x="22.647" y="41.139" width="0.735" height="1.471"/>
	<rect x="21.176" y="45.551" width="0.735" height="2.206"/>
	<rect x="21.912" y="47.757" width="0.735" height="2.206"/>
	<rect x="26.324" y="38.198" width="0.735" height="0.735"/>
	<rect x="35.147" y="17.61" width="0.735" height="1.471"/>
	<rect x="24.853" y="39.669" width="0.735" height="1.471"/>
	<rect x="20.441" y="48.492" width="0.735" height="4.412"/>
	<rect x="41.029" y="83.786" width="0.735" height="1.471"/>
	<rect x="21.912" y="62.463" width="0.735" height="0.735"/>
	<rect x="39.559" y="88.933" width="0.735" height="1.471"/>
	<rect x="21.176" y="52.904" width="0.735" height="6.618"/>
	<rect x="20.441" y="61.728" width="0.735" height="0.735"/>
	<rect x="25.588" y="38.933" width="0.735" height="0.735"/>
	<rect x="32.206" y="17.61" width="0.735" height="0.735"/>
	<rect x="22.647" y="45.551" width="0.735" height="1.471"/>
	<rect x="21.912" y="43.345" width="0.735" height="1.471"/>
	<rect x="31.471" y="16.139" width="0.735" height="0.735"/>
	<rect x="32.206" y="22.022" width="0.735" height="0.735"/>
	<rect x="23.382" y="39.669" width="0.735" height="1.471"/>
	<rect x="23.382" y="43.345" width="0.735" height="1.471"/>
	<rect x="24.853" y="37.463" width="0.735" height="0.735"/>
	<rect x="24.118" y="38.198" width="0.735" height="1.471"/>
	<rect x="24.118" y="41.875" width="0.735" height="0.735"/>
	<rect x="67.5" y="91.875" width="0.735" height="0.735"/>
	<rect x="80" y="88.198" width="0.735" height="0.735"/>
	<rect x="81.471" y="85.257" width="0.735" height="0.735"/>
	<rect x="80" y="86.728" width="0.735" height="0.735"/>
	<rect x="82.206" y="84.522" width="0.735" height="0.735"/>
	<rect x="80.735" y="87.463" width="0.735" height="0.735"/>
	<rect x="80.735" y="85.992" width="0.735" height="0.735"/>
	<rect x="76.324" y="91.139" width="0.735" height="1.471"/>
	<rect x="78.529" y="91.875" width="0.735" height="0.735"/>
	<rect x="77.794" y="91.139" width="0.735" height="0.735"/>
	<rect x="78.529" y="89.669" width="0.735" height="1.471"/>
	<rect x="77.059" y="90.404" width="0.735" height="0.735"/>
	<rect x="80" y="89.669" width="0.735" height="0.735"/>
	<rect x="82.206" y="86.728" width="0.735" height="1.471"/>
	<rect x="88.088" y="77.904" width="0.735" height="0.735"/>
	<rect x="88.824" y="76.433" width="0.735" height="0.735"/>
	<rect x="81.471" y="88.198" width="0.735" height="0.735"/>
	<rect x="87.353" y="78.639" width="0.735" height="0.735"/>
	<rect x="80.735" y="90.404" width="0.735" height="0.735"/>
	<rect x="79.265" y="88.933" width="0.735" height="0.735"/>
	<rect x="77.794" y="92.61" width="0.735" height="0.735"/>
	<rect x="80.735" y="88.933" width="0.735" height="0.735"/>
	<rect x="81.471" y="89.669" width="0.735" height="0.735"/>
	<rect x="78.529" y="98.492" width="0.735" height="0.735"/>
	<rect x="79.265" y="97.757" width="0.735" height="0.735"/>
	<rect x="78.529" y="94.081" width="0.735" height="0.735"/>
	<rect x="88.824" y="93.345" width="0.735" height="0.735"/>
	<rect x="83.676" y="99.228" width="0.735" height="0.735"/>
	<rect x="96.176" y="83.786" width="0.735" height="0.735"/>
	<rect x="91.029" y="72.022" width="0.735" height="1.471"/>
	<rect x="74.853" y="97.757" width="0.735" height="1.471"/>
	<rect x="75.588" y="99.963" width="0.735" height="0.735"/>
	<rect x="76.324" y="97.022" width="0.735" height="1.471"/>
	<rect x="77.059" y="99.228" width="0.735" height="0.735"/>
	<rect x="77.794" y="96.286" width="0.735" height="1.471"/>
	<rect x="79.265" y="95.551" width="0.735" height="1.471"/>
	<rect x="80" y="94.816" width="0.735" height="0.735"/>
	<rect x="80.735" y="95.551" width="0.735" height="0.735"/>
	<rect x="80" y="91.139" width="0.735" height="0.735"/>
	<rect x="81.471" y="94.081" width="0.735" height="1.471"/>
	<rect x="85.882" y="93.345" width="0.735" height="0.735"/>
	<rect x="82.941" y="88.933" width="0.735" height="0.735"/>
	<rect x="86.618" y="92.61" width="0.735" height="0.735"/>
	<rect x="81.471" y="96.286" width="0.735" height="0.735"/>
	<rect x="82.941" y="95.551" width="0.735" height="0.735"/>
	<rect x="80.735" y="97.022" width="0.735" height="0.735"/>
	<rect x="77.059" y="20.551" width="0.735" height="0.735"/>
	<rect x="92.5" y="37.463" width="0.735" height="1.471"/>
	<rect x="91.765" y="35.992" width="0.735" height="1.471"/>
	<rect x="94.706" y="43.345" width="0.735" height="2.206"/>
	<rect x="93.235" y="38.933" width="0.735" height="2.206"/>
	<rect x="93.971" y="41.139" width="0.735" height="2.206"/>
	<rect x="91.029" y="34.522" width="0.735" height="1.471"/>
	<rect x="87.353" y="29.375" width="0.735" height="1.471"/>
	<rect x="88.088" y="30.845" width="0.735" height="0.735"/>
	<rect x="88.824" y="30.11" width="0.735" height="0.735"/>
	<rect x="89.559" y="32.316" width="0.735" height="1.471"/>
	<rect x="88.824" y="31.581" width="0.735" height="0.735"/>
	<rect x="90.294" y="33.786" width="0.735" height="0.735"/>
	<rect x="91.765" y="74.228" width="0.735" height="1.471"/>
	<rect x="93.235" y="70.551" width="0.735" height="2.206"/>
	<rect x="92.5" y="72.757" width="0.735" height="1.471"/>
	<rect x="91.029" y="75.698" width="0.735" height="0.735"/>
	<rect x="91.765" y="76.433" width="0.735" height="0.735"/>
	<rect x="96.176" y="49.228" width="0.735" height="13.971"/>
	<rect x="95.441" y="45.551" width="0.735" height="3.676"/>
	<rect x="93.971" y="69.081" width="0.735" height="1.471"/>
	<rect x="95.441" y="63.198" width="0.735" height="2.941"/>
	<rect x="94.706" y="66.139" width="0.735" height="2.941"/>
	<rect x="85.882" y="26.433" width="0.735" height="0.735"/>
	<rect x="79.265" y="22.022" width="0.735" height="0.735"/>
	<rect x="80" y="21.286" width="0.735" height="0.735"/>
	<rect x="80.735" y="22.022" width="0.735" height="0.735"/>
	<rect x="80" y="22.757" width="0.735" height="0.735"/>
	<rect x="78.529" y="20.551" width="0.735" height="1.471"/>
	<rect x="81.471" y="22.757" width="0.735" height="1.471"/>
	<rect x="77.794" y="19.816" width="0.735" height="0.735"/>
	<rect x="89.559" y="74.963" width="0.735" height="1.471"/>
	<rect x="76.324" y="19.081" width="0.735" height="1.471"/>
	<rect x="74.118" y="99.228" width="0.735" height="0.735"/>
	<rect x="85.147" y="27.169" width="0.735" height="0.735"/>
	<rect x="82.941" y="24.963" width="0.735" height="0.735"/>
	<rect x="83.676" y="25.698" width="0.735" height="0.735"/>
	<rect x="82.206" y="24.228" width="0.735" height="0.735"/>
	<rect x="85.882" y="27.904" width="0.735" height="0.735"/>
	<rect x="86.618" y="28.639" width="0.735" height="0.735"/>
	<rect x="84.412" y="26.433" width="0.735" height="0.735"/>
	<rect x="83.676" y="24.228" width="0.735" height="0.735"/>
	<rect x="90.294" y="73.492" width="0.735" height="1.471"/>
	<rect x="85.147" y="25.698" width="0.735" height="0.735"/>
	<rect x="84.412" y="24.963" width="0.735" height="0.735"/>
	<rect x="20.441" y="34.522" width="0.735" height="0.735"/>
	<rect x="39.559" y="94.081" width="0.735" height="1.471"/>
	<rect x="40.294" y="95.551" width="0.735" height="0.735"/>
	<rect x="41.765" y="95.551" width="0.735" height="0.735"/>
	<rect x="41.029" y="94.816" width="0.735" height="0.735"/>
	<rect x="43.971" y="101.433" width="0.735" height="1.471"/>
	<rect x="40.294" y="99.963" width="0.735" height="1.471"/>
	<rect x="41.029" y="101.433" width="0.735" height="0.735"/>
	<rect x="42.5" y="96.286" width="0.735" height="0.735"/>
	<rect x="38.824" y="99.963" width="0.735" height="1.471"/>
	<rect x="42.5" y="101.433" width="0.735" height="0.735"/>
	<rect x="41.765" y="100.698" width="0.735" height="0.735"/>
	<rect x="43.971" y="103.639" width="0.735" height="0.735"/>
	<rect x="43.235" y="90.404" width="0.735" height="0.735"/>
	<rect x="43.235" y="95.551" width="0.735" height="0.735"/>
	<rect x="43.971" y="91.139" width="0.735" height="0.735"/>
	<rect x="49.118" y="91.875" width="0.735" height="0.735"/>
	<rect x="48.382" y="91.139" width="0.735" height="0.735"/>
	<rect x="44.706" y="90.404" width="0.735" height="0.735"/>
	<rect x="42.5" y="89.669" width="0.735" height="0.735"/>
	<rect x="43.971" y="96.286" width="0.735" height="0.735"/>
	<rect x="41.029" y="88.933" width="0.735" height="1.471"/>
	<rect x="41.765" y="90.404" width="0.735" height="0.735"/>
	<rect x="16.765" y="41.875" width="0.735" height="2.206"/>
	<rect x="21.176" y="35.992" width="0.735" height="0.735"/>
	<rect x="21.912" y="35.257" width="0.735" height="0.735"/>
	<rect x="21.912" y="32.316" width="0.735" height="0.735"/>
	<rect x="21.176" y="33.051" width="0.735" height="0.735"/>
	<rect x="16.029" y="60.257" width="0.735" height="0.735"/>
	<rect x="38.088" y="99.228" width="0.735" height="0.735"/>
	<rect x="47.647" y="91.875" width="0.735" height="0.735"/>
	<rect x="16.765" y="47.022" width="0.735" height="1.471"/>
	<rect x="17.5" y="44.081" width="0.735" height="1.471"/>
	<rect x="18.235" y="38.198" width="0.735" height="1.471"/>
	<rect x="16.029" y="44.081" width="0.735" height="2.941"/>
	<rect x="36.618" y="93.345" width="0.735" height="1.471"/>
	<rect x="14.559" y="52.904" width="0.735" height="3.676"/>
	<rect x="38.088" y="94.081" width="0.735" height="1.471"/>
	<rect x="36.618" y="99.228" width="0.735" height="0.735"/>
	<rect x="18.971" y="36.728" width="0.735" height="1.471"/>
	<rect x="37.353" y="99.963" width="0.735" height="0.735"/>
	<rect x="19.706" y="35.257" width="0.735" height="1.471"/>
	<rect x="90.294" y="76.433" width="0.735" height="1.471"/>
	<rect x="20.441" y="37.463" width="0.735" height="0.735"/>
	<rect x="19.706" y="38.933" width="0.735" height="0.735"/>
	<rect x="68.971" y="102.904" width="0.735" height="0.735"/>
	<rect x="46.912" y="102.169" width="0.735" height="0.735"/>
	<rect x="47.647" y="102.904" width="0.735" height="0.735"/>
	<rect x="48.382" y="102.169" width="0.735" height="0.735"/>
	<rect x="74.118" y="100.698" width="0.735" height="0.735"/>
	<rect x="49.118" y="102.904" width="0.735" height="0.735"/>
	<rect x="72.647" y="102.169" width="0.735" height="0.735"/>
	<rect x="68.235" y="104.375" width="0.735" height="0.735"/>
	<rect x="73.382" y="98.492" width="0.735" height="0.735"/>
	<rect x="70.441" y="102.169" width="0.735" height="0.735"/>
	<rect x="71.912" y="101.433" width="0.735" height="0.735"/>
	<polygon points="65.294,102.169 65.294,101.433 64.559,101.433 64.559,102.169 63.824,102.169 63.824,101.433 63.088,101.433 
		63.088,102.169 49.853,102.169 49.853,102.904 50.588,102.904 50.588,103.639 51.324,103.639 51.324,102.904 52.059,102.904 
		52.059,103.639 52.794,103.639 52.794,102.904 53.529,102.904 53.529,103.639 61.618,103.639 61.618,102.904 66.029,102.904 
		66.029,102.169 	"/>
	<rect x="68.235" y="100.698" width="0.735" height="0.735"/>
	<rect x="69.706" y="100.698" width="0.735" height="0.735"/>
	<rect x="70.441" y="99.963" width="0.735" height="0.735"/>
	<rect x="71.176" y="99.228" width="0.735" height="0.735"/>
	<rect x="72.647" y="99.228" width="0.735" height="0.735"/>
	<rect x="71.912" y="99.963" width="0.735" height="0.735"/>
	<rect x="66.029" y="101.433" width="0.735" height="0.735"/>
	<rect x="66.765" y="100.698" width="0.735" height="0.735"/>
	<rect x="68.971" y="99.963" width="0.735" height="0.735"/>
	<rect x="67.5" y="101.433" width="0.735" height="0.735"/>
	<rect x="67.5" y="102.904" width="0.735" height="0.735"/>
	<rect x="45.441" y="101.433" width="0.735" height="1.471"/>
	<rect x="45.441" y="96.286" width="0.735" height="1.471"/>
	<rect x="46.912" y="91.139" width="0.735" height="0.735"/>
	<rect x="45.441" y="98.492" width="0.735" height="0.735"/>
	<rect x="47.647" y="104.375" width="0.735" height="0.735"/>
	<rect x="46.176" y="99.963" width="0.735" height="0.735"/>
	<rect x="46.176" y="91.875" width="0.735" height="0.735"/>
	<rect x="45.441" y="91.139" width="0.735" height="0.735"/>
	<rect x="46.912" y="96.286" width="0.735" height="1.471"/>
	<rect x="66.029" y="103.639" width="0.735" height="0.735"/>
	<rect x="47.647" y="99.963" width="0.735" height="0.735"/>
	<rect x="49.853" y="105.11" width="0.735" height="0.735"/>
	<rect x="62.353" y="104.375" width="0.735" height="0.735"/>
	<rect x="59.412" y="104.375" width="0.735" height="0.735"/>
	<rect x="51.324" y="105.11" width="0.735" height="0.735"/>
	<rect x="64.559" y="103.639" width="0.735" height="0.735"/>
	<rect x="65.294" y="104.375" width="0.735" height="0.735"/>
	<rect x="60.882" y="104.375" width="0.735" height="0.735"/>
	<rect x="54.265" y="105.11" width="0.735" height="0.735"/>
	<rect x="57.206" y="105.11" width="1.471" height="0.735"/>
	<rect x="52.794" y="105.11" width="0.735" height="0.735"/>
	<rect x="55.735" y="105.11" width="0.735" height="0.735"/>
	<rect x="99.118" y="69.816" width="0.735" height="2.206"/>
	<rect x="84.412" y="87.463" width="0.735" height="0.735"/>
	<rect x="83.676" y="88.198" width="0.735" height="0.735"/>
	<rect x="84.412" y="88.933" width="0.735" height="1.471"/>
	<rect x="82.941" y="91.139" width="0.735" height="0.735"/>
	<rect x="83.676" y="90.404" width="0.735" height="0.735"/>
	<rect x="87.353" y="91.875" width="0.735" height="0.735"/>
	<rect x="83.676" y="91.875" width="0.735" height="0.735"/>
	<rect x="83.676" y="83.051" width="0.735" height="1.471"/>
	<rect x="83.676" y="85.257" width="0.735" height="0.735"/>
	<rect x="82.941" y="85.992" width="0.735" height="0.735"/>
	<rect x="83.676" y="86.728" width="0.735" height="0.735"/>
	<rect x="84.412" y="82.316" width="0.735" height="0.735"/>
	<rect x="84.412" y="92.61" width="0.735" height="0.735"/>
	<rect x="85.147" y="91.139" width="0.735" height="1.471"/>
	<rect x="85.882" y="90.404" width="0.735" height="0.735"/>
	<rect x="86.618" y="91.139" width="0.735" height="0.735"/>
	<rect x="83.676" y="93.345" width="0.735" height="0.735"/>
	<rect x="84.412" y="94.081" width="0.735" height="0.735"/>
	<rect x="82.941" y="92.61" width="0.735" height="0.735"/>
	<rect x="82.941" y="94.081" width="0.735" height="0.735"/>
	<rect x="82.206" y="93.345" width="0.735" height="0.735"/>
	<rect x="83.676" y="94.816" width="0.735" height="0.735"/>
	<rect x="84.412" y="84.522" width="0.735" height="0.735"/>
	<rect x="85.147" y="85.257" width="0.735" height="0.735"/>
	<rect x="84.412" y="85.992" width="0.735" height="0.735"/>
	<rect x="85.147" y="86.728" width="0.735" height="0.735"/>
	<rect x="87.353" y="84.522" width="0.735" height="0.735"/>
	<rect x="86.618" y="85.257" width="0.735" height="0.735"/>
	<rect x="85.882" y="85.992" width="0.735" height="0.735"/>
	<rect x="86.618" y="83.786" width="0.735" height="0.735"/>
	<rect x="85.147" y="83.786" width="0.735" height="0.735"/>
	<rect x="87.353" y="83.051" width="0.735" height="0.735"/>
	<rect x="86.618" y="81.581" width="0.735" height="1.471"/>
	<rect x="85.882" y="83.051" width="0.735" height="0.735"/>
	<rect x="86.618" y="79.375" width="0.735" height="1.471"/>
	<rect x="87.353" y="80.845" width="0.735" height="0.735"/>
	<rect x="88.088" y="80.11" width="0.735" height="0.735"/>
	<rect x="85.882" y="80.845" width="0.735" height="0.735"/>
	<rect x="85.147" y="81.581" width="0.735" height="0.735"/>
	<rect x="88.824" y="79.375" width="0.735" height="0.735"/>
	<rect x="88.824" y="83.051" width="0.735" height="0.735"/>
	<rect x="88.088" y="83.786" width="0.735" height="0.735"/>
	<rect x="89.559" y="80.11" width="0.735" height="0.735"/>
	<rect x="89.559" y="81.581" width="0.735" height="1.471"/>
	<rect x="90.294" y="80.845" width="0.735" height="0.735"/>
	<rect x="88.088" y="91.139" width="0.735" height="0.735"/>
	<rect x="97.647" y="63.933" width="0.735" height="2.941"/>
	<rect x="85.882" y="84.522" width="0.735" height="0.735"/>
	<rect x="96.912" y="71.286" width="0.735" height="1.471"/>
	<rect x="98.382" y="66.875" width="0.735" height="1.471"/>
	<rect x="96.176" y="69.816" width="0.735" height="1.471"/>
	<rect x="99.118" y="48.492" width="0.735" height="0.735"/>
	<rect x="99.118" y="63.198" width="0.735" height="2.206"/>
	<rect x="99.853" y="52.169" width="0.735" height="8.088"/>
	<rect x="98.382" y="50.698" width="0.735" height="0.735"/>
	<rect x="97.647" y="46.286" width="0.735" height="0.735"/>
	<rect x="98.382" y="59.522" width="0.735" height="3.676"/>
	<rect x="94.706" y="73.492" width="0.735" height="0.735"/>
	<rect x="102.794" y="65.404" width="0.735" height="2.941"/>
	<rect x="102.059" y="68.345" width="0.735" height="2.206"/>
	<rect x="104.265" y="52.169" width="0.735" height="6.618"/>
	<rect x="102.794" y="72.022" width="0.735" height="0.735"/>
	<rect x="103.529" y="60.992" width="0.735" height="2.941"/>
	<rect x="99.853" y="74.963" width="0.735" height="0.735"/>
	<rect x="93.971" y="74.963" width="0.735" height="0.735"/>
	<rect x="93.235" y="76.433" width="0.735" height="0.735"/>
	<rect x="100.588" y="72.757" width="0.735" height="1.471"/>
	<rect x="101.324" y="71.286" width="0.735" height="0.735"/>
	<rect x="95.441" y="71.286" width="0.735" height="1.471"/>
	<rect x="92.5" y="86.728" width="0.735" height="0.735"/>
	<rect x="93.235" y="85.992" width="0.735" height="0.735"/>
	<rect x="93.971" y="84.522" width="0.735" height="1.471"/>
	<rect x="91.765" y="87.463" width="0.735" height="0.735"/>
	<rect x="94.706" y="83.786" width="0.735" height="0.735"/>
	<rect x="88.824" y="90.404" width="0.735" height="0.735"/>
	<rect x="89.559" y="89.669" width="0.735" height="0.735"/>
	<rect x="95.441" y="83.051" width="0.735" height="0.735"/>
	<rect x="90.294" y="88.933" width="0.735" height="0.735"/>
	<rect x="91.029" y="88.198" width="0.735" height="0.735"/>
	<rect x="97.647" y="69.081" width="0.735" height="1.471"/>
	<rect x="80" y="93.345" width="0.735" height="0.735"/>
	<rect x="80.735" y="92.61" width="0.735" height="0.735"/>
	<rect x="96.176" y="81.581" width="0.735" height="1.471"/>
	<rect x="94.706" y="55.11" width="0.735" height="4.412"/>
	<rect x="81.471" y="91.875" width="0.735" height="0.735"/>
	<rect x="96.912" y="67.61" width="0.735" height="1.471"/>
	<rect x="97.647" y="79.375" width="0.735" height="0.735"/>
	<rect x="96.912" y="80.11" width="0.735" height="1.471"/>
	<rect x="99.118" y="76.433" width="0.735" height="1.471"/>
	<rect x="98.382" y="77.904" width="0.735" height="1.471"/>
	<rect x="90.294" y="83.786" width="0.735" height="0.735"/>
	<rect x="90.294" y="23.492" width="0.735" height="0.735"/>
	<rect x="87.353" y="22.022" width="0.735" height="0.735"/>
	<rect x="89.559" y="24.228" width="0.735" height="0.735"/>
	<rect x="88.088" y="81.581" width="0.735" height="0.735"/>
	<rect x="85.882" y="20.551" width="0.735" height="0.735"/>
	<rect x="88.088" y="22.757" width="0.735" height="0.735"/>
	<rect x="86.618" y="19.816" width="0.735" height="0.735"/>
	<rect x="88.824" y="22.022" width="0.735" height="0.735"/>
	<rect x="89.559" y="22.757" width="0.735" height="0.735"/>
	<rect x="87.353" y="20.551" width="0.735" height="0.735"/>
	<rect x="88.088" y="21.286" width="0.735" height="0.735"/>
	<rect x="86.618" y="21.286" width="0.735" height="0.735"/>
	<rect x="93.235" y="28.639" width="0.735" height="0.735"/>
	<rect x="93.971" y="29.375" width="0.735" height="1.471"/>
	<rect x="94.706" y="30.845" width="0.735" height="1.471"/>
	<rect x="96.176" y="33.051" width="0.735" height="1.471"/>
	<rect x="90.294" y="24.963" width="0.735" height="0.735"/>
	<rect x="96.176" y="31.581" width="0.735" height="0.735"/>
	<rect x="91.765" y="26.433" width="0.735" height="1.471"/>
	<rect x="92.5" y="27.904" width="0.735" height="0.735"/>
	<rect x="91.029" y="25.698" width="0.735" height="0.735"/>
	<rect x="93.235" y="27.169" width="0.735" height="0.735"/>
	<rect x="95.441" y="32.316" width="0.735" height="0.735"/>
	<rect x="91.765" y="78.639" width="0.735" height="1.471"/>
	<rect x="93.235" y="78.639" width="0.735" height="1.471"/>
	<rect x="92.5" y="77.904" width="0.735" height="0.735"/>
	<rect x="91.765" y="80.845" width="0.735" height="1.471"/>
	<rect x="91.029" y="80.11" width="0.735" height="0.735"/>
	<rect x="95.441" y="74.963" width="0.735" height="1.471"/>
	<rect x="96.176" y="73.492" width="0.735" height="1.471"/>
	<rect x="88.824" y="85.257" width="0.735" height="0.735"/>
	<rect x="94.706" y="76.433" width="0.735" height="1.471"/>
	<rect x="85.147" y="19.816" width="0.735" height="0.735"/>
	<rect x="93.971" y="77.904" width="0.735" height="0.735"/>
	<rect x="82.941" y="16.875" width="0.735" height="0.735"/>
	<rect x="82.941" y="18.345" width="0.735" height="0.735"/>
	<rect x="82.206" y="17.61" width="0.735" height="0.735"/>
	<rect x="83.676" y="17.61" width="0.735" height="0.735"/>
	<rect x="84.412" y="18.345" width="0.735" height="1.471"/>
	<rect x="89.559" y="84.522" width="0.735" height="0.735"/>
	<rect x="81.471" y="16.139" width="0.735" height="1.471"/>
	<rect x="80" y="16.139" width="0.735" height="0.735"/>
	<rect x="79.265" y="14.669" width="0.735" height="1.471"/>
	<rect x="80.735" y="15.404" width="0.735" height="0.735"/>
	<rect x="88.824" y="23.492" width="0.735" height="0.735"/>
	<rect x="91.029" y="84.522" width="0.735" height="1.471"/>
	<rect x="92.5" y="83.051" width="0.735" height="0.735"/>
	<rect x="91.765" y="83.786" width="0.735" height="0.735"/>
	<rect x="89.559" y="77.904" width="0.735" height="1.471"/>
	<rect x="91.029" y="83.051" width="0.735" height="0.735"/>
	<rect x="93.235" y="82.316" width="0.735" height="0.735"/>
	<rect x="91.029" y="86.728" width="0.735" height="0.735"/>
	<rect x="91.765" y="85.992" width="0.735" height="0.735"/>
	<rect x="90.294" y="87.463" width="0.735" height="0.735"/>
	<rect x="93.235" y="83.786" width="0.735" height="0.735"/>
	<rect x="93.971" y="83.051" width="0.735" height="0.735"/>
	<rect x="92.5" y="84.522" width="0.735" height="0.735"/>
	<rect x="96.912" y="34.522" width="0.735" height="1.471"/>
	<rect x="85.882" y="88.198" width="0.735" height="1.471"/>
	<rect x="90.294" y="85.992" width="0.735" height="0.735"/>
	<rect x="87.353" y="85.992" width="0.735" height="1.471"/>
	<rect x="88.824" y="80.845" width="0.735" height="0.735"/>
	<rect x="86.618" y="89.669" width="0.735" height="0.735"/>
	<rect x="88.824" y="87.463" width="0.735" height="0.735"/>
	<rect x="89.559" y="86.728" width="0.735" height="0.735"/>
	<rect x="88.088" y="88.198" width="0.735" height="0.735"/>
	<rect x="87.353" y="88.933" width="0.735" height="0.735"/>
	<rect x="86.618" y="87.463" width="0.735" height="0.735"/>
	<rect x="101.324" y="47.757" width="0.735" height="16.176"/>
	<rect x="100.588" y="63.933" width="0.735" height="3.676"/>
	<rect x="98.382" y="72.022" width="0.735" height="2.206"/>
	<rect x="17.5" y="40.404" width="0.735" height="1.471"/>
	<rect x="99.853" y="67.61" width="0.735" height="2.206"/>
	<rect x="100.588" y="44.081" width="0.735" height="3.676"/>
	<rect x="99.853" y="41.875" width="0.735" height="2.206"/>
	<rect x="97.647" y="35.992" width="0.735" height="1.471"/>
	<rect x="98.382" y="37.463" width="0.735" height="2.206"/>
	<rect x="99.118" y="39.669" width="0.735" height="2.206"/>
	<rect x="88.088" y="89.669" width="0.735" height="0.735"/>
	<rect x="94.706" y="79.375" width="0.735" height="1.471"/>
	<rect x="93.971" y="80.845" width="0.735" height="1.471"/>
	<rect x="87.353" y="90.404" width="0.735" height="0.735"/>
	<rect x="88.824" y="88.933" width="0.735" height="0.735"/>
	<rect x="89.559" y="88.198" width="0.735" height="0.735"/>
	<rect x="95.441" y="78.639" width="0.735" height="0.735"/>
	<rect x="96.176" y="77.169" width="0.735" height="1.471"/>
	<rect x="96.912" y="75.698" width="0.735" height="1.471"/>
	<rect x="97.647" y="74.228" width="0.735" height="1.471"/>
	<rect x="96.176" y="79.375" width="0.735" height="0.735"/>
	<rect x="23.382" y="33.051" width="0.735" height="0.735"/>
	<rect x="14.559" y="79.375" width="0.735" height="0.735"/>
	<rect x="16.029" y="83.051" width="0.735" height="1.471"/>
	<rect x="13.088" y="78.639" width="0.735" height="1.471"/>
	<rect x="16.765" y="26.433" width="0.735" height="0.735"/>
	<rect x="14.559" y="80.845" width="0.735" height="1.471"/>
	<rect x="13.824" y="80.11" width="0.735" height="0.735"/>
	<rect x="8.676" y="66.875" width="0.735" height="2.941"/>
	<rect x="12.353" y="77.169" width="0.735" height="1.471"/>
	<rect x="10.147" y="72.022" width="0.735" height="1.471"/>
	<rect x="11.618" y="75.698" width="0.735" height="1.471"/>
	<rect x="10.882" y="73.492" width="0.735" height="2.206"/>
	<rect x="9.412" y="69.816" width="0.735" height="2.206"/>
	<rect x="20.441" y="87.463" width="0.735" height="0.735"/>
	<rect x="21.176" y="88.198" width="0.735" height="0.735"/>
	<rect x="18.971" y="87.463" width="0.735" height="0.735"/>
	<rect x="21.912" y="88.933" width="0.735" height="0.735"/>
	<rect x="19.706" y="86.728" width="0.735" height="0.735"/>
	<rect x="18.235" y="85.992" width="0.735" height="1.471"/>
	<rect x="22.647" y="89.669" width="0.735" height="0.735"/>
	<rect x="16.765" y="84.522" width="0.735" height="0.735"/>
	<rect x="17.5" y="85.257" width="0.735" height="0.735"/>
	<rect x="17.5" y="83.786" width="0.735" height="0.735"/>
	<rect x="15.294" y="82.316" width="0.735" height="0.735"/>
	<rect x="13.824" y="35.257" width="0.735" height="1.471"/>
	<rect x="13.088" y="36.728" width="0.735" height="1.471"/>
	<rect x="14.559" y="33.786" width="0.735" height="1.471"/>
	<rect x="16.029" y="31.581" width="0.735" height="0.735"/>
	<rect x="15.294" y="32.316" width="0.735" height="1.471"/>
	<rect x="15.294" y="27.904" width="0.735" height="1.471"/>
	<rect x="16.029" y="27.169" width="0.735" height="0.735"/>
	<rect x="15.294" y="26.433" width="0.735" height="0.735"/>
	<rect x="14.559" y="29.375" width="0.735" height="1.471"/>
	<rect x="14.559" y="31.581" width="0.735" height="0.735"/>
	<rect x="14.559" y="27.169" width="0.735" height="0.735"/>
	<rect x="8.676" y="41.875" width="0.735" height="2.941"/>
	<rect x="7.941" y="63.198" width="0.735" height="3.676"/>
	<rect x="13.824" y="30.845" width="0.735" height="0.735"/>
	<rect x="7.941" y="44.816" width="0.735" height="4.412"/>
	<rect x="10.147" y="38.198" width="0.735" height="1.471"/>
	<rect x="7.206" y="49.228" width="0.735" height="13.971"/>
	<rect x="9.412" y="39.669" width="0.735" height="2.206"/>
	<rect x="13.088" y="31.581" width="0.735" height="1.471"/>
	<rect x="12.353" y="33.051" width="0.735" height="1.471"/>
	<rect x="10.882" y="35.992" width="0.735" height="2.206"/>
	<rect x="11.618" y="34.522" width="0.735" height="1.471"/>
	<rect x="19.706" y="88.198" width="0.735" height="0.735"/>
	<rect x="9.412" y="51.433" width="0.735" height="8.088"/>
	<rect x="10.147" y="62.463" width="0.735" height="0.735"/>
	<rect x="10.147" y="46.286" width="0.735" height="2.941"/>
	<rect x="10.882" y="60.257" width="0.735" height="0.735"/>
	<rect x="10.882" y="49.228" width="0.735" height="2.941"/>
	<rect x="13.824" y="38.933" width="0.735" height="1.471"/>
	<rect x="12.353" y="38.933" width="0.735" height="1.471"/>
	<rect x="11.618" y="64.669" width="0.735" height="0.735"/>
	<rect x="11.618" y="41.139" width="0.735" height="1.471"/>
	<rect x="13.088" y="40.404" width="0.735" height="1.471"/>
	<rect x="12.353" y="42.61" width="0.735" height="1.471"/>
	<rect x="35.147" y="92.61" width="0.735" height="1.471"/>
	<rect x="14.559" y="37.463" width="0.735" height="0.735"/>
	<rect x="34.412" y="91.875" width="0.735" height="0.735"/>
	<rect x="33.676" y="92.61" width="0.735" height="0.735"/>
	<rect x="21.912" y="80.845" width="0.735" height="0.735"/>
	<rect x="32.941" y="91.139" width="0.735" height="1.471"/>
	<rect x="10.882" y="43.345" width="0.735" height="2.206"/>
	<rect x="11.618" y="45.551" width="0.735" height="2.206"/>
	<rect x="33.676" y="97.757" width="0.735" height="1.471"/>
	<rect x="35.147" y="98.492" width="0.735" height="1.471"/>
	<rect x="22.647" y="33.786" width="0.735" height="0.735"/>
	<rect x="20.441" y="88.933" width="0.735" height="0.735"/>
	<rect x="24.853" y="92.61" width="0.735" height="0.735"/>
	<rect x="26.324" y="92.61" width="0.735" height="0.735"/>
	<rect x="25.588" y="93.345" width="0.735" height="0.735"/>
	<rect x="26.324" y="94.081" width="0.735" height="0.735"/>
	<rect x="24.118" y="91.139" width="0.735" height="1.471"/>
	<rect x="23.382" y="90.404" width="0.735" height="0.735"/>
	<rect x="21.176" y="89.669" width="0.735" height="0.735"/>
	<rect x="27.059" y="93.345" width="0.735" height="0.735"/>
	<rect x="21.912" y="90.404" width="0.735" height="0.735"/>
	<rect x="22.647" y="91.139" width="0.735" height="0.735"/>
	<rect x="31.471" y="96.286" width="0.735" height="0.735"/>
	<rect x="15.294" y="35.992" width="0.735" height="0.735"/>
	<rect x="32.206" y="97.022" width="0.735" height="1.471"/>
	<rect x="16.765" y="30.11" width="0.735" height="0.735"/>
	<rect x="17.5" y="29.375" width="0.735" height="0.735"/>
	<rect x="16.029" y="34.522" width="0.735" height="0.735"/>
	<rect x="29.265" y="94.816" width="0.735" height="0.735"/>
	<rect x="27.794" y="94.081" width="0.735" height="1.471"/>
	<rect x="28.529" y="95.551" width="0.735" height="0.735"/>
	<rect x="30.735" y="97.022" width="0.735" height="0.735"/>
	<rect x="30" y="95.551" width="0.735" height="1.471"/>
	<rect x="24.853" y="19.081" width="0.735" height="0.735"/>
	<rect x="5.735" y="61.728" width="0.735" height="0.735"/>
	<rect x="6.471" y="72.022" width="0.735" height="0.735"/>
	<rect x="20.441" y="93.345" width="0.735" height="0.735"/>
	<rect x="13.088" y="83.786" width="0.735" height="0.735"/>
	<rect x="25.588" y="99.228" width="0.735" height="0.735"/>
	<rect x="5" y="51.433" width="0.735" height="8.824"/>
	<rect x="27.059" y="14.669" width="0.735" height="0.735"/>
	<rect x="6.471" y="38.933" width="0.735" height="0.735"/>
	<rect x="7.206" y="39.669" width="0.735" height="0.735"/>
	<rect x="7.206" y="41.139" width="0.735" height="2.206"/>
	<rect x="17.5" y="24.963" width="0.735" height="1.471"/>
	<rect x="12.353" y="30.11" width="0.735" height="0.735"/>
	<rect x="24.853" y="16.139" width="0.735" height="0.735"/>
	<rect x="8.676" y="37.463" width="0.735" height="1.471"/>
	<rect x="20.441" y="19.816" width="0.735" height="0.735"/>
	<rect x="24.118" y="16.875" width="0.735" height="0.735"/>
	<rect x="27.794" y="13.933" width="0.735" height="0.735"/>
	<rect x="16.029" y="24.963" width="0.735" height="0.735"/>
	<rect x="13.088" y="27.169" width="0.735" height="0.735"/>
	<rect x="13.088" y="28.639" width="0.735" height="1.471"/>
	<rect x="13.824" y="27.904" width="0.735" height="0.735"/>
	<rect x="14.559" y="25.698" width="0.735" height="0.735"/>
	<rect x="5.735" y="47.022" width="0.735" height="3.676"/>
	<rect x="30.735" y="12.463" width="0.735" height="0.735"/>
	<rect x="32.206" y="11.728" width="0.735" height="0.735"/>
	<rect x="30.735" y="13.933" width="0.735" height="0.735"/>
	<rect x="32.206" y="13.198" width="0.735" height="1.471"/>
	<rect x="32.941" y="10.992" width="0.735" height="0.735"/>
	<rect x="31.471" y="14.669" width="0.735" height="0.735"/>
	<rect x="35.147" y="11.728" width="0.735" height="1.471"/>
	<rect x="33.676" y="12.463" width="0.735" height="1.471"/>
	<rect x="35.147" y="10.257" width="0.735" height="0.735"/>
	<rect x="34.412" y="14.669" width="0.735" height="0.735"/>
	<rect x="30" y="14.669" width="0.735" height="1.471"/>
	<rect x="11.618" y="31.581" width="0.735" height="0.735"/>
	<rect x="18.235" y="19.081" width="0.735" height="0.735"/>
	<rect x="10.147" y="33.786" width="0.735" height="1.471"/>
	<rect x="10.882" y="33.051" width="0.735" height="0.735"/>
	<rect x="20.441" y="17.61" width="0.735" height="0.735"/>
	<rect x="9.412" y="35.992" width="0.735" height="0.735"/>
	<rect x="25.588" y="11.728" width="0.735" height="0.735"/>
	<rect x="29.265" y="17.61" width="0.735" height="0.735"/>
	<rect x="30" y="16.875" width="0.735" height="0.735"/>
	<rect x="29.265" y="13.198" width="0.735" height="0.735"/>
	<rect x="6.471" y="43.345" width="0.735" height="2.941"/>
	<rect x="21.912" y="23.492" width="0.735" height="0.735"/>
	<rect x="23.382" y="22.022" width="0.735" height="0.735"/>
	<rect x="22.647" y="22.757" width="0.735" height="0.735"/>
	<rect x="18.971" y="27.169" width="0.735" height="0.735"/>
	<rect x="24.118" y="21.286" width="0.735" height="0.735"/>
	<rect x="20.441" y="23.492" width="0.735" height="0.735"/>
	<rect x="19.706" y="25.698" width="0.735" height="1.471"/>
	<rect x="21.176" y="24.228" width="0.735" height="0.735"/>
	<rect x="18.971" y="24.963" width="0.735" height="0.735"/>
	<rect x="19.706" y="24.228" width="0.735" height="0.735"/>
	<rect x="24.118" y="18.345" width="0.735" height="0.735"/>
	<rect x="23.382" y="19.081" width="0.735" height="2.206"/>
	<rect x="26.324" y="15.404" width="0.735" height="0.735"/>
	<rect x="18.971" y="22.022" width="0.735" height="0.735"/>
	<rect x="17.5" y="23.492" width="0.735" height="0.735"/>
	<rect x="19.706" y="20.551" width="0.735" height="1.471"/>
	<rect x="16.765" y="24.228" width="0.735" height="0.735"/>
	<rect x="20.441" y="22.022" width="0.735" height="0.735"/>
	<rect x="23.382" y="17.61" width="0.735" height="0.735"/>
	<rect x="22.647" y="18.345" width="0.735" height="0.735"/>
	<rect x="21.912" y="19.081" width="0.735" height="2.206"/>
	<rect x="21.176" y="21.286" width="0.735" height="0.735"/>
	<rect x="18.235" y="22.757" width="0.735" height="0.735"/>
	<rect x="27.059" y="17.61" width="0.735" height="0.735"/>
	<rect x="32.206" y="90.404" width="0.735" height="0.735"/>
	<rect x="18.235" y="27.904" width="0.735" height="0.735"/>
	<rect x="26.324" y="16.875" width="0.735" height="0.735"/>
	<rect x="25.588" y="17.61" width="0.735" height="1.471"/>
	<rect x="27.059" y="16.139" width="0.735" height="0.735"/>
	<rect x="28.529" y="15.404" width="0.735" height="1.471"/>
	<rect x="27.794" y="18.345" width="0.735" height="0.735"/>
	<rect x="26.324" y="19.816" width="0.735" height="0.735"/>
	<rect x="27.059" y="19.081" width="0.735" height="0.735"/>
	<rect x="27.794" y="16.875" width="0.735" height="0.735"/>
	<rect x="19.706" y="22.757" width="0.735" height="0.735"/>
	<rect x="18.235" y="24.228" width="0.735" height="0.735"/>
	<rect x="18.971" y="23.492" width="0.735" height="0.735"/>
	<rect x="17.5" y="27.169" width="0.735" height="0.735"/>
	<rect x="24.853" y="20.551" width="0.735" height="0.735"/>
	<rect x="18.235" y="26.433" width="0.735" height="0.735"/>
	<rect x="16.765" y="27.904" width="0.735" height="0.735"/>
	<rect x="22.647" y="21.286" width="0.735" height="0.735"/>
	<rect x="21.912" y="22.022" width="0.735" height="0.735"/>
	<rect x="21.176" y="22.757" width="0.735" height="0.735"/>
	<rect x="22.647" y="36.728" width="0.735" height="0.735"/>
	<rect x="28.529" y="30.11" width="0.735" height="0.735"/>
	<rect x="30.735" y="27.904" width="0.735" height="0.735"/>
	<rect x="29.265" y="29.375" width="0.735" height="0.735"/>
	<rect x="27.794" y="30.845" width="0.735" height="1.471"/>
	<rect x="24.118" y="31.581" width="0.735" height="1.471"/>
	<rect x="29.265" y="27.904" width="0.735" height="0.735"/>
	<rect x="24.853" y="33.051" width="0.735" height="0.735"/>
	<rect x="28.529" y="32.316" width="0.735" height="0.735"/>
	<rect x="26.324" y="33.051" width="0.735" height="0.735"/>
	<rect x="27.059" y="33.786" width="0.735" height="1.471"/>
	<rect x="27.794" y="33.051" width="0.735" height="0.735"/>
	<rect x="25.588" y="33.786" width="0.735" height="0.735"/>
	<rect x="27.794" y="29.375" width="0.735" height="0.735"/>
	<rect x="30" y="27.169" width="0.735" height="0.735"/>
	<rect x="26.324" y="28.639" width="0.735" height="1.471"/>
	<rect x="25.588" y="30.11" width="0.735" height="0.735"/>
	<rect x="24.853" y="30.845" width="0.735" height="0.735"/>
	<rect x="27.059" y="30.11" width="0.735" height="0.735"/>
	<rect x="29.265" y="26.433" width="0.735" height="0.735"/>
	<rect x="28.529" y="27.169" width="0.735" height="0.735"/>
	<rect x="28.529" y="28.639" width="0.735" height="0.735"/>
	<rect x="27.794" y="27.904" width="0.735" height="0.735"/>
	<rect x="30" y="28.639" width="0.735" height="0.735"/>
	<rect x="30.735" y="30.11" width="0.735" height="0.735"/>
	<rect x="33.676" y="27.169" width="0.735" height="0.735"/>
	<rect x="32.941" y="27.904" width="0.735" height="0.735"/>
	<rect x="25.588" y="32.316" width="0.735" height="0.735"/>
	<rect x="32.206" y="28.639" width="0.735" height="0.735"/>
	<rect x="31.471" y="29.375" width="0.735" height="0.735"/>
	<rect x="25.588" y="27.169" width="0.735" height="1.471"/>
	<rect x="30" y="25.698" width="0.735" height="0.735"/>
	<rect x="33.676" y="22.757" width="0.735" height="1.471"/>
	<rect x="31.471" y="24.228" width="0.735" height="1.471"/>
	<rect x="34.412" y="24.228" width="0.735" height="1.471"/>
	<rect x="29.265" y="31.581" width="0.735" height="0.735"/>
	<rect x="26.324" y="35.257" width="0.735" height="0.735"/>
	<rect x="25.588" y="35.992" width="0.735" height="0.735"/>
	<rect x="27.059" y="32.316" width="0.735" height="0.735"/>
	<rect x="32.941" y="26.433" width="0.735" height="0.735"/>
	<rect x="26.324" y="30.845" width="0.735" height="1.471"/>
	<rect x="33.676" y="25.698" width="0.735" height="0.735"/>
	<rect x="32.941" y="24.963" width="0.735" height="0.735"/>
	<rect x="32.206" y="25.698" width="0.735" height="0.735"/>
	<rect x="31.471" y="26.433" width="0.735" height="1.471"/>
	<rect x="38.088" y="88.198" width="0.735" height="1.471"/>
	<rect x="32.941" y="84.522" width="0.735" height="0.735"/>
	<rect x="31.471" y="91.139" width="0.735" height="0.735"/>
	<rect x="30" y="83.051" width="0.735" height="0.735"/>
	<rect x="31.471" y="84.522" width="0.735" height="0.735"/>
	<rect x="32.206" y="85.257" width="0.735" height="0.735"/>
	<rect x="30.735" y="83.786" width="0.735" height="0.735"/>
	<rect x="27.059" y="80.11" width="0.735" height="0.735"/>
	<rect x="29.265" y="82.316" width="0.735" height="0.735"/>
	<rect x="26.324" y="79.375" width="0.735" height="0.735"/>
	<rect x="27.794" y="80.845" width="0.735" height="0.735"/>
	<rect x="28.529" y="81.581" width="0.735" height="0.735"/>
	<rect x="35.882" y="86.728" width="0.735" height="1.471"/>
	<rect x="37.353" y="87.463" width="0.735" height="0.735"/>
	<rect x="16.029" y="51.433" width="0.735" height="8.088"/>
	<rect x="36.618" y="88.198" width="0.735" height="0.735"/>
	<rect x="18.971" y="40.404" width="0.735" height="1.471"/>
	<rect x="35.882" y="19.816" width="0.735" height="0.735"/>
	<rect x="34.412" y="86.728" width="0.735" height="0.735"/>
	<rect x="33.676" y="85.257" width="0.735" height="1.471"/>
	<rect x="35.147" y="85.992" width="0.735" height="0.735"/>
	<rect x="24.853" y="28.639" width="0.735" height="0.735"/>
	<rect x="25.588" y="78.639" width="0.735" height="0.735"/>
	<rect x="15.294" y="47.022" width="0.735" height="4.412"/>
	<rect x="17.5" y="52.169" width="0.735" height="8.088"/>
	<rect x="19.706" y="42.61" width="0.735" height="2.206"/>
	<rect x="18.235" y="47.757" width="0.735" height="4.412"/>
	<rect x="18.971" y="44.816" width="0.735" height="2.941"/>
	<rect x="21.176" y="38.933" width="0.735" height="1.471"/>
	<rect x="20.441" y="40.404" width="0.735" height="2.206"/>
	<rect x="21.912" y="37.463" width="0.735" height="1.471"/>
	<rect x="24.118" y="33.786" width="0.735" height="1.471"/>
	<rect x="23.382" y="35.257" width="0.735" height="1.471"/>
	<rect x="18.235" y="41.875" width="0.735" height="1.471"/>
	<rect x="23.382" y="74.963" width="0.735" height="1.471"/>
	<rect x="26.324" y="77.904" width="0.735" height="0.735"/>
	<rect x="22.647" y="74.228" width="0.735" height="0.735"/>
	<rect x="21.912" y="72.757" width="0.735" height="1.471"/>
	<rect x="24.853" y="77.169" width="0.735" height="1.471"/>
	<rect x="24.118" y="76.433" width="0.735" height="0.735"/>
	<rect x="18.235" y="60.257" width="0.735" height="4.412"/>
	<rect x="19.706" y="66.875" width="0.735" height="2.206"/>
	<rect x="21.176" y="71.286" width="0.735" height="1.471"/>
	<rect x="18.971" y="64.669" width="0.735" height="2.206"/>
	<rect x="20.441" y="69.081" width="0.735" height="2.206"/>
	<rect x="32.206" y="83.786" width="0.735" height="0.735"/>
	<rect x="13.088" y="46.286" width="0.735" height="4.412"/>
	<rect x="13.088" y="61.728" width="0.735" height="3.676"/>
	<rect x="12.353" y="50.698" width="0.735" height="11.029"/>
	<rect x="13.824" y="43.345" width="0.735" height="2.941"/>
	<rect x="14.559" y="41.139" width="0.735" height="2.206"/>
	<rect x="15.294" y="39.669" width="0.735" height="1.471"/>
	<rect x="13.824" y="65.404" width="0.735" height="2.941"/>
	<rect x="16.765" y="74.228" width="0.735" height="1.471"/>
	<rect x="16.029" y="72.757" width="0.735" height="1.471"/>
	<rect x="15.294" y="70.551" width="0.735" height="2.206"/>
	<rect x="14.559" y="68.345" width="0.735" height="2.206"/>
	<rect x="17.5" y="75.698" width="0.735" height="1.471"/>
	<rect x="18.235" y="30.845" width="0.735" height="0.735"/>
	<rect x="17.5" y="31.581" width="0.735" height="1.471"/>
	<rect x="16.765" y="33.051" width="0.735" height="0.735"/>
	<rect x="28.529" y="19.816" width="0.735" height="0.735"/>
	<rect x="27.794" y="20.551" width="0.735" height="1.471"/>
	<rect x="18.235" y="33.786" width="0.735" height="0.735"/>
	<rect x="16.765" y="35.992" width="0.735" height="1.471"/>
	<rect x="17.5" y="34.522" width="0.735" height="1.471"/>
	<rect x="16.029" y="37.463" width="0.735" height="2.206"/>
	<rect x="18.971" y="32.316" width="0.735" height="1.471"/>
	<rect x="29.265" y="88.198" width="0.735" height="0.735"/>
	<rect x="27.794" y="88.198" width="0.735" height="0.735"/>
	<rect x="27.059" y="86.728" width="0.735" height="1.471"/>
	<rect x="25.588" y="86.728" width="0.735" height="0.735"/>
	<rect x="26.324" y="85.992" width="0.735" height="0.735"/>
	<rect x="24.853" y="85.992" width="0.735" height="0.735"/>
	<rect x="28.529" y="88.933" width="0.735" height="0.735"/>
	<rect x="30.735" y="89.669" width="0.735" height="1.471"/>
	<rect x="18.235" y="77.169" width="0.735" height="0.735"/>
	<rect x="30" y="88.933" width="0.735" height="0.735"/>
	<rect x="30.735" y="18.345" width="0.735" height="1.471"/>
	<rect x="29.265" y="89.669" width="0.735" height="0.735"/>
	<rect x="20.441" y="80.11" width="0.735" height="1.471"/>
	<rect x="21.176" y="81.581" width="0.735" height="0.735"/>
	<rect x="18.971" y="77.904" width="0.735" height="1.471"/>
	<rect x="25.588" y="85.257" width="0.735" height="0.735"/>
	<rect x="21.912" y="82.316" width="0.735" height="0.735"/>
	<rect x="19.706" y="79.375" width="0.735" height="0.735"/>
	<rect x="22.647" y="83.051" width="0.735" height="0.735"/>
	<rect x="24.853" y="84.522" width="0.735" height="0.735"/>
	<rect x="24.118" y="85.257" width="0.735" height="0.735"/>
	<rect x="23.382" y="83.786" width="0.735" height="1.471"/>
	<rect x="21.912" y="26.433" width="0.735" height="0.735"/>
	<rect x="24.118" y="25.698" width="0.735" height="0.735"/>
	<rect x="24.853" y="24.963" width="0.735" height="0.735"/>
	<rect x="27.059" y="24.228" width="0.735" height="0.735"/>
	<rect x="25.588" y="24.228" width="0.735" height="0.735"/>
	<rect x="23.382" y="24.228" width="0.735" height="1.471"/>
	<rect x="27.794" y="23.492" width="0.735" height="0.735"/>
	<rect x="24.853" y="23.492" width="0.735" height="0.735"/>
	<rect x="27.059" y="22.757" width="0.735" height="0.735"/>
	<rect x="24.118" y="29.375" width="0.735" height="0.735"/>
	<rect x="25.588" y="22.757" width="0.735" height="0.735"/>
	<rect x="26.324" y="22.022" width="0.735" height="0.735"/>
	<rect x="22.647" y="25.698" width="0.735" height="0.735"/>
	<rect x="21.912" y="30.11" width="0.735" height="0.735"/>
	<rect x="21.176" y="30.845" width="0.735" height="0.735"/>
	<rect x="20.441" y="30.11" width="0.735" height="0.735"/>
	<rect x="23.382" y="30.11" width="0.735" height="0.735"/>
	<rect x="22.647" y="30.845" width="0.735" height="0.735"/>
	<rect x="21.176" y="27.169" width="0.735" height="0.735"/>
	<rect x="20.441" y="27.904" width="0.735" height="0.735"/>
	<rect x="31.471" y="19.816" width="0.735" height="1.471"/>
	<rect x="19.706" y="28.639" width="0.735" height="1.471"/>
	<rect x="18.971" y="30.11" width="0.735" height="0.735"/>
	<rect x="19.706" y="30.845" width="0.735" height="1.471"/>
	<rect x="29.265" y="21.286" width="0.735" height="0.735"/>
	<rect x="30" y="20.551" width="0.735" height="0.735"/>
	<rect x="21.176" y="29.375" width="0.735" height="0.735"/>
	<rect x="30.735" y="21.286" width="0.735" height="0.735"/>
	<rect x="28.529" y="22.022" width="0.735" height="1.471"/>
	<rect x="30" y="23.492" width="0.735" height="0.735"/>
	<rect x="22.647" y="29.375" width="0.735" height="0.735"/>
	<rect x="30" y="22.022" width="0.735" height="0.735"/>
	<rect x="29.265" y="24.228" width="0.735" height="0.735"/>
	<rect x="30.735" y="22.757" width="0.735" height="0.735"/>
	<rect x="24.118" y="27.169" width="0.735" height="0.735"/>
	<rect x="26.324" y="24.963" width="0.735" height="0.735"/>
	<rect x="23.382" y="27.904" width="0.735" height="0.735"/>
	<rect x="24.853" y="26.433" width="0.735" height="0.735"/>
	<rect x="26.324" y="26.433" width="0.735" height="0.735"/>
	<rect x="27.059" y="25.698" width="0.735" height="0.735"/>
	<rect x="22.647" y="27.169" width="0.735" height="0.735"/>
	<rect x="25.588" y="25.698" width="0.735" height="0.735"/>
	<rect x="21.912" y="27.904" width="0.735" height="1.471"/>
	<rect x="26.324" y="23.492" width="0.735" height="0.735"/>
	<rect x="23.382" y="26.433" width="0.735" height="0.735"/>
</g>
</svg>
