<?xml version="1.0" encoding="iso-8859-1"?>
<!-- Generator: Adobe Illustrator 28.3.0, SVG Export Plug-In . SVG Version: 6.00 Build 0)  -->
<svg version="1.1" id="Layer_1" xmlns="http://www.w3.org/2000/svg" xmlns:xlink="http://www.w3.org/1999/xlink" x="0px" y="0px"
	 width="110px" height="110px" viewBox="0 0 110 110" enable-background="new 0 0 110 110" xml:space="preserve">
<polygon fill="none" stroke="#000000" stroke-width="0.4865" stroke-miterlimit="10" points="97.65,53.153 97.65,51 90.541,51 
	90.541,49.923 76.325,49.923 76.325,48.846 62.108,48.846 62.108,47.77 47.892,47.77 47.892,48.846 33.676,48.846 33.676,49.923 
	19.459,49.923 19.459,52.077 12.352,52.077 12.352,54.23 5.243,54.23 5.243,58.537 12.352,58.537 12.352,59.614 19.459,59.614 
	19.459,61.767 33.676,61.767 33.676,62.844 47.892,62.844 47.892,63.921 69.217,63.921 69.217,62.844 76.325,62.844 76.325,61.767 
	90.541,61.767 90.541,60.691 97.65,60.691 97.65,58.537 104.757,58.537 104.757,53.153 "/>
</svg>
