<?xml version="1.0" encoding="iso-8859-1"?>
<!-- Generator: Adobe Illustrator 28.3.0, SVG Export Plug-In . SVG Version: 6.00 Build 0)  -->
<svg version="1.1" id="Layer_1" xmlns="http://www.w3.org/2000/svg" xmlns:xlink="http://www.w3.org/1999/xlink" x="0px" y="0px"
	 width="110px" height="110px" viewBox="0 0 110 110" enable-background="new 0 0 110 110" xml:space="preserve">
<g>
	<rect x="6.124" y="73.261" width="1.124" height="1.124"/>
	<rect x="63.427" y="65.396" width="1.124" height="1.124"/>
	<rect x="5" y="55.283" width="1.124" height="6.742"/>
	<rect x="101.629" y="42.924" width="1.124" height="1.124"/>
	<rect x="99.382" y="46.295" width="2.247" height="1.124"/>
	<rect x="5" y="50.789" width="1.124" height="1.124"/>
	<rect x="10.618" y="69.89" width="1.124" height="3.371"/>
	<rect x="26.348" y="73.261" width="1.124" height="1.124"/>
	<rect x="49.944" y="69.89" width="1.124" height="1.124"/>
	<rect x="7.247" y="51.913" width="1.124" height="1.124"/>
	<rect x="13.989" y="75.508" width="2.247" height="1.124"/>
	<rect x="46.573" y="65.396" width="1.124" height="2.247"/>
	<rect x="26.348" y="69.89" width="19.101" height="1.124"/>
	<rect x="29.719" y="74.385" width="1.124" height="2.247"/>
	<rect x="43.202" y="75.508" width="1.124" height="1.124"/>
	<rect x="22.978" y="46.295" width="15.73" height="1.124"/>
	<rect x="56.685" y="46.295" width="3.371" height="1.124"/>
	<rect x="61.18" y="46.295" width="3.371" height="1.124"/>
	<rect x="56.685" y="42.924" width="1.124" height="1.124"/>
	<polygon points="37.584,51.913 37.584,53.036 43.202,53.036 43.202,51.913 40.955,51.913 40.955,49.665 39.831,49.665 
		39.831,51.913 	"/>
	<rect x="47.697" y="63.149" width="17.978" height="1.124"/>
	<rect x="51.067" y="42.924" width="1.124" height="1.124"/>
	<rect x="40.955" y="47.418" width="1.124" height="2.247"/>
	<rect x="19.607" y="46.295" width="2.247" height="1.124"/>
	<rect x="97.135" y="46.295" width="1.124" height="1.124"/>
	<rect x="93.764" y="39.553" width="1.124" height="1.124"/>
	<rect x="20.73" y="40.677" width="1.124" height="1.124"/>
	<rect x="97.135" y="42.924" width="1.124" height="2.247"/>
	<rect x="94.888" y="35.059" width="1.124" height="1.124"/>
	<rect x="22.978" y="40.677" width="1.124" height="1.124"/>
	<path d="M96.011,59.778h1.124v-1.124h1.124v-1.124h1.124v-1.124h-1.124v-5.618h1.124v5.618h2.247v-5.618h-1.124v-2.247h-3.371
		v1.124h-1.124v-1.124h-1.124v-5.618h-3.371v1.124h-1.124v1.124H89.27v-1.124h1.124v-1.124H76.91v-2.247h15.73v-1.124H78.034v-1.124
		h-2.247v1.124h-1.124V41.8h1.124v1.124h-1.124v1.124h-1.124v-1.124h-1.124v1.124h-1.124v1.124h1.124v1.124h-1.124v3.371h1.124
		v1.124h-2.247v-1.124h-1.124v-1.124h-3.371v1.124h-1.124v-1.124h-7.865v1.124h-1.124v1.124h-1.124v1.124h-1.124v1.124h-1.124v2.247
		h2.247v1.124h-2.247v1.124h-2.247v-1.124h2.247v-1.124h-8.989v1.124h-1.124v-1.124H33.09V54.16h1.124v-1.124h1.124v-1.124h1.124
		v-1.124h1.124v-1.124h1.124v-1.124h-15.73v1.124h-1.124v-1.124h-2.247v1.124h-1.124v1.124H17.36v-1.124h1.124v-1.124h-3.371v3.371
		h1.124v1.124h-1.124v4.494h1.124v1.124h1.124v1.124h-1.124v1.124h1.124v1.124h1.124v2.247h-2.247v-3.371h-1.124v1.124h-1.124
		v-2.247h-1.124v-1.124h1.124v1.124h2.247v-1.124h-1.124v-1.124h-2.247v-1.124h1.124v-1.124H8.371V54.16H7.247v6.742h1.124v2.247
		h1.124v1.124h1.124v1.124h1.124v1.124h1.124v1.124h1.124v6.742h6.742v-1.124h1.124v-2.247H20.73V69.89h1.124v-1.124h1.124v-1.124
		h1.124v-1.124h1.124v-1.124h1.124v-1.124h1.124v1.124h-1.124v1.124h-1.124v1.124h-1.124v1.124h-1.124v1.124h-1.124v1.124h1.124
		v1.124h1.124v1.124h1.124v-2.247h-1.124V69.89h1.124v-1.124h1.124v-1.124h17.978v1.124h1.124v-6.742h-1.124v-1.124h-1.124v5.618
		h-1.124v-5.618h1.124v-2.247h1.124v2.247h2.247v1.124h7.865v-1.124h1.124v1.124h12.36v-1.124h1.124v1.124h1.124v5.618h6.742v-1.124
		h1.124v-1.124h1.124v-2.247h-1.124v-1.124H76.91v-1.124h-1.124v-1.124h1.124v1.124h1.124v1.124h1.124v1.124h1.124v1.124h1.124
		v-3.371h1.124v1.124h5.618v-1.124h1.124v1.124h3.371v-1.124h1.124v1.124h2.247V59.778z M30.843,49.665h1.124v1.124h-1.124V49.665z
		 M29.719,55.283h1.124v-2.247h1.124v-1.124h1.124v-1.124h1.124v1.124H33.09v1.124h-1.124v2.247h-1.124v1.124h-1.124V55.283z
		 M26.348,50.789h1.124v1.124h-1.124V50.789z M25.225,53.036h1.124v1.124h-1.124V53.036z M20.73,50.789h1.124v1.124H20.73V50.789z
		 M17.36,57.531v-1.124h-1.124v-1.124h1.124V54.16h1.124v1.124H17.36v1.124h1.124v1.124H17.36z M17.36,66.519v5.618h-1.124v-5.618
		h-1.124v-1.124h-1.124v-1.124h-1.124v-1.124h-1.124v-1.124h-1.124v-1.124h1.124v1.124h1.124v1.124h1.124v1.124h1.124v1.124h1.124
		v1.124H17.36v-1.124h1.124v1.124H17.36z M19.607,73.261h-1.124v-1.124h1.124V73.261z M20.73,68.767h-1.124v-3.371h1.124V68.767z
		 M20.73,60.901h-1.124v-1.124h1.124V60.901z M20.73,55.283v1.124h-1.124v-1.124H20.73V54.16h1.124v1.124H20.73z M22.978,59.778
		h-1.124v-1.124h1.124V59.778z M22.978,57.531h-1.124v-1.124h1.124V57.531z M22.978,53.036v-1.124h1.124v1.124H22.978z
		 M26.348,62.025h-1.124v-1.124h-1.124v-1.124h1.124v1.124h1.124V62.025z M28.596,57.531h-1.124v1.124h-1.124v-1.124h1.124v-1.124
		h1.124V57.531z M29.719,59.778v-1.124h1.124v-1.124h1.124v1.124h-1.124v1.124H29.719z M31.966,60.901v1.124h-1.124v-1.124H31.966z
		 M33.09,64.272h-1.124v1.124h-1.124v-1.124h1.124v-1.124h1.124V64.272z M34.213,57.531h1.124v1.124h-1.124V57.531z M34.213,60.901
		v-1.124h1.124v1.124H34.213z M37.584,64.272h-1.124v-1.124h-1.124v-1.124h1.124v1.124h1.124V64.272z M37.584,59.778h-1.124v-1.124
		h1.124V59.778z M40.955,64.272h-1.124v-1.124h1.124V64.272z M40.955,60.901h-1.124v-1.124h1.124V60.901z M51.067,59.778h-1.124
		v-1.124h1.124V59.778z M55.562,54.16v-1.124h1.124v1.124H55.562z M57.809,57.531h-1.124v-1.124h1.124V57.531z M57.809,51.913
		v-1.124h1.124v1.124H57.809z M60.056,58.654h-1.124v-1.124h1.124V58.654z M60.056,56.407h-1.124v-1.124h1.124V56.407z
		 M62.303,59.778H61.18v-1.124h1.124V59.778z M62.303,54.16v1.124H61.18V54.16H62.303v-1.124h1.124v1.124H62.303z M64.551,58.654
		h-1.124v-1.124h1.124V58.654z M76.91,44.047h1.124v2.247H76.91V44.047z M73.539,50.789h1.124v1.124h-1.124V50.789z M70.169,51.913
		h1.124v2.247h-1.124V51.913z M67.921,54.16v1.124h-1.124V54.16H67.921v-1.124h-1.124v-1.124h1.124v-1.124h1.124v1.124h-1.124v1.124
		h1.124v1.124H67.921z M71.292,58.654v-1.124h-1.124v1.124h-1.124v-1.124h1.124v-1.124h-1.124v-1.124h1.124v1.124h1.124v1.124h1.124
		v1.124H71.292z M74.663,59.778h-1.124v5.618h-1.124v-5.618h1.124v-1.124h1.124V59.778z M74.663,57.531h-1.124v-1.124h-1.124v-1.124
		h1.124v1.124h1.124V57.531z M76.91,63.149v2.247h-1.124v-2.247H76.91z M76.91,55.283h-2.247V54.16h2.247V55.283z M76.91,50.789
		v-1.124h1.124v1.124H76.91z M79.157,56.407h-1.124v-1.124h1.124V56.407z M80.281,46.295h1.124v1.124h-1.124V46.295z M80.281,53.036
		h1.124v1.124h-1.124V53.036z M83.652,59.778h-2.247v-1.124h-1.124v-1.124h1.124v1.124h2.247V59.778z M96.011,53.036v1.124h-1.124
		v-1.124H96.011z M89.27,48.542h1.124v1.124H89.27V48.542z M87.022,46.295h1.124v1.124h-1.124V46.295z M87.022,49.665h1.124v1.124
		h-1.124V49.665z M85.899,60.901h-1.124v-1.124h1.124V60.901z M85.899,54.16h-1.124v-1.124h1.124V54.16z M85.899,47.418h-1.124
		v-1.124h1.124V47.418z M89.27,58.654h-1.124v1.124h-1.124v-1.124h1.124v-1.124h1.124V58.654z M89.27,56.407h-1.124v-1.124h1.124
		V56.407z M91.517,57.531h-1.124v-1.124h1.124V57.531z M92.64,55.283h-1.124V54.16h-1.124v-2.247H89.27v-1.124h1.124v1.124h1.124
		v2.247h1.124V55.283z M92.64,49.665v-3.371h-1.124v-1.124h1.124v-1.124h1.124v1.124H92.64v1.124h1.124v3.371H92.64z M93.764,51.913
		v-1.124h1.124v1.124H93.764z M94.888,58.654v-1.124h1.124v-1.124h1.124v1.124h-1.124v1.124H94.888z"/>
	<rect x="97.135" y="60.901" width="1.124" height="1.124"/>
	<rect x="53.315" y="49.665" width="1.124" height="1.124"/>
	<rect x="100.506" y="57.531" width="1.124" height="1.124"/>
	<rect x="98.258" y="59.778" width="1.124" height="1.124"/>
	<rect x="9.494" y="51.913" width="5.618" height="1.124"/>
	<rect x="52.191" y="50.789" width="1.124" height="1.124"/>
	<rect x="44.326" y="51.913" width="7.865" height="1.124"/>
	<rect x="96.011" y="62.025" width="1.124" height="1.124"/>
	<rect x="103.876" y="56.407" width="1.124" height="1.124"/>
	<rect x="102.753" y="54.16" width="1.124" height="2.247"/>
	<rect x="103.876" y="50.789" width="1.124" height="1.124"/>
	<rect x="101.629" y="59.778" width="1.124" height="1.124"/>
	<rect x="99.382" y="58.654" width="1.124" height="1.124"/>
	<rect x="100.506" y="65.396" width="1.124" height="1.124"/>
	<rect x="101.629" y="62.025" width="1.124" height="1.124"/>
	<rect x="17.36" y="75.508" width="3.371" height="1.124"/>
	<rect x="79.157" y="66.519" width="1.124" height="1.124"/>
	<rect x="90.393" y="65.396" width="1.124" height="1.124"/>
	<rect x="82.528" y="63.149" width="12.36" height="1.124"/>
	<rect x="92.64" y="65.396" width="1.124" height="1.124"/>
	<rect x="74.663" y="72.137" width="1.124" height="1.124"/>
	<rect x="70.169" y="69.89" width="5.618" height="1.124"/>
	<rect x="75.787" y="68.767" width="2.247" height="1.124"/>
	<rect x="66.798" y="46.295" width="3.371" height="1.124"/>
	<rect x="80.281" y="65.396" width="1.124" height="1.124"/>
	<rect x="54.438" y="48.542" width="1.124" height="1.124"/>
	<rect x="70.169" y="45.171" width="1.124" height="1.124"/>
	<rect x="20.73" y="74.385" width="2.247" height="1.124"/>
	<rect x="81.404" y="64.272" width="1.124" height="1.124"/>
	<rect x="66.798" y="63.149" width="1.124" height="4.494"/>
</g>
</svg>
